<svg width="75" height="64" viewBox="0 0 75 64" fill="none" xmlns="http://www.w3.org/2000/svg">
<g clip-path="url(#clip0_2497_1578)">
<path opacity="0.5" d="M72.3397 35.0719L51.7836 23.1025C50.6668 22.4532 48.7148 22.5309 47.4251 23.2875L4.28359 48.2623C2.99573 49.0022 2.85038 50.1418 3.96714 50.793L24.5232 62.7624C25.6382 63.4117 27.5902 63.334 28.8817 62.5774L72.0232 37.6027C73.3148 36.8553 73.4564 35.7231 72.3397 35.0719Z" fill="#173D7A"/>
<path d="M23.9234 58.3094L2.53208 45.8535C1.82928 45.4447 1.50179 44.8915 1.52387 44.3181V41.1971L2.71238 42.5976C2.78966 42.5476 2.86693 42.4958 2.95156 42.4477L46.7204 17.1234C48.4572 16.1188 51.0844 16.0134 52.5857 16.8884L73.679 29.1686C74.1059 28.6987 75 27.7071 75 27.7071L74.9908 30.7596C75.0239 31.4478 74.5364 32.1822 73.5558 32.7483L29.7906 58.0745C28.0538 59.079 25.4266 59.1845 23.9234 58.3094Z" fill="#396CAA"/>
<path d="M12.3566 50.669L13.5893 51.3831C13.753 51.4793 13.8855 51.3831 13.8855 51.1574C13.8839 51.046 13.8562 50.9366 13.8048 50.8379C13.7533 50.7393 13.6795 50.6542 13.5893 50.5895L12.3566 49.8736C12.1929 49.7792 12.0604 49.8736 12.0604 50.0992C12.0623 50.2108 12.0901 50.3204 12.1415 50.4194C12.193 50.5183 12.2666 50.6038 12.3566 50.669V50.669Z" fill="#173D7A"/>
<path d="M46.7204 17.1234C48.4572 16.1188 51.0844 16.0134 52.5857 16.8884L73.679 29.1686C74.1058 28.6987 75 27.7071 75 27.7071L74.9908 30.7596C75.0239 31.4478 74.5363 32.1822 73.5557 32.7483L29.7905 58.0745C28.8199 58.6035 27.7356 58.8867 26.6316 58.8996L26.6831 28.7246L46.7204 17.1234Z" fill="#5793CE"/>
<path d="M73.9881 26.2068L52.5949 13.749C51.0936 12.874 48.4664 12.9794 46.7296 13.9858L2.96626 39.3102C1.22949 40.3166 1.03815 41.841 2.54127 42.716L23.9326 55.1719C25.4358 56.0469 28.0612 55.9415 29.7998 54.9351L73.5613 29.6107C75.2999 28.6062 75.4894 27.0818 73.9881 26.2068Z" fill="#D4ECFF"/>
<path d="M23.9234 55.4994L2.52464 43.049C1.75008 42.5976 1.42075 41.9723 1.53482 41.3359C1.57162 41.8539 1.90278 42.3442 2.54119 42.716L23.9326 55.1719C25.4357 56.047 28.0611 55.9415 29.7997 54.9351L73.5612 29.6108C74.4038 29.1242 74.8785 28.5156 74.9778 27.918C75.0294 28.6173 74.5455 29.3666 73.5465 29.953L29.7831 55.2681C28.0464 56.2745 25.4191 56.3799 23.9234 55.4994Z" fill="white"/>
<path d="M72.3397 26.6971L51.7836 14.7277C50.6668 14.0765 48.7148 14.156 47.4251 14.9127L4.28359 39.8874C2.99573 40.6274 2.85038 41.767 3.96714 42.4182L24.5232 54.3875C25.6382 55.0369 27.5902 54.9592 28.8817 54.2118L72.0232 29.2297C73.3148 28.4897 73.4564 27.3482 72.3397 26.6971Z" fill="#173D7A"/>
<path d="M29.7004 48.1513L15.1954 39.7302L16.1209 39.1937L30.6258 47.6148L29.7004 48.1513Z" fill="#D4ECFF"/>
<path d="M19.6073 45.6963L12.2628 41.4321L13.1901 40.8956L20.5346 45.1598L19.6073 45.6963Z" fill="#D4ECFF"/>
<path d="M23.1728 47.7665L20.7903 46.3827L21.7157 45.8462L24.0982 47.2281L23.1728 47.7665Z" fill="#3D8BFD"/>
<path d="M26.7696 49.8532L24.3871 48.4713L25.3125 47.9329L27.695 49.3167L26.7696 49.8532Z" fill="white"/>
<path d="M19.6901 44.0424L13.7291 40.5811L14.6545 40.0446L20.6155 43.5041L19.6901 44.0424Z" fill="white"/>
<path d="M26.9664 48.2659L21.0055 44.8065L21.9309 44.2681L27.8919 47.7294L26.9664 48.2659Z" fill="#D4ECFF"/>
<path d="M22.5528 40.8697C22.3853 40.9546 22.2003 40.9988 22.0128 40.9988C21.8252 40.9988 21.6403 40.9546 21.4728 40.8697C21.1748 40.6958 21.1748 40.4146 21.4728 40.2426C21.64 40.1568 21.8251 40.1121 22.0128 40.1121C22.2005 40.1121 22.3855 40.1568 22.5528 40.2426C22.8508 40.4146 22.8508 40.6995 22.5528 40.8697Z" fill="#3D8BFD"/>
<path d="M24.1681 41.8095C24.0006 41.8953 23.8152 41.94 23.6272 41.94C23.4392 41.94 23.2539 41.8953 23.0863 41.8095C22.7883 41.6375 22.7883 41.3563 23.0863 41.1824C23.2541 41.0975 23.4394 41.0532 23.6272 41.0532C23.8151 41.0532 24.0003 41.0975 24.1681 41.1824C24.4754 41.3526 24.4754 41.6338 24.1681 41.8095Z" fill="white"/>
<path d="M25.7817 42.7438C25.6142 42.8287 25.4292 42.8729 25.2417 42.8729C25.0541 42.8729 24.8692 42.8287 24.7017 42.7438C24.4036 42.5699 24.4036 42.2887 24.7017 42.1166C24.8689 42.0309 25.054 41.9861 25.2417 41.9861C25.4294 41.9861 25.6144 42.0309 25.7817 42.1166C26.0797 42.2887 26.0797 42.5699 25.7817 42.7438Z" fill="#D4ECFF"/>
<path d="M27.3952 43.6798C27.228 43.7656 27.0429 43.8103 26.8552 43.8103C26.6675 43.8103 26.4824 43.7656 26.3152 43.6798C26.0172 43.5078 26.0172 43.2266 26.3152 43.0527C26.4827 42.9678 26.6676 42.9236 26.8552 42.9236C27.0427 42.9236 27.2277 42.9678 27.3952 43.0527C27.6932 43.2266 27.6932 43.5078 27.3952 43.6798Z" fill="#3D8BFD"/>
<path d="M29.0086 44.6178C28.8411 44.7027 28.6562 44.7469 28.4686 44.7469C28.281 44.7469 28.0961 44.7027 27.9286 44.6178C27.6306 44.4439 27.6306 44.1627 27.9286 43.9906C28.0958 43.9049 28.2809 43.8602 28.4686 43.8602C28.6563 43.8602 28.8414 43.9049 29.0086 43.9906C29.3066 44.1627 29.3066 44.4439 29.0086 44.6178Z" fill="white"/>
<path d="M61.4517 26.7895L59.0084 25.3725L59.9578 24.8212L62.401 26.2383L61.4517 26.7895Z" fill="#3D8BFD"/>
<path d="M64.8517 28.7635L62.4103 27.3464L63.3596 26.7951L65.801 28.2122L64.8517 28.7635Z" fill="white"/>
<path d="M50.5416 20.396L48.1002 18.9789L49.0496 18.4276L51.491 19.8465L50.5416 20.396Z" fill="white"/>
<path d="M60.907 28.2177L57.5052 26.2438L58.4546 25.6925L61.8564 27.6683L60.907 28.2177Z" fill="white"/>
<path d="M63.3485 29.6366L61.8564 28.769L62.8058 28.2195L64.2979 29.0853L63.3485 29.6366Z" fill="#D4ECFF"/>
<path opacity="0.5" d="M43.8264 61.7282L52.3392 56.7944C53.0107 56.404 54.1017 56.3818 54.9848 56.6982L57.3269 55.3144C55.1283 53.6679 54.9351 51.4128 56.7289 49.6553C57.1485 50.2227 57.6851 50.6923 58.302 51.0317C61.1205 52.6689 65.6906 52.6689 68.511 51.0317C69.6149 50.3934 70.2736 49.5979 70.5164 48.771C73.7305 50.7468 73.6735 53.8621 70.3416 55.8009C67.0502 57.7119 61.7792 57.7637 58.37 55.9656L56.0077 57.3493C56.407 57.834 56.3187 58.389 55.7079 58.7442L47.1951 63.6855C46.3893 64.1536 44.9873 64.0944 44.0527 63.5542C43.1181 63.014 43.0206 62.1963 43.8264 61.7282Z" fill="#173D7A"/>
<path opacity="0.5" d="M68.511 46.1995C65.6906 44.5622 61.1206 44.5622 58.302 46.1995C57.1337 46.8784 56.4511 47.7313 56.2506 48.6045C56.4346 49.3833 56.9865 50.1399 57.9064 50.7726C58.1541 50.57 58.4174 50.3875 58.6939 50.2269C61.5124 48.5915 66.0825 48.5915 68.9029 50.2269C69.0409 50.3064 69.1715 50.3897 69.2966 50.4766C69.9884 49.9087 70.4005 49.2649 70.5569 48.6026C70.3619 47.7294 69.6793 46.8784 68.511 46.1995Z" fill="#D4ECFF"/>
<path d="M56.0795 49.9217L57.1833 48.4768L60.5263 46.9136L63.4074 46.6564L66.7816 47.0727L69.12 48.2844L70.6157 49.2427L70.8843 47.6795L70.3802 45.8795C70.3802 45.8795 69.1016 45.0285 69.0225 44.9545C68.9434 44.8805 66.0328 43.8278 66.0328 43.8278L63.1222 43.6299L60.7802 43.9259L58.4013 44.64L56.8264 45.75L55.6471 47.2521L55.5146 49.1317L56.0795 49.9217Z" fill="#0A58CA"/>
<path d="M71.6939 48.0662V51.1075L70.8844 49.7885L71.6939 48.0662Z" fill="#0A58CA"/>
<path d="M58.302 48.2252C61.1206 46.588 65.6906 46.588 68.5111 48.2252C69.3978 48.7395 70.005 49.3556 70.3325 50.0068C70.5808 49.7848 70.901 49.609 71.0334 49.3075C70.5549 48.6827 69.9529 48.1643 69.2654 47.7849C66.0292 45.9072 60.782 45.9072 57.5458 47.7849C56.9141 48.1378 56.3527 48.605 55.89 49.1632C56.0265 49.4836 56.2276 49.7722 56.4806 50.0105C56.8062 49.3556 57.4078 48.7395 58.302 48.2252Z" fill="#0A58CA"/>
<path opacity="0.5" d="M68.511 46.1995C65.6906 44.5622 61.1206 44.5622 58.302 46.1995C57.1337 46.8784 56.4511 47.7313 56.2506 48.6045C56.4511 49.4887 57.1337 50.3416 58.302 51.0205C61.1206 52.6578 65.6906 52.6578 68.511 51.0205C69.6793 50.3416 70.3619 49.4887 70.5606 48.6045C70.3619 47.7294 69.6793 46.8784 68.511 46.1995Z" fill="#D4ECFF"/>
<path d="M71.0333 49.3075C70.9734 49.4334 70.8882 49.5456 70.7831 49.6368V49.6053L70.0361 50.053L69.1162 50.9096L67.8449 51.4775L66.0861 52.1102L64.5259 52.4802L62.3752 52.5727L60.9862 52.4284L58.2265 51.7032L56.4308 50.1067L56.4731 50.0123C56.2201 49.774 56.019 49.4855 55.8826 49.165C55.8347 49.2267 55.7887 49.2884 55.7446 49.35L55.1154 48.0328V51.1907C55.1154 52.4228 55.9212 53.6549 57.5402 54.5947C60.7764 56.4743 66.0235 56.4743 69.2597 54.5947C71.7269 53.161 72.3101 51.0594 71.0333 49.3075Z" fill="#0A58CA"/>
<path d="M57.0822 50.6894L56.4346 50.1141L56.4769 50.0197C56.2239 49.7814 56.0228 49.4929 55.8863 49.1724C55.8385 49.2341 55.7925 49.2957 55.7484 49.3574L55.1191 48.0402V51.1981C55.1191 52.3081 55.7723 53.4181 57.0804 54.3079L57.0822 50.6894Z" fill="#3D8BFD"/>
<path d="M69.2653 44.664C66.0291 42.7863 60.782 42.7863 57.5458 44.664C54.3096 46.5418 54.3096 49.5887 57.5458 51.4683C60.782 53.3478 66.0291 53.3478 69.2653 51.4683C72.5016 49.5887 72.4942 46.5436 69.2653 44.664ZM68.511 51.0298C65.6906 52.667 61.1205 52.667 58.302 51.0298C55.4834 49.3926 55.4834 46.7397 58.302 45.1099C61.1205 43.48 65.6906 43.4745 68.511 45.1099C71.3314 46.7453 71.3296 49.3944 68.511 51.0298V51.0298Z" fill="#3D8BFD"/>
<path d="M52.1257 54.9166L56.7179 52.2286L57.3287 53.2239L52.7145 55.9248L52.1257 54.9166Z" fill="#D4ECFF"/>
<path d="M52.8322 55.6603C52.8322 55.9248 52.6482 56.0303 52.4201 55.8989C52.3 55.8204 52.2 55.7145 52.1284 55.5897C52.0568 55.465 52.0155 55.325 52.0079 55.1812C52.0079 54.9185 52.1919 54.8112 52.4201 54.9425C52.5395 55.0217 52.639 55.1278 52.7105 55.2524C52.7821 55.377 52.8237 55.5167 52.8322 55.6603V55.6603Z" fill="#983BE9"/>
<path d="M52.8322 55.6603C52.8322 55.9248 52.6482 56.0303 52.4201 55.8989C52.3 55.8204 52.2 55.7145 52.1284 55.5897C52.0568 55.465 52.0155 55.325 52.0079 55.1812C52.0079 54.9185 52.1919 54.8112 52.4201 54.9425C52.5395 55.0217 52.639 55.1278 52.7105 55.2524C52.7821 55.377 52.8237 55.5167 52.8322 55.6603V55.6603Z" fill="#983BE9"/>
<path d="M57.4262 52.9704C57.4262 53.235 57.2422 53.3404 57.0159 53.2109C56.8964 53.1318 56.7969 53.0256 56.7254 52.901C56.6538 52.7764 56.6122 52.6368 56.6038 52.4931C56.6038 52.2286 56.7877 52.1231 57.0159 52.2545C57.1348 52.3337 57.2337 52.4396 57.3049 52.5638C57.3761 52.6881 57.4176 52.8273 57.4262 52.9704V52.9704Z" fill="#D4ECFF"/>
<path d="M55.0915 55.8546C55.0915 54.7187 54.2986 53.3368 53.3198 52.7688C52.8194 52.4784 52.3668 52.458 52.0448 52.6597L42.3344 58.3335L44.8714 62.6773L54.4807 57.0515C54.5463 57.0237 54.6081 56.9877 54.6647 56.9442V56.9442C54.9333 56.7315 55.0915 56.3615 55.0915 55.8546Z" fill="#5793CE"/>
<path d="M43.0371 59.536L53.9122 53.2276C53.7372 53.0505 53.5406 52.8963 53.3271 52.7688C52.8267 52.4784 52.3741 52.458 52.0521 52.6597L42.3417 58.3335L43.0371 59.536Z" fill="#D4ECFF"/>
<path d="M44.8536 62.6898C45.5453 62.2882 45.545 60.9858 44.8531 59.7806C44.1611 58.5755 43.0395 57.924 42.3478 58.3256C41.6562 58.7271 41.6564 60.0296 42.3484 61.2347C43.0403 62.4398 44.162 63.0913 44.8536 62.6898Z" fill="#D4ECFF"/>
<path d="M43.9349 61.003C43.9349 61.2324 43.8673 61.4567 43.7405 61.6474C43.6138 61.8382 43.4336 61.9869 43.2228 62.0747C43.012 62.1624 42.7801 62.1854 42.5563 62.1407C42.3325 62.0959 42.127 61.9854 41.9657 61.8232C41.8043 61.661 41.6945 61.4543 41.65 61.2293C41.6055 61.0043 41.6283 60.7711 41.7156 60.5591C41.8029 60.3472 41.9508 60.166 42.1405 60.0386C42.3302 59.9111 42.5532 59.8431 42.7814 59.8431C42.9329 59.8428 43.083 59.8727 43.2231 59.9309C43.3632 59.9891 43.4904 60.0745 43.5976 60.1823C43.7048 60.29 43.7897 60.418 43.8476 60.5588C43.9055 60.6997 43.9352 60.8506 43.9349 61.003V61.003Z" fill="#5793CE"/>
<path d="M42.5698 60.5775C42.5698 60.6452 42.5498 60.7114 42.5124 60.7677C42.475 60.824 42.4218 60.8678 42.3597 60.8937C42.2975 60.9196 42.229 60.9264 42.163 60.9132C42.097 60.9 42.0363 60.8674 41.9887 60.8195C41.9411 60.7717 41.9087 60.7107 41.8956 60.6443C41.8824 60.5779 41.8892 60.5091 41.9149 60.4466C41.9407 60.384 41.9843 60.3306 42.0403 60.293C42.0963 60.2554 42.1621 60.2353 42.2294 60.2353C42.2741 60.2353 42.3184 60.2441 42.3597 60.2613C42.4009 60.2785 42.4385 60.3037 42.4701 60.3355C42.5017 60.3673 42.5268 60.405 42.5439 60.4466C42.561 60.4881 42.5698 60.5326 42.5698 60.5775V60.5775Z" fill="white"/>
<path d="M43.7326 58.3723C43.2101 58.0689 42.7409 58.0615 42.4171 58.2928C42.7299 58.1448 43.153 58.1836 43.6019 58.4482C44.5807 59.0161 45.3737 60.3981 45.3737 61.5339C45.3737 62.063 45.2007 62.4423 44.9192 62.6439C45.278 62.4756 45.5043 62.0649 45.5043 61.4599C45.5043 60.3222 44.7132 58.9403 43.7326 58.3723Z" fill="white"/>
<path d="M68.5111 45.1025C65.6906 43.4671 61.1206 43.4671 58.302 45.1025C56.8302 45.9553 56.1329 47.0838 56.1936 48.1993C56.2488 47.1726 56.9516 46.1551 58.302 45.3707C61.1206 43.7335 65.6906 43.7335 68.5111 45.3707C69.8615 46.1551 70.5624 47.1726 70.6195 48.1993C70.6802 47.0838 69.9792 45.9553 68.5111 45.1025Z" fill="white"/>
<path d="M69.2654 51.4682C66.0292 53.3478 60.782 53.3478 57.5458 51.4682C55.9857 50.5636 55.1798 49.387 55.1247 48.1993C55.0639 49.4758 55.8698 50.7616 57.5458 51.7346C60.782 53.6142 66.0292 53.6142 69.2654 51.7346C70.9433 50.7616 71.7491 49.4758 71.6884 48.1993C71.6313 49.3944 70.8255 50.5636 69.2654 51.4682Z" fill="white"/>
<g opacity="0.3">
<path d="M36.114 38.6442C35.3357 39.0974 35.3357 39.8319 36.114 40.2833L49.3403 47.9625C49.4603 48.0237 49.593 48.0555 49.7276 48.0555C49.8621 48.0555 49.9948 48.0237 50.1148 47.9625C50.1618 47.9469 50.2027 47.9167 50.2317 47.8764C50.2607 47.836 50.2762 47.7875 50.2762 47.7378C50.2762 47.688 50.2607 47.6395 50.2317 47.5991C50.2027 47.5588 50.1618 47.5287 50.1148 47.513L36.8885 39.8337C36.5371 39.6302 36.5371 39.2991 36.8885 39.0937L38.1764 38.3538C38.0329 38.1392 37.9041 37.9153 37.7771 37.6859L36.114 38.6442Z" fill="#D4ECFF"/>
<path d="M54.8468 44.7695L41.6205 37.0902C41.183 36.8678 40.6996 36.752 40.2093 36.752C39.7191 36.752 39.2357 36.8678 38.7982 37.0902L37.7716 37.6859C37.8986 37.9153 38.0273 38.1392 38.1708 38.3538L39.5728 37.5398C39.7701 37.4395 39.9882 37.3872 40.2093 37.3872C40.4305 37.3872 40.6485 37.4395 40.8459 37.5398L54.0722 45.219C54.1923 45.2802 54.325 45.312 54.4595 45.312C54.5941 45.312 54.7267 45.2802 54.8468 45.219C54.8938 45.2034 54.9347 45.1732 54.9636 45.1329C54.9926 45.0925 55.0082 45.044 55.0082 44.9943C55.0082 44.9445 54.9926 44.896 54.9636 44.8557C54.9347 44.8153 54.8938 44.7852 54.8468 44.7695V44.7695Z" fill="#5793CE"/>
<path d="M55.0069 45.0063V26.3049L41.1458 18.535L39.2085 18.4055L37.3337 19.6264L36.182 20.6328L49.688 42.1684L54.098 44.7806L55.0069 45.0063Z" fill="#5793CE"/>
<path d="M49.8794 47.3687L54.0226 44.9637V26.8876L49.7524 28.8837L49.8794 47.3687Z" fill="#79B1E0"/>
<path d="M35.5308 20.7771V39.4508L50.0817 47.8201L50.2768 47.7405V29.041L35.5308 20.7771Z" fill="#D4ECFF"/>
<path d="M43.7142 20.9325L40.8221 19.2675C40.6322 19.1857 40.4268 19.1465 40.2203 19.1525C40.0138 19.1586 39.811 19.2098 39.6262 19.3027L36.9419 20.8622C36.734 20.9825 36.6494 21.1471 36.688 21.3044L43.9957 25.6962L49.8647 29.3129L54.0208 26.8876L43.7142 20.9325Z" fill="white"/>
<path d="M49.7524 28.7487V48.055C49.8809 48.0557 50.0074 48.0238 50.1204 47.9625C50.164 47.9433 50.2018 47.9127 50.2299 47.8741C50.258 47.8354 50.2754 47.79 50.2805 47.7424V29.0447L49.7524 28.7487Z" fill="#5793CE"/>
<path d="M55.0069 26.538V26.3049H54.9333L54.9113 26.4621L55.0069 26.538Z" fill="white"/>
<path d="M50.2749 29.2833V29.0447L50.205 29.1464L50.2749 29.2833Z" fill="white"/>
<path d="M49.3403 29.263L36.114 21.5837C35.3357 21.1323 35.3357 20.3979 36.114 19.9446L38.7982 18.3869C39.2357 18.1645 39.7191 18.0486 40.2093 18.0486C40.6996 18.0486 41.183 18.1645 41.6205 18.3869L54.8468 26.0662C54.8938 26.0818 54.9347 26.112 54.9636 26.1523C54.9926 26.1927 55.0082 26.2412 55.0082 26.291C55.0082 26.3407 54.9926 26.3892 54.9636 26.4296C54.9347 26.4699 54.8938 26.5001 54.8468 26.5157C54.7268 26.5769 54.5941 26.6087 54.4595 26.6087C54.325 26.6087 54.1923 26.5769 54.0722 26.5157L40.8496 18.8365C40.6522 18.7362 40.4342 18.6839 40.213 18.6839C39.9919 18.6839 39.7738 18.7362 39.5765 18.8365L36.8922 20.396C36.5408 20.5995 36.5408 20.9307 36.8922 21.136L50.1185 28.8153C50.1655 28.8309 50.2064 28.8611 50.2354 28.9014C50.2643 28.9418 50.2799 28.9903 50.2799 29.04C50.2799 29.0898 50.2643 29.1383 50.2354 29.1787C50.2064 29.219 50.1655 29.2491 50.1185 29.2648C49.9978 29.3262 49.8644 29.3581 49.7292 29.3578C49.5939 29.3575 49.4607 29.325 49.3403 29.263V29.263Z" fill="#D4ECFF"/>
<path d="M45.8944 38.1151L39.0209 34.1247V27.1965L45.8944 31.1869V38.1151Z" fill="white"/>
<path d="M54.8468 26.5157C54.7268 26.5769 54.5941 26.6087 54.4595 26.6087C54.325 26.6087 54.1923 26.5769 54.0723 26.5157L40.8496 18.8365C40.6522 18.7362 40.4342 18.6839 40.213 18.6839C39.9919 18.6839 39.7738 18.7362 39.5765 18.8365L36.8922 20.396C36.6622 20.5292 36.5831 20.7161 36.6549 20.8881C36.7046 20.7819 36.7881 20.6953 36.8922 20.6421L39.5765 19.0825C39.7738 18.9822 39.9919 18.9299 40.213 18.9299C40.4342 18.9299 40.6522 18.9822 40.8496 19.0825L54.0759 26.7618C54.196 26.8229 54.3287 26.8547 54.4632 26.8547C54.5978 26.8547 54.7305 26.8229 54.8505 26.7618C55.0124 26.6674 55.051 26.5305 54.9682 26.414C54.9353 26.456 54.8939 26.4907 54.8468 26.5157V26.5157Z" fill="white"/>
<path d="M50.1149 29.263C49.9948 29.3241 49.8622 29.3559 49.7276 29.3559C49.593 29.3559 49.4604 29.3241 49.3403 29.263L36.114 21.5837C35.9742 21.5164 35.8506 21.4194 35.7518 21.2992C35.653 21.1791 35.5813 21.0389 35.5418 20.8881C35.4811 21.2248 35.6706 21.5726 36.114 21.8298L49.3403 29.509C49.4604 29.5701 49.593 29.602 49.7276 29.602C49.8622 29.602 49.9948 29.5701 50.1149 29.509C50.2786 29.4147 50.3172 29.2778 50.2326 29.1612C50.2016 29.2037 50.1613 29.2385 50.1149 29.263V29.263Z" fill="white"/>
<path d="M30.0316 42.2646C29.2533 42.716 29.2533 43.4523 30.0316 43.9037L43.2597 51.583C43.3798 51.6441 43.5124 51.6759 43.647 51.6759C43.7816 51.6759 43.9142 51.6441 44.0343 51.583C44.0813 51.5673 44.1221 51.5372 44.1511 51.4968C44.1801 51.4565 44.1957 51.408 44.1957 51.3582C44.1957 51.3084 44.1801 51.2599 44.1511 51.2196C44.1221 51.1792 44.0813 51.1491 44.0343 51.1334L30.8079 43.4542C30.4565 43.2507 30.4565 42.9195 30.8079 42.7142L32.0958 41.9742C31.9541 41.7596 31.8235 41.5357 31.6984 41.3063L30.0316 42.2646Z" fill="#3D8BFD"/>
<path d="M48.7607 48.3862L35.5381 40.6995C35.1006 40.4771 34.6172 40.3612 34.1269 40.3612C33.6367 40.3612 33.1533 40.4771 32.7158 40.6995L31.691 41.2952C31.8161 41.5246 31.9468 41.7484 32.0884 41.963L33.4904 41.149C33.6877 41.0487 33.9058 40.9965 34.1269 40.9965C34.3481 40.9965 34.5661 41.0487 34.7635 41.149L47.9917 48.8394C48.1117 48.9005 48.2444 48.9324 48.379 48.9324C48.5135 48.9324 48.6462 48.9005 48.7662 48.8394C48.8144 48.8241 48.8564 48.7936 48.8861 48.7524C48.9157 48.7112 48.9313 48.6615 48.9307 48.6107C48.9301 48.5599 48.9132 48.5106 48.8826 48.4702C48.852 48.4297 48.8093 48.4003 48.7607 48.3862V48.3862Z" fill="#0A58CA"/>
<path d="M48.9246 48.6267L48.9264 29.9234L35.0653 22.1535L33.1262 22.0258L31.2514 23.2468L30.1016 24.2532L43.6075 45.7888L48.0175 48.401L48.9246 48.6267Z" fill="#0A58CA"/>
<path d="M43.7988 50.9891L47.9421 48.5841V30.508L43.6719 32.5041L43.7988 50.9891Z" fill="#6EA8FE"/>
<path d="M29.4484 24.3975V43.0694L44.0012 51.4405L44.1944 51.361V32.6614L29.4484 24.3975Z" fill="#3D8BFD"/>
<path d="M37.6337 24.5529L34.7415 22.8879C34.5514 22.8056 34.3457 22.766 34.1388 22.7721C33.9319 22.7782 33.7288 22.8297 33.5438 22.9231L30.8595 24.4752C30.6516 24.5973 30.5688 24.762 30.6075 24.9192L37.9152 29.311L43.7933 32.9296L47.9513 30.5043L37.6337 24.5529Z" fill="white"/>
<path d="M43.6719 32.3746V51.6736C43.8002 51.6753 43.9268 51.6441 44.0398 51.583C44.0832 51.5634 44.1208 51.5328 44.1488 51.4942C44.1769 51.4556 44.1945 51.4103 44.1999 51.3628V51.3628V32.6614L43.6719 32.3746Z" fill="#0A58CA"/>
<path d="M48.9264 30.1565V29.9234H48.8528L48.8307 30.0825L48.9264 30.1565Z" fill="white"/>
<path d="M44.1944 32.9037V32.665L44.1227 32.7668L44.1944 32.9037Z" fill="white"/>
<path d="M43.2597 32.8834L30.0316 25.2041C29.2533 24.7527 29.2533 24.0183 30.0316 23.565L32.7158 22.0147C33.1533 21.7923 33.6367 21.6765 34.127 21.6765C34.6172 21.6765 35.1006 21.7923 35.5381 22.0147L48.7607 29.6866C48.8077 29.7023 48.8486 29.7324 48.8776 29.7728C48.9065 29.8131 48.9221 29.8616 48.9221 29.9114C48.9221 29.9611 48.9065 30.0096 48.8776 30.05C48.8486 30.0903 48.8077 30.1205 48.7607 30.1361C48.6407 30.1973 48.508 30.2291 48.3734 30.2291C48.2389 30.2291 48.1062 30.1973 47.9862 30.1361L34.758 22.4569C34.5606 22.3566 34.3426 22.3043 34.1214 22.3043C33.9003 22.3043 33.6822 22.3566 33.4849 22.4569L30.8024 24.0164C30.451 24.2199 30.451 24.5511 30.8024 24.7564L44.0288 32.4357C44.0757 32.4513 44.1166 32.4815 44.1456 32.5218C44.1746 32.5622 44.1902 32.6107 44.1902 32.6604C44.1902 32.7102 44.1746 32.7587 44.1456 32.7991C44.1166 32.8394 44.0757 32.8696 44.0288 32.8852C43.9093 32.9451 43.7775 32.9762 43.644 32.9759C43.5105 32.9755 43.3789 32.9439 43.2597 32.8834V32.8834Z" fill="#3D8BFD"/>
<path d="M39.812 41.7355L32.9385 37.7451V30.817L39.812 34.8074V41.7355Z" fill="white"/>
<path d="M48.7608 30.1362C48.6407 30.1973 48.5081 30.2291 48.3735 30.2291C48.2389 30.2291 48.1063 30.1973 47.9862 30.1362L34.7581 22.4569C34.5607 22.3566 34.3426 22.3043 34.1215 22.3043C33.9003 22.3043 33.6823 22.3566 33.4849 22.4569L30.8025 24.0164C30.5725 24.1496 30.4934 24.3365 30.5651 24.5085C30.6149 24.4023 30.6984 24.3157 30.8025 24.2625L33.4904 22.7029C33.6878 22.6026 33.9059 22.5504 34.127 22.5504C34.3481 22.5504 34.5662 22.6026 34.7636 22.7029L47.9917 30.3822C48.1118 30.4433 48.2445 30.4752 48.379 30.4752C48.5136 30.4752 48.6462 30.4433 48.7663 30.3822C48.9282 30.2879 48.9668 30.151 48.884 30.0344C48.8505 30.0767 48.8085 30.1113 48.7608 30.1362V30.1362Z" fill="white"/>
<path d="M44.0343 32.8833C43.9143 32.9445 43.7816 32.9763 43.6471 32.9763C43.5125 32.9763 43.3798 32.9445 43.2598 32.8833L30.0316 25.2041C29.892 25.1368 29.7686 25.0397 29.6701 24.9196C29.5716 24.7994 29.5003 24.6591 29.4613 24.5085C29.3987 24.8452 29.5901 25.193 30.0316 25.4501L43.2598 33.1294C43.3798 33.1905 43.5125 33.2224 43.6471 33.2224C43.7816 33.2224 43.9143 33.1905 44.0343 33.1294C44.1962 33.035 44.2349 32.8963 44.1521 32.7816C44.1202 32.8232 44.0801 32.8579 44.0343 32.8833V32.8833Z" fill="white"/>
<path d="M23.7836 48.3288C23.0054 48.7802 23.0054 49.5146 23.7836 49.9679L37.01 57.6453C37.1301 57.7073 37.2631 57.7396 37.3982 57.7396C37.5332 57.7396 37.6662 57.7073 37.7864 57.6453C37.8333 57.6296 37.8742 57.5995 37.9032 57.5591C37.9322 57.5188 37.9478 57.4703 37.9478 57.4205C37.9478 57.3708 37.9322 57.3223 37.9032 57.2819C37.8742 57.2416 37.8333 57.2114 37.7864 57.1958L24.5582 49.5165C24.2068 49.313 24.2068 48.9819 24.5582 48.7765L25.846 48.0365C25.7025 47.8201 25.5738 47.5962 25.4468 47.3668L23.7836 48.3288Z" fill="#D4ECFF"/>
<path d="M42.5183 54.4485L29.2901 46.7711C28.8529 46.5477 28.3694 46.4313 27.879 46.4313C27.3886 46.4313 26.9051 46.5477 26.4679 46.7711L25.4413 47.3594C25.5682 47.5888 25.697 47.8127 25.8405 48.0291L27.2424 47.2151C27.4398 47.1148 27.6579 47.0625 27.879 47.0625C28.1002 47.0625 28.3182 47.1148 28.5156 47.2151L41.7419 54.8944C41.8623 54.9555 41.9953 54.9874 42.1301 54.9874C42.265 54.9874 42.3979 54.9555 42.5183 54.8944C42.5632 54.8771 42.6018 54.8466 42.6291 54.8068C42.6563 54.767 42.6709 54.7198 42.6709 54.6715C42.6709 54.6231 42.6563 54.576 42.6291 54.5361C42.6018 54.4963 42.5632 54.4658 42.5183 54.4485V54.4485Z" fill="#5793CE"/>
<path d="M42.6765 54.6909L42.6784 35.9876L28.8155 28.2177L26.8781 28.0901L25.0034 29.3111L23.8535 30.3175L37.3577 51.8512L41.7677 54.4652L42.6765 54.6909Z" fill="#5793CE"/>
<path d="M37.5509 57.0515L41.6941 54.6465V36.5722L37.4221 38.5683L37.5509 57.0515Z" fill="#79B1E0"/>
<path d="M23.2004 30.4617V49.1336L37.7514 57.5029L37.9464 57.4252V38.7256L23.2004 30.4617Z" fill="#D4ECFF"/>
<path d="M31.3838 30.6153L28.4916 28.9503C28.3017 28.8683 28.0962 28.8291 27.8896 28.8355C27.683 28.8418 27.4803 28.8937 27.2958 28.9873L24.6115 30.545C24.526 30.58 24.4546 30.6426 24.4086 30.7231C24.3626 30.8035 24.3447 30.8971 24.3576 30.989L31.6653 35.379L37.538 38.9975L41.6959 36.5722L31.3838 30.6153Z" fill="white"/>
<path d="M37.4221 38.4315V57.7378C37.5505 57.7379 37.6769 57.7061 37.7901 57.6453C37.8334 57.626 37.8709 57.5954 37.8987 57.5567C37.9265 57.518 37.9436 57.4727 37.9483 57.4252V57.4252V38.7256L37.4221 38.4315Z" fill="#5793CE"/>
<path d="M42.6784 36.2207V35.9876H42.603L42.5809 36.1467L42.6784 36.2207Z" fill="white"/>
<path d="M37.9464 38.968V38.7293L37.8746 38.8311L37.9464 38.968Z" fill="white"/>
<path d="M37.01 38.9476L23.7836 31.2646C23.0054 30.8132 23.0054 30.0769 23.7836 29.6255L26.4679 28.0678C26.9054 27.8454 27.3888 27.7296 27.879 27.7296C28.3693 27.7296 28.8526 27.8454 29.2902 28.0678L42.5183 35.7471C42.5653 35.7628 42.6062 35.7929 42.6352 35.8333C42.6641 35.8736 42.6797 35.9221 42.6797 35.9719C42.6797 36.0216 42.6641 36.0701 42.6352 36.1105C42.6062 36.1508 42.5653 36.181 42.5183 36.1966C42.398 36.2578 42.265 36.2896 42.1301 36.2896C41.9953 36.2896 41.8623 36.2578 41.7419 36.1966L28.523 28.5211C28.3256 28.4208 28.1075 28.3685 27.8864 28.3685C27.6652 28.3685 27.4472 28.4208 27.2498 28.5211L24.5655 30.0788C24.2141 30.2823 24.2141 30.6134 24.5655 30.8188L37.7937 38.4962C37.8405 38.5123 37.881 38.5428 37.9098 38.5832C37.9385 38.6237 37.9539 38.6722 37.9539 38.7219C37.9539 38.7716 37.9385 38.8201 37.9098 38.8605C37.881 38.901 37.8405 38.9314 37.7937 38.9476C37.6724 39.0099 37.5381 39.0424 37.4018 39.0424C37.2656 39.0424 37.1313 39.0099 37.01 38.9476V38.9476Z" fill="#D4ECFF"/>
<path d="M33.564 47.7998L26.6906 43.8094V36.8793L33.564 40.8716V47.7998Z" fill="white"/>
<path d="M42.5183 36.2004C42.3979 36.2615 42.2649 36.2934 42.1301 36.2934C41.9952 36.2934 41.8623 36.2615 41.7419 36.2004L28.5229 28.5211C28.3256 28.4208 28.1075 28.3685 27.8864 28.3685C27.6652 28.3685 27.4472 28.4208 27.2498 28.5211L24.5655 30.0788C24.3355 30.212 24.2583 30.4007 24.3282 30.5709C24.3795 30.4657 24.4626 30.3796 24.5655 30.3248L27.2351 28.7672C27.4324 28.6668 27.6505 28.6146 27.8716 28.6146C28.0928 28.6146 28.3108 28.6668 28.5082 28.7672L41.7419 36.4446C41.8623 36.5057 41.9952 36.5376 42.1301 36.5376C42.2649 36.5376 42.3979 36.5057 42.5183 36.4446C42.6802 36.3502 42.7188 36.2115 42.6342 36.0968C42.6033 36.1392 42.5638 36.1745 42.5183 36.2004Z" fill="white"/>
<path d="M37.7864 38.9476C37.666 39.0087 37.533 39.0406 37.3982 39.0406C37.2633 39.0406 37.1304 39.0087 37.01 38.9476L23.7837 31.2646C23.6438 31.197 23.5202 31.0995 23.4214 30.9791C23.3226 30.8587 23.251 30.7182 23.2115 30.5672C23.1508 30.9039 23.3403 31.2535 23.7837 31.5107L37.01 39.1899C37.1304 39.2511 37.2633 39.2829 37.3982 39.2829C37.533 39.2829 37.666 39.2511 37.7864 39.1899C37.9483 39.0956 37.9869 38.9569 37.9023 38.8422C37.8716 38.8852 37.8321 38.9212 37.7864 38.9476V38.9476Z" fill="white"/>
</g>
<path d="M48.2235 31.002L47.1196 34.6446L44.2937 36.6L46.4371 37.4787L45.795 41.0936L48.2235 37.9486L50.6539 38.2724L50.0118 35.4049L52.1552 32.0361L49.3292 33.3625L48.2235 31.002Z" fill="#E8A200"/>
<path d="M53.4743 32.7964L52.1552 32.0361L50.1185 32.9907C50.1185 32.9907 50.1185 34.3689 50.1185 34.4022C50.4154 34.4451 50.7146 34.4699 51.0145 34.4762C51.0715 34.4762 53.4743 32.7964 53.4743 32.7964Z" fill="#0A58CA"/>
<path d="M45.795 41.0936L47.1142 41.8558L47.7563 38.2409C47.7563 38.2409 47.1179 37.562 47.1197 37.562L46.4003 37.6859L45.795 41.0936Z" fill="#0A58CA"/>
<path d="M49.5427 31.7623L48.4388 35.4049L45.6129 37.3622L47.7563 38.2409L47.1142 41.8557L49.5427 38.7108L51.9731 39.0345L51.331 36.1652L53.4744 32.7964L50.6485 34.1228L49.5427 31.7623Z" fill="#3D8BFD"/>
<path d="M47.3718 41.5228L47.9771 38.1188L46.0214 37.3178L48.6063 35.5288L49.5832 32.308L50.5546 34.3837L53.2775 33.1072L53.4744 32.7964L50.6485 34.1228L49.5446 31.7623L48.4407 35.4049L45.6129 37.3696L47.7563 38.2483L47.1142 41.8631L47.3718 41.5228Z" fill="white"/>
<path d="M49.5426 31.7623L48.2235 31.002L47.1196 34.6446L48.4388 35.4049L49.5426 31.7623Z" fill="#0A58CA"/>
<path d="M44.2937 36.6L45.6128 37.3621L48.4388 35.4049L47.1196 34.6445L44.2937 36.6Z" fill="#0A58CA"/>
<path d="M48.3726 35.4974L48.575 35.3808L47.1491 34.5465L47.1197 34.6446L47.0259 34.7093L48.3726 35.4974Z" fill="white"/>
<path d="M39.214 36.1874L38.1101 39.83L35.2823 41.7873L37.4276 42.6661L36.7836 46.2809L39.214 43.136L41.6444 43.4597L41.0005 40.5904L43.1457 37.2216L40.3179 38.548L39.214 36.1874Z" fill="#E8A200"/>
<path d="M44.4648 37.9838L43.1457 37.2216L41.1072 38.178C41.1072 38.178 41.1072 39.5544 41.1072 39.5877C41.4046 39.6315 41.7045 39.6562 42.005 39.6617C42.062 39.6617 44.4648 37.9838 44.4648 37.9838Z" fill="#0A58CA"/>
<path d="M36.7837 46.2809L38.1028 47.0412L38.7468 43.4264C38.7468 43.4264 38.1065 42.7474 38.1102 42.7474L37.3908 42.8714L36.7837 46.2809Z" fill="#0A58CA"/>
<path d="M40.5332 36.9496L39.4293 40.5922L36.6016 42.5476L38.7468 43.4264L38.1028 47.0412L40.5332 43.8963L42.9636 44.22L42.3197 41.3525L44.4649 37.9837L41.6371 39.3102L40.5332 36.9496Z" fill="#3D8BFD"/>
<path d="M38.3623 46.7083L38.9675 43.3043L37.0118 42.5033L39.5968 40.7143L40.5719 37.4935L41.5433 39.571L44.268 38.2946L44.4649 37.9856L41.6371 39.312L40.5332 36.9515L39.4293 40.5941L36.6016 42.5495L38.7468 43.4283L38.1028 47.0431L38.3623 46.7083Z" fill="white"/>
<path d="M40.5331 36.9496L39.214 36.1874L38.1101 39.83L39.4292 40.5922L40.5331 36.9496Z" fill="#0A58CA"/>
<path d="M35.2823 41.7873L36.6015 42.5476L39.4293 40.5922L38.1101 39.83L35.2823 41.7873Z" fill="#0A58CA"/>
<path d="M39.3631 40.6829L39.5636 40.5663L38.1396 39.7338L38.1102 39.83L38.0164 39.8948L39.3631 40.6829Z" fill="white"/>
<path d="M30.2045 41.3748L29.0988 45.0155L26.2728 46.9728L28.4162 47.8515L27.7741 51.4664L30.2045 48.3214L32.633 48.6452L31.9909 45.7759L34.1343 42.407L31.3084 43.7335L30.2045 41.3748Z" fill="#E8A200"/>
<path d="M35.4535 43.1692L34.1343 42.407L32.0977 43.3635C32.0977 43.3635 32.0977 44.7417 32.0977 44.7732C32.3944 44.817 32.6937 44.8418 32.9936 44.8472C33.0507 44.8472 35.4535 43.1692 35.4535 43.1692Z" fill="#0A58CA"/>
<path d="M27.7742 51.4664L29.0933 52.2286L29.7354 48.6137C29.7354 48.6137 29.097 47.9348 29.0988 47.9348L28.3795 48.0569L27.7742 51.4664Z" fill="#0A58CA"/>
<path d="M31.5237 42.1351L30.418 45.7777L27.592 47.7331L29.7354 48.6118L29.0933 52.2286L31.5237 49.0836L33.9522 49.4073L33.3101 46.538L35.4535 43.1692L32.6276 44.4956L31.5237 42.1351Z" fill="#3D8BFD"/>
<path d="M29.3509 51.8937L29.9562 48.4916L28.0005 47.6887L30.5854 45.8998L31.5623 42.6809L32.5337 44.7565L35.2567 43.4745L35.4535 43.1655L32.6276 44.492L31.5237 42.1314L30.4198 45.774L27.592 47.7294L29.7354 48.61L29.0933 52.2249L29.3509 51.8937Z" fill="white"/>
<path d="M31.5237 42.1351L30.2046 41.3748L29.0989 45.0155L30.418 45.7777L31.5237 42.1351Z" fill="#0A58CA"/>
<path d="M26.2728 46.9728L27.592 47.7331L30.4179 45.7777L29.0988 45.0155L26.2728 46.9728Z" fill="#0A58CA"/>
<path d="M30.3517 45.8684L30.5541 45.7518L29.1283 44.9193L29.0988 45.0155L29.005 45.0803L30.3517 45.8684Z" fill="white"/>
<path d="M41.9553 22.4014L40.8515 26.044L38.0237 27.9994L40.1689 28.8781L39.525 32.4948L41.9553 29.3499L44.3857 29.6736L43.7418 26.8043L45.887 23.4355L43.0592 24.7619L41.9553 22.4014Z" fill="#E8A200"/>
<path d="M47.2061 24.1977L45.887 23.4355L43.8485 24.392C43.8485 24.392 43.8485 25.7684 43.8485 25.8017C44.1459 25.8455 44.4458 25.8703 44.7463 25.8757C44.8034 25.8757 47.2061 24.1977 47.2061 24.1977Z" fill="#0A58CA"/>
<path d="M39.525 32.4949L40.8442 33.2552L41.4881 29.6404C41.4881 29.6404 40.8478 28.9614 40.8515 28.9614L40.1322 29.0854L39.525 32.4949Z" fill="#0A58CA"/>
<path d="M43.2744 23.1636L42.1705 26.8062L39.3428 28.7616L41.488 29.6403L40.8441 33.2552L43.2744 30.1102L45.7048 30.434L45.0609 27.5665L47.2061 24.1977L44.3783 25.5223L43.2744 23.1636Z" fill="#3D8BFD"/>
<path d="M41.1016 32.9296L41.7069 29.5256L39.7457 28.7172L42.3325 26.9283L43.3075 23.7075L44.279 25.7831L47.0037 24.5066L47.2006 24.1977L44.3783 25.5297L43.2744 23.171L42.1705 26.8136L39.3428 28.769L41.488 29.6477L40.8496 33.2552L41.1016 32.9296Z" fill="white"/>
<path d="M43.2745 23.1636L41.9553 22.4014L40.8514 26.044L42.1706 26.8062L43.2745 23.1636Z" fill="#0A58CA"/>
<path d="M38.0237 27.9994L39.3428 28.7616L42.1706 26.8062L40.8515 26.044L38.0237 27.9994Z" fill="#0A58CA"/>
<path d="M42.1044 26.8968L42.305 26.7803L40.881 25.9459L40.8515 26.044L40.7577 26.1087L42.1044 26.8968Z" fill="white"/>
<path d="M32.944 27.5869L31.8401 31.2295L29.0142 33.1867L31.1575 34.0655L30.5154 37.6803L32.944 34.5354L35.3744 34.8591L34.7323 31.9898L36.8756 28.621L34.0497 29.9474L32.944 27.5869Z" fill="#E8A200"/>
<path d="M38.1948 29.3832L36.8756 28.621L34.839 29.5775C34.839 29.5775 34.839 30.9557 34.839 30.9872C35.1358 31.031 35.435 31.0557 35.735 31.0612C35.792 31.0612 38.1948 29.3832 38.1948 29.3832Z" fill="#0A58CA"/>
<path d="M30.5155 37.6804L31.8346 38.4407L32.4767 34.8258C32.4767 34.8258 31.8383 34.1487 31.8402 34.1487L31.1208 34.2708L30.5155 37.6804Z" fill="#0A58CA"/>
<path d="M34.265 28.3491L33.1593 31.9917L30.3334 33.9471L32.4767 34.8258L31.8347 38.4407L34.265 35.2957L36.6936 35.6213L36.0515 32.752L38.1948 29.3832L35.3689 30.7096L34.265 28.3491Z" fill="#3D8BFD"/>
<path d="M32.0922 38.1095L32.6975 34.7056L30.7418 33.9045L33.3267 32.1156L34.3037 28.8967L35.2751 30.9723L37.998 29.694L38.1948 29.385L35.3689 30.7096L34.265 28.3491L33.1612 31.9917L30.3334 33.9471L32.4767 34.8258L31.8347 38.4425L32.0922 38.1095Z" fill="white"/>
<path d="M34.2649 28.349L32.944 27.5869L31.8401 31.2295L33.1592 31.9917L34.2649 28.349Z" fill="#0A58CA"/>
<path d="M29.0142 33.1868L30.3333 33.9471L33.1592 31.9917L31.8401 31.2295L29.0142 33.1868Z" fill="#0A58CA"/>
<path d="M33.0931 32.0823L33.2955 31.9658L31.8696 31.1333L31.8402 31.2295L31.7463 31.2943L33.0931 32.0823Z" fill="white"/>
<path d="M36.114 34.6371C35.3357 35.0904 35.3357 35.8248 36.114 36.2762L49.3403 43.9555C49.4603 44.0166 49.593 44.0484 49.7276 44.0484C49.8621 44.0484 49.9948 44.0166 50.1148 43.9555C50.1618 43.9398 50.2027 43.9097 50.2317 43.8693C50.2607 43.829 50.2762 43.7805 50.2762 43.7307C50.2762 43.6809 50.2607 43.6324 50.2317 43.5921C50.2027 43.5517 50.1618 43.5216 50.1148 43.5059L36.8885 35.8267C36.5371 35.6232 36.5371 35.292 36.8885 35.0867L38.1764 34.3467C38.0329 34.1321 37.9041 33.9082 37.7771 33.6788L36.114 34.6371Z" fill="#D4ECFF"/>
<path d="M54.8468 40.7587L41.6205 33.0794C41.183 32.857 40.6996 32.7411 40.2093 32.7411C39.7191 32.7411 39.2357 32.857 38.7982 33.0794L37.7716 33.6696C37.8986 33.899 38.0273 34.1228 38.1708 34.3374L39.5728 33.5234C39.7701 33.4231 39.9882 33.3709 40.2093 33.3709C40.4305 33.3709 40.6485 33.4231 40.8459 33.5234L54.0722 41.2027C54.1923 41.2638 54.325 41.2957 54.4595 41.2957C54.5941 41.2957 54.7267 41.2638 54.8468 41.2027C54.8919 41.1859 54.9307 41.1556 54.9582 41.1159C54.9856 41.0762 55.0003 41.029 55.0003 40.9807C55.0003 40.9324 54.9856 40.8852 54.9582 40.8455C54.9307 40.8058 54.8919 40.7755 54.8468 40.7587Z" fill="#5793CE"/>
<path d="M55.0069 40.9992V22.2978L41.1458 14.5279L39.2085 14.3984L37.3337 15.6194L36.182 16.6258L49.688 38.1613L54.098 40.7754L55.0069 40.9992Z" fill="#5793CE"/>
<path d="M49.8794 43.3616L54.0226 40.9566V22.8805L49.7524 24.8766L49.8794 43.3616Z" fill="#79B1E0"/>
<path d="M35.5308 16.7719V35.4437L50.0817 43.813L50.2768 43.7335V25.0339L35.5308 16.7719Z" fill="#D4ECFF"/>
<path d="M43.7142 16.9255L40.8221 15.2605C40.6322 15.1786 40.4268 15.1394 40.2203 15.1454C40.0138 15.1515 39.811 15.2028 39.6262 15.2956L36.9419 16.8552C36.734 16.9754 36.6494 17.14 36.688 17.2973L43.9957 21.6891L49.8647 25.3059L54.0208 22.8805L43.7142 16.9255Z" fill="white"/>
<path d="M49.7524 24.7416V44.048C49.8809 44.0486 50.0074 44.0168 50.1204 43.9555C50.164 43.9362 50.2018 43.9057 50.2299 43.867C50.258 43.8284 50.2754 43.7829 50.2805 43.7353V25.0339L49.7524 24.7416Z" fill="#5793CE"/>
<path d="M55.0069 22.5309V22.2978H54.9333L54.9113 22.455L55.0069 22.5309Z" fill="white"/>
<path d="M50.2749 25.2762V25.0376L50.205 25.1393L50.2749 25.2762Z" fill="white"/>
<path d="M49.3403 25.2559L36.114 17.5748C35.3357 17.1234 35.3357 16.3889 36.114 15.9376L38.7982 14.378C39.2357 14.1556 39.7191 14.0397 40.2093 14.0397C40.6996 14.0397 41.183 14.1556 41.6205 14.378L54.8468 22.0573C54.8938 22.0729 54.9347 22.1031 54.9636 22.1434C54.9926 22.1838 55.0082 22.2323 55.0082 22.2821C55.0082 22.3318 54.9926 22.3803 54.9636 22.4207C54.9347 22.461 54.8938 22.4912 54.8468 22.5068C54.7268 22.5679 54.5941 22.5998 54.4595 22.5998C54.325 22.5998 54.1923 22.5679 54.0722 22.5068L40.8496 14.8294C40.6522 14.7291 40.4342 14.6768 40.213 14.6768C39.9919 14.6768 39.7738 14.7291 39.5765 14.8294L36.8922 16.3889C36.5408 16.5924 36.5408 16.9236 36.8922 17.1289L50.1185 24.8082C50.1655 24.8239 50.2064 24.854 50.2354 24.8944C50.2643 24.9347 50.2799 24.9832 50.2799 25.033C50.2799 25.0827 50.2643 25.1312 50.2354 25.1716C50.2064 25.2119 50.1655 25.2421 50.1185 25.2577C49.9978 25.3192 49.8644 25.351 49.7292 25.3507C49.5939 25.3504 49.4607 25.3179 49.3403 25.2559V25.2559Z" fill="#D4ECFF"/>
<path d="M45.8944 34.108L39.0209 30.1176V23.1895L45.8944 27.1799V34.108Z" fill="white"/>
<path d="M54.8468 22.5087C54.7268 22.5698 54.5941 22.6016 54.4595 22.6016C54.325 22.6016 54.1923 22.5698 54.0723 22.5087L40.8496 14.8294C40.6522 14.7291 40.4342 14.6768 40.213 14.6768C39.9919 14.6768 39.7738 14.7291 39.5765 14.8294L36.8922 16.3889C36.6622 16.5221 36.5831 16.709 36.6549 16.881C36.7046 16.7748 36.7881 16.6882 36.8922 16.635L39.5765 15.0773C39.7736 14.9761 39.9917 14.9234 40.213 14.9234C40.4343 14.9234 40.6525 14.9761 40.8496 15.0773L54.0723 22.7547C54.1921 22.8167 54.3248 22.849 54.4595 22.849C54.5943 22.849 54.727 22.8167 54.8468 22.7547C55.0087 22.6622 55.0474 22.5235 54.9646 22.4069C54.9326 22.4486 54.8926 22.4832 54.8468 22.5087V22.5087Z" fill="white"/>
<path d="M50.1149 25.2559C49.9948 25.317 49.8622 25.3489 49.7276 25.3489C49.593 25.3489 49.4604 25.317 49.3403 25.2559L36.114 17.5748C35.9742 17.5075 35.8506 17.4104 35.7518 17.2903C35.653 17.1702 35.5813 17.0299 35.5418 16.8792C35.4811 17.2159 35.6706 17.5637 36.114 17.8209L49.3403 25.5001C49.4604 25.5612 49.593 25.5931 49.7276 25.5931C49.8622 25.5931 49.9948 25.5612 50.1149 25.5001C50.2786 25.4058 50.3172 25.2689 50.2326 25.1523C50.2018 25.1955 50.1615 25.2309 50.1149 25.2559V25.2559Z" fill="white"/>
<path d="M30.0316 42.2646C29.2533 42.716 29.2533 43.4523 30.0316 43.9037L43.2597 51.583C43.3798 51.6441 43.5124 51.6759 43.647 51.6759C43.7816 51.6759 43.9142 51.6441 44.0343 51.583C44.0813 51.5673 44.1221 51.5372 44.1511 51.4968C44.1801 51.4565 44.1957 51.408 44.1957 51.3582C44.1957 51.3084 44.1801 51.2599 44.1511 51.2196C44.1221 51.1792 44.0813 51.1491 44.0343 51.1334L30.8079 43.4542C30.4565 43.2507 30.4565 42.9195 30.8079 42.7142L32.0958 41.9742C31.9541 41.7596 31.8235 41.5357 31.6984 41.3063L30.0316 42.2646Z" fill="#3D8BFD"/>
<path d="M48.7607 48.3862L35.5381 40.6995C35.1006 40.4771 34.6172 40.3612 34.1269 40.3612C33.6367 40.3612 33.1533 40.4771 32.7158 40.6995L31.691 41.2952C31.8161 41.5246 31.9468 41.7484 32.0884 41.963L33.4904 41.149C33.6877 41.0487 33.9058 40.9965 34.1269 40.9965C34.3481 40.9965 34.5661 41.0487 34.7635 41.149L47.9917 48.8394C48.1117 48.9005 48.2444 48.9324 48.379 48.9324C48.5135 48.9324 48.6462 48.9005 48.7662 48.8394C48.8144 48.8241 48.8564 48.7936 48.8861 48.7524C48.9157 48.7112 48.9313 48.6615 48.9307 48.6107C48.9301 48.5599 48.9132 48.5106 48.8826 48.4702C48.852 48.4297 48.8093 48.4003 48.7607 48.3862V48.3862Z" fill="#0A58CA"/>
<path d="M48.9246 48.6267L48.9264 29.9234L35.0653 22.1535L33.1262 22.0258L31.2514 23.2468L30.1016 24.2532L43.6075 45.7888L48.0175 48.401L48.9246 48.6267Z" fill="#0A58CA"/>
<path d="M43.7988 50.9891L47.9421 48.5841V30.508L43.6719 32.5041L43.7988 50.9891Z" fill="#6EA8FE"/>
<path d="M29.4484 24.3975V43.0694L44.0012 51.4405L44.1944 51.361V32.6614L29.4484 24.3975Z" fill="#3D8BFD"/>
<path d="M37.6337 24.5529L34.7415 22.8879C34.5514 22.8056 34.3457 22.766 34.1388 22.7721C33.9319 22.7782 33.7288 22.8297 33.5438 22.9231L30.8595 24.4752C30.6516 24.5973 30.5688 24.762 30.6075 24.9192L37.9152 29.311L43.7933 32.9296L47.9513 30.5043L37.6337 24.5529Z" fill="white"/>
<path d="M43.6719 32.3746V51.6736C43.8002 51.6753 43.9268 51.6441 44.0398 51.583C44.0832 51.5634 44.1208 51.5328 44.1488 51.4942C44.1769 51.4556 44.1945 51.4103 44.1999 51.3628V51.3628V32.6614L43.6719 32.3746Z" fill="#0A58CA"/>
<path d="M48.9264 30.1565V29.9234H48.8528L48.8307 30.0825L48.9264 30.1565Z" fill="white"/>
<path d="M44.1944 32.9037V32.665L44.1227 32.7668L44.1944 32.9037Z" fill="white"/>
<path d="M43.2597 32.8834L30.0316 25.2041C29.2533 24.7527 29.2533 24.0183 30.0316 23.565L32.7158 22.0147C33.1533 21.7923 33.6367 21.6765 34.127 21.6765C34.6172 21.6765 35.1006 21.7923 35.5381 22.0147L48.7607 29.6866C48.8077 29.7023 48.8486 29.7324 48.8776 29.7728C48.9065 29.8131 48.9221 29.8616 48.9221 29.9114C48.9221 29.9611 48.9065 30.0096 48.8776 30.05C48.8486 30.0903 48.8077 30.1205 48.7607 30.1361C48.6407 30.1973 48.508 30.2291 48.3734 30.2291C48.2389 30.2291 48.1062 30.1973 47.9862 30.1361L34.758 22.4569C34.5606 22.3566 34.3426 22.3043 34.1214 22.3043C33.9003 22.3043 33.6822 22.3566 33.4849 22.4569L30.8024 24.0164C30.451 24.2199 30.451 24.5511 30.8024 24.7564L44.0288 32.4357C44.0757 32.4513 44.1166 32.4815 44.1456 32.5218C44.1746 32.5622 44.1902 32.6107 44.1902 32.6604C44.1902 32.7102 44.1746 32.7587 44.1456 32.7991C44.1166 32.8394 44.0757 32.8696 44.0288 32.8852C43.9093 32.9451 43.7775 32.9762 43.644 32.9759C43.5105 32.9755 43.3789 32.9439 43.2597 32.8834V32.8834Z" fill="#3D8BFD"/>
<path d="M39.812 41.7355L32.9385 37.7451V30.817L39.812 34.8074V41.7355Z" fill="white"/>
<path d="M48.7608 30.1362C48.6407 30.1973 48.5081 30.2291 48.3735 30.2291C48.2389 30.2291 48.1063 30.1973 47.9862 30.1362L34.7581 22.4569C34.5607 22.3566 34.3426 22.3043 34.1215 22.3043C33.9003 22.3043 33.6823 22.3566 33.4849 22.4569L30.8025 24.0164C30.5725 24.1496 30.4934 24.3365 30.5651 24.5085C30.6149 24.4023 30.6984 24.3157 30.8025 24.2625L33.4904 22.7029C33.6878 22.6026 33.9059 22.5504 34.127 22.5504C34.3481 22.5504 34.5662 22.6026 34.7636 22.7029L47.9917 30.3822C48.1118 30.4433 48.2445 30.4752 48.379 30.4752C48.5136 30.4752 48.6462 30.4433 48.7663 30.3822C48.9282 30.2879 48.9668 30.151 48.884 30.0344C48.8505 30.0767 48.8085 30.1113 48.7608 30.1362V30.1362Z" fill="white"/>
<path d="M44.0343 32.8833C43.9143 32.9445 43.7816 32.9763 43.6471 32.9763C43.5125 32.9763 43.3798 32.9445 43.2598 32.8833L30.0316 25.2041C29.892 25.1368 29.7686 25.0397 29.6701 24.9196C29.5716 24.7994 29.5003 24.6591 29.4613 24.5085C29.3987 24.8452 29.5901 25.193 30.0316 25.4501L43.2598 33.1294C43.3798 33.1905 43.5125 33.2224 43.6471 33.2224C43.7816 33.2224 43.9143 33.1905 44.0343 33.1294C44.1962 33.035 44.2349 32.8963 44.1521 32.7816C44.1202 32.8232 44.0801 32.8579 44.0343 32.8833V32.8833Z" fill="white"/>
<path d="M23.7836 48.0217C23.0054 48.475 23.0054 49.2094 23.7836 49.6608L37.01 57.3493C37.1303 57.4105 37.2633 57.4423 37.3982 57.4423C37.533 57.4423 37.666 57.4105 37.7864 57.3493C37.8333 57.3337 37.8742 57.3035 37.9032 57.2632C37.9322 57.2228 37.9478 57.1743 37.9478 57.1245C37.9478 57.0748 37.9322 57.0263 37.9032 56.9859C37.8742 56.9456 37.8333 56.9154 37.7864 56.8998L24.5582 49.2094C24.2068 49.0059 24.2068 48.6748 24.5582 48.4694L25.846 47.7294C25.7025 47.5148 25.5738 47.291 25.4468 47.0616L23.7836 48.0217Z" fill="#D4ECFF"/>
<path d="M42.5183 54.1433L29.2901 46.464C28.8526 46.2416 28.3693 46.1257 27.879 46.1257C27.3888 46.1257 26.9054 46.2416 26.4679 46.464L25.4413 47.0597C25.5682 47.2891 25.697 47.513 25.8405 47.7276L27.2424 46.9136C27.4398 46.8133 27.6579 46.761 27.879 46.761C28.1002 46.761 28.3182 46.8133 28.5156 46.9136L41.7419 54.5928C41.8623 54.654 41.9953 54.6858 42.1301 54.6858C42.265 54.6858 42.3979 54.654 42.5183 54.5928C42.5653 54.5772 42.6062 54.547 42.6352 54.5067C42.6641 54.4663 42.6797 54.4178 42.6797 54.3681C42.6797 54.3183 42.6641 54.2698 42.6352 54.2294C42.6062 54.1891 42.5653 54.1589 42.5183 54.1433V54.1433Z" fill="#5793CE"/>
<path d="M42.6765 54.3838L42.6784 35.6824L28.8155 27.9125L26.8781 27.783L25.0034 29.0039L23.8535 30.0103L37.3577 51.5459L41.7677 54.16L42.6765 54.3838Z" fill="#5793CE"/>
<path d="M37.5509 56.7462L41.6941 54.3413V36.2651L37.4221 38.2613L37.5509 56.7462Z" fill="#79B1E0"/>
<path d="M23.2004 30.1547V48.8283L37.7514 57.1976L37.9464 57.1181V38.4204L23.2004 30.1547Z" fill="#D4ECFF"/>
<path d="M31.3838 30.31L28.4916 28.6451C28.3017 28.5632 28.0964 28.524 27.8899 28.53C27.6833 28.5361 27.4806 28.5873 27.2958 28.6802L24.6115 30.2397C24.526 30.2741 24.4544 30.3364 24.4084 30.4166C24.3623 30.4968 24.3444 30.5902 24.3576 30.6819L31.6653 35.0737L37.5379 38.6904L41.6941 36.2596L31.3838 30.31Z" fill="white"/>
<path d="M37.4221 38.1262V57.4326C37.5505 57.4327 37.6769 57.4009 37.7901 57.3401C37.8334 57.3207 37.8709 57.2901 37.8987 57.2515C37.9265 57.2128 37.9436 57.1674 37.9483 57.12V57.12V38.4185L37.4221 38.1262Z" fill="#5793CE"/>
<path d="M42.6784 35.9155V35.6824H42.603L42.5809 35.8396L42.6784 35.9155Z" fill="white"/>
<path d="M37.9464 38.6627V38.4222L37.8746 38.5239L37.9464 38.6627Z" fill="white"/>
<path d="M37.01 38.6405L23.7836 30.9612C23.0054 30.5098 23.0054 29.7754 23.7836 29.324L26.4679 27.7644C26.9054 27.542 27.3888 27.4261 27.879 27.4261C28.3693 27.4261 28.8526 27.542 29.2902 27.7644L42.5183 35.4437C42.5653 35.4594 42.6062 35.4895 42.6352 35.5298C42.6641 35.5702 42.6797 35.6187 42.6797 35.6685C42.6797 35.7182 42.6641 35.7667 42.6352 35.8071C42.6062 35.8474 42.5653 35.8776 42.5183 35.8932C42.398 35.9544 42.265 35.9862 42.1301 35.9862C41.9953 35.9862 41.8623 35.9544 41.7419 35.8932L28.523 28.214C28.3256 28.1137 28.1075 28.0614 27.8864 28.0614C27.6652 28.0614 27.4472 28.1137 27.2498 28.214L24.5655 29.7735C24.2141 29.977 24.2141 30.3082 24.5655 30.5135L37.7937 38.1928C37.8407 38.2084 37.8816 38.2386 37.9105 38.2789C37.9395 38.3193 37.9551 38.3678 37.9551 38.4175C37.9551 38.4673 37.9395 38.5158 37.9105 38.5562C37.8816 38.5965 37.8407 38.6267 37.7937 38.6423C37.6722 38.7044 37.5379 38.7366 37.4016 38.7363C37.2654 38.7359 37.1311 38.7031 37.01 38.6405V38.6405Z" fill="#D4ECFF"/>
<path d="M33.564 47.4926L26.6906 43.5022V36.574L33.564 40.5644V47.4926Z" fill="white"/>
<path d="M42.5183 35.8895C42.3979 35.9507 42.265 35.9825 42.1301 35.9825C41.9952 35.9825 41.8623 35.9507 41.7419 35.8895L28.5229 28.214C28.3256 28.1137 28.1075 28.0614 27.8864 28.0614C27.6652 28.0614 27.4472 28.1137 27.2498 28.214L24.5655 29.7735C24.3355 29.9067 24.2583 30.0936 24.3282 30.2656C24.3785 30.1598 24.4619 30.0734 24.5655 30.0196L27.2351 28.4619C27.4322 28.3607 27.6503 28.3079 27.8716 28.3079C28.0929 28.3079 28.3111 28.3607 28.5082 28.4619L41.7345 36.1393C41.8546 36.2013 41.9877 36.2336 42.1227 36.2336C42.2577 36.2336 42.3908 36.2013 42.5109 36.1393C42.6728 36.0468 42.7115 35.908 42.6268 35.7915C42.5978 35.8314 42.5609 35.8648 42.5183 35.8895Z" fill="white"/>
<path d="M37.7864 38.6405C37.666 38.7016 37.533 38.7335 37.3982 38.7335C37.2633 38.7335 37.1304 38.7016 37.01 38.6405L23.7837 30.9612C23.6439 30.8938 23.5204 30.7967 23.4216 30.6766C23.3228 30.5565 23.2511 30.4163 23.2115 30.2656C23.1508 30.6023 23.3403 30.9501 23.7837 31.2073L37.01 38.8865C37.1304 38.9477 37.2633 38.9795 37.3982 38.9795C37.533 38.9795 37.666 38.9477 37.7864 38.8865C37.9483 38.7922 37.9869 38.6553 37.9023 38.5387C37.8716 38.5808 37.832 38.6155 37.7864 38.6405V38.6405Z" fill="white"/>
<path opacity="0.5" d="M68.465 20.8289L65.295 18.9882L68.465 17.1475L71.635 18.9882L68.465 20.8289Z" fill="#173D7A"/>
<path d="M71.6349 16.6517L68.465 18.4905V14.8109L71.6349 12.9702V16.6517Z" fill="#0A58CA"/>
<path d="M68.465 14.8109L65.295 12.9702L68.465 11.1295L71.635 12.9702L68.465 14.8109Z" fill="#3D8BFD"/>
<path d="M68.465 18.4905L65.295 16.6517V12.9702L68.465 14.8109V18.4905Z" fill="#3D8BFD"/>
<path d="M67.3243 16.5037L66.4375 15.9875V14.9589L67.3243 15.4732V16.5037Z" fill="white"/>
<path opacity="0.5" d="M4.22651 63.7318L0.925903 61.817L4.22651 59.9005L7.52711 61.817L4.22651 63.7318Z" fill="#173D7A"/>
<path d="M7.52717 59.3843L4.22656 61.3009V57.4677L7.52717 55.553V59.3843Z" fill="#173D7A"/>
<path d="M4.22651 57.4677L0.925903 55.553L4.22651 53.6364L7.52711 55.553L4.22651 57.4677Z" fill="#D4ECFF"/>
<path d="M4.22651 61.3009L0.925903 59.3843V55.553L4.22651 57.4677V61.3009Z" fill="#5793CE"/>
<path d="M3.03796 59.2307L2.11438 58.6942V57.6231L3.03796 58.1577V59.2307Z" fill="white"/>
<path d="M34.9051 4.86543L26.6591 0.0776885C26.5977 0.0345226 26.526 0.00852328 26.4514 0.0023477C26.3767 -0.00382788 26.3017 0.0100417 26.2341 0.0425389V0.0425389L25.4338 0.508733L25.9968 0.714081V6.74686C25.9968 7.23895 26.293 7.80875 26.6591 8.0215L34.5409 12.5983V13.3069L35.3485 12.8388C35.428 12.7766 35.4904 12.695 35.5297 12.6018C35.5689 12.5085 35.5839 12.4067 35.573 12.306V6.14007C35.5693 5.64797 35.2713 5.07818 34.9051 4.86543Z" fill="#0A58CA"/>
<path d="M34.092 13.281L25.8442 8.49509C25.4763 8.28234 25.1819 7.7107 25.1819 7.21861V1.05448C25.1819 0.562385 25.4781 0.336688 25.8442 0.549436L34.092 5.33718C34.46 5.54993 34.7544 6.11972 34.7544 6.61181V12.7778C34.7544 13.268 34.4582 13.4937 34.092 13.281Z" fill="#3D8BFD"/>
<path d="M34.2944 5.19105L26.0466 0.403308C26.0055 0.371045 25.9585 0.347455 25.9081 0.333957C25.8578 0.320459 25.8053 0.317331 25.7537 0.324762C25.7022 0.332192 25.6526 0.350028 25.6081 0.377196C25.5636 0.404364 25.525 0.440305 25.4946 0.482857C25.5547 0.470014 25.6166 0.469287 25.677 0.48072C25.7373 0.492153 25.7948 0.515517 25.846 0.549456L34.0939 5.3372C34.4618 5.54995 34.7562 6.11974 34.7562 6.61184V12.7778C34.7627 12.9267 34.7249 13.0742 34.6476 13.2015C34.8316 13.1515 34.9586 12.948 34.9586 12.6298V6.47494C34.9622 5.97359 34.6605 5.4038 34.2944 5.19105Z" fill="white"/>
<path d="M28.6187 6.36947C28.6187 6.72652 28.3684 6.87082 28.0667 6.69322C27.9056 6.58646 27.7717 6.44309 27.6758 6.2747C27.5799 6.10631 27.5248 5.91761 27.5148 5.72383C27.5148 5.36679 27.7631 5.22249 28.0667 5.40009C28.2277 5.50696 28.3616 5.65035 28.4574 5.81872C28.5533 5.98709 28.6085 6.17573 28.6187 6.36947Z" fill="white"/>
<path d="M30.3038 7.34811C30.3038 7.70516 30.0555 7.84946 29.7519 7.67186C29.5908 7.56509 29.4569 7.42173 29.361 7.25334C29.2651 7.08495 29.2099 6.89625 29.2 6.70247C29.2 6.34542 29.4483 6.20112 29.7519 6.37872C29.9132 6.48527 30.0473 6.62858 30.1432 6.79702C30.2391 6.96546 30.2941 7.15427 30.3038 7.34811Z" fill="white"/>
<path d="M31.9891 8.32489C31.9891 8.68193 31.7408 8.82623 31.4372 8.64863C31.2762 8.54176 31.1423 8.39837 31.0465 8.23C30.9506 8.06163 30.8954 7.87299 30.8853 7.67925C30.8853 7.3222 31.1355 7.1779 31.4372 7.3555C31.5983 7.46226 31.7322 7.60563 31.8281 7.77402C31.924 7.94241 31.9791 8.13111 31.9891 8.32489V8.32489Z" fill="white"/>
</g>
<defs>
<clipPath id="clip0_2497_1578">
<rect width="74.0741" height="64" fill="white" transform="translate(0.925903)"/>
</clipPath>
</defs>
</svg>
