<svg width="65" height="64" viewBox="0 0 65 64" fill="none" xmlns="http://www.w3.org/2000/svg">
<g clip-path="url(#clip0_2497_1136)">
<path opacity="0.5" d="M36.4726 57.2119L12.1818 42.9541C11.4951 42.55 11.5816 41.8465 12.3747 41.3797L28.9155 31.6711C29.7086 31.2043 30.9108 31.1536 31.5958 31.5577L55.8883 45.8222C56.575 46.2247 56.4885 46.9299 55.6954 47.395L39.1546 57.1053C38.3615 57.5653 37.161 57.6143 36.4726 57.2119Z" fill="#173D7A"/>
<path d="M63.994 15.4922L37.8892 0.169098C37.7589 0.0855637 37.6122 0.0319916 37.4594 0.0121284C37.3066 -0.00773474 37.1514 0.0065906 37.0046 0.0541026V0.0541026L36.9564 0.0727048H36.9448L36.002 0.439675L36.8483 0.860761C36.8483 0.875981 36.84 0.891201 36.8367 0.908112L32.226 22.2431C32.0131 23.2291 32.4388 24.379 33.177 24.8119L58.655 39.7732L58.5636 40.8707L59.5945 40.4648C59.9403 40.2957 60.218 39.9271 60.3327 39.3961L64.9451 18.0627C65.158 17.0802 64.7389 15.9268 63.994 15.4922Z" fill="#173D7A"/>
<path d="M63.9941 15.4922L37.8893 0.169098C37.759 0.0855636 37.6123 0.0319916 37.4595 0.0121284C37.3067 -0.00773474 37.1515 0.0065906 37.0047 0.0541025V0.0541025L36.9565 0.0727047H36.9449L36.0021 0.439675L36.8484 0.860761C36.8484 0.875981 36.8401 0.891201 36.8368 0.908112L33.6776 15.5311L46.449 25.6541L64.8188 16.5509C64.6685 16.1139 64.378 15.741 63.9941 15.4922V15.4922Z" fill="#396CAA"/>
<path d="M63.0097 18.5193L64.9967 17.6585C65.0332 16.8756 64.714 16.0672 64.1919 15.6292L61.046 16.9821L63.0097 18.5193Z" fill="#274F89"/>
<path d="M57.6574 40.7658L31.5526 25.4376C30.8127 25.0047 30.3887 23.8548 30.5999 22.8688L35.2123 1.53382C35.4251 0.549594 36.1966 0.101451 36.9349 0.536065L63.0397 15.8643C63.7779 16.2989 64.2036 17.4488 63.9924 18.4331L59.3784 39.7681C59.1655 40.7557 58.3957 41.2005 57.6574 40.7658Z" fill="#D4ECFF"/>
<path d="M63.2907 15.7713L37.1859 0.443068C37.0335 0.34479 36.8584 0.288859 36.6781 0.280847C36.4978 0.272836 36.3186 0.313024 36.1583 0.397408C36.4251 0.341687 36.7027 0.391264 36.9348 0.536079L63.0396 15.8643C63.7779 16.2989 64.2036 17.4489 63.9924 18.4331L59.3783 39.7681C59.3446 39.9829 59.265 40.1876 59.1452 40.3679C59.0255 40.5481 58.8684 40.6995 58.685 40.8115C59.1256 40.7134 59.493 40.3042 59.6294 39.6751L64.2401 18.3401C64.4546 17.3558 64.029 16.2042 63.2907 15.7713Z" fill="white"/>
<path d="M57.0904 39.303L32.5403 24.8931C31.8635 24.4957 31.4745 23.4438 31.669 22.5425L35.9206 2.87486C36.1151 1.9735 36.8201 1.56425 37.4969 1.95997L62.047 16.375C62.7238 16.7724 63.1128 17.8243 62.9183 18.7256L58.6667 38.3881C58.4722 39.2895 57.7672 39.6987 57.0904 39.303Z" fill="white"/>
<path d="M57.0904 39.303L32.5403 24.8931C31.8635 24.4957 31.4745 23.4438 31.669 22.5425L35.9206 2.87486C36.1151 1.9735 36.8201 1.56425 37.4969 1.95997L62.047 16.375C62.7238 16.7724 63.1128 17.8243 62.9183 18.7256L58.6667 38.3881C58.4722 39.2895 57.7672 39.6987 57.0904 39.303Z" fill="#173D7A"/>
<path d="M57.3049 39.2134L32.7531 24.8035C32.078 24.4078 31.6873 23.3542 31.8835 22.4528L36.1401 2.79031C36.1713 2.5969 36.2426 2.41245 36.3493 2.24919C36.4559 2.08592 36.5954 1.94757 36.7586 1.84329C36.3695 1.94476 36.0486 2.31511 35.9272 2.87994L31.669 22.5425C31.4745 23.4438 31.8635 24.4957 32.5403 24.8931L57.0904 39.303C57.2326 39.3951 57.3964 39.4467 57.5648 39.4527C57.7332 39.4586 57.9001 39.4186 58.0482 39.3369C57.9224 39.3672 57.792 39.3719 57.6644 39.3507C57.5369 39.3295 57.4147 39.2829 57.3049 39.2134Z" fill="#5793CE"/>
<path d="M58.0166 41.4321L54.4484 40.9535L31.4146 27.4247C30.6763 26.9901 29.3861 27.0442 28.5331 27.5447L12.2117 37.1316L10.0502 36.8425V38.0871C10.0369 38.3746 10.1982 38.6519 10.549 38.8566L36.6538 54.1848C37.3921 54.6194 38.6824 54.5636 39.5354 54.063L57.3116 43.6306C57.7921 43.3498 58.0315 42.9863 58.0166 42.6463V41.4321Z" fill="#173D7A"/>
<path d="M40.7092 32.887L39.0731 31.9264H21.0807L12.2117 37.1317L10.0502 36.8425V38.0871C10.0369 38.3746 10.1982 38.652 10.549 38.8566L36.6538 54.1848C37.1125 54.4219 37.6283 54.5205 38.1403 54.4689L40.7092 32.887Z" fill="#396CAA"/>
<path d="M11.0112 36.971L10.0535 36.8425V38.0871C10.0402 38.3746 10.2015 38.652 10.5523 38.8566L11.0129 39.1272L11.0112 36.971Z" fill="#5793CE"/>
<path d="M36.9182 54.3099C37.7245 54.5753 38.5998 54.5197 39.3674 54.1544V51.3776H36.9182V54.3099Z" fill="#274F89"/>
<path d="M36.6556 52.9418L10.5507 37.6119C9.81248 37.179 9.90559 36.4282 10.7586 35.9208L28.5331 25.4867C29.3861 24.9794 30.6764 24.932 31.4146 25.3649L57.5195 40.6931C58.2577 41.1278 58.1646 41.8854 57.3116 42.3843L39.5371 52.8184C38.6841 53.3207 37.3938 53.3748 36.6556 52.9418Z" fill="#D4ECFF"/>
<path d="M57.3116 41.9395L39.5371 52.3736C38.6841 52.8809 37.3938 52.9283 36.6555 52.4954L10.5507 37.1655C10.3429 37.0578 10.18 36.8777 10.0918 36.6581C9.97708 37.015 10.1234 37.3735 10.5507 37.6238L36.6555 52.9537C37.3938 53.3866 38.6841 53.3325 39.5371 52.8319L57.3116 42.3978C57.8852 42.0595 58.113 41.608 57.9767 41.214C57.8479 41.5292 57.6118 41.7868 57.3116 41.9395Z" fill="white"/>
<path d="M21.6543 32.5386L20.4721 31.8436C20.3774 31.7878 20.389 31.6914 20.4987 31.6271L21.8938 30.8086C21.9498 30.7768 22.0124 30.7588 22.0766 30.7562C22.1407 30.7536 22.2045 30.7663 22.2629 30.7934L23.4451 31.4867C23.5399 31.5426 23.5266 31.6389 23.4185 31.7032L22.0235 32.5217C21.9674 32.5534 21.9049 32.5714 21.8409 32.5744C21.7768 32.5773 21.713 32.5651 21.6543 32.5386V32.5386Z" fill="#5793CE"/>
<path d="M23.4784 33.6091L22.2962 32.9157C22.2015 32.8599 22.2131 32.7618 22.3228 32.6976L23.7179 31.8791C23.7739 31.8473 23.8365 31.8293 23.9006 31.8267C23.9648 31.824 24.0286 31.8368 24.087 31.8639L25.2692 32.5572C25.364 32.613 25.3507 32.7111 25.2426 32.7754L23.8476 33.5939C23.7915 33.6257 23.7289 33.6436 23.6648 33.6463C23.6007 33.6489 23.5368 33.6362 23.4784 33.6091V33.6091Z" fill="#5793CE"/>
<path d="M25.3024 34.6796L24.1202 33.9862C24.0254 33.9304 24.0371 33.834 24.1468 33.7697L25.5418 32.9512C25.5978 32.9192 25.6603 32.9009 25.7244 32.898C25.7885 32.895 25.8525 32.9075 25.911 32.9343L27.0932 33.6277C27.1879 33.6835 27.1746 33.7816 27.0666 33.8458L25.6649 34.6677C25.6094 34.6979 25.5479 34.7147 25.485 34.7167C25.4221 34.7188 25.3597 34.7061 25.3024 34.6796V34.6796Z" fill="#5793CE"/>
<path d="M27.8264 33.7951L26.6442 33.1017C26.5494 33.0459 26.5627 32.9495 26.6708 32.8853L27.8347 32.197C27.891 32.1652 27.9539 32.1472 28.0183 32.1446C28.0827 32.1419 28.1468 32.1547 28.2055 32.1818L29.386 32.8751C29.4808 32.9309 29.4692 33.029 29.3594 33.0933L28.1955 33.7799C28.1395 33.8117 28.0769 33.8296 28.0127 33.8323C27.9486 33.8349 27.8848 33.8222 27.8264 33.7951V33.7951Z" fill="#5793CE"/>
<path d="M29.6554 34.8673L28.4732 34.1722C28.3784 34.1181 28.3917 34.02 28.4998 33.9557L29.6637 33.2692C29.7199 33.2371 29.7827 33.2188 29.8471 33.2159C29.9115 33.2129 29.9757 33.2254 30.0345 33.2522L31.215 33.9456C31.3098 34.0014 31.2981 34.0995 31.1884 34.1638L30.0245 34.8503C29.9685 34.882 29.9059 34.9001 29.8419 34.903C29.7778 34.9059 29.714 34.8937 29.6554 34.8673Z" fill="#5793CE"/>
<path d="M31.4728 35.9377L30.2906 35.2444C30.1958 35.1886 30.2091 35.0905 30.3172 35.0262L31.4811 34.3396C31.5374 34.3078 31.6003 34.2898 31.6647 34.2872C31.7291 34.2846 31.7932 34.2973 31.8519 34.3244L33.0324 35.0178C33.1272 35.0736 33.1155 35.17 33.0058 35.2342L31.8419 35.9225C31.7858 35.9543 31.7232 35.9723 31.6591 35.9749C31.595 35.9776 31.5311 35.9648 31.4728 35.9377V35.9377Z" fill="#5793CE"/>
<path d="M33.2968 37.0082L32.1163 36.3148C32.0198 36.259 32.0331 36.1626 32.1412 36.0984L33.3051 35.4101C33.3615 35.3783 33.4244 35.3603 33.4887 35.3577C33.5531 35.355 33.6172 35.3678 33.6759 35.3949L34.8565 36.0882C34.9512 36.144 34.9396 36.2421 34.8299 36.3064L33.6659 36.993C33.6099 37.0248 33.5473 37.0427 33.4832 37.0454C33.419 37.048 33.3552 37.0353 33.2968 37.0082V37.0082Z" fill="#5793CE"/>
<path d="M35.1208 38.0804L33.9403 37.387C33.8438 37.3312 33.8571 37.2331 33.9652 37.1689L35.1291 36.4823C35.1855 36.4507 35.2483 36.4327 35.3126 36.4298C35.3769 36.4268 35.441 36.439 35.4999 36.4654L36.6804 37.1604C36.7752 37.2162 36.7636 37.3126 36.6538 37.3769L35.4899 38.0635C35.434 38.0955 35.3715 38.1138 35.3073 38.1167C35.2432 38.1197 35.1793 38.1072 35.1208 38.0804V38.0804Z" fill="#5793CE"/>
<path d="M36.9448 39.1508L35.7642 38.4575C35.6678 38.4017 35.6811 38.3036 35.7892 38.2393L36.9531 37.5527C37.0094 37.5209 37.0723 37.503 37.1367 37.5003C37.2011 37.4977 37.2652 37.5104 37.3239 37.5375L38.5044 38.2309C38.5992 38.2867 38.5875 38.3831 38.4778 38.4473L37.3139 39.1356C37.2579 39.1674 37.1952 39.1854 37.1311 39.188C37.067 39.1907 37.0032 39.1779 36.9448 39.1508V39.1508Z" fill="#5793CE"/>
<path d="M38.7688 40.2213L37.5883 39.5279C37.4919 39.4721 37.5052 39.3757 37.6149 39.3115L38.7788 38.6232C38.8351 38.5914 38.898 38.5734 38.9624 38.5708C39.0268 38.5681 39.0909 38.5809 39.1496 38.608L40.3301 39.3013C40.4249 39.3571 40.4133 39.4552 40.3035 39.5195L39.1396 40.2061C39.0834 40.2382 39.0205 40.2563 38.956 40.2589C38.8916 40.2616 38.8274 40.2487 38.7688 40.2213V40.2213Z" fill="#5793CE"/>
<path d="M40.5929 41.2935L39.4123 40.6001C39.3176 40.5443 39.3292 40.4462 39.4389 40.382L40.6028 39.6954C40.6592 39.6635 40.7221 39.6456 40.7865 39.6429C40.8509 39.6403 40.915 39.6531 40.9736 39.6802L42.1542 40.3735C42.2489 40.4293 42.2373 40.5257 42.1276 40.59L40.9637 41.2766C40.9077 41.3093 40.8448 41.3279 40.7803 41.3309C40.7158 41.3338 40.6515 41.321 40.5929 41.2935V41.2935Z" fill="#5793CE"/>
<path d="M42.4168 42.3639L41.2363 41.6706C41.1415 41.6148 41.1532 41.5184 41.2629 41.4524L42.4268 40.7658C42.4832 40.734 42.546 40.7161 42.6104 40.7134C42.6748 40.7108 42.7389 40.7235 42.7976 40.7506L43.9781 41.444C44.0729 41.4998 44.0613 41.5962 43.9515 41.6604L42.7876 42.3487C42.7314 42.3808 42.6685 42.3989 42.604 42.4016C42.5396 42.4042 42.4754 42.3913 42.4168 42.3639V42.3639Z" fill="#5793CE"/>
<path d="M44.2409 43.4344L43.0604 42.7411C42.9656 42.6853 42.9773 42.5889 43.087 42.5246L44.2509 41.8363C44.3072 41.8045 44.3701 41.7866 44.4345 41.7839C44.4989 41.7813 44.563 41.794 44.6217 41.8211L45.8022 42.5145C45.897 42.5703 45.8854 42.6684 45.7756 42.7326L44.6117 43.4192C44.5555 43.4513 44.4926 43.4694 44.4281 43.4721C44.3637 43.4747 44.2995 43.4618 44.2409 43.4344V43.4344Z" fill="#5793CE"/>
<path d="M30.5117 33.2877L29.3312 32.5944C29.2364 32.5386 29.248 32.4422 29.3578 32.3779L30.5217 31.6897C30.5777 31.6578 30.6403 31.6399 30.7044 31.6372C30.7686 31.6346 30.8324 31.6473 30.8908 31.6744L32.073 32.3678C32.1678 32.4236 32.1545 32.5217 32.0464 32.5859L30.8825 33.2725C30.8261 33.3044 30.7633 33.3223 30.6989 33.325C30.6345 33.3276 30.5704 33.3149 30.5117 33.2877Z" fill="#5793CE"/>
<path d="M28.6578 32.2021L27.4756 31.507C27.3808 31.4512 27.3941 31.3548 27.5022 31.2906L28.6661 30.604C28.7223 30.5719 28.7851 30.5536 28.8495 30.5507C28.9139 30.5477 28.9781 30.5602 29.0369 30.5871L30.2175 31.2804C30.3122 31.3362 30.3006 31.4343 30.1908 31.4986L29.0269 32.1852C28.9709 32.2169 28.9084 32.2349 28.8443 32.2378C28.7803 32.2407 28.7164 32.2285 28.6578 32.2021Z" fill="#5793CE"/>
<path d="M26.8071 31.1164L24.2632 29.6214C24.1684 29.5656 24.18 29.4692 24.2898 29.405L25.4537 28.7184C25.5094 28.6859 25.572 28.6675 25.6362 28.6645C25.7004 28.6616 25.7644 28.6742 25.8228 28.7015L28.3668 30.1964C28.4615 30.2522 28.4499 30.3486 28.3402 30.4129L27.1763 31.0995C27.1203 31.1316 27.0578 31.1498 26.9937 31.1527C26.9296 31.1557 26.8656 31.1432 26.8071 31.1164V31.1164Z" fill="#5793CE"/>
<path d="M28.1025 29.7888L26.039 28.5797C25.9443 28.5239 25.9559 28.4258 26.0656 28.3616L27.2296 27.675C27.2859 27.6431 27.3488 27.6252 27.4132 27.6225C27.4776 27.6199 27.5417 27.6326 27.6003 27.6597L29.6638 28.8723C29.7602 28.9281 29.7469 29.0245 29.6388 29.0887L28.4749 29.7753C28.4183 29.8072 28.355 29.825 28.2903 29.8273C28.2256 29.8297 28.1612 29.8165 28.1025 29.7888V29.7888Z" fill="#5793CE"/>
<path d="M32.3358 34.3599L31.1552 33.6666C31.0605 33.6108 31.0721 33.5127 31.1819 33.4484L32.3458 32.7618C32.4018 32.73 32.4644 32.7121 32.5285 32.7094C32.5927 32.7068 32.6565 32.7195 32.7149 32.7466L33.8971 33.44C33.9919 33.4958 33.9786 33.5922 33.8705 33.6564L32.7066 34.343C32.6505 34.3755 32.5876 34.394 32.5232 34.3969C32.4587 34.3999 32.3945 34.3872 32.3358 34.3599V34.3599Z" fill="#5793CE"/>
<path d="M34.1598 35.4304L32.9792 34.737C32.8844 34.6812 32.8961 34.5831 33.0058 34.5189L34.1697 33.8323C34.2258 33.8005 34.2884 33.7825 34.3525 33.7799C34.4166 33.7772 34.4805 33.79 34.5389 33.8171L35.7211 34.5104C35.8158 34.5662 35.8025 34.6626 35.6945 34.7269L34.5305 35.4152C34.4742 35.447 34.4113 35.465 34.3469 35.4676C34.2825 35.4702 34.2184 35.4575 34.1598 35.4304V35.4304Z" fill="#5793CE"/>
<path d="M35.9837 36.5009L34.8032 35.8075C34.7084 35.7517 34.7201 35.6553 34.8298 35.591L35.9937 34.9028C36.0497 34.8709 36.1124 34.853 36.1765 34.8503C36.2406 34.8477 36.3044 34.8604 36.3628 34.8875L37.545 35.5809C37.6398 35.6367 37.6265 35.7348 37.5184 35.799L36.3545 36.4856C36.2982 36.5175 36.2353 36.5354 36.1709 36.5381C36.1065 36.5407 36.0424 36.528 35.9837 36.5009V36.5009Z" fill="#5793CE"/>
<path d="M37.8028 37.573L36.6223 36.8797C36.5275 36.8239 36.5392 36.7258 36.6489 36.6615L37.8128 35.9749C37.8688 35.9431 37.9315 35.9252 37.9956 35.9225C38.0597 35.9199 38.1235 35.9326 38.1819 35.9597L39.3641 36.6531C39.4589 36.7089 39.4456 36.8053 39.3375 36.8695L38.1736 37.5578C38.1173 37.5896 38.0544 37.6076 37.99 37.6102C37.9256 37.6129 37.8615 37.6001 37.8028 37.573V37.573Z" fill="#5793CE"/>
<path d="M39.6318 38.6435L38.4513 37.9501C38.3565 37.8943 38.3681 37.7979 38.4779 37.7337L39.6418 37.0454C39.6978 37.0136 39.7604 36.9956 39.8246 36.993C39.8887 36.9903 39.9525 37.0031 40.0109 37.0302L41.1931 37.7235C41.2879 37.7793 41.2746 37.8774 41.1665 37.9417L40.0026 38.6283C39.9463 38.6601 39.8834 38.6781 39.819 38.6807C39.7546 38.6833 39.6905 38.6706 39.6318 38.6435Z" fill="#5793CE"/>
<path d="M41.4608 39.7157L40.2802 39.0206C40.1855 38.9648 40.1971 38.8684 40.3069 38.8041L41.4708 38.1176C41.5267 38.0855 41.5892 38.0672 41.6533 38.0643C41.7175 38.0614 41.7814 38.0738 41.8399 38.1006L43.0221 38.794C43.1169 38.8498 43.1052 38.9479 42.9955 39.0122L41.8316 39.6987C41.7752 39.7303 41.7124 39.7483 41.6481 39.7512C41.5838 39.7542 41.5197 39.742 41.4608 39.7157V39.7157Z" fill="#5793CE"/>
<path d="M43.2799 40.7861L42.0993 40.0928C42.0046 40.037 42.0162 39.9389 42.1259 39.8746L43.2899 39.188C43.3459 39.1562 43.4085 39.1383 43.4726 39.1356C43.5368 39.133 43.6006 39.1457 43.659 39.1728L44.8412 39.8662C44.936 39.922 44.9243 40.0184 44.8146 40.0826L43.6507 40.7709C43.5943 40.8027 43.5314 40.8207 43.4671 40.8233C43.4027 40.826 43.3386 40.8132 43.2799 40.7861V40.7861Z" fill="#5793CE"/>
<path d="M45.1039 41.8566L43.9233 41.1632C43.8285 41.1074 43.8402 41.011 43.9499 40.9468L45.1138 40.2585C45.1699 40.2267 45.2325 40.2087 45.2966 40.2061C45.3607 40.2034 45.4246 40.2162 45.483 40.2433L46.6652 40.9366C46.7599 40.9924 46.7483 41.0905 46.6386 41.1548L45.4746 41.8414C45.4183 41.8732 45.3554 41.8912 45.291 41.8938C45.2266 41.8964 45.1625 41.8837 45.1039 41.8566V41.8566Z" fill="#5793CE"/>
<path d="M46.9278 42.9288L45.7473 42.2337C45.6525 42.1796 45.6642 42.0815 45.7739 42.0173L46.9378 41.3307C46.9937 41.2986 47.0563 41.2804 47.1204 41.2774C47.1845 41.2745 47.2484 41.2869 47.3069 41.3138L48.4891 42.0088C48.5839 42.0629 48.5723 42.161 48.4625 42.2253L47.2986 42.9119C47.2424 42.944 47.1796 42.9622 47.1152 42.9652C47.0508 42.9681 46.9866 42.9556 46.9278 42.9288V42.9288Z" fill="#5793CE"/>
<path d="M50.1718 44.833L47.5946 43.3194C47.4998 43.2636 47.5114 43.1655 47.6212 43.1013L48.7851 42.4147C48.8414 42.3828 48.9043 42.3649 48.9687 42.3622C49.0331 42.3596 49.0972 42.3724 49.1559 42.3995L51.7331 43.9113C51.8279 43.9671 51.8162 44.0652 51.7065 44.1295L50.5426 44.8161C50.4863 44.848 50.4235 44.8662 50.3592 44.8691C50.2948 44.8721 50.2306 44.8597 50.1718 44.833V44.833Z" fill="#5793CE"/>
<path d="M53.7217 42.7462L51.5468 41.4694C51.4521 41.4136 51.4637 41.3172 51.5735 41.2529L52.7374 40.5646C52.7934 40.5328 52.856 40.5149 52.9201 40.5122C52.9843 40.5096 53.0481 40.5223 53.1065 40.5494L55.283 41.8262C55.3778 41.882 55.3661 41.9801 55.2564 42.0443L54.0925 42.7309C54.0361 42.7628 53.9733 42.7807 53.9089 42.7834C53.8445 42.786 53.7804 42.7733 53.7217 42.7462V42.7462Z" fill="#5793CE"/>
<path d="M35.5299 34.1502L34.3493 33.4569C34.2546 33.4011 34.2662 33.303 34.3759 33.2387L35.5399 32.5521C35.5959 32.5203 35.6585 32.5024 35.7226 32.4997C35.7868 32.4971 35.8506 32.5098 35.909 32.5369L37.0912 33.2303C37.186 33.2861 37.1743 33.3825 37.0646 33.4467L35.9007 34.135C35.8443 34.1668 35.7814 34.1848 35.7171 34.1874C35.6527 34.1901 35.5886 34.1773 35.5299 34.1502V34.1502Z" fill="#5793CE"/>
<path d="M33.661 33.0527L32.4804 32.3594C32.3857 32.3036 32.3973 32.2055 32.507 32.1412L33.671 31.4546C33.7273 31.423 33.7901 31.4051 33.8544 31.4021C33.9187 31.3992 33.9828 31.4114 34.0417 31.4377L35.2223 32.1328C35.3171 32.1886 35.3054 32.285 35.1957 32.3492L34.0318 33.0358C33.9756 33.0679 33.9127 33.0862 33.8484 33.0891C33.784 33.092 33.7198 33.0796 33.661 33.0527V33.0527Z" fill="#5793CE"/>
<path d="M31.792 31.9619L30.6098 31.2669C30.5151 31.2111 30.5267 31.1147 30.6364 31.0504L31.8003 30.3638C31.8566 30.3317 31.9194 30.3135 31.9838 30.3105C32.0482 30.3076 32.1123 30.3201 32.1711 30.3469L33.3517 31.0403C33.4465 31.0961 33.4348 31.1942 33.3251 31.2584L32.1612 31.945C32.1051 31.9767 32.0426 31.9947 31.9786 31.9977C31.9145 32.0006 31.8507 31.9884 31.792 31.9619V31.9619Z" fill="#5793CE"/>
<path d="M29.9215 30.856L28.7409 30.1626C28.6462 30.1068 28.6578 30.0104 28.7675 29.9461L29.9315 29.2579C29.9875 29.226 30.0501 29.2081 30.1142 29.2055C30.1784 29.2028 30.2422 29.2155 30.3006 29.2426L31.4844 29.9326C31.5792 29.9884 31.5676 30.0865 31.4578 30.1508L30.2939 30.8374C30.2376 30.87 30.1746 30.8887 30.1099 30.8919C30.0452 30.8952 29.9806 30.8828 29.9215 30.856V30.856Z" fill="#5793CE"/>
<path d="M37.3539 35.2207L36.1733 34.5273C36.0785 34.4715 36.0902 34.3751 36.1999 34.3109L37.3638 33.6226C37.4199 33.5908 37.4825 33.5728 37.5466 33.5702C37.6107 33.5676 37.6746 33.5803 37.733 33.6074L38.9152 34.3007C39.0099 34.3565 38.9983 34.4546 38.8885 34.5189L37.7246 35.2055C37.6683 35.2373 37.6054 35.2553 37.541 35.2579C37.4766 35.2606 37.4125 35.2478 37.3539 35.2207Z" fill="#5793CE"/>
<path d="M39.1778 36.2929L37.9973 35.5978C37.9025 35.542 37.9142 35.4456 38.0239 35.3814L39.1878 34.6948C39.2437 34.6627 39.3063 34.6444 39.3704 34.6415C39.4345 34.6386 39.4984 34.651 39.5569 34.6779L40.7391 35.3712C40.8339 35.427 40.8223 35.5251 40.7125 35.5894L39.5486 36.276C39.4922 36.3076 39.4295 36.3255 39.3652 36.3284C39.3009 36.3314 39.2368 36.3192 39.1778 36.2929V36.2929Z" fill="#5793CE"/>
<path d="M41.0019 37.3633L39.8214 36.67C39.7266 36.6142 39.7382 36.5161 39.848 36.4518L41.0119 35.7652C41.0679 35.7334 41.1306 35.7155 41.1947 35.7128C41.2588 35.7102 41.3226 35.7229 41.381 35.75L42.5632 36.4434C42.658 36.4992 42.6464 36.5956 42.5366 36.6598L41.3727 37.3481C41.3164 37.38 41.2535 37.3979 41.1891 37.4006C41.1247 37.4032 41.0606 37.3904 41.0019 37.3633Z" fill="#5793CE"/>
<path d="M42.8259 38.4338L41.6454 37.7405C41.5506 37.6846 41.5622 37.5883 41.672 37.524L42.8359 36.8357C42.8919 36.8039 42.9545 36.7859 43.0187 36.7833C43.0828 36.7807 43.1466 36.7934 43.205 36.8205L44.3872 37.5138C44.482 37.5697 44.4703 37.6677 44.3606 37.732L43.1967 38.4186C43.1403 38.4504 43.0775 38.4684 43.0131 38.471C42.9487 38.4737 42.8846 38.4609 42.8259 38.4338V38.4338Z" fill="#5793CE"/>
<path d="M44.6499 39.506L43.4693 38.8109C43.3746 38.7568 43.3862 38.6587 43.4959 38.5945L44.6598 37.9079C44.7158 37.8758 44.7783 37.8575 44.8424 37.8546C44.9066 37.8517 44.9705 37.8641 45.029 37.891L46.2112 38.586C46.306 38.6401 46.2943 38.7382 46.1846 38.8025L45.0207 39.4891C44.9645 39.5212 44.9016 39.5394 44.8372 39.5423C44.7728 39.5453 44.7087 39.5328 44.6499 39.506V39.506Z" fill="#5793CE"/>
<path d="M46.474 40.5764L45.2934 39.8831C45.1987 39.8273 45.2103 39.7292 45.32 39.6649L46.4839 38.9783C46.54 38.9465 46.6026 38.9286 46.6667 38.9259C46.7308 38.9233 46.7947 38.936 46.8531 38.9631L48.0353 39.6565C48.13 39.7123 48.1184 39.8087 48.0087 39.8729L46.8448 40.5612C46.7884 40.5931 46.7255 40.611 46.6611 40.6137C46.5967 40.6163 46.5326 40.6036 46.474 40.5764Z" fill="#5793CE"/>
<path d="M48.2979 41.6469L47.1174 40.9536C47.0226 40.8978 47.0343 40.8014 47.144 40.7371L48.3079 40.0488C48.364 40.017 48.4266 39.999 48.4907 39.9964C48.5548 39.9938 48.6187 40.0065 48.677 40.0336L49.8592 40.7269C49.954 40.7828 49.9424 40.8808 49.8326 40.9451L48.6687 41.6317C48.6124 41.6635 48.5495 41.6815 48.4851 41.6841C48.4207 41.6868 48.3566 41.674 48.2979 41.6469Z" fill="#5793CE"/>
<path d="M50.1219 42.7191L48.9414 42.0257C48.8466 41.9699 48.8582 41.8718 48.968 41.8076L50.1319 41.121C50.1879 41.0893 50.2504 41.0713 50.3145 41.0683C50.3786 41.0654 50.4424 41.0776 50.501 41.1041L51.6832 41.7991C51.778 41.8549 51.7664 41.9513 51.6566 42.0156L50.4927 42.7022C50.4365 42.7343 50.3737 42.7525 50.3093 42.7555C50.2449 42.7584 50.1807 42.7459 50.1219 42.7191V42.7191Z" fill="#5793CE"/>
<path d="M51.946 43.7895L50.7655 43.0962C50.6707 43.0404 50.6823 42.9423 50.7921 42.878L51.956 42.1915C52.012 42.1596 52.0746 42.1417 52.1388 42.139C52.2029 42.1364 52.2667 42.1491 52.3251 42.1762L53.5073 42.8696C53.6021 42.9254 53.5905 43.0218 53.4807 43.086L52.3168 43.7743C52.2605 43.8062 52.1976 43.8241 52.1332 43.8268C52.0688 43.8294 52.0047 43.8167 51.946 43.7895V43.7895Z" fill="#5793CE"/>
<path d="M34.5705 31.5003L33.3883 30.8069C33.2935 30.7511 33.3051 30.6547 33.4149 30.5904L34.5788 29.9022C34.6351 29.8703 34.698 29.8524 34.7624 29.8497C34.8268 29.8471 34.8909 29.8598 34.9496 29.8869L36.1301 30.5803C36.2249 30.6361 36.2133 30.7342 36.1035 30.7985L34.9396 31.485C34.8836 31.5169 34.821 31.5348 34.7568 31.5375C34.6927 31.5401 34.6289 31.5274 34.5705 31.5003Z" fill="#5793CE"/>
<path d="M32.7547 30.4399L31.5742 29.7466C31.4794 29.6908 31.4911 29.5927 31.6008 29.5284L32.7647 28.8418C32.8207 28.81 32.8834 28.7921 32.9475 28.7894C33.0116 28.7868 33.0754 28.7995 33.1338 28.8266L34.3144 29.52C34.4091 29.5758 34.3975 29.6722 34.2878 29.7364L33.1239 30.4247C33.0677 30.4563 33.0051 30.4741 32.9411 30.4767C32.877 30.4794 32.8132 30.4668 32.7547 30.4399V30.4399Z" fill="#5793CE"/>
<path d="M30.9407 29.3695L29.7585 28.6761C29.6637 28.6203 29.6754 28.5222 29.7851 28.458L30.949 27.7714C31.0054 27.7395 31.0683 27.7216 31.1326 27.7189C31.197 27.7163 31.2611 27.729 31.3198 27.7561L32.5004 28.4495C32.5951 28.5053 32.5835 28.6017 32.4738 28.666L31.3098 29.3542C31.2538 29.3861 31.1912 29.404 31.1271 29.4067C31.0629 29.4093 30.9991 29.3966 30.9407 29.3695Z" fill="#5793CE"/>
<path d="M29.125 28.3041L27.9444 27.609C27.8497 27.5549 27.8613 27.4568 27.971 27.3926L29.1349 26.706C29.1911 26.6739 29.254 26.6556 29.3184 26.6527C29.3828 26.6498 29.4469 26.6622 29.5057 26.6891L30.6863 27.3841C30.781 27.4382 30.7694 27.5363 30.6597 27.6006L29.4958 28.2872C29.4396 28.3193 29.3767 28.3375 29.3123 28.3405C29.2479 28.3434 29.1838 28.3309 29.125 28.3041V28.3041Z" fill="#5793CE"/>
<path d="M30.9856 27.2082L29.805 26.5132C29.7103 26.4574 29.7219 26.361 29.8316 26.2967L30.219 26.0701C30.275 26.038 30.3375 26.0198 30.4016 26.0168C30.4658 26.0139 30.5297 26.0264 30.5882 26.0532L31.7704 26.7482C31.8651 26.8024 31.8535 26.9004 31.7438 26.9647L31.3564 27.1913C31.3 27.223 31.2372 27.2411 31.1729 27.244C31.1086 27.2469 31.0445 27.2347 30.9856 27.2082V27.2082Z" fill="#5793CE"/>
<path d="M33.36 28.5983L32.1794 27.905C32.0846 27.8492 32.0963 27.7511 32.206 27.6868L32.5918 27.4602C32.6481 27.4284 32.711 27.4104 32.7754 27.4078C32.8398 27.4051 32.9039 27.4179 32.9626 27.445L34.1431 28.1383C34.2379 28.1942 34.2262 28.2905 34.1165 28.3548L33.7291 28.5797C33.6733 28.6121 33.6108 28.6306 33.5467 28.6338C33.4826 28.6371 33.4186 28.6249 33.36 28.5983V28.5983Z" fill="#5793CE"/>
<path d="M35.1673 29.6603L33.9868 28.9653C33.892 28.9095 33.9037 28.8131 34.0134 28.7488L34.3991 28.5222C34.4554 28.4901 34.5182 28.4719 34.5826 28.4689C34.647 28.466 34.7111 28.4784 34.7699 28.5053L35.9505 29.2003C36.0452 29.2545 36.0336 29.3525 35.9239 29.4168L35.5365 29.6434C35.4804 29.6751 35.4179 29.6931 35.3538 29.6961C35.2898 29.699 35.2259 29.6868 35.1673 29.6603V29.6603Z" fill="#5793CE"/>
<path d="M36.9714 30.7207L35.7909 30.0273C35.6961 29.9715 35.7077 29.8751 35.8175 29.8109L36.2032 29.5826C36.2596 29.5507 36.3224 29.5328 36.3868 29.5301C36.4512 29.5275 36.5153 29.5402 36.574 29.5673L37.7546 30.2607C37.8493 30.3165 37.8377 30.4146 37.7279 30.4788L37.3405 30.7055C37.2845 30.7373 37.2219 30.7552 37.1578 30.7579C37.0936 30.7605 37.0298 30.7478 36.9714 30.7207V30.7207Z" fill="#5793CE"/>
<path d="M38.7822 31.7827L37.6017 31.0893C37.5069 31.0335 37.5185 30.9354 37.6283 30.8712L38.014 30.6446C38.0704 30.6127 38.1332 30.5948 38.1976 30.5921C38.262 30.5895 38.3261 30.6022 38.3848 30.6293L39.5653 31.3227C39.6601 31.3785 39.6485 31.4749 39.5387 31.5392L39.1513 31.7658C39.0956 31.7982 39.033 31.8167 38.9688 31.8197C38.9046 31.8226 38.8406 31.8099 38.7822 31.7827Z" fill="#5793CE"/>
<path d="M48.8732 37.7117L47.691 37.0184C47.5962 36.9625 47.6079 36.8662 47.7176 36.8019L48.105 36.5736C48.1611 36.5418 48.2237 36.5238 48.2878 36.5212C48.3519 36.5185 48.4158 36.5313 48.4742 36.5584L49.6564 37.2517C49.7511 37.3075 49.7395 37.4056 49.6298 37.4699L49.2423 37.6965C49.1863 37.7283 49.1237 37.7463 49.0596 37.7489C48.9954 37.7515 48.9316 37.7388 48.8732 37.7117V37.7117Z" fill="#5793CE"/>
<path d="M50.6806 38.7687L49.4984 38.0753C49.4036 38.0195 49.4153 37.9214 49.525 37.8571L49.9124 37.6305C49.9684 37.5987 50.0311 37.5808 50.0952 37.5781C50.1593 37.5755 50.2231 37.5882 50.2815 37.6153L51.4637 38.3087C51.5585 38.3645 51.5469 38.4609 51.4371 38.5251L51.0497 38.7534C50.9937 38.7852 50.9311 38.8032 50.8669 38.8058C50.8028 38.8085 50.739 38.7957 50.6806 38.7687V38.7687Z" fill="#5793CE"/>
<path d="M52.488 39.8307L51.3058 39.1356C51.211 39.0815 51.2226 38.9834 51.3324 38.9191L51.7198 38.6925C51.7757 38.6605 51.8382 38.6422 51.9024 38.6393C51.9665 38.6363 52.0304 38.6488 52.0889 38.6756L53.2711 39.3707C53.3659 39.4248 53.3542 39.5229 53.2445 39.5871L52.8571 39.8137C52.8012 39.8458 52.7386 39.8641 52.6745 39.867C52.6104 39.8699 52.5465 39.8575 52.488 39.8307Z" fill="#5793CE"/>
<path d="M54.2953 40.891L53.1131 40.1976C53.0184 40.1418 53.03 40.0454 53.1397 39.9812L53.5272 39.7529C53.5832 39.7211 53.6458 39.7031 53.7099 39.7005C53.7741 39.6978 53.8379 39.7106 53.8963 39.7377L55.0785 40.431C55.1733 40.4868 55.1616 40.5849 55.0519 40.6492L54.6645 40.8758C54.6084 40.9076 54.5458 40.9255 54.4817 40.9282C54.4176 40.9308 54.3537 40.9181 54.2953 40.891V40.891Z" fill="#5793CE"/>
<path d="M36.3945 32.5724L35.2123 31.8774C35.1175 31.8233 35.1291 31.7252 35.2389 31.6609L36.4028 30.9743C36.459 30.9422 36.5218 30.924 36.5862 30.921C36.6506 30.9181 36.7148 30.9306 36.7736 30.9574L37.9541 31.6525C38.0489 31.7066 38.0372 31.8047 37.9275 31.8689L36.7636 32.5555C36.7075 32.5872 36.645 32.6052 36.581 32.6082C36.5169 32.6111 36.4531 32.5989 36.3945 32.5724Z" fill="#5793CE"/>
<path d="M38.2184 33.6429L37.0362 32.9495C36.9415 32.8937 36.9531 32.7957 37.0628 32.7314L38.2267 32.0448C38.2831 32.013 38.346 31.995 38.4104 31.9924C38.4747 31.9897 38.5389 32.0025 38.5975 32.0296L39.7781 32.7229C39.8728 32.7787 39.8612 32.8751 39.7515 32.9394L38.5876 33.6277C38.5315 33.6595 38.4689 33.6774 38.4048 33.6801C38.3407 33.6827 38.2768 33.67 38.2184 33.6429V33.6429Z" fill="#5793CE"/>
<path d="M40.0425 34.7134L38.8603 34.02C38.7655 33.9642 38.7772 33.8678 38.8869 33.8035L40.0508 33.1153C40.1072 33.0834 40.1701 33.0655 40.2345 33.0628C40.2988 33.0602 40.363 33.0729 40.4216 33.1L41.6022 33.7934C41.6969 33.8492 41.6853 33.9473 41.5756 34.0116L40.4117 34.6981C40.3556 34.73 40.293 34.7479 40.2289 34.7506C40.1647 34.7532 40.1009 34.7405 40.0425 34.7134V34.7134Z" fill="#5793CE"/>
<path d="M41.8665 35.7855L40.6843 35.0922C40.5895 35.0364 40.6012 34.9383 40.7109 34.874L41.8748 34.1874C41.9312 34.1558 41.994 34.1379 42.0583 34.1349C42.1226 34.132 42.1867 34.1442 42.2456 34.1705L43.4261 34.8656C43.5209 34.9214 43.5093 35.0178 43.3995 35.082L42.2356 35.7686C42.1797 35.8007 42.1172 35.819 42.053 35.8219C41.9889 35.8248 41.925 35.8124 41.8665 35.7855Z" fill="#5793CE"/>
<path d="M43.6905 36.856L42.5083 36.1627C42.4135 36.1068 42.4251 36.0088 42.5349 35.9445L43.6988 35.2579C43.7551 35.2261 43.818 35.2081 43.8824 35.2055C43.9468 35.2028 44.0109 35.2156 44.0696 35.2427L45.2501 35.936C45.3449 35.9918 45.3332 36.0882 45.2235 36.1525L44.0596 36.8408C44.0036 36.8726 43.9409 36.8906 43.8768 36.8932C43.8127 36.8958 43.7489 36.8831 43.6905 36.856V36.856Z" fill="#5793CE"/>
<path d="M45.5146 37.9265L44.3324 37.2331C44.2376 37.1773 44.2492 37.0809 44.359 37.0167L45.5229 36.3284C45.5792 36.2965 45.6421 36.2786 45.7065 36.2759C45.7709 36.2733 45.835 36.286 45.8937 36.3132L47.0742 37.0065C47.169 37.0623 47.1573 37.1604 47.0476 37.2247L45.8837 37.9112C45.8277 37.9431 45.765 37.961 45.7009 37.9637C45.6368 37.9663 45.573 37.9536 45.5146 37.9265V37.9265Z" fill="#5793CE"/>
<path d="M47.3386 38.9986L46.1564 38.3053C46.0616 38.2495 46.0749 38.1514 46.183 38.0871L47.3469 37.4005C47.4032 37.3687 47.4661 37.3508 47.5305 37.3481C47.5949 37.3455 47.659 37.3582 47.7177 37.3853L48.8982 38.0787C48.993 38.1345 48.9814 38.2309 48.8716 38.2951L47.7077 38.9834C47.6517 39.0152 47.5891 39.0332 47.5249 39.0358C47.4608 39.0385 47.397 39.0257 47.3386 38.9986V38.9986Z" fill="#5793CE"/>
<path d="M49.1626 40.0691L47.9804 39.3758C47.8856 39.3199 47.8989 39.2236 48.007 39.1576L49.1709 38.471C49.2272 38.4392 49.2901 38.4212 49.3545 38.4186C49.4189 38.4159 49.483 38.4287 49.5417 38.4558L50.7222 39.1491C50.817 39.205 50.8053 39.3013 50.6956 39.3656L49.5317 40.0539C49.4757 40.0857 49.413 40.1037 49.3489 40.1063C49.2848 40.1089 49.221 40.0962 49.1626 40.0691V40.0691Z" fill="#5793CE"/>
<path d="M50.9865 41.1396L49.8043 40.4462C49.7096 40.3904 49.7229 40.294 49.831 40.2298L50.9949 39.5415C51.0512 39.5096 51.1141 39.4917 51.1785 39.489C51.2429 39.4864 51.307 39.4991 51.3657 39.5263L52.5462 40.2196C52.641 40.2754 52.6293 40.3735 52.5196 40.4378L51.3557 41.1244C51.2996 41.1562 51.237 41.1741 51.1729 41.1768C51.1088 41.1794 51.0449 41.1667 50.9865 41.1396V41.1396Z" fill="#5793CE"/>
<path d="M25.9658 32.7043L22.4874 30.6615C22.3926 30.6057 22.4043 30.5076 22.514 30.4433L23.6779 29.7567C23.734 29.7249 23.7966 29.707 23.8607 29.7043C23.9248 29.7017 23.9887 29.7144 24.047 29.7415L27.5321 31.7928C27.6269 31.8486 27.6153 31.945 27.5055 32.0093L26.3416 32.6976C26.2841 32.7292 26.2199 32.7463 26.1545 32.7474C26.0891 32.7486 26.0244 32.7338 25.9658 32.7043V32.7043Z" fill="#5793CE"/>
<path d="M48.3744 45.8628L44.896 43.82C44.8012 43.7642 44.8128 43.6661 44.9226 43.6018L46.0865 42.9152C46.1425 42.8834 46.2051 42.8655 46.2693 42.8628C46.3334 42.8602 46.3972 42.8729 46.4556 42.9L49.9407 44.9429C50.0355 44.9987 50.0238 45.0951 49.9141 45.1593L48.7502 45.8476C48.6933 45.8805 48.6295 45.8991 48.5641 45.9018C48.4987 45.9044 48.4337 45.8911 48.3744 45.8628V45.8628Z" fill="#5793CE"/>
<path d="M41.0801 43.9451L39.8979 43.2518C39.8031 43.196 39.8164 43.0979 39.9245 43.0336L41.3195 42.2151C41.3755 42.1833 41.4381 42.1654 41.5023 42.1627C41.5664 42.1601 41.6302 42.1728 41.6886 42.1999L42.8708 42.8933C42.9656 42.9491 42.9539 43.0472 42.8442 43.1114L41.4492 43.9299C41.3931 43.9617 41.3305 43.9797 41.2664 43.9823C41.2023 43.985 41.1384 43.9722 41.0801 43.9451V43.9451Z" fill="#5793CE"/>
<path d="M27.8265 36.166L25.9376 35.0567C25.8428 35.0026 25.8545 34.9045 25.9642 34.8402L27.3592 34.0217C27.4153 33.9899 27.4779 33.9719 27.542 33.9693C27.6061 33.9667 27.67 33.9794 27.7284 34.0065L29.6172 35.1159C29.712 35.1717 29.7003 35.2681 29.5906 35.3323L28.1972 36.1508C28.1409 36.1826 28.078 36.2006 28.0136 36.2032C27.9492 36.2059 27.8851 36.1931 27.8265 36.166V36.166Z" fill="#5793CE"/>
<path d="M39.3225 42.9135L37.4337 41.8042C37.3389 41.7484 37.3506 41.6503 37.4603 41.586L38.8537 40.7675C38.91 40.7357 38.9729 40.7177 39.0373 40.7151C39.1017 40.7125 39.1658 40.7252 39.2244 40.7523L41.1133 41.8617C41.2081 41.9175 41.1964 42.0139 41.0867 42.0781L39.6917 42.8966C39.6358 42.9287 39.5732 42.947 39.5091 42.9499C39.445 42.9528 39.3811 42.9404 39.3225 42.9135V42.9135Z" fill="#5793CE"/>
<path d="M30.4651 37.7117L28.5763 36.6023C28.4815 36.5465 28.4931 36.4501 28.6029 36.3859L29.9962 35.5674C30.0526 35.5356 30.1155 35.5176 30.1799 35.515C30.2442 35.5123 30.3084 35.5251 30.367 35.5522L32.2559 36.6598C32.3507 36.7156 32.339 36.8137 32.2293 36.878L30.8359 37.6965C30.7796 37.7283 30.7167 37.7463 30.6523 37.7489C30.5879 37.7516 30.5238 37.7388 30.4651 37.7117V37.7117Z" fill="#5793CE"/>
<path d="M30.3804 35.5589L38.5926 40.382C38.6145 40.39 38.6334 40.4047 38.6468 40.424C38.6602 40.4434 38.6674 40.4665 38.6674 40.4902C38.6674 40.5139 38.6602 40.537 38.6468 40.5564C38.6334 40.5757 38.6145 40.5904 38.5926 40.5984L37.1709 41.4321C37.1139 41.4621 37.0506 41.4777 36.9864 41.4777C36.9222 41.4777 36.8589 41.4621 36.8018 41.4321L28.5896 36.6108L30.3804 35.5589Z" fill="#5793CE"/>
<path d="M46.178 45.8865L47.4932 46.6593C47.5713 46.705 47.5614 46.7845 47.4716 46.8285L46.9013 47.1667C46.8555 47.1931 46.8042 47.2082 46.7515 47.2105C46.6989 47.2129 46.6465 47.2025 46.5986 47.1802L45.2851 46.4124C45.2086 46.3668 45.2169 46.2873 45.3067 46.2349L45.877 45.8967C45.9229 45.871 45.974 45.8567 46.0263 45.855C46.0786 45.8532 46.1306 45.864 46.178 45.8865V45.8865Z" fill="#5793CE"/>
<path d="M44.3389 44.8144L45.6542 45.5855C45.7323 45.6312 45.7223 45.7123 45.6326 45.7648L45.0622 46.103C45.0161 46.1295 44.9644 46.1444 44.9115 46.1464C44.8586 46.1485 44.8059 46.1376 44.758 46.1148L43.4427 45.3437C43.3646 45.298 43.3746 45.2168 43.4644 45.1644L44.0347 44.8262C44.0808 44.7997 44.1325 44.7848 44.1854 44.7828C44.2383 44.7807 44.291 44.7915 44.3389 44.8144V44.8144Z" fill="#5793CE"/>
<path d="M42.515 43.7354L43.8302 44.5083C43.9083 44.5539 43.8984 44.6334 43.8086 44.6858L43.2382 45.0241C43.1923 45.0508 43.1406 45.066 43.0877 45.0683C43.0348 45.0707 42.9821 45.0601 42.934 45.0376L41.6271 44.2614C41.5489 44.2157 41.5589 44.1362 41.6487 44.0838L42.219 43.7456C42.2642 43.7207 42.3145 43.7069 42.3658 43.7051C42.4172 43.7034 42.4682 43.7138 42.515 43.7354Z" fill="#5793CE"/>
<path d="M45.3449 44.2157L46.6618 44.9885C46.74 45.0342 46.73 45.1137 46.6402 45.1661L46.0699 45.5043C46.0239 45.5311 45.9723 45.5462 45.9194 45.5486C45.8664 45.5509 45.8137 45.5404 45.7656 45.5178L44.4537 44.7416C44.3756 44.696 44.3856 44.6165 44.4753 44.5624L45.0457 44.2241C45.0914 44.199 45.1423 44.1852 45.1943 44.1837C45.2463 44.1823 45.2979 44.1932 45.3449 44.2157Z" fill="#5793CE"/>
<path d="M52.5511 23.3153L42.7261 17.5469L42.8524 16.8976L52.6775 22.6659L52.5511 23.3153Z" fill="#D4ECFF"/>
<path d="M49.0328 24.4111L42.1741 20.3846L42.3004 19.7352L49.1592 23.7618L49.0328 24.4111Z" fill="#D4ECFF"/>
<path d="M48.3827 22.4494L42.4501 18.9658L42.5764 18.3164L48.5091 21.8001L48.3827 22.4494Z" fill="white"/>
<path d="M52.2752 24.7341L49.3073 22.9923L49.4353 22.3429L52.4016 24.0847L52.2752 24.7341Z" fill="#0D6EFD"/>
<path d="M41.6786 11.8783L38.7123 10.1365L38.8386 9.48709L41.805 11.2289L41.6786 11.8783Z" fill="#D4ECFF"/>
<path d="M41.3577 13.3885L38.3914 11.6466L38.5177 10.9973L41.484 12.7391L41.3577 13.3885Z" fill="white"/>
<path d="M55.9182 34.3295L52.9519 32.5877L53.0783 31.9366L56.0446 33.6801L55.9182 34.3295Z" fill="#D4ECFF"/>
<path d="M40.7142 16.4071L37.7462 14.6653L37.8742 14.0159L40.8406 15.7577L40.7142 16.4071Z" fill="#D4ECFF"/>
<path d="M47.1241 16.8756C47.1027 16.9249 47.0712 16.9689 47.0317 17.0048C46.9922 17.0407 46.9456 17.0676 46.895 17.0836C46.8444 17.0996 46.7911 17.1044 46.7385 17.0977C46.686 17.091 46.6354 17.0729 46.5903 17.0447C46.4931 16.9862 46.42 16.8937 46.3848 16.7845C46.3497 16.6753 46.3547 16.5568 46.3991 16.4511C46.4202 16.4016 46.4516 16.3573 46.4911 16.3213C46.5306 16.2852 46.5772 16.2583 46.6279 16.2422C46.6785 16.2262 46.732 16.2214 46.7846 16.2283C46.8373 16.2351 46.8878 16.2535 46.9328 16.282C47.0304 16.3402 47.1036 16.4327 47.1389 16.542C47.1741 16.6513 47.1688 16.7699 47.1241 16.8756Z" fill="#0D6EFD"/>
<path d="M48.401 17.6264C48.3799 17.6759 48.3485 17.7202 48.309 17.7562C48.2695 17.7923 48.2229 17.8192 48.1722 17.8353C48.1216 17.8513 48.0681 17.8561 48.0155 17.8492C47.9628 17.8424 47.9123 17.824 47.8673 17.7955C47.7701 17.7373 47.6973 17.6451 47.6624 17.536C47.6275 17.427 47.6329 17.3088 47.6777 17.2036C47.6989 17.1544 47.7302 17.1103 47.7696 17.0744C47.8089 17.0386 47.8554 17.0117 47.9058 16.9957C47.9563 16.9796 48.0095 16.9748 48.062 16.9815C48.1144 16.9882 48.1648 17.0063 48.2098 17.0345C48.3069 17.0927 48.3799 17.1849 48.4151 17.2938C48.4503 17.4027 48.4453 17.521 48.401 17.6264V17.6264Z" fill="white"/>
<path d="M49.6797 18.3756C49.6584 18.4249 49.6269 18.469 49.5874 18.5048C49.5479 18.5407 49.5012 18.5676 49.4507 18.5836C49.4001 18.5996 49.3467 18.6044 49.2942 18.5977C49.2416 18.591 49.1911 18.5729 49.146 18.5447C49.0488 18.4865 48.9759 18.3943 48.9407 18.2854C48.9055 18.1765 48.9105 18.0582 48.9548 17.9528C48.9761 17.9035 49.0076 17.8594 49.0471 17.8235C49.0866 17.7876 49.1332 17.7608 49.1838 17.7448C49.2344 17.7287 49.2877 17.7239 49.3403 17.7306C49.3929 17.7373 49.4434 17.7554 49.4885 17.7837C49.5856 17.8419 49.6586 17.934 49.6938 18.043C49.729 18.1519 49.724 18.2701 49.6797 18.3756Z" fill="#D4ECFF"/>
<path d="M50.9566 19.1264C50.9354 19.1757 50.9041 19.2197 50.8647 19.2556C50.8254 19.2915 50.7789 19.3183 50.7285 19.3344C50.678 19.3504 50.6248 19.3552 50.5723 19.3485C50.5199 19.3418 50.4695 19.3238 50.4245 19.2955C50.3271 19.2376 50.2539 19.1455 50.2187 19.0364C50.1834 18.9274 50.1886 18.809 50.2333 18.7036C50.2542 18.6542 50.2854 18.6099 50.3248 18.5739C50.3641 18.5379 50.4106 18.5109 50.4611 18.4948C50.5117 18.4788 50.565 18.474 50.6175 18.4809C50.67 18.4877 50.7205 18.506 50.7654 18.5345C50.8628 18.5925 50.936 18.6846 50.9712 18.7936C51.0064 18.9027 51.0012 19.021 50.9566 19.1264V19.1264Z" fill="#0D6EFD"/>
<path d="M29.3677 15.7476L22.9696 11.9916C22.9157 11.957 22.8543 11.9365 22.7908 11.9317C22.7273 11.927 22.6636 11.9383 22.6054 11.9646V11.9646L21.8406 12.3248L22.2962 12.4939L21.3717 17.229C21.2969 17.6146 21.4665 18.0627 21.7508 18.2301L27.8713 21.8153L27.7615 22.37L28.533 22.003C28.6072 21.9599 28.6706 21.8999 28.7182 21.8277C28.7658 21.7556 28.7963 21.6732 28.8074 21.587L29.7468 16.742C29.8217 16.3615 29.6554 15.9133 29.3677 15.7476Z" fill="#0D6EFD"/>
<path d="M27.3775 22.3514L20.9777 18.6022C20.6934 18.4331 20.5238 17.9866 20.5986 17.601L21.5414 12.7645C21.6179 12.3789 21.9088 12.2013 22.1932 12.3687L28.5913 16.1179C28.8757 16.287 29.0453 16.7318 28.9704 17.1174L28.0277 21.9556C27.9529 22.3412 27.6602 22.5171 27.3775 22.3514Z" fill="#0D6EFD"/>
<path d="M28.7376 16.0655L22.3394 12.3028C22.2772 12.2613 22.2043 12.2393 22.1299 12.2393C22.0555 12.2393 21.9827 12.2613 21.9204 12.3028C22.0155 12.288 22.1126 12.3078 22.1948 12.3586L28.5913 16.118C28.8756 16.2871 29.0452 16.7318 28.9704 17.1174L28.0276 21.9557C28.0043 22.1123 27.9213 22.2532 27.7965 22.348C27.8977 22.3222 27.9884 22.2647 28.0558 22.1837C28.1232 22.1027 28.1639 22.0023 28.1723 21.8965L29.115 17.0599C29.1915 16.6743 29.0219 16.2346 28.7376 16.0655Z" fill="white"/>
<path d="M23.7012 16.928C23.698 16.9891 23.6786 17.0481 23.6451 17.0989C23.6115 17.1497 23.5651 17.1902 23.5106 17.2162C23.4562 17.2423 23.3959 17.2528 23.336 17.2467C23.2762 17.2406 23.2191 17.2181 23.1708 17.1816C23.0487 17.1014 22.9522 16.9867 22.8931 16.8515C22.834 16.7164 22.815 16.5666 22.8383 16.4206C22.8414 16.3596 22.8608 16.3005 22.8944 16.2497C22.9279 16.199 22.9744 16.1584 23.0288 16.1324C23.0833 16.1064 23.1436 16.0958 23.2035 16.1019C23.2633 16.108 23.3204 16.1305 23.3687 16.167C23.4905 16.2475 23.5868 16.3623 23.6458 16.4974C23.7048 16.6324 23.7241 16.782 23.7012 16.928V16.928Z" fill="white"/>
<path d="M25.008 17.6957C25.0049 17.7568 24.9855 17.8159 24.9519 17.8667C24.9184 17.9174 24.8719 17.958 24.8175 17.984C24.763 18.01 24.7027 18.0206 24.6428 18.0145C24.583 18.0084 24.5259 17.9859 24.4776 17.9494C24.3558 17.8688 24.2595 17.7541 24.2005 17.619C24.1415 17.4839 24.1222 17.3344 24.1451 17.1884C24.1483 17.1273 24.1677 17.0683 24.2012 17.0175C24.2348 16.9667 24.2812 16.9262 24.3357 16.9002C24.3901 16.8741 24.4504 16.8636 24.5103 16.8697C24.5701 16.8758 24.6272 16.8983 24.6755 16.9347C24.7976 17.015 24.8941 17.1297 24.9532 17.2649C25.0123 17.4 25.0313 17.5498 25.008 17.6957V17.6957Z" fill="white"/>
<path d="M26.3166 18.4635C26.3135 18.5246 26.2941 18.5837 26.2605 18.6344C26.227 18.6852 26.1805 18.7257 26.1261 18.7518C26.0716 18.7778 26.0113 18.7883 25.9514 18.7822C25.8916 18.7761 25.8345 18.7537 25.7862 18.7172C25.6644 18.6366 25.5681 18.5218 25.5091 18.3868C25.4501 18.2517 25.4308 18.1021 25.4537 17.9562C25.4568 17.8951 25.4762 17.836 25.5098 17.7853C25.5434 17.7345 25.5898 17.694 25.6443 17.6679C25.6987 17.6419 25.759 17.6314 25.8189 17.6375C25.8787 17.6435 25.9358 17.666 25.9841 17.7025C26.1059 17.7831 26.2022 17.8978 26.2612 18.0329C26.3202 18.168 26.3395 18.3175 26.3166 18.4635Z" fill="white"/>
<path d="M26.4962 9.66467L20.0964 5.90872C20.0428 5.87412 19.9817 5.85355 19.9185 5.84883C19.8552 5.8441 19.7918 5.85539 19.7339 5.88166V5.88166L18.9707 6.24694L19.4246 6.41605L18.5018 11.1512C18.427 11.5367 18.5966 11.9849 18.8809 12.1523L24.9997 15.7273L24.8917 16.2837L25.6648 15.9201C25.7392 15.8768 25.8027 15.8165 25.8503 15.7441C25.8979 15.6716 25.9284 15.5888 25.9392 15.5024L26.882 10.6641C26.9501 10.2785 26.7805 9.83209 26.4962 9.66467Z" fill="#5793CE"/>
<path d="M24.501 16.2684L18.1061 12.5142C17.8218 12.3451 17.6522 11.8986 17.727 11.5131L18.6698 6.67648C18.7446 6.29091 19.0356 6.11334 19.3199 6.28076L25.7198 10.0367C26.0041 10.2058 26.1737 10.6523 26.0972 11.0362L25.1544 15.8744C25.0796 16.2583 24.7886 16.4359 24.501 16.2684Z" fill="#D4ECFF"/>
<path d="M25.8644 9.97754L19.4662 6.22158C19.4038 6.17976 19.3306 6.15747 19.2559 6.15747C19.1811 6.15747 19.108 6.17976 19.0455 6.22158C19.1404 6.20524 19.2379 6.22447 19.3199 6.2757L25.7197 10.0317C26.004 10.2008 26.1736 10.6472 26.0972 11.0311L25.1544 15.8694C25.1432 15.947 25.117 16.0217 25.0774 16.089C25.0377 16.1563 24.9853 16.215 24.9233 16.2617C25.0245 16.2363 25.1154 16.1792 25.1831 16.0985C25.2508 16.0178 25.2919 15.9176 25.3007 15.8119L26.2435 10.9736C26.3183 10.5914 26.1487 10.1466 25.8644 9.97754Z" fill="white"/>
<path d="M20.828 10.8451C20.8248 10.9061 20.8054 10.9652 20.7719 11.016C20.7383 11.0667 20.6918 11.1073 20.6374 11.1333C20.583 11.1593 20.5226 11.1699 20.4628 11.1638C20.403 11.1577 20.3459 11.1352 20.2976 11.0987C20.1757 11.0182 20.0795 10.9034 20.0205 10.7683C19.9614 10.6333 19.9422 10.4837 19.965 10.3377C19.9685 10.2768 19.9881 10.2179 20.0218 10.1674C20.0554 10.1169 20.1019 10.0766 20.1563 10.0507C20.2107 10.0249 20.2709 10.0145 20.3306 10.0207C20.3903 10.0268 20.4473 10.0493 20.4954 10.0858C20.6173 10.1659 20.7136 10.2803 20.7727 10.4151C20.8317 10.55 20.8509 10.6993 20.828 10.8451V10.8451Z" fill="white"/>
<path d="M22.1366 11.6128C22.1334 11.6739 22.114 11.733 22.0804 11.7838C22.0469 11.8345 22.0004 11.8751 21.946 11.9011C21.8916 11.9271 21.8312 11.9377 21.7714 11.9316C21.7115 11.9255 21.6544 11.903 21.6061 11.8665C21.4845 11.7858 21.3883 11.671 21.3293 11.536C21.2703 11.401 21.251 11.2515 21.2736 11.1055C21.2769 11.0443 21.2964 10.9851 21.3302 10.9343C21.3639 10.8835 21.4106 10.843 21.4653 10.8171C21.5199 10.7912 21.5805 10.781 21.6404 10.7874C21.7004 10.7938 21.7575 10.8167 21.8057 10.8535C21.9272 10.9339 22.0232 11.0484 22.0819 11.1832C22.1407 11.318 22.1597 11.4673 22.1366 11.6128V11.6128Z" fill="white"/>
<path d="M23.4435 12.3806C23.4403 12.4417 23.4209 12.5007 23.3873 12.5515C23.3538 12.6022 23.3073 12.6428 23.2529 12.6688C23.1985 12.6949 23.1381 12.7054 23.0783 12.6993C23.0184 12.6932 22.9613 12.6707 22.9131 12.6342C22.7912 12.5537 22.695 12.4389 22.6359 12.3039C22.5769 12.1688 22.5577 12.0192 22.5805 11.8732C22.584 11.8123 22.6036 11.7535 22.6372 11.7029C22.6709 11.6524 22.7174 11.6121 22.7718 11.5863C22.8262 11.5604 22.8864 11.55 22.9461 11.5562C23.0058 11.5624 23.0628 11.5849 23.1109 11.6213C23.2329 11.7013 23.3294 11.8157 23.3884 11.9505C23.4475 12.0854 23.4666 12.2348 23.4435 12.3806Z" fill="white"/>
<path d="M18.1959 48.0275C18.1959 48.0275 17.5724 47.7078 17.1983 48.183C16.8242 48.6582 16.2688 49.7845 16.2505 50.5506C16.2322 51.3167 16.8425 51.2592 17.2033 51.0782C17.5641 50.8973 18.6199 49.3415 18.6848 49.0371C18.7496 48.7327 18.6083 48.3183 18.5068 48.2372C18.4054 48.156 18.1959 48.0275 18.1959 48.0275Z" fill="#0D6EFD"/>
<path d="M18.3323 47.8702L18.3605 48.5264C18.3636 48.5942 18.3483 48.6616 18.3163 48.7212C18.2844 48.7808 18.237 48.8304 18.1793 48.8646C18.0321 48.9461 17.8617 48.973 17.6971 48.9407C17.2282 48.8646 17.1867 48.7276 17.1517 48.0714C17.1168 47.4153 18.3323 47.8702 18.3323 47.8702Z" fill="#D4ECFF"/>
<path d="M15.9146 46.7591C15.9146 46.7591 15.2911 46.4395 14.907 46.9164C14.5229 47.3933 13.9775 48.5162 13.9609 49.2755C13.9443 50.0348 14.5512 49.9841 14.9136 49.8031C15.2761 49.6222 16.3303 48.0664 16.3935 47.762C16.4567 47.4576 16.3187 47.0432 16.2172 46.9621C16.1158 46.8809 15.9146 46.7591 15.9146 46.7591Z" fill="#0D6EFD"/>
<path d="M16.0493 46.6069L16.0792 47.2631C16.0823 47.3311 16.0668 47.3987 16.0345 47.4583C16.0023 47.518 15.9544 47.5675 15.8963 47.6013C15.7498 47.6829 15.5798 47.7098 15.4158 47.6774C14.9452 47.6013 14.9037 47.4643 14.8704 46.8082C14.8372 46.152 16.0493 46.6069 16.0493 46.6069Z" fill="#D4ECFF"/>
<path d="M21.6128 34.546C21.4283 31.4918 18.3622 34.9941 18.3622 34.9941L16.2622 37.0877L14.3716 39.1999C14.1893 39.4036 14.0528 39.6453 13.9718 39.9082C13.8908 40.1711 13.8673 40.4488 13.9028 40.7219L14.6676 46.6408C14.6862 46.7818 14.7547 46.9111 14.8603 47.0045C14.9659 47.0979 15.1013 47.149 15.2412 47.1481C15.3359 47.1461 15.4304 47.1377 15.5239 47.1227C15.7064 47.1026 15.8741 47.0115 15.9919 46.8683C16.1097 46.7252 16.1684 46.5412 16.1557 46.355L16.0211 40.8183L19.9867 38.3882C19.9867 38.3882 21.7974 37.5984 21.6128 34.546Z" fill="#173D7A"/>
<path d="M23.8958 35.7094C23.7112 32.6553 20.6435 36.1576 20.6435 36.1576L18.5451 38.2512L16.6546 40.3634C16.4722 40.5671 16.3358 40.8088 16.2548 41.0717C16.1738 41.3346 16.1502 41.6123 16.1857 41.8854L16.9489 47.8043C16.9675 47.9456 17.0363 48.0751 17.1422 48.1686C17.2482 48.262 17.384 48.3128 17.5242 48.3116C17.6189 48.3095 17.7133 48.3011 17.8069 48.2862C17.9892 48.2657 18.1566 48.1744 18.2744 48.0314C18.3921 47.8883 18.451 47.7046 18.4387 47.5185L18.3024 42.139L22.268 39.5449C22.268 39.5449 24.0803 38.7619 23.8958 35.7094Z" fill="#173D7A"/>
<path d="M22.0801 25.9061C24.4079 26.8869 24.3597 28.2855 24.3597 28.2855C24.3597 28.2855 23.9041 33.4095 24.0587 36.8323C24.1252 38.263 16.5847 38.3729 17.7087 34.5561C19.0389 30.0544 18.5401 26.4117 19.1586 25.8621C19.7772 25.3125 21.4798 25.6524 22.0801 25.9061Z" fill="#0D6EFD"/>
<path d="M22.8283 27.1456C22.7069 27.6259 22.0884 27.8796 21.4482 27.7122C20.8081 27.5447 20.3841 27.0171 20.5055 26.5385C20.6269 26.06 21.2471 25.8046 21.8872 25.972C22.5274 26.1394 22.9514 26.6654 22.8283 27.1456Z" fill="#FFC2B0"/>
<path d="M21.8407 27.8762C21.6976 27.8759 21.5551 27.8571 21.4167 27.8204C21.0992 27.7432 20.8139 27.5656 20.6019 27.3131C20.5032 27.2081 20.4324 27.0792 20.3963 26.9386C20.3602 26.7981 20.3599 26.6505 20.3955 26.5098C20.4312 26.3691 20.5015 26.2399 20.5999 26.1346C20.6983 26.0293 20.8214 25.9512 20.9578 25.9078C21.2644 25.7966 21.5968 25.7813 21.9121 25.8639C22.2274 25.9465 22.5112 26.1231 22.7269 26.3711C22.8256 26.4761 22.8964 26.605 22.9325 26.7456C22.9686 26.8861 22.9689 27.0337 22.9333 27.1744C22.8977 27.3151 22.8273 27.4443 22.7289 27.5496C22.6306 27.6549 22.5074 27.733 22.3711 27.7764C22.2021 27.8437 22.0221 27.8776 21.8407 27.8762ZM21.4882 26.0329C21.3351 26.0315 21.1832 26.0603 21.0409 26.1175C20.9369 26.1473 20.8424 26.2044 20.7668 26.2829C20.6913 26.3615 20.6372 26.4588 20.6102 26.5652C20.5831 26.6716 20.5839 26.7834 20.6125 26.8894C20.6411 26.9954 20.6965 27.0919 20.7732 27.1693C20.9585 27.3808 21.2014 27.5315 21.4712 27.6023C21.7409 27.673 22.0252 27.6607 22.2879 27.5667C22.3896 27.5323 22.4817 27.4736 22.5566 27.3957C22.6315 27.3178 22.687 27.2228 22.7186 27.1186V27.1186C22.7403 27.0115 22.7365 26.9007 22.7076 26.7954C22.6786 26.6901 22.6254 26.5933 22.5523 26.5132C22.3698 26.2985 22.1255 26.1476 21.854 26.0819C21.7355 26.0507 21.6138 26.0343 21.4915 26.0329H21.4882Z" fill="white"/>
<path d="M21.1489 25.7996C21.1622 26.0815 21.1555 26.3641 21.1289 26.6451C21.1156 26.8802 21.9271 27.1 22.1366 26.8869C22.3461 26.6739 22.2629 26.4523 22.3128 25.6507C22.3627 24.8491 21.1489 25.7996 21.1489 25.7996Z" fill="#FFC2B0"/>
<path d="M22.3128 25.6507C22.3128 25.6507 22.1132 26.3931 21.1289 26.6789L21.1439 26.0025L22.3128 25.6507Z" fill="#EA9C92"/>
<path d="M22.9364 23.7617C23.0247 24.1101 23.0094 24.4773 22.8926 24.8169C22.7757 25.1565 22.5626 25.4532 22.2799 25.6696C21.9973 25.886 21.658 26.0123 21.3048 26.0326C20.9516 26.0529 20.6005 25.9663 20.2957 25.7837C19.9909 25.601 19.7462 25.3306 19.5925 25.0066C19.4388 24.6825 19.383 24.3194 19.4321 23.9631C19.4813 23.6068 19.6332 23.2734 19.8686 23.0048C20.104 22.7363 20.4124 22.5448 20.7549 22.4545C20.9825 22.3945 21.2195 22.3807 21.4524 22.4139C21.6853 22.4471 21.9095 22.5267 22.1121 22.6481C22.3147 22.7696 22.4918 22.9304 22.6332 23.1215C22.7747 23.3126 22.8777 23.5301 22.9364 23.7617V23.7617Z" fill="#FFC2B0"/>
<path d="M21.6145 24.2843C21.6145 24.2843 20.6285 24.7121 19.9518 24.7172C19.2751 24.7223 19.4197 24.1422 19.4197 24.1422L21.4399 23.8446L21.6145 24.2843Z" fill="#EA9C92"/>
<path d="M19.7439 24.3959C19.7439 24.3959 20.6019 24.0256 21.3551 24.1812C21.5334 24.2166 21.6942 24.3133 21.8107 24.4551C21.8436 24.5036 21.8916 24.5393 21.947 24.5566C22.0817 24.587 22.2995 24.0239 22.5589 24.0121C22.8183 24.0002 22.9929 24.1812 22.78 24.5312C22.5672 24.8813 22.6387 25.2669 22.7368 25.3227C22.8349 25.3785 24.047 24.5177 23.1309 22.671C22.2147 20.8243 19.714 21.8711 19.3515 22.2448C19.3515 22.2448 18.9707 22.5831 18.6598 22.282C18.6598 22.282 18.3123 24.9303 19.7439 24.3959Z" fill="#D4ECFF"/>
<path d="M23.0544 32.0296V33.4146C23.0546 33.4928 23.0387 33.5703 23.0078 33.6419C22.9769 33.7135 22.9316 33.7778 22.8748 33.8306L20.0764 36.4248L20.394 36.9186L24.2482 34.3498C24.3336 34.2868 24.4051 34.2062 24.4578 34.1132C24.5105 34.0203 24.5433 33.9171 24.5541 33.8103L24.8185 31.2415L23.0544 32.0296Z" fill="#FFC2B0"/>
<path d="M24.1685 27.5921C24.1685 27.5921 25.0181 28.8909 25.3324 32.3069C25.3324 32.3069 23.8825 32.7838 23.0594 32.5132C22.2364 32.2426 24.1685 27.5921 24.1685 27.5921Z" fill="#0D6EFD"/>
<path d="M22.8997 29.2342C22.8997 29.2342 22.5672 31.042 22.5489 31.8926C22.5461 32.0061 22.5784 32.1177 22.6414 32.2115C22.7043 32.3053 22.7947 32.3765 22.8997 32.4152V29.2342Z" fill="#0D6EFD"/>
<path d="M22.1732 38.219L21.5546 38.1362L17.5641 35.7923C17.4851 35.756 17.3989 35.7389 17.3123 35.7424C17.2257 35.7459 17.1411 35.77 17.0653 35.8126L14.2386 37.4733L13.8645 37.4225V37.8013C13.8651 37.8296 13.8735 37.8572 13.8888 37.8808C13.9041 37.9044 13.9257 37.9232 13.951 37.9349L18.4736 40.59C18.5524 40.6267 18.6387 40.644 18.7254 40.6405C18.812 40.6369 18.8967 40.6127 18.9724 40.5697L22.0518 38.7619C22.0852 38.7474 22.1142 38.724 22.1359 38.6943C22.1575 38.6646 22.1709 38.6295 22.1748 38.5928V38.5928L22.1732 38.219Z" fill="#5793CE"/>
<path d="M19.1802 36.7444L18.8976 36.5753H15.775L14.2386 37.4766L13.8645 37.4259V37.8047C13.8651 37.833 13.8735 37.8605 13.8888 37.8842C13.9041 37.9078 13.9257 37.9266 13.951 37.9383L18.4736 40.5934C18.5529 40.6349 18.6425 40.652 18.7313 40.6424L19.1802 36.7444Z" fill="#396CAA"/>
<path d="M14.0258 37.4513L13.8595 37.4293V37.8081C13.8601 37.8364 13.8685 37.8639 13.8838 37.8875C13.8991 37.9112 13.9207 37.9299 13.946 37.9417L14.0258 37.989V37.4513Z" fill="#5793CE"/>
<path d="M18.5151 40.6187C18.6546 40.6654 18.8065 40.6557 18.9391 40.5917V39.9474H18.5151V40.6187Z" fill="#5793CE"/>
<path d="M18.4735 40.2196L13.9509 37.5629C13.8229 37.4885 13.8395 37.3566 13.9875 37.2703L17.0669 35.4625C17.1426 35.4195 17.2272 35.3953 17.3139 35.3917C17.4006 35.3882 17.4868 35.4055 17.5657 35.4422L22.0883 38.0973C22.2163 38.1717 22.1997 38.3036 22.0517 38.3898L18.9724 40.1976C18.8967 40.2408 18.8122 40.2652 18.7255 40.269C18.6389 40.2729 18.5526 40.2559 18.4735 40.2196V40.2196Z" fill="white"/>
<path d="M18.3971 39.8172L14.6361 37.6086C14.5296 37.546 14.5429 37.4395 14.666 37.365L16.3171 36.4214C16.3798 36.3854 16.4499 36.3649 16.5219 36.3617C16.5938 36.3584 16.6655 36.3725 16.7311 36.4028L20.4922 38.6114C20.5986 38.674 20.5853 38.7805 20.4623 38.8549L18.8128 39.7985C18.7498 39.8346 18.6794 39.8551 18.6072 39.8583C18.535 39.8615 18.463 39.8474 18.3971 39.8172V39.8172Z" fill="#D4ECFF"/>
<path d="M17.2415 35.3746L17.195 35.6925C17.155 35.9628 17.1618 36.2381 17.2149 36.506L17.2698 36.7867C17.2855 36.8637 17.3235 36.9341 17.3789 36.989C17.4343 37.0438 17.5046 37.0806 17.5807 37.0945V37.0945C17.6095 37.1 17.6391 37.0994 17.6676 37.0927C17.6961 37.086 17.7229 37.0733 17.7464 37.0555C17.7698 37.0377 17.7894 37.0151 17.8038 36.9892C17.8182 36.9633 17.8272 36.9347 17.8301 36.9051L17.905 36.2286C17.905 36.2286 18.0712 36.4569 18.1577 36.4569C18.2442 36.4569 18.0662 35.7805 17.88 35.3932C17.6938 35.0059 17.2415 35.3746 17.2415 35.3746Z" fill="#FFC2B0"/>
<path d="M18.7746 30.3317L18.289 31.3075C18.1739 31.5386 18.1066 31.7913 18.0912 32.0499L17.88 35.3915L17.2415 35.3746L16.9522 31.6237C16.9428 31.5074 16.9484 31.3902 16.9688 31.2754L17.3014 29.3729L18.7746 30.3317Z" fill="#FFC2B0"/>
<path d="M18.3206 40.475L17.9415 39.9677L13.9509 37.6187C13.8808 37.5671 13.8234 37.4996 13.7832 37.4215C13.7431 37.3434 13.7214 37.2569 13.7198 37.1689V33.8475L13.4904 33.5431L13.7048 33.4163C13.7292 33.4028 13.7568 33.3965 13.7844 33.3983C13.8121 33.4001 13.8387 33.4099 13.8611 33.4264L18.3804 36.0866C18.4512 36.138 18.509 36.2057 18.5492 36.2841C18.5894 36.3626 18.6107 36.4496 18.6116 36.5381V40.1537C18.616 40.1906 18.6104 40.2281 18.5955 40.2621C18.5806 40.296 18.5568 40.3252 18.5268 40.3465V40.3465L18.3206 40.475Z" fill="#173D7A"/>
<path d="M15.5621 38.5708L15.2795 38.4017L13.7248 35.6536V33.8509L13.4954 33.5465L13.7099 33.4197C13.7342 33.4061 13.7618 33.3999 13.7894 33.4017C13.8171 33.4035 13.8437 33.4132 13.8662 33.4298L18.3854 36.0899C18.4587 36.1401 18.5164 36.2105 18.5517 36.2928L15.5621 38.5708Z" fill="#396CAA"/>
<path d="M13.5985 33.6818L13.4971 33.5465L13.7116 33.4197C13.7359 33.4061 13.7635 33.3999 13.7912 33.4017C13.8188 33.4035 13.8454 33.4132 13.8679 33.4298L13.9477 33.4755L13.5985 33.6818Z" fill="#5793CE"/>
<path d="M18.4287 36.1204C18.5379 36.2203 18.6057 36.3587 18.6182 36.5076L18.1826 36.7664L17.9714 36.3926L18.4287 36.1204Z" fill="#274F89"/>
<path d="M18.1726 36.2168L13.6533 33.5566C13.5253 33.4805 13.4222 33.5566 13.4205 33.7257V37.3413C13.4218 37.4297 13.4433 37.5166 13.4834 37.595C13.5236 37.6734 13.5812 37.7412 13.6517 37.7929L18.1709 40.453C18.299 40.5291 18.4037 40.453 18.4037 40.2839V36.6683C18.4025 36.5799 18.381 36.493 18.3408 36.4146C18.3007 36.3362 18.2431 36.2685 18.1726 36.2168V36.2168Z" fill="#5793CE"/>
<path d="M20.394 36.9186L20.3225 37.0725C20.2394 37.2479 20.1083 37.3952 19.9451 37.4969L19.4962 37.7794C19.4278 37.8232 19.3489 37.8474 19.2681 37.8491C19.1872 37.8509 19.1074 37.8303 19.0372 37.7895L19.0223 37.781C18.9894 37.7581 18.9618 37.7282 18.9417 37.6932C18.9215 37.6582 18.9091 37.6192 18.9054 37.5788C18.9018 37.5384 18.9069 37.4977 18.9205 37.4596C18.9341 37.4215 18.9558 37.3869 18.984 37.3583L19.4529 36.8678C19.4529 36.8678 19.1902 37.0725 19.1204 36.9913C19.0505 36.9101 19.3764 36.6345 19.6192 36.6243C19.79 36.6026 19.9516 36.5336 20.0864 36.4248L20.394 36.9186Z" fill="#FFC2B0"/>
<path d="M19.2052 25.8536C19.2052 25.8536 17.486 27.7578 16.7926 29.503C17.2633 30.2401 17.9851 30.7743 18.8195 31.0031C20.2594 31.4258 19.2052 25.8536 19.2052 25.8536Z" fill="#0D6EFD"/>
<path d="M18.4952 30.8915L18.7746 28.1519L18.1095 30.7173C18.2348 30.7826 18.3636 30.8407 18.4952 30.8915V30.8915Z" fill="#0D6EFD"/>
<path d="M20.4939 25.4698L20.0316 25.3412C20.1614 25.5438 20.3512 25.699 20.5737 25.7843C20.8962 25.8739 20.9461 25.5966 20.9461 25.5966L20.4939 25.4698Z" fill="white"/>
<path d="M22.9612 24.7172C22.9616 24.7691 22.9467 24.82 22.9186 24.8633C22.8905 24.9066 22.8504 24.9405 22.8033 24.9606C22.7562 24.9807 22.7044 24.9861 22.6543 24.9762C22.6042 24.9663 22.5581 24.9415 22.5219 24.9049C22.4857 24.8683 22.461 24.8216 22.4509 24.7707C22.4408 24.7198 22.4458 24.667 22.4653 24.619C22.4847 24.571 22.5177 24.53 22.5602 24.5011C22.6026 24.4722 22.6525 24.4568 22.7035 24.4568C22.7373 24.4566 22.7708 24.4631 22.802 24.4761C22.8333 24.4891 22.8617 24.5083 22.8857 24.5325C22.9096 24.5567 22.9286 24.5855 22.9416 24.6172C22.9546 24.6489 22.9612 24.6829 22.9612 24.7172Z" fill="white"/>
<path d="M29.8816 46.3634L22.1732 41.838C21.9487 41.7061 21.977 41.4761 22.2364 41.3307L26.892 38.5995C27.0251 38.5241 27.1736 38.4814 27.3258 38.475C27.478 38.4685 27.6295 38.4984 27.7683 38.5623L35.475 43.081C35.6995 43.2129 35.6712 43.4429 35.4118 43.5883L30.7562 46.3194C30.6239 46.3955 30.4759 46.4391 30.324 46.4468C30.1722 46.4544 30.0207 46.4259 29.8816 46.3634V46.3634Z" fill="white"/>
<path opacity="0.5" d="M4.41629 53.8148C6.27732 53.6052 7.68953 52.5495 7.57055 51.4569C7.45157 50.3643 5.84645 49.6485 3.98542 49.8582C2.12439 50.0678 0.712175 51.1235 0.831155 52.2161C0.950135 53.3087 2.55525 54.0245 4.41629 53.8148Z" fill="#173D7A"/>
<path d="M7.85209 49.7186L7.73237 48.6244L7.52952 48.6481C7.26353 48.3053 6.91381 48.0394 6.51526 47.877C4.92236 47.1667 2.49478 47.439 1.09476 48.4875C0.738282 48.7336 0.451602 49.0707 0.2634 49.4649L0.0605469 49.4886L0.185251 50.5641C0.246772 51.1425 0.68407 51.6786 1.48218 52.0337C3.07507 52.744 5.50099 52.4717 6.90267 51.4232C7.60268 50.9024 7.91527 50.2885 7.85209 49.7186Z" fill="#0D6EFD"/>
<path d="M4.14279 51.3003C6.25938 51.0619 7.8655 49.8609 7.73014 48.6179C7.59478 47.375 5.76922 46.5606 3.65262 46.799C1.53603 47.0374 -0.0700814 48.2384 0.0652748 49.4813C0.200631 50.7243 2.0262 51.5387 4.14279 51.3003Z" fill="#0D6EFD"/>
<path d="M6.7829 50.3358C5.38288 51.3826 2.95863 51.6566 1.36241 50.9463C0.599215 50.6081 0.170232 50.1007 0.0804443 49.5528C0.113699 50.1566 0.549334 50.7197 1.37903 51.09C2.97027 51.8003 5.39785 51.5264 6.79953 50.4796C7.5278 49.9333 7.83208 49.2856 7.73398 48.6904C7.76557 49.2451 7.45464 49.8336 6.7829 50.3358Z" fill="white"/>
<path d="M2.13394 50.0027C2.10444 49.9938 2.07794 49.9768 2.05739 49.9535C2.03684 49.9302 2.02305 49.9016 2.01755 49.8708L1.86125 48.4046C1.84961 48.2913 1.99427 48.1847 2.18382 48.1627C2.37337 48.1408 2.53798 48.2152 2.55128 48.3319L2.67931 49.5478L6.10287 48.7242C6.28743 48.6802 6.47698 48.7242 6.52853 48.8358C6.58007 48.9474 6.472 49.0607 6.2891 49.1047L2.45485 50.023C2.35829 50.0467 2.25728 50.0437 2.16221 50.0145L2.13394 50.0027Z" fill="white"/>
<path opacity="0.5" d="M21.262 59.8382L18.713 58.3415L21.262 56.8449L23.8109 58.3415L21.262 59.8382Z" fill="#173D7A"/>
<path d="M23.8109 56.4407L21.262 57.939V54.9441L23.8109 53.4474V56.4407Z" fill="#173D7A"/>
<path d="M21.262 54.9441L18.713 53.4475L21.262 51.9508L23.8109 53.4475L21.262 54.9441Z" fill="#D4ECFF"/>
<path d="M21.262 57.939L18.713 56.4407V53.4474L21.262 54.9441V57.939Z" fill="#5793CE"/>
<path d="M20.3442 56.3207L19.6309 55.903V55.0659L20.3442 55.4836V56.3207Z" fill="white"/>
<path opacity="0.5" d="M38.3149 50.1972L27.2013 43.6695C27.1443 43.6361 27.0969 43.5881 27.064 43.5302C27.0311 43.4723 27.0138 43.4066 27.0138 43.3397C27.0138 43.2728 27.0311 43.2071 27.064 43.1492C27.0969 43.0914 27.1443 43.0433 27.2013 43.0099L37.7696 36.8053L49.5932 43.749C49.6502 43.7823 49.6975 43.8304 49.7305 43.8883C49.7634 43.9462 49.7807 44.0118 49.7807 44.0787C49.7807 44.1456 49.7634 44.2113 49.7305 44.2692C49.6975 44.3271 49.6502 44.3751 49.5932 44.4085L39.7349 50.1972C39.5189 50.3234 39.2741 50.3899 39.0249 50.3899C38.7758 50.3899 38.531 50.3234 38.3149 50.1972Z" fill="#173D7A"/>
<path d="M37.9957 32.2799C37.9957 31.5611 37.4969 31.2652 36.8867 31.6271L26.4963 37.7117C26.4079 37.7707 26.3344 37.8499 26.2816 37.943C26.2287 38.0361 26.1981 38.1405 26.192 38.2478C26.192 38.4456 26.3284 38.5251 26.4963 38.427L36.8917 32.339C37.1677 32.1699 37.3905 32.3086 37.3905 32.6333V33.8171C37.5917 33.8035 37.7945 33.8035 37.999 33.8069L37.9957 32.2799Z" fill="#0D6EFD"/>
<path d="M26.4863 40.5595L36.8816 36.7072C37.2045 36.4935 37.4732 36.2054 37.6662 35.8664C37.8592 35.5273 37.9709 35.1468 37.9923 34.7556V33.8086C37.7878 33.8086 37.585 33.8086 37.3838 33.8188V35.1125C37.3745 35.2886 37.3245 35.4601 37.2378 35.6129C37.1512 35.7657 37.0303 35.8955 36.885 35.9918L26.4962 39.8459C26.4078 39.9045 26.3341 39.9834 26.2809 40.0762C26.2278 40.169 26.1968 40.2731 26.1903 40.3803C26.182 40.5866 26.3183 40.6593 26.4863 40.5595Z" fill="#0D6EFD"/>
<path d="M26.2618 40.5748L38.9069 48.0173L49.6132 41.5218L50.4629 40.2332L50.3747 40.6898L50.1469 39.4941L30.2723 40.2653L26.7706 40.0353L26.2618 40.5748Z" fill="#0D6EFD"/>
<path d="M26.6808 38.329L26.6775 39.9119L38.8985 47.1024L39.2294 45.594L26.6808 38.329Z" fill="#6EA8FE"/>
<path d="M50.3048 38.9851L37.6797 31.5561L26.2967 38.2884L26.2734 38.4541L38.9168 45.8933L50.3048 38.9851Z" fill="#0D6EFD"/>
<path d="M46.2827 42.8003L49.2507 41.0094C49.381 40.9099 49.4884 40.7827 49.5654 40.6367C49.6423 40.4906 49.687 40.3293 49.6963 40.1638V39.9271C49.6963 39.7343 49.6165 39.6108 49.4951 39.5753L43.6523 42.8814L38.8936 45.4993V47.0991L46.2827 42.8003Z" fill="white"/>
<path d="M39.3225 45.6481L26.7756 38.2664L26.5112 38.1108L26.2668 37.9671C26.2182 38.0551 26.1909 38.1537 26.187 38.2546C26.183 38.2924 26.189 38.3305 26.2041 38.3653C26.2193 38.4 26.2432 38.4301 26.2734 38.4524V38.4524L38.9102 45.8933L39.3225 45.6481Z" fill="#0D6EFD"/>
<path d="M38.7489 47.9243L38.9069 48.0173L38.9368 47.9649L38.8387 47.8871L38.7489 47.9243Z" fill="white"/>
<path d="M38.7539 45.7969L38.9152 45.8916L38.8753 45.8019L38.7539 45.7969Z" fill="white"/>
<path d="M39.133 45.1526L49.53 39.0646C50.1402 38.7061 50.6374 38.9987 50.6374 39.7157V39.9524C50.6158 40.3438 50.504 40.7245 50.3111 41.0638C50.1181 41.4031 49.8494 41.6915 49.5267 41.9057L39.1313 47.9937C38.965 48.0917 38.827 48.0123 38.827 47.8144C38.8321 47.7069 38.8624 47.6021 38.9153 47.5089C38.9683 47.4156 39.0423 47.3366 39.1313 47.2783L49.5267 41.1903C49.672 41.0936 49.7929 40.9635 49.8796 40.8104C49.9662 40.6573 50.0162 40.4856 50.0255 40.3093V40.0725C50.0255 39.7495 49.801 39.6176 49.5267 39.7783L39.1313 45.8662C38.965 45.9643 38.827 45.8832 38.827 45.687C38.8326 45.5796 38.8632 45.4751 38.9164 45.3821C38.9696 45.2892 39.0439 45.2105 39.133 45.1526Z" fill="#0D6EFD"/>
<path d="M38.8271 47.8212C38.8322 47.7136 38.8625 47.6089 38.9154 47.5156C38.9683 47.4224 39.0424 47.3434 39.1314 47.2851L49.5267 41.1971C49.6721 41.1004 49.793 40.9702 49.8796 40.8172C49.9663 40.6641 50.0163 40.4924 50.0256 40.316V40.0793C50.0256 39.8679 49.9291 39.741 49.7845 39.7191C49.8371 39.7956 49.8629 39.8879 49.8576 39.9812V40.2196C49.8481 40.3957 49.798 40.5671 49.7113 40.7198C49.6247 40.8726 49.5039 41.0025 49.3588 41.099L38.9668 47.1819C38.8778 47.2402 38.8037 47.3192 38.7508 47.4125C38.6979 47.5057 38.6676 47.6105 38.6625 47.718C38.6625 47.8668 38.7406 47.9497 38.852 47.9378C38.836 47.9011 38.8275 47.8614 38.8271 47.8212V47.8212Z" fill="white"/>
<path d="M38.8304 45.6954C38.8343 45.5869 38.8638 45.4809 38.9165 45.3864C38.9692 45.2919 39.0434 45.2117 39.133 45.1526L49.5301 39.0646C49.6303 38.9943 49.7445 38.9473 49.8646 38.9268C49.9847 38.9064 50.1078 38.913 50.2251 38.9462C50.0222 38.7771 49.7113 38.7619 49.3621 38.9665L38.9668 45.0545C38.8778 45.1128 38.8037 45.1918 38.7508 45.2851C38.6979 45.3783 38.6676 45.4831 38.6625 45.5906C38.6625 45.7394 38.7406 45.8223 38.852 45.8104C38.8373 45.774 38.83 45.7349 38.8304 45.6954V45.6954Z" fill="white"/>
<path d="M34.0234 39.1322L39.7582 35.7703L44.7331 38.6976L38.9967 42.0579L34.0234 39.1322Z" fill="white"/>
<path opacity="0.5" d="M54.6445 63.8884L46.8929 59.3359C46.6086 59.1668 46.6435 58.8776 46.971 58.6848L55.1899 53.8466C55.358 53.7511 55.5459 53.6973 55.7382 53.6893C55.9306 53.6814 56.1221 53.7196 56.2973 53.8009L64.0506 58.3534C64.3349 58.5225 64.2983 58.8117 63.9708 59.0045L55.7602 63.841C55.5911 63.9378 55.4019 63.9926 55.208 64.0008C55.0141 64.0091 54.821 63.9705 54.6445 63.8884V63.8884Z" fill="#173D7A"/>
<path d="M64.2269 55.3246L55.9365 50.4576C55.614 50.2682 55.3529 49.7592 55.3529 49.3229V29.1462C55.3529 28.7083 55.614 28.5087 55.9365 28.6981L64.2269 33.5651C64.5495 33.7545 64.8105 34.2619 64.8105 34.6998V54.8765C64.8105 55.3128 64.5495 55.514 64.2269 55.3246Z" fill="url(#paint0_linear_2497_1136)"/>
<path d="M64.2269 33.5651L55.9365 28.6981C55.8824 28.6585 55.8188 28.6344 55.7524 28.6284C55.686 28.6225 55.6192 28.6349 55.5591 28.6643L46.0948 34.2179L46.5405 35.8954L55.17 60.8917L64.596 55.3618L64.6126 55.3517C64.6811 55.2954 64.7346 55.2226 64.7683 55.1399C64.802 55.0571 64.8148 54.9672 64.8055 54.8781V34.6998C64.8105 34.2618 64.5495 33.7545 64.2269 33.5651Z" fill="#396CAA"/>
<path d="M64.2269 33.5651L55.9365 28.6981C55.8824 28.6585 55.8188 28.6344 55.7524 28.6284C55.686 28.6225 55.6192 28.6349 55.5591 28.6643L46.0948 34.2179L46.5405 35.8954L48.9132 42.7698L49.3604 43.0319L64.6476 34.0555C64.5552 33.8553 64.4094 33.6854 64.2269 33.5651V33.5651Z" fill="#D4ECFF"/>
<path d="M54.7626 60.8799L46.4723 56.0129C46.1497 55.8235 45.8887 55.3145 45.8887 54.8782V34.6948C45.8887 34.2568 46.1497 34.0572 46.4723 34.2466L54.7626 39.1136C55.0852 39.303 55.3463 39.8104 55.3463 40.2484V60.425C55.3529 60.8613 55.0952 61.0625 54.7626 60.8799Z" fill="#5793CE"/>
<path d="M54.2472 59.6589L47.0011 55.4041C46.8458 55.2905 46.7188 55.1416 46.6302 54.9693C46.5415 54.7969 46.4937 54.6059 46.4906 54.4114V35.6824C46.4906 35.3002 46.7201 35.1243 47.0011 35.29L54.2472 39.5449C54.4027 39.6578 54.53 39.8063 54.6186 39.9785C54.7073 40.1506 54.7549 40.3416 54.7577 40.5359V59.2666C54.7627 59.6488 54.5299 59.8246 54.2472 59.6589Z" fill="url(#paint1_linear_2497_1136)"/>
<path d="M54.2472 59.6589L47.0011 55.4041C46.8458 55.2905 46.7188 55.1416 46.6302 54.9693C46.5415 54.7969 46.4937 54.6059 46.4906 54.4114V35.6824C46.4906 35.3002 46.7201 35.1243 47.0011 35.29L54.2472 39.5449C54.4027 39.6578 54.53 39.8063 54.6186 39.9785C54.7073 40.1506 54.7549 40.3416 54.7577 40.5359V59.2666C54.7627 59.6488 54.5299 59.8246 54.2472 59.6589Z" fill="url(#paint2_linear_2497_1136)"/>
<path d="M54.2472 59.6589L47.0011 55.4041C46.8458 55.2905 46.7188 55.1416 46.6302 54.9693C46.5415 54.7969 46.4937 54.6059 46.4906 54.4114V35.6824C46.4906 35.3002 46.7201 35.1243 47.0011 35.29L54.2472 39.5449C54.4027 39.6578 54.53 39.8063 54.6186 39.9785C54.7073 40.1506 54.7549 40.3416 54.7577 40.5359V59.2666C54.7627 59.6488 54.5299 59.8246 54.2472 59.6589Z" fill="#173D7A"/>
<path d="M54.485 59.5168L47.2372 55.262C47.0821 55.1484 46.9554 54.9994 46.867 54.827C46.7787 54.6547 46.7312 54.4637 46.7284 54.2693V35.5319C46.7242 35.4227 46.7495 35.3145 46.8015 35.219C46.6186 35.219 46.4906 35.3881 46.4906 35.6739V54.4114C46.4937 54.6059 46.5415 54.7969 46.6302 54.9692C46.7188 55.1416 46.8458 55.2905 47.0011 55.4041L54.2472 59.6589C54.2801 59.6855 54.3182 59.7047 54.3589 59.7151C54.3997 59.7256 54.4422 59.7271 54.4835 59.7196C54.5249 59.7121 54.5642 59.6957 54.5989 59.6715C54.6335 59.6474 54.6627 59.616 54.6845 59.5794C54.6137 59.5769 54.5449 59.5553 54.485 59.5168V59.5168Z" fill="#396CAA"/>
<path d="M54.2471 51.0562L51.5535 49.4734L47.2587 51.9965L54.7576 56.3934V52.0472C54.7548 51.8529 54.7072 51.662 54.6185 51.4898C54.5298 51.3177 54.4026 51.1692 54.2471 51.0562V51.0562Z" fill="#173D7A"/>
<path d="M54.2471 47.2157L51.5535 45.6346L47.2587 48.1577L54.7576 52.5546V48.2084C54.7548 48.0139 54.7072 47.8227 54.6185 47.6503C54.5299 47.4779 54.4027 47.329 54.2471 47.2157Z" fill="#173D7A"/>
<path d="M54.2471 43.3769L51.5535 41.794L47.2587 44.3172L54.7576 48.7141V44.3679C54.755 44.1736 54.7074 43.9826 54.6187 43.8104C54.53 43.6383 54.4027 43.4897 54.2471 43.3769V43.3769Z" fill="#173D7A"/>
<path d="M54.2471 39.5364L51.5535 37.9552L47.2587 40.4784L54.7576 44.8752V40.5291C54.7549 40.3345 54.7074 40.1433 54.6187 39.9709C54.53 39.7984 54.4027 39.6496 54.2471 39.5364V39.5364Z" fill="#173D7A"/>
<path d="M54.2472 39.5364L48.278 36.0358L47.2521 36.6379L54.751 41.0347V40.5274C54.7489 40.3337 54.7022 40.1432 54.6147 39.9711C54.5272 39.799 54.4014 39.6502 54.2472 39.5364V39.5364Z" fill="#173D7A"/>
<path d="M54.7576 41.0415L47.2587 36.6378V39.0646L54.7576 43.4682V41.0415Z" fill="#5793CE"/>
<path d="M54.7576 44.882L47.2587 40.4767V42.9051L54.7576 47.3088V44.882Z" fill="#5793CE"/>
<path d="M54.7576 48.7208L47.2587 44.3172V46.7439L54.7576 51.1476V48.7208Z" fill="#5793CE"/>
<path d="M54.7576 52.5613L47.2587 48.1577V50.5844L54.7576 54.9881V52.5613Z" fill="#5793CE"/>
<path d="M54.7576 56.4001L47.2587 51.9965V54.4232L54.7576 58.8269V56.4001Z" fill="#5793CE"/>
<path d="M54.0975 42.6041L48.4442 39.2861C48.3562 39.2221 48.2841 39.1379 48.2339 39.0404C48.1836 38.9429 48.1566 38.8348 48.1549 38.7247V38.0753C48.1549 37.8588 48.2846 37.7591 48.4442 37.8538L54.0975 41.17C54.185 41.2345 54.2565 41.3188 54.3064 41.4163C54.3563 41.5137 54.3833 41.6216 54.3851 41.7315V42.3826C54.3851 42.5973 54.2638 42.6971 54.0975 42.6041Z" fill="#173D7A"/>
<path opacity="0.3" d="M48.7335 39.1627C48.6455 39.0986 48.5736 39.0144 48.5233 38.9169C48.4731 38.8194 48.446 38.7113 48.4442 38.6012V37.9518C48.4444 37.9199 48.4483 37.8881 48.4558 37.8571H48.4475C48.2812 37.7624 48.1582 37.8571 48.1582 38.0787V38.7264C48.1599 38.8365 48.1869 38.9446 48.2372 39.0421C48.2874 39.1396 48.3595 39.2238 48.4475 39.2878L54.1008 42.6058C54.1249 42.6279 54.1547 42.6423 54.1868 42.6474C54.2188 42.6524 54.2516 42.6478 54.2811 42.6342C54.3106 42.6205 54.3355 42.5984 54.3528 42.5705C54.3701 42.5426 54.379 42.5102 54.3785 42.4773L48.7335 39.1627Z" fill="#06033E"/>
<path d="M52.3234 40.8217L48.9248 38.8261C48.8937 38.8037 48.8683 38.774 48.8507 38.7396C48.833 38.7052 48.8237 38.6671 48.8234 38.6283V38.6283C48.8234 38.5522 48.8683 38.5184 48.9248 38.5505L52.3234 40.5477C52.3547 40.5697 52.3803 40.599 52.3983 40.6331C52.4162 40.6672 52.4259 40.7052 52.4265 40.7439V40.7439C52.4348 40.82 52.3799 40.8555 52.3234 40.8217Z" fill="white"/>
<path d="M54.0975 46.4192L48.4442 43.103C48.3563 43.0388 48.2843 42.9547 48.234 42.8572C48.1838 42.7597 48.1567 42.6516 48.1549 42.5415V41.8921C48.1549 41.6757 48.2846 41.5759 48.4442 41.6689L54.0975 44.9835C54.1851 45.0478 54.2568 45.132 54.3068 45.2295C54.3567 45.327 54.3835 45.435 54.3851 45.5449V46.1943C54.3851 46.4142 54.2638 46.5139 54.0975 46.4192Z" fill="#173D7A"/>
<path opacity="0.3" d="M48.7335 42.9778C48.6455 42.9138 48.5734 42.8296 48.5232 42.7321C48.4729 42.6346 48.4459 42.5264 48.4442 42.4164V41.7704C48.4445 41.739 48.4484 41.7078 48.4558 41.6773H48.4475C48.2812 41.5843 48.1582 41.6773 48.1582 41.9006V42.55C48.16 42.66 48.1871 42.7681 48.2373 42.8656C48.2876 42.9631 48.3596 43.0473 48.4475 43.1114L54.1008 46.4277C54.1249 46.4498 54.1547 46.4642 54.1868 46.4693C54.2188 46.4743 54.2516 46.4697 54.2811 46.4561C54.3106 46.4424 54.3355 46.4203 54.3528 46.3924C54.3701 46.3645 54.379 46.3321 54.3785 46.2991L48.7335 42.9778Z" fill="#06033E"/>
<path d="M52.3234 44.6453L48.9248 42.6497C48.8939 42.6271 48.8686 42.5974 48.851 42.563C48.8334 42.5287 48.8239 42.4906 48.8234 42.4519C48.8234 42.3758 48.8683 42.3403 48.9248 42.3741L52.3234 44.3696C52.3545 44.3922 52.38 44.4218 52.3979 44.4562C52.4158 44.4905 52.4256 44.5286 52.4265 44.5675V44.5675C52.4348 44.6453 52.3799 44.6706 52.3234 44.6453Z" fill="white"/>
<path d="M54.0975 50.2716L48.4442 46.9536C48.3563 46.8898 48.2843 46.806 48.2341 46.7087C48.1838 46.6115 48.1567 46.5037 48.1549 46.3938V45.7428C48.1549 45.5263 48.2846 45.4282 48.4442 45.5212L54.0975 48.8375C54.185 48.902 54.2565 48.9863 54.3064 49.0837C54.3563 49.1812 54.3833 49.2891 54.3851 49.3989V50.0568C54.3851 50.2648 54.2638 50.3646 54.0975 50.2716Z" fill="#173D7A"/>
<path opacity="0.3" d="M48.7335 46.8302C48.6455 46.766 48.5736 46.6819 48.5233 46.5844C48.4731 46.4869 48.446 46.3788 48.4442 46.2687V45.6193C48.4444 45.5874 48.4483 45.5556 48.4558 45.5246H48.4475C48.2812 45.4316 48.1582 45.5246 48.1582 45.7462V46.3972C48.16 46.5071 48.1871 46.6149 48.2374 46.7121C48.2876 46.8094 48.3596 46.8932 48.4475 46.957L54.1008 50.275C54.1249 50.2971 54.1547 50.3115 54.1868 50.3166C54.2188 50.3216 54.2516 50.317 54.2811 50.3034C54.3106 50.2897 54.3355 50.2676 54.3528 50.2397C54.3701 50.2118 54.379 50.1794 54.3785 50.1464L48.7335 46.8302Z" fill="#06033E"/>
<path d="M52.3234 48.4908L48.9248 46.4936C48.8937 46.4712 48.8683 46.4415 48.8507 46.4071C48.833 46.3727 48.8237 46.3346 48.8234 46.2958V46.2958C48.8234 46.2197 48.8683 46.1858 48.9248 46.218L52.3234 48.2152C52.3547 48.2372 52.3803 48.2665 52.3983 48.3006C52.4162 48.3347 52.4259 48.3727 52.4265 48.4113C52.4348 48.4874 52.3799 48.523 52.3234 48.4908Z" fill="#D4ECFF"/>
<path d="M54.0975 54.1577L48.4442 50.8415C48.3562 50.7774 48.2841 50.6933 48.2339 50.5958C48.1836 50.4982 48.1566 50.3901 48.1549 50.28V49.6306C48.1549 49.4142 48.2846 49.3144 48.4442 49.4091L54.0975 52.7254C54.1851 52.7897 54.2568 52.8739 54.3068 52.9714C54.3567 53.0689 54.3835 53.1769 54.3851 53.2868V53.9362C54.3851 54.1526 54.2638 54.2524 54.0975 54.1577Z" fill="#173D7A"/>
<path opacity="0.3" d="M48.7335 50.7163C48.6456 50.6525 48.5736 50.5687 48.5233 50.4715C48.4731 50.3742 48.446 50.2664 48.4442 50.1566V49.5055C48.4445 49.4741 48.4484 49.4429 48.4558 49.4125H48.4475C48.2812 49.3178 48.1582 49.4125 48.1582 49.634V50.2834C48.1599 50.3935 48.1869 50.5016 48.2372 50.5991C48.2874 50.6967 48.3595 50.7808 48.4475 50.8448L54.1008 54.1611C54.1249 54.1832 54.1547 54.1977 54.1868 54.2027C54.2188 54.2077 54.2516 54.2032 54.2811 54.1895C54.3106 54.1759 54.3355 54.1537 54.3528 54.1258C54.3701 54.098 54.379 54.0655 54.3785 54.0326L48.7335 50.7163Z" fill="#06033E"/>
<path d="M52.3234 52.377L48.9248 50.3815C48.8939 50.3588 48.8686 50.3291 48.851 50.2948C48.8334 50.2604 48.8239 50.2224 48.8234 50.1836V50.1836C48.8234 50.1075 48.8683 50.072 48.9248 50.1058L52.3234 52.1014C52.3545 52.1239 52.38 52.1536 52.3979 52.1879C52.4158 52.2222 52.4256 52.2604 52.4265 52.2992V52.2992C52.4348 52.3753 52.3799 52.4108 52.3234 52.377Z" fill="#0D6EFD"/>
<path d="M54.0975 57.9695L48.4442 54.6515C48.3562 54.5875 48.2841 54.5033 48.2339 54.4058C48.1836 54.3083 48.1566 54.2002 48.1549 54.0901V53.439C48.1549 53.2225 48.2846 53.1228 48.4442 53.2175L54.0975 56.5337C54.1851 56.598 54.2568 56.6823 54.3068 56.7798C54.3567 56.8773 54.3835 56.9853 54.3851 57.0952V57.7446C54.3851 57.9627 54.2638 58.0625 54.0975 57.9695Z" fill="#173D7A"/>
<path opacity="0.3" d="M48.7335 54.5264C48.6456 54.4626 48.5736 54.3787 48.5233 54.2815C48.4731 54.1843 48.446 54.0764 48.4442 53.9666V53.3155C48.4445 53.2842 48.4484 53.253 48.4558 53.2225H48.4475C48.2812 53.1278 48.1582 53.2225 48.1582 53.4441V54.0935C48.1599 54.2035 48.1869 54.3117 48.2372 54.4092C48.2874 54.5067 48.3595 54.5909 48.4475 54.6549L54.1008 57.9712C54.1249 57.9933 54.1547 58.0077 54.1868 58.0128C54.2188 58.0178 54.2516 58.0132 54.2811 57.9996C54.3106 57.9859 54.3355 57.9638 54.3528 57.9359C54.3701 57.908 54.379 57.8756 54.3785 57.8426L48.7335 54.5264Z" fill="#06033E"/>
<path d="M52.3234 56.1871L48.9248 54.1916C48.8939 54.1689 48.8686 54.1392 48.851 54.1048C48.8334 54.0705 48.8239 54.0324 48.8234 53.9937V53.9937C48.8234 53.9176 48.8683 53.8821 48.9248 53.9159L52.3234 55.9114C52.3545 55.934 52.38 55.9636 52.3979 55.998C52.4158 56.0323 52.4256 56.0704 52.4265 56.1093V56.1093C52.4348 56.1854 52.3799 56.2209 52.3234 56.1871Z" fill="#D4ECFF"/>
<path opacity="0.5" d="M47.2587 36.6378L47.8489 36.9845V39.4113L47.2587 39.0646V36.6378Z" fill="#173D7A"/>
<path opacity="0.5" d="M47.2587 40.4767L47.8489 40.8251V43.2518L47.2587 42.9051V40.4767Z" fill="#173D7A"/>
<path opacity="0.5" d="M47.2587 44.3172L47.8489 44.6638V47.0906L47.2587 46.7439V44.3172Z" fill="#173D7A"/>
<path opacity="0.5" d="M47.2587 48.1577L47.8489 48.5044V50.9311L47.2587 50.5844V48.1577Z" fill="#173D7A"/>
<path opacity="0.5" d="M47.2587 51.9965L47.8489 52.3432V54.7699L47.2587 54.4232V51.9965Z" fill="#173D7A"/>
<path d="M52.9935 41.0618C52.9935 41.1396 52.9403 41.1717 52.8737 41.1328C52.8391 41.1094 52.8102 41.0781 52.7895 41.0414C52.7687 41.0047 52.7566 40.9637 52.754 40.9214C52.754 40.8436 52.8089 40.8132 52.8737 40.8521C52.9086 40.8749 52.9377 40.9058 52.9585 40.9422C52.9793 40.9787 52.9913 41.0197 52.9935 41.0618Z" fill="#D4ECFF"/>
<path d="M53.5007 41.3594C53.5007 41.4372 53.4475 41.4693 53.3809 41.4305C53.346 41.4073 53.317 41.3761 53.2962 41.3394C53.2754 41.3026 53.2634 41.2614 53.2612 41.2191C53.2612 41.1413 53.3144 41.1108 53.3809 41.1497C53.4158 41.1725 53.4449 41.2034 53.4657 41.2399C53.4865 41.2763 53.4985 41.3173 53.5007 41.3594V41.3594Z" fill="#0D6EFD"/>
<path d="M54.0077 41.6571C54.0077 41.7349 53.9545 41.767 53.888 41.7281C53.8531 41.7049 53.824 41.6737 53.8032 41.637C53.7824 41.6003 53.7705 41.559 53.7683 41.5167C53.7683 41.4389 53.8215 41.4085 53.888 41.4474C53.9229 41.4701 53.952 41.501 53.9728 41.5375C53.9936 41.574 54.0056 41.615 54.0077 41.6571V41.6571Z" fill="#D4ECFF"/>
<path d="M52.9935 44.9006C52.9935 44.9767 52.9403 45.0088 52.8738 44.9699C52.8391 44.9465 52.8103 44.9152 52.7895 44.8786C52.7687 44.8419 52.7566 44.8008 52.754 44.7586C52.7514 44.7434 52.7535 44.7279 52.7599 44.714C52.7663 44.7001 52.7768 44.6886 52.7899 44.681C52.803 44.6734 52.8181 44.6701 52.8331 44.6716C52.8481 44.6731 52.8623 44.6792 52.8738 44.6892C52.9087 44.7124 52.9377 44.7436 52.9585 44.7803C52.9793 44.817 52.9913 44.8583 52.9935 44.9006V44.9006Z" fill="#0D6EFD"/>
<path d="M53.5007 45.1982C53.5007 45.2743 53.4475 45.3065 53.3809 45.2676C53.3462 45.2446 53.3173 45.2137 53.2965 45.1772C53.2757 45.1408 53.2636 45.0999 53.2612 45.0579C53.2612 44.9801 53.3144 44.9479 53.3809 44.9868C53.4159 45.01 53.4449 45.0412 53.4657 45.0779C53.4865 45.1147 53.4985 45.1559 53.5007 45.1982V45.1982Z" fill="#D4ECFF"/>
<path d="M54.0077 45.4908C54.0077 45.5669 53.9545 45.599 53.888 45.5601C53.8533 45.5372 53.8244 45.5062 53.8036 45.4698C53.7828 45.4334 53.7707 45.3925 53.7683 45.3504C53.7683 45.2727 53.8215 45.2405 53.888 45.2794C53.923 45.3026 53.952 45.3338 53.9728 45.3705C53.9936 45.4072 54.0056 45.4485 54.0077 45.4908Z" fill="white"/>
<path d="M52.9935 48.7665C52.9935 48.8443 52.9403 48.8764 52.8737 48.8375C52.8391 48.8141 52.8102 48.7828 52.7895 48.7461C52.7687 48.7094 52.7566 48.6684 52.754 48.6261C52.754 48.5483 52.8089 48.5179 52.8737 48.5568C52.9087 48.5794 52.9379 48.6103 52.9587 48.6468C52.9795 48.6833 52.9914 48.7243 52.9935 48.7665V48.7665Z" fill="white"/>
<path d="M53.5007 49.0641C53.5007 49.1419 53.4475 49.174 53.3809 49.1351C53.346 49.112 53.317 49.0808 53.2962 49.044C53.2754 49.0073 53.2634 48.9661 53.2612 48.9237C53.2612 48.846 53.3144 48.8155 53.3809 48.8544C53.4159 48.8771 53.4451 48.9079 53.4659 48.9444C53.4867 48.9809 53.4987 49.022 53.5007 49.0641V49.0641Z" fill="#0D6EFD"/>
<path d="M54.0077 49.3617C54.0077 49.4395 53.9545 49.4717 53.888 49.4328C53.8531 49.4096 53.824 49.3784 53.8032 49.3417C53.7824 49.3049 53.7705 49.2637 53.7683 49.2214C53.7683 49.1436 53.8215 49.1132 53.888 49.152C53.9229 49.1748 53.952 49.2057 53.9728 49.2422C53.9936 49.2787 54.0056 49.3196 54.0077 49.3617V49.3617Z" fill="white"/>
<path d="M52.9935 52.5766C52.9935 52.6543 52.9403 52.6865 52.8737 52.6476C52.8391 52.6242 52.8102 52.5929 52.7895 52.5562C52.7687 52.5195 52.7566 52.4784 52.754 52.4362C52.754 52.3584 52.8089 52.328 52.8737 52.3669C52.9086 52.3896 52.9377 52.4205 52.9585 52.457C52.9793 52.4935 52.9913 52.5344 52.9935 52.5766V52.5766Z" fill="white"/>
<path d="M53.5007 52.8742C53.5007 52.952 53.4475 52.9841 53.3809 52.9452C53.346 52.9221 53.317 52.8909 53.2962 52.8541C53.2754 52.8174 53.2634 52.7762 53.2612 52.7338C53.2612 52.656 53.3144 52.6256 53.3809 52.6645C53.4158 52.6873 53.4449 52.7182 53.4657 52.7546C53.4865 52.7911 53.4985 52.8321 53.5007 52.8742V52.8742Z" fill="#D4ECFF"/>
<path d="M54.0077 53.1718C54.0077 53.2496 53.9545 53.2817 53.888 53.2428C53.8531 53.2197 53.824 53.1885 53.8032 53.1517C53.7824 53.115 53.7705 53.0738 53.7683 53.0314C53.7683 52.9537 53.8215 52.9232 53.888 52.9621C53.9227 52.9851 53.9517 53.016 53.9724 53.0525C53.9932 53.0889 54.0053 53.1298 54.0077 53.1718V53.1718Z" fill="#D4ECFF"/>
<path d="M52.9935 56.439C52.9935 56.5168 52.9403 56.549 52.8737 56.5101C52.8391 56.4866 52.8102 56.4554 52.7895 56.4187C52.7687 56.382 52.7566 56.3409 52.754 56.2987C52.754 56.2209 52.8089 56.1905 52.8737 56.2293C52.9086 56.2521 52.9377 56.283 52.9585 56.3195C52.9793 56.3559 52.9913 56.3969 52.9935 56.439V56.439Z" fill="white"/>
<path d="M53.5007 56.7367C53.5007 56.8145 53.4475 56.8466 53.3809 56.8077C53.346 56.7846 53.317 56.7534 53.2962 56.7166C53.2754 56.6799 53.2634 56.6387 53.2612 56.5963C53.2612 56.5185 53.3144 56.4881 53.3809 56.527C53.4158 56.5498 53.4449 56.5807 53.4657 56.6171C53.4865 56.6536 53.4985 56.6946 53.5007 56.7367V56.7367Z" fill="#0D6EFD"/>
<path d="M54.0077 57.0343C54.0077 57.1121 53.9545 57.1442 53.888 57.1053C53.8531 57.0822 53.824 57.051 53.8032 57.0143C53.7824 56.9775 53.7705 56.9363 53.7683 56.894C53.7683 56.8162 53.8215 56.7857 53.888 56.8246C53.9229 56.8474 53.952 56.8783 53.9728 56.9148C53.9936 56.9512 54.0056 56.9922 54.0077 57.0343Z" fill="#D4ECFF"/>
<path d="M56.6016 58.1454V40.9654L56.6365 40.9451L63.6964 36.8002V53.9802L63.6615 54.0005L56.6016 58.1454ZM56.7412 41.0483V57.9002L63.5584 53.8973V37.0454L56.7412 41.0483Z" fill="#173D7A"/>
<path d="M61.8625 44.5303L58.7033 46.3905C58.4905 46.5156 58.3192 46.382 58.3192 46.0945V44.307C58.3213 44.1606 58.3572 44.0167 58.4239 43.8869C58.4906 43.757 58.5863 43.6449 58.7033 43.5596L61.8625 41.6993C62.0753 41.5742 62.2482 41.6993 62.2482 41.9953V43.7794C62.2463 43.9266 62.2104 44.0712 62.1434 44.2016C62.0764 44.332 61.9802 44.4446 61.8625 44.5303Z" fill="#173D7A"/>
<path d="M61.9389 41.6655C61.9586 41.7231 61.9682 41.7838 61.9672 41.8448V43.6306C61.9651 43.777 61.9292 43.921 61.8625 44.0508C61.7958 44.1806 61.7001 44.2927 61.5831 44.3781L58.4239 46.2383C58.3996 46.2526 58.374 46.2645 58.3474 46.2738C58.3575 46.31 58.3761 46.3431 58.4018 46.3702C58.4275 46.3974 58.4594 46.4176 58.4946 46.4291C58.5298 46.4407 58.5673 46.4432 58.6037 46.4364C58.6401 46.4297 58.6743 46.4139 58.7032 46.3905L61.8624 44.5303C61.9799 44.4448 62.076 44.3325 62.143 44.2024C62.21 44.0722 62.246 43.928 62.2482 43.7811V41.997C62.2448 41.7433 62.1152 41.6114 61.9389 41.6655Z" fill="#5793CE"/>
<path d="M61.2838 43.4615C61.342 43.4277 61.3902 43.4615 61.3902 43.5241V43.9299C61.3881 43.9675 61.3773 44.004 61.3589 44.0366C61.3404 44.0692 61.3147 44.0969 61.2838 44.1176C61.2256 44.1515 61.1791 44.1176 61.1791 44.0551V43.6475C61.1809 43.6103 61.1914 43.5741 61.2096 43.5417C61.2278 43.5094 61.2532 43.4819 61.2838 43.4615V43.4615Z" fill="white"/>
<path d="M60.8299 43.7726C60.8881 43.7371 60.9363 43.7726 60.9363 43.8352V44.1903C60.9343 44.2277 60.9236 44.264 60.9051 44.2964C60.8866 44.3287 60.8608 44.3561 60.8299 44.3764C60.7717 44.4119 60.7235 44.3764 60.7235 44.3155V43.9587C60.7255 43.9213 60.7362 43.885 60.7547 43.8526C60.7732 43.8203 60.799 43.7929 60.8299 43.7726V43.7726Z" fill="#D4ECFF"/>
<path d="M60.3759 43.6424C60.4341 43.6069 60.4824 43.6424 60.4824 43.7033V44.4575C60.4802 44.4949 60.4694 44.5311 60.451 44.5635C60.4325 44.5958 60.4068 44.6232 60.3759 44.6436C60.3178 44.6774 60.2695 44.6436 60.2695 44.581V43.8285C60.2716 43.7911 60.2823 43.7548 60.3008 43.7224C60.3193 43.6901 60.345 43.6627 60.3759 43.6424V43.6424Z" fill="#0D6EFD"/>
<path d="M59.9171 43.475C59.9753 43.4412 60.0235 43.475 60.0235 43.5376V44.7214C60.0213 44.7589 60.0106 44.7954 59.9921 44.828C59.9736 44.8606 59.948 44.8884 59.9171 44.9091C59.8589 44.9429 59.8107 44.9091 59.8107 44.8465V43.6627C59.8126 43.6251 59.8232 43.5885 59.8417 43.5559C59.8602 43.5232 59.886 43.4955 59.9171 43.475V43.475Z" fill="#D4ECFF"/>
<path d="M59.4681 43.8657C59.5263 43.8318 59.5745 43.8657 59.5745 43.9282V44.9835C59.5725 45.0208 59.5618 45.0572 59.5433 45.0895C59.5248 45.1218 59.499 45.1493 59.4681 45.1695C59.4099 45.205 59.3617 45.1695 59.3617 45.1086V44.0449C59.3649 44.0088 59.3761 43.9738 59.3945 43.9428C59.413 43.9117 59.4381 43.8853 59.4681 43.8657V43.8657Z" fill="#D4ECFF"/>
<path d="M59.0143 44.6182C59.0724 44.5827 59.119 44.6182 59.119 44.6808V45.2574C59.1172 45.2946 59.1067 45.3309 59.0885 45.3632C59.0703 45.3955 59.0449 45.423 59.0143 45.4435C58.9561 45.4773 58.9078 45.4435 58.9078 45.3809V44.8042C58.9099 44.7669 58.9206 44.7305 58.9391 44.6982C58.9576 44.6659 58.9833 44.6384 59.0143 44.6182V44.6182Z" fill="white"/>
<path d="M61.1808 43.2501C61.1808 43.3177 61.2273 43.3448 61.2839 43.3109C61.3144 43.2908 61.3397 43.2636 61.3579 43.2315C61.3761 43.1995 61.3867 43.1636 61.3886 43.1266C61.3886 43.059 61.3421 43.0319 61.2839 43.0657C61.2538 43.0862 61.2288 43.1135 61.2109 43.1455C61.193 43.1775 61.1827 43.2133 61.1808 43.2501Z" fill="#0D6EFD"/>
<path d="M61.1808 42.8679C61.1808 42.9355 61.2273 42.9626 61.2839 42.9288C61.3144 42.9086 61.3397 42.8814 61.3579 42.8494C61.3761 42.8173 61.3867 42.7814 61.3886 42.7444C61.3886 42.6768 61.3421 42.6497 61.2839 42.6836C61.2538 42.704 61.2288 42.7313 61.2109 42.7633C61.193 42.7953 61.1827 42.8311 61.1808 42.8679V42.8679Z" fill="white"/>
<path opacity="0.5" d="M5.98149 38.1514L1.44058 35.4862C1.16124 35.3171 1.19616 35.0364 1.51873 34.847L5.90335 32.2731C6.06809 32.1793 6.25223 32.1263 6.44086 32.1184C6.6295 32.1105 6.81731 32.1478 6.98911 32.2275L11.5317 34.8926C11.811 35.0618 11.7761 35.3425 11.4535 35.5319L7.06725 38.1057C6.90251 38.1995 6.71837 38.2525 6.52974 38.2605C6.3411 38.2684 6.15328 38.231 5.98149 38.1514V38.1514Z" fill="#173D7A"/>
<path d="M11.7163 32.3374V30.7427H8.20628L6.99083 30.0307C6.81904 29.9511 6.63122 29.9137 6.44259 29.9216C6.25395 29.9296 6.06981 29.9826 5.90507 30.0764L4.77109 30.741H1.25442V32.3797C1.25364 32.4421 1.27087 32.5034 1.30396 32.556C1.33706 32.6086 1.38457 32.6502 1.44065 32.6756L5.98155 35.3442C6.15361 35.423 6.34142 35.4598 6.52996 35.4516C6.7185 35.4434 6.90253 35.3904 7.06732 35.2968L11.4519 32.723C11.6382 32.6096 11.7279 32.4693 11.7163 32.3374Z" fill="#396CAA"/>
<path d="M6.48536 29.9191C6.2818 29.9218 6.082 29.9753 5.90341 30.0746L4.76943 30.7393H1.25442V32.3779C1.25364 32.4404 1.27087 32.5017 1.30396 32.5543C1.33706 32.6069 1.38457 32.6484 1.44065 32.6739L5.98155 35.3441C6.13559 35.4242 6.30764 35.4615 6.48037 35.4524L6.48536 29.9191Z" fill="#396CAA"/>
<path d="M1.65181 30.7376H1.25442V32.3763C1.25364 32.4387 1.27087 32.5 1.30396 32.5526C1.33706 32.6052 1.38457 32.6468 1.44065 32.6722L1.65181 32.7957V30.7376Z" fill="#5793CE"/>
<path d="M6.04468 35.3729C6.3256 35.4769 6.63413 35.4733 6.91262 35.3628V33.5025H6.04468V35.3729Z" fill="#5793CE"/>
<path d="M5.98149 33.7055L1.44058 31.0386C1.16124 30.8695 1.19616 30.5904 1.51873 30.401L5.90335 27.8272C6.06809 27.7334 6.25223 27.6804 6.44086 27.6724C6.6295 27.6645 6.81731 27.7019 6.98911 27.7815L11.5317 30.4399C11.811 30.609 11.7761 30.8898 11.4535 31.0792L7.06725 33.653C6.90304 33.7479 6.71917 33.8021 6.53053 33.8112C6.34189 33.8203 6.1538 33.7841 5.98149 33.7055V33.7055Z" fill="#D4ECFF"/>
<path d="M11.4518 30.7782L7.06723 33.347C6.90219 33.4399 6.71813 33.4923 6.52966 33.5003C6.34119 33.5082 6.15349 33.4713 5.98147 33.3926L1.44056 30.7257C1.38589 30.6944 1.33831 30.6518 1.30089 30.6006C1.27718 30.6376 1.26191 30.6795 1.2562 30.7233C1.25048 30.767 1.25446 30.8115 1.26786 30.8535C1.28125 30.8955 1.30371 30.9339 1.33359 30.966C1.36348 30.998 1.40002 31.0228 1.44056 31.0386L5.98147 33.7055C6.15326 33.7851 6.34108 33.8225 6.52971 33.8145C6.71835 33.8066 6.90249 33.7536 7.06723 33.6598L11.4518 31.0859C11.7013 30.9388 11.7844 30.7342 11.6697 30.5786C11.6142 30.6623 11.5394 30.7308 11.4518 30.7782V30.7782Z" fill="white"/>
<path d="M10.0469 32.7568C10.0436 32.8214 10.0253 32.8844 9.99353 32.9406C9.96175 32.9967 9.91737 33.0444 9.86401 33.0798C9.76258 33.1389 9.67944 33.0916 9.67944 32.9732C9.68362 32.9077 9.70297 32.8442 9.73591 32.7877C9.76885 32.7313 9.81446 32.6836 9.86899 32.6485C9.96543 32.5893 10.0469 32.6384 10.0469 32.7568Z" fill="#D4ECFF"/>
<path d="M10.6371 32.4101C10.6336 32.4749 10.6151 32.538 10.583 32.5942C10.5509 32.6503 10.5062 32.6979 10.4526 32.7331C10.3528 32.7923 10.2697 32.7449 10.2697 32.6266C10.2732 32.5619 10.2916 32.499 10.3234 32.443C10.3551 32.3869 10.3994 32.3391 10.4526 32.3036C10.554 32.2427 10.6371 32.3002 10.6371 32.4101Z" fill="#D4ECFF"/>
<path d="M11.2274 32.0634C11.224 32.1283 11.2054 32.1913 11.1733 32.2475C11.1413 32.3036 11.0966 32.3512 11.0429 32.3864C10.9415 32.4473 10.86 32.3983 10.86 32.2799C10.8632 32.2152 10.8814 32.1521 10.9132 32.096C10.945 32.0398 10.9894 31.9921 11.0429 31.9569C11.1443 31.8977 11.2274 31.945 11.2274 32.0634Z" fill="#D4ECFF"/>
<path d="M6.24924 32.0533L4.12428 30.8052C3.99458 30.7291 4.01121 30.5938 4.16086 30.5059L6.211 29.3018C6.28829 29.2582 6.37452 29.2335 6.46284 29.2297C6.55116 29.2259 6.63914 29.243 6.71979 29.2799L8.84476 30.5279C8.97445 30.604 8.95783 30.7376 8.80818 30.8272L6.75637 32.0313C6.67929 32.0746 6.59336 32.0992 6.50535 32.103C6.41735 32.1068 6.32967 32.0898 6.24924 32.0533V32.0533Z" fill="#5793CE"/>
<path d="M6.4521 31.0082L6.15946 30.8391C6.14117 30.8289 6.14284 30.8103 6.15946 30.7968L6.44213 30.6277C6.45329 30.6223 6.46551 30.6194 6.47788 30.6194C6.49024 30.6194 6.50246 30.6223 6.51362 30.6277L6.80627 30.7968C6.82456 30.8069 6.82289 30.8255 6.80627 30.8391L6.5236 31.0082C6.51243 31.0136 6.50022 31.0164 6.48785 31.0164C6.47548 31.0164 6.46327 31.0136 6.4521 31.0082V31.0082Z" fill="#D4ECFF"/>
<path d="M4.12421 30.8052C4.13418 30.8052 4.1425 30.79 4.15414 30.7832L6.21093 29.5826C6.28822 29.5389 6.37445 29.5142 6.46277 29.5104C6.55109 29.5066 6.63907 29.5238 6.71973 29.5606L8.83804 30.8052C8.95776 30.7173 8.96441 30.5989 8.83804 30.5279L6.71307 29.2799C6.63242 29.243 6.54444 29.2259 6.45612 29.2297C6.3678 29.2335 6.28157 29.2582 6.20428 29.3018L4.15247 30.5059C4.01114 30.5938 3.99451 30.7291 4.12421 30.8052Z" fill="#396CAA"/>
</g>
<defs>
<linearGradient id="paint0_linear_2497_1136" x1="60.144" y1="51.8263" x2="69.5852" y2="35.6743" gradientUnits="userSpaceOnUse">
<stop stop-color="#2D0979"/>
<stop offset="1" stop-color="#5B04F7"/>
</linearGradient>
<linearGradient id="paint1_linear_2497_1136" x1="46.1702" y1="45.1538" x2="53.7434" y2="43.9916" gradientUnits="userSpaceOnUse">
<stop stop-color="#3919BB"/>
<stop offset="1" stop-color="#6507FA"/>
</linearGradient>
<linearGradient id="paint2_linear_2497_1136" x1="46.1702" y1="45.1538" x2="53.7434" y2="43.9916" gradientUnits="userSpaceOnUse">
<stop stop-color="#3919BB"/>
<stop offset="1" stop-color="#6507FA"/>
</linearGradient>
<clipPath id="clip0_2497_1136">
<rect width="64.9412" height="64" fill="white" transform="translate(0.0588379)"/>
</clipPath>
</defs>
</svg>
