<svg width="219" height="949" viewBox="0 0 219 949" fill="none" xmlns="http://www.w3.org/2000/svg">
<circle cx="4.5" cy="4.5" r="4.5" fill="#FAFCFF"/>
<circle cx="19.5" cy="4.5" r="4.5" fill="#FAFCFF"/>
<circle cx="34.5" cy="4.5" r="4.5" fill="#FAFCFF"/>
<circle cx="49.5" cy="4.5" r="4.5" fill="#FAFCFF"/>
<circle cx="64.5" cy="4.5" r="4.5" fill="#FAFCFF"/>
<circle cx="79.5" cy="4.5" r="4.5" fill="#FAFCFF"/>
<circle cx="94.5" cy="4.5" r="4.5" fill="#FAFCFF"/>
<circle cx="109.5" cy="4.5" r="4.5" fill="#FAFCFF"/>
<circle cx="124.5" cy="4.5" r="4.5" fill="#FAFCFF"/>
<circle cx="139.5" cy="4.5" r="4.5" fill="#FAFCFF"/>
<circle cx="154.5" cy="4.5" r="4.5" fill="#FAFCFF"/>
<circle cx="169.5" cy="4.5" r="4.5" fill="#FAFCFF"/>
<circle cx="184.5" cy="4.5" r="4.5" fill="#FAFCFF"/>
<circle cx="199.5" cy="4.5" r="4.5" fill="#FAFCFF"/>
<circle cx="214.5" cy="4.5" r="4.5" fill="#FAFCFF"/>
<circle cx="4.5" cy="24.5" r="4.5" fill="#FAFCFF"/>
<circle cx="19.5" cy="24.5" r="4.5" fill="#FAFCFF"/>
<circle cx="34.5" cy="24.5" r="4.5" fill="#FAFCFF"/>
<circle cx="49.5" cy="24.5" r="4.5" fill="#FAFCFF"/>
<circle cx="64.5" cy="24.5" r="4.5" fill="#FAFCFF"/>
<circle cx="79.5" cy="24.5" r="4.5" fill="#FAFCFF"/>
<circle cx="94.5" cy="24.5" r="4.5" fill="#FAFCFF"/>
<circle cx="109.5" cy="24.5" r="4.5" fill="#FAFCFF"/>
<circle cx="124.5" cy="24.5" r="4.5" fill="#FAFCFF"/>
<circle cx="139.5" cy="24.5" r="4.5" fill="#FAFCFF"/>
<circle cx="4.5" cy="44.5" r="4.5" fill="#FAFCFF"/>
<circle cx="19.5" cy="44.5" r="4.5" fill="#FAFCFF"/>
<circle cx="34.5" cy="44.5" r="4.5" fill="#FAFCFF"/>
<circle cx="49.5" cy="44.5" r="4.5" fill="#FAFCFF"/>
<circle cx="64.5" cy="44.5" r="4.5" fill="#FAFCFF"/>
<circle cx="79.5" cy="44.5" r="4.5" fill="#FAFCFF"/>
<circle cx="94.5" cy="44.5" r="4.5" fill="#FAFCFF"/>
<circle cx="109.5" cy="44.5" r="4.5" fill="#FAFCFF"/>
<circle cx="124.5" cy="44.5" r="4.5" fill="#FAFCFF"/>
<circle cx="139.5" cy="44.5" r="4.5" fill="#FAFCFF"/>
<circle cx="154.5" cy="44.5" r="4.5" fill="#FAFCFF"/>
<circle cx="4.5" cy="64.5" r="4.5" fill="#FAFCFF"/>
<circle cx="19.5" cy="64.5" r="4.5" fill="#FAFCFF"/>
<circle cx="34.5" cy="64.5" r="4.5" fill="#FAFCFF"/>
<circle cx="49.5" cy="64.5" r="4.5" fill="#FAFCFF"/>
<circle cx="4.5" cy="84.5" r="4.5" fill="#FAFCFF"/>
<circle cx="19.5" cy="84.5" r="4.5" fill="#FAFCFF"/>
<circle cx="34.5" cy="84.5" r="4.5" fill="#FAFCFF"/>
<circle cx="49.5" cy="84.5" r="4.5" fill="#FAFCFF"/>
<circle cx="64.5" cy="84.5" r="4.5" fill="#FAFCFF"/>
<circle cx="79.5" cy="84.5" r="4.5" fill="#FAFCFF"/>
<circle cx="94.5" cy="84.5" r="4.5" fill="#FAFCFF"/>
<circle cx="4.5" cy="104.5" r="4.5" fill="#FAFCFF"/>
<circle cx="19.5" cy="104.5" r="4.5" fill="#FAFCFF"/>
<circle cx="34.5" cy="104.5" r="4.5" fill="#FAFCFF"/>
<circle cx="49.5" cy="104.5" r="4.5" fill="#FAFCFF"/>
<circle cx="64.5" cy="104.5" r="4.5" fill="#FAFCFF"/>
<circle cx="79.5" cy="104.5" r="4.5" fill="#FAFCFF"/>
<circle cx="94.5" cy="104.5" r="4.5" fill="#FAFCFF"/>
<circle cx="109.5" cy="104.5" r="4.5" fill="#FAFCFF"/>
<circle cx="124.5" cy="104.5" r="4.5" fill="#FAFCFF"/>
<circle cx="139.5" cy="104.5" r="4.5" fill="#FAFCFF"/>
<circle cx="154.5" cy="104.5" r="4.5" fill="#FAFCFF"/>
<circle cx="169.5" cy="104.5" r="4.5" fill="#FAFCFF"/>
<circle cx="4.5" cy="124.5" r="4.5" fill="#FAFCFF"/>
<circle cx="19.5" cy="124.5" r="4.5" fill="#FAFCFF"/>
<circle cx="34.5" cy="124.5" r="4.5" fill="#FAFCFF"/>
<circle cx="49.5" cy="124.5" r="4.5" fill="#FAFCFF"/>
<circle cx="64.5" cy="124.5" r="4.5" fill="#FAFCFF"/>
<circle cx="79.5" cy="124.5" r="4.5" fill="#FAFCFF"/>
<circle cx="94.5" cy="124.5" r="4.5" fill="#FAFCFF"/>
<circle cx="109.5" cy="124.5" r="4.5" fill="#FAFCFF"/>
<circle cx="124.5" cy="124.5" r="4.5" fill="#FAFCFF"/>
<circle cx="139.5" cy="124.5" r="4.5" fill="#FAFCFF"/>
<circle cx="154.5" cy="124.5" r="4.5" fill="#FAFCFF"/>
<circle cx="169.5" cy="124.5" r="4.5" fill="#FAFCFF"/>
<circle cx="184.5" cy="124.5" r="4.5" fill="#FAFCFF"/>
<circle cx="199.5" cy="124.5" r="4.5" fill="#FAFCFF"/>
<circle cx="4.5" cy="144.5" r="4.5" fill="#FAFCFF"/>
<circle cx="19.5" cy="144.5" r="4.5" fill="#FAFCFF"/>
<circle cx="34.5" cy="144.5" r="4.5" fill="#FAFCFF"/>
<circle cx="49.5" cy="144.5" r="4.5" fill="#FAFCFF"/>
<circle cx="64.5" cy="144.5" r="4.5" fill="#FAFCFF"/>
<circle cx="79.5" cy="144.5" r="4.5" fill="#FAFCFF"/>
<circle cx="94.5" cy="144.5" r="4.5" fill="#FAFCFF"/>
<circle cx="109.5" cy="144.5" r="4.5" fill="#FAFCFF"/>
<circle cx="124.5" cy="144.5" r="4.5" fill="#FAFCFF"/>
<circle cx="139.5" cy="144.5" r="4.5" fill="#FAFCFF"/>
<circle cx="154.5" cy="144.5" r="4.5" fill="#FAFCFF"/>
<circle cx="169.5" cy="144.5" r="4.5" fill="#FAFCFF"/>
<circle cx="4.5" cy="164.5" r="4.5" fill="#FAFCFF"/>
<circle cx="19.5" cy="164.5" r="4.5" fill="#FAFCFF"/>
<circle cx="34.5" cy="164.5" r="4.5" fill="#FAFCFF"/>
<circle cx="49.5" cy="164.5" r="4.5" fill="#FAFCFF"/>
<circle cx="64.5" cy="164.5" r="4.5" fill="#FAFCFF"/>
<circle cx="79.5" cy="164.5" r="4.5" fill="#FAFCFF"/>
<circle cx="94.5" cy="164.5" r="4.5" fill="#FAFCFF"/>
<circle cx="109.5" cy="164.5" r="4.5" fill="#FAFCFF"/>
<circle cx="124.5" cy="164.5" r="4.5" fill="#FAFCFF"/>
<circle cx="4.5" cy="184.5" r="4.5" fill="#FAFCFF"/>
<circle cx="19.5" cy="184.5" r="4.5" fill="#FAFCFF"/>
<circle cx="34.5" cy="184.5" r="4.5" fill="#FAFCFF"/>
<circle cx="4.5" cy="204.5" r="4.5" fill="#FAFCFF"/>
<circle cx="19.5" cy="204.5" r="4.5" fill="#FAFCFF"/>
<circle cx="34.5" cy="204.5" r="4.5" fill="#FAFCFF"/>
<circle cx="49.5" cy="204.5" r="4.5" fill="#FAFCFF"/>
<circle cx="64.5" cy="204.5" r="4.5" fill="#FAFCFF"/>
<circle cx="79.5" cy="204.5" r="4.5" fill="#FAFCFF"/>
<circle cx="94.5" cy="204.5" r="4.5" fill="#FAFCFF"/>
<circle cx="109.5" cy="204.5" r="4.5" fill="#FAFCFF"/>
<circle cx="124.5" cy="204.5" r="4.5" fill="#FAFCFF"/>
<circle cx="139.5" cy="204.5" r="4.5" fill="#FAFCFF"/>
<circle cx="154.5" cy="204.5" r="4.5" fill="#FAFCFF"/>
<circle cx="169.5" cy="204.5" r="4.5" fill="#FAFCFF"/>
<circle cx="184.5" cy="204.5" r="4.5" fill="#FAFCFF"/>
<circle cx="199.5" cy="204.5" r="4.5" fill="#FAFCFF"/>
<circle cx="214.5" cy="204.5" r="4.5" fill="#FAFCFF"/>
<circle cx="4.5" cy="224.5" r="4.5" fill="#FAFCFF"/>
<circle cx="19.5" cy="224.5" r="4.5" fill="#FAFCFF"/>
<circle cx="34.5" cy="224.5" r="4.5" fill="#FAFCFF"/>
<circle cx="49.5" cy="224.5" r="4.5" fill="#FAFCFF"/>
<circle cx="64.5" cy="224.5" r="4.5" fill="#FAFCFF"/>
<circle cx="79.5" cy="224.5" r="4.5" fill="#FAFCFF"/>
<circle cx="94.5" cy="224.5" r="4.5" fill="#FAFCFF"/>
<circle cx="109.5" cy="224.5" r="4.5" fill="#FAFCFF"/>
<circle cx="124.5" cy="224.5" r="4.5" fill="#FAFCFF"/>
<circle cx="139.5" cy="224.5" r="4.5" fill="#FAFCFF"/>
<circle cx="4.5" cy="244.5" r="4.5" fill="#FAFCFF"/>
<circle cx="19.5" cy="244.5" r="4.5" fill="#FAFCFF"/>
<circle cx="34.5" cy="244.5" r="4.5" fill="#FAFCFF"/>
<circle cx="49.5" cy="244.5" r="4.5" fill="#FAFCFF"/>
<circle cx="64.5" cy="244.5" r="4.5" fill="#FAFCFF"/>
<circle cx="79.5" cy="244.5" r="4.5" fill="#FAFCFF"/>
<circle cx="94.5" cy="244.5" r="4.5" fill="#FAFCFF"/>
<circle cx="109.5" cy="244.5" r="4.5" fill="#FAFCFF"/>
<circle cx="124.5" cy="244.5" r="4.5" fill="#FAFCFF"/>
<circle cx="139.5" cy="244.5" r="4.5" fill="#FAFCFF"/>
<circle cx="154.5" cy="244.5" r="4.5" fill="#FAFCFF"/>
<circle cx="4.5" cy="264.5" r="4.5" fill="#FAFCFF"/>
<circle cx="19.5" cy="264.5" r="4.5" fill="#FAFCFF"/>
<circle cx="34.5" cy="264.5" r="4.5" fill="#FAFCFF"/>
<circle cx="49.5" cy="264.5" r="4.5" fill="#FAFCFF"/>
<circle cx="64.5" cy="264.5" r="4.5" fill="#FAFCFF"/>
<circle cx="79.5" cy="264.5" r="4.5" fill="#FAFCFF"/>
<circle cx="94.5" cy="264.5" r="4.5" fill="#FAFCFF"/>
<circle cx="109.5" cy="264.5" r="4.5" fill="#FAFCFF"/>
<circle cx="124.5" cy="264.5" r="4.5" fill="#FAFCFF"/>
<circle cx="139.5" cy="264.5" r="4.5" fill="#FAFCFF"/>
<circle cx="4.5" cy="284.5" r="4.5" fill="#FAFCFF"/>
<circle cx="19.5" cy="284.5" r="4.5" fill="#FAFCFF"/>
<circle cx="34.5" cy="284.5" r="4.5" fill="#FAFCFF"/>
<circle cx="49.5" cy="284.5" r="4.5" fill="#FAFCFF"/>
<circle cx="64.5" cy="284.5" r="4.5" fill="#FAFCFF"/>
<circle cx="79.5" cy="284.5" r="4.5" fill="#FAFCFF"/>
<circle cx="94.5" cy="284.5" r="4.5" fill="#FAFCFF"/>
<circle cx="109.5" cy="284.5" r="4.5" fill="#FAFCFF"/>
<circle cx="124.5" cy="284.5" r="4.5" fill="#FAFCFF"/>
<circle cx="139.5" cy="284.5" r="4.5" fill="#FAFCFF"/>
<circle cx="154.5" cy="284.5" r="4.5" fill="#FAFCFF"/>
<circle cx="169.5" cy="284.5" r="4.5" fill="#FAFCFF"/>
<circle cx="184.5" cy="284.5" r="4.5" fill="#FAFCFF"/>
<circle cx="199.5" cy="284.5" r="4.5" fill="#FAFCFF"/>
<circle cx="214.5" cy="284.5" r="4.5" fill="#FAFCFF"/>
<circle cx="4.5" cy="304.5" r="4.5" fill="#FAFCFF"/>
<circle cx="19.5" cy="304.5" r="4.5" fill="#FAFCFF"/>
<circle cx="34.5" cy="304.5" r="4.5" fill="#FAFCFF"/>
<circle cx="49.5" cy="304.5" r="4.5" fill="#FAFCFF"/>
<circle cx="64.5" cy="304.5" r="4.5" fill="#FAFCFF"/>
<circle cx="79.5" cy="304.5" r="4.5" fill="#FAFCFF"/>
<circle cx="94.5" cy="304.5" r="4.5" fill="#FAFCFF"/>
<circle cx="109.5" cy="304.5" r="4.5" fill="#FAFCFF"/>
<circle cx="124.5" cy="304.5" r="4.5" fill="#FAFCFF"/>
<circle cx="139.5" cy="304.5" r="4.5" fill="#FAFCFF"/>
<circle cx="154.5" cy="304.5" r="4.5" fill="#FAFCFF"/>
<circle cx="169.5" cy="304.5" r="4.5" fill="#FAFCFF"/>
<circle cx="184.5" cy="304.5" r="4.5" fill="#FAFCFF"/>
<circle cx="199.5" cy="304.5" r="4.5" fill="#FAFCFF"/>
<circle cx="4.5" cy="324.5" r="4.5" fill="#FAFCFF"/>
<circle cx="19.5" cy="324.5" r="4.5" fill="#FAFCFF"/>
<circle cx="34.5" cy="324.5" r="4.5" fill="#FAFCFF"/>
<circle cx="49.5" cy="324.5" r="4.5" fill="#FAFCFF"/>
<circle cx="64.5" cy="324.5" r="4.5" fill="#FAFCFF"/>
<circle cx="79.5" cy="324.5" r="4.5" fill="#FAFCFF"/>
<circle cx="94.5" cy="324.5" r="4.5" fill="#FAFCFF"/>
<circle cx="109.5" cy="324.5" r="4.5" fill="#FAFCFF"/>
<circle cx="124.5" cy="324.5" r="4.5" fill="#FAFCFF"/>
<circle cx="139.5" cy="324.5" r="4.5" fill="#FAFCFF"/>
<circle cx="154.5" cy="324.5" r="4.5" fill="#FAFCFF"/>
<circle cx="169.5" cy="324.5" r="4.5" fill="#FAFCFF"/>
<circle cx="184.5" cy="324.5" r="4.5" fill="#FAFCFF"/>
<circle cx="199.5" cy="324.5" r="4.5" fill="#FAFCFF"/>
<circle cx="214.5" cy="324.5" r="4.5" fill="#FAFCFF"/>
<circle cx="4.5" cy="344.5" r="4.5" fill="#FAFCFF"/>
<circle cx="19.5" cy="344.5" r="4.5" fill="#FAFCFF"/>
<circle cx="34.5" cy="344.5" r="4.5" fill="#FAFCFF"/>
<circle cx="49.5" cy="344.5" r="4.5" fill="#FAFCFF"/>
<circle cx="64.5" cy="344.5" r="4.5" fill="#FAFCFF"/>
<circle cx="4.5" cy="364.5" r="4.5" fill="#FAFCFF"/>
<circle cx="19.5" cy="364.5" r="4.5" fill="#FAFCFF"/>
<circle cx="34.5" cy="364.5" r="4.5" fill="#FAFCFF"/>
<circle cx="49.5" cy="364.5" r="4.5" fill="#FAFCFF"/>
<circle cx="64.5" cy="364.5" r="4.5" fill="#FAFCFF"/>
<circle cx="79.5" cy="364.5" r="4.5" fill="#FAFCFF"/>
<circle cx="94.5" cy="364.5" r="4.5" fill="#FAFCFF"/>
<circle cx="109.5" cy="364.5" r="4.5" fill="#FAFCFF"/>
<circle cx="124.5" cy="364.5" r="4.5" fill="#FAFCFF"/>
<circle cx="139.5" cy="364.5" r="4.5" fill="#FAFCFF"/>
<circle cx="4.5" cy="384.5" r="4.5" fill="#FAFCFF"/>
<circle cx="19.5" cy="384.5" r="4.5" fill="#FAFCFF"/>
<circle cx="34.5" cy="384.5" r="4.5" fill="#FAFCFF"/>
<circle cx="49.5" cy="384.5" r="4.5" fill="#FAFCFF"/>
<circle cx="64.5" cy="384.5" r="4.5" fill="#FAFCFF"/>
<circle cx="79.5" cy="384.5" r="4.5" fill="#FAFCFF"/>
<circle cx="94.5" cy="384.5" r="4.5" fill="#FAFCFF"/>
<circle cx="109.5" cy="384.5" r="4.5" fill="#FAFCFF"/>
<circle cx="124.5" cy="384.5" r="4.5" fill="#FAFCFF"/>
<circle cx="139.5" cy="384.5" r="4.5" fill="#FAFCFF"/>
<circle cx="154.5" cy="384.5" r="4.5" fill="#FAFCFF"/>
<circle cx="169.5" cy="384.5" r="4.5" fill="#FAFCFF"/>
<circle cx="4.5" cy="404.5" r="4.5" fill="#FAFCFF"/>
<circle cx="19.5" cy="404.5" r="4.5" fill="#FAFCFF"/>
<circle cx="34.5" cy="404.5" r="4.5" fill="#FAFCFF"/>
<circle cx="49.5" cy="404.5" r="4.5" fill="#FAFCFF"/>
<circle cx="64.5" cy="404.5" r="4.5" fill="#FAFCFF"/>
<circle cx="79.5" cy="404.5" r="4.5" fill="#FAFCFF"/>
<circle cx="94.5" cy="404.5" r="4.5" fill="#FAFCFF"/>
<circle cx="109.5" cy="404.5" r="4.5" fill="#FAFCFF"/>
<circle cx="124.5" cy="404.5" r="4.5" fill="#FAFCFF"/>
<circle cx="4.5" cy="424.5" r="4.5" fill="#FAFCFF"/>
<circle cx="19.5" cy="424.5" r="4.5" fill="#FAFCFF"/>
<circle cx="34.5" cy="424.5" r="4.5" fill="#FAFCFF"/>
<circle cx="49.5" cy="424.5" r="4.5" fill="#FAFCFF"/>
<circle cx="64.5" cy="424.5" r="4.5" fill="#FAFCFF"/>
<circle cx="79.5" cy="424.5" r="4.5" fill="#FAFCFF"/>
<circle cx="94.5" cy="424.5" r="4.5" fill="#FAFCFF"/>
<circle cx="4.5" cy="444.5" r="4.5" fill="#FAFCFF"/>
<circle cx="19.5" cy="444.5" r="4.5" fill="#FAFCFF"/>
<circle cx="34.5" cy="444.5" r="4.5" fill="#FAFCFF"/>
<circle cx="49.5" cy="444.5" r="4.5" fill="#FAFCFF"/>
<circle cx="64.5" cy="444.5" r="4.5" fill="#FAFCFF"/>
<circle cx="79.5" cy="444.5" r="4.5" fill="#FAFCFF"/>
<circle cx="94.5" cy="444.5" r="4.5" fill="#FAFCFF"/>
<circle cx="109.5" cy="444.5" r="4.5" fill="#FAFCFF"/>
<circle cx="124.5" cy="444.5" r="4.5" fill="#FAFCFF"/>
<circle cx="139.5" cy="444.5" r="4.5" fill="#FAFCFF"/>
<circle cx="4.5" cy="464.5" r="4.5" fill="#FAFCFF"/>
<circle cx="19.5" cy="464.5" r="4.5" fill="#FAFCFF"/>
<circle cx="34.5" cy="464.5" r="4.5" fill="#FAFCFF"/>
<circle cx="49.5" cy="464.5" r="4.5" fill="#FAFCFF"/>
<circle cx="64.5" cy="464.5" r="4.5" fill="#FAFCFF"/>
<circle cx="79.5" cy="464.5" r="4.5" fill="#FAFCFF"/>
<circle cx="94.5" cy="464.5" r="4.5" fill="#FAFCFF"/>
<circle cx="109.5" cy="464.5" r="4.5" fill="#FAFCFF"/>
<circle cx="124.5" cy="464.5" r="4.5" fill="#FAFCFF"/>
<circle cx="139.5" cy="464.5" r="4.5" fill="#FAFCFF"/>
<circle cx="154.5" cy="464.5" r="4.5" fill="#FAFCFF"/>
<circle cx="169.5" cy="464.5" r="4.5" fill="#FAFCFF"/>
<circle cx="184.5" cy="464.5" r="4.5" fill="#FAFCFF"/>
<circle cx="4.5" cy="484.5" r="4.5" fill="#FAFCFF"/>
<circle cx="19.5" cy="484.5" r="4.5" fill="#FAFCFF"/>
<circle cx="34.5" cy="484.5" r="4.5" fill="#FAFCFF"/>
<circle cx="49.5" cy="484.5" r="4.5" fill="#FAFCFF"/>
<circle cx="64.5" cy="484.5" r="4.5" fill="#FAFCFF"/>
<circle cx="79.5" cy="484.5" r="4.5" fill="#FAFCFF"/>
<circle cx="94.5" cy="484.5" r="4.5" fill="#FAFCFF"/>
<circle cx="109.5" cy="484.5" r="4.5" fill="#FAFCFF"/>
<circle cx="124.5" cy="484.5" r="4.5" fill="#FAFCFF"/>
<circle cx="139.5" cy="484.5" r="4.5" fill="#FAFCFF"/>
<circle cx="154.5" cy="484.5" r="4.5" fill="#FAFCFF"/>
<circle cx="169.5" cy="484.5" r="4.5" fill="#FAFCFF"/>
<circle cx="184.5" cy="484.5" r="4.5" fill="#FAFCFF"/>
<circle cx="4.5" cy="504.5" r="4.5" fill="#FAFCFF"/>
<circle cx="19.5" cy="504.5" r="4.5" fill="#FAFCFF"/>
<circle cx="34.5" cy="504.5" r="4.5" fill="#FAFCFF"/>
<circle cx="49.5" cy="504.5" r="4.5" fill="#FAFCFF"/>
<circle cx="64.5" cy="504.5" r="4.5" fill="#FAFCFF"/>
<circle cx="4.5" cy="524.5" r="4.5" fill="#FAFCFF"/>
<circle cx="19.5" cy="524.5" r="4.5" fill="#FAFCFF"/>
<circle cx="34.5" cy="524.5" r="4.5" fill="#FAFCFF"/>
<circle cx="49.5" cy="524.5" r="4.5" fill="#FAFCFF"/>
<circle cx="64.5" cy="524.5" r="4.5" fill="#FAFCFF"/>
<circle cx="79.5" cy="524.5" r="4.5" fill="#FAFCFF"/>
<circle cx="94.5" cy="524.5" r="4.5" fill="#FAFCFF"/>
<circle cx="109.5" cy="524.5" r="4.5" fill="#FAFCFF"/>
<circle cx="124.5" cy="524.5" r="4.5" fill="#FAFCFF"/>
<circle cx="139.5" cy="524.5" r="4.5" fill="#FAFCFF"/>
<circle cx="154.5" cy="524.5" r="4.5" fill="#FAFCFF"/>
<circle cx="169.5" cy="524.5" r="4.5" fill="#FAFCFF"/>
<circle cx="4.5" cy="544.5" r="4.5" fill="#FAFCFF"/>
<circle cx="19.5" cy="544.5" r="4.5" fill="#FAFCFF"/>
<circle cx="34.5" cy="544.5" r="4.5" fill="#FAFCFF"/>
<circle cx="49.5" cy="544.5" r="4.5" fill="#FAFCFF"/>
<circle cx="64.5" cy="544.5" r="4.5" fill="#FAFCFF"/>
<circle cx="79.5" cy="544.5" r="4.5" fill="#FAFCFF"/>
<circle cx="94.5" cy="544.5" r="4.5" fill="#FAFCFF"/>
<circle cx="109.5" cy="544.5" r="4.5" fill="#FAFCFF"/>
<circle cx="4.5" cy="564.5" r="4.5" fill="#FAFCFF"/>
<circle cx="19.5" cy="564.5" r="4.5" fill="#FAFCFF"/>
<circle cx="34.5" cy="564.5" r="4.5" fill="#FAFCFF"/>
<circle cx="49.5" cy="564.5" r="4.5" fill="#FAFCFF"/>
<circle cx="64.5" cy="564.5" r="4.5" fill="#FAFCFF"/>
<circle cx="79.5" cy="564.5" r="4.5" fill="#FAFCFF"/>
<circle cx="94.5" cy="564.5" r="4.5" fill="#FAFCFF"/>
<circle cx="109.5" cy="564.5" r="4.5" fill="#FAFCFF"/>
<circle cx="124.5" cy="564.5" r="4.5" fill="#FAFCFF"/>
<circle cx="139.5" cy="564.5" r="4.5" fill="#FAFCFF"/>
<circle cx="4.5" cy="584.5" r="4.5" fill="#FAFCFF"/>
<circle cx="19.5" cy="584.5" r="4.5" fill="#FAFCFF"/>
<circle cx="34.5" cy="584.5" r="4.5" fill="#FAFCFF"/>
<circle cx="49.5" cy="584.5" r="4.5" fill="#FAFCFF"/>
<circle cx="64.5" cy="584.5" r="4.5" fill="#FAFCFF"/>
<circle cx="79.5" cy="584.5" r="4.5" fill="#FAFCFF"/>
<circle cx="94.5" cy="584.5" r="4.5" fill="#FAFCFF"/>
<circle cx="109.5" cy="584.5" r="4.5" fill="#FAFCFF"/>
<circle cx="124.5" cy="584.5" r="4.5" fill="#FAFCFF"/>
<circle cx="139.5" cy="584.5" r="4.5" fill="#FAFCFF"/>
<circle cx="154.5" cy="584.5" r="4.5" fill="#FAFCFF"/>
<circle cx="4.5" cy="604.5" r="4.5" fill="#FAFCFF"/>
<circle cx="19.5" cy="604.5" r="4.5" fill="#FAFCFF"/>
<circle cx="34.5" cy="604.5" r="4.5" fill="#FAFCFF"/>
<circle cx="49.5" cy="604.5" r="4.5" fill="#FAFCFF"/>
<circle cx="64.5" cy="604.5" r="4.5" fill="#FAFCFF"/>
<circle cx="79.5" cy="604.5" r="4.5" fill="#FAFCFF"/>
<circle cx="94.5" cy="604.5" r="4.5" fill="#FAFCFF"/>
<circle cx="109.5" cy="604.5" r="4.5" fill="#FAFCFF"/>
<circle cx="124.5" cy="604.5" r="4.5" fill="#FAFCFF"/>
<circle cx="139.5" cy="604.5" r="4.5" fill="#FAFCFF"/>
<circle cx="154.5" cy="604.5" r="4.5" fill="#FAFCFF"/>
<circle cx="169.5" cy="604.5" r="4.5" fill="#FAFCFF"/>
<circle cx="184.5" cy="604.5" r="4.5" fill="#FAFCFF"/>
<circle cx="4.5" cy="624.5" r="4.5" fill="#FAFCFF"/>
<circle cx="19.5" cy="624.5" r="4.5" fill="#FAFCFF"/>
<circle cx="34.5" cy="624.5" r="4.5" fill="#FAFCFF"/>
<circle cx="49.5" cy="624.5" r="4.5" fill="#FAFCFF"/>
<circle cx="64.5" cy="624.5" r="4.5" fill="#FAFCFF"/>
<circle cx="79.5" cy="624.5" r="4.5" fill="#FAFCFF"/>
<circle cx="94.5" cy="624.5" r="4.5" fill="#FAFCFF"/>
<circle cx="109.5" cy="624.5" r="4.5" fill="#FAFCFF"/>
<circle cx="124.5" cy="624.5" r="4.5" fill="#FAFCFF"/>
<circle cx="139.5" cy="624.5" r="4.5" fill="#FAFCFF"/>
<circle cx="154.5" cy="624.5" r="4.5" fill="#FAFCFF"/>
<circle cx="169.5" cy="624.5" r="4.5" fill="#FAFCFF"/>
<circle cx="184.5" cy="624.5" r="4.5" fill="#FAFCFF"/>
<circle cx="199.5" cy="624.5" r="4.5" fill="#FAFCFF"/>
<circle cx="4.5" cy="644.5" r="4.5" fill="#FAFCFF"/>
<circle cx="19.5" cy="644.5" r="4.5" fill="#FAFCFF"/>
<circle cx="34.5" cy="644.5" r="4.5" fill="#FAFCFF"/>
<circle cx="49.5" cy="644.5" r="4.5" fill="#FAFCFF"/>
<circle cx="64.5" cy="644.5" r="4.5" fill="#FAFCFF"/>
<circle cx="79.5" cy="644.5" r="4.5" fill="#FAFCFF"/>
<circle cx="94.5" cy="644.5" r="4.5" fill="#FAFCFF"/>
<circle cx="109.5" cy="644.5" r="4.5" fill="#FAFCFF"/>
<circle cx="124.5" cy="644.5" r="4.5" fill="#FAFCFF"/>
<circle cx="139.5" cy="644.5" r="4.5" fill="#FAFCFF"/>
<circle cx="154.5" cy="644.5" r="4.5" fill="#FAFCFF"/>
<circle cx="169.5" cy="644.5" r="4.5" fill="#FAFCFF"/>
<circle cx="184.5" cy="644.5" r="4.5" fill="#FAFCFF"/>
<circle cx="199.5" cy="644.5" r="4.5" fill="#FAFCFF"/>
<circle cx="214.5" cy="644.5" r="4.5" fill="#FAFCFF"/>
<circle cx="4.5" cy="664.5" r="4.5" fill="#FAFCFF"/>
<circle cx="19.5" cy="664.5" r="4.5" fill="#FAFCFF"/>
<circle cx="34.5" cy="664.5" r="4.5" fill="#FAFCFF"/>
<circle cx="49.5" cy="664.5" r="4.5" fill="#FAFCFF"/>
<circle cx="64.5" cy="664.5" r="4.5" fill="#FAFCFF"/>
<circle cx="4.5" cy="684.5" r="4.5" fill="#FAFCFF"/>
<circle cx="19.5" cy="684.5" r="4.5" fill="#FAFCFF"/>
<circle cx="34.5" cy="684.5" r="4.5" fill="#FAFCFF"/>
<circle cx="49.5" cy="684.5" r="4.5" fill="#FAFCFF"/>
<circle cx="64.5" cy="684.5" r="4.5" fill="#FAFCFF"/>
<circle cx="79.5" cy="684.5" r="4.5" fill="#FAFCFF"/>
<circle cx="94.5" cy="684.5" r="4.5" fill="#FAFCFF"/>
<circle cx="4.5" cy="704.5" r="4.5" fill="#FAFCFF"/>
<circle cx="19.5" cy="704.5" r="4.5" fill="#FAFCFF"/>
<circle cx="34.5" cy="704.5" r="4.5" fill="#FAFCFF"/>
<circle cx="49.5" cy="704.5" r="4.5" fill="#FAFCFF"/>
<circle cx="64.5" cy="704.5" r="4.5" fill="#FAFCFF"/>
<circle cx="79.5" cy="704.5" r="4.5" fill="#FAFCFF"/>
<circle cx="94.5" cy="704.5" r="4.5" fill="#FAFCFF"/>
<circle cx="109.5" cy="704.5" r="4.5" fill="#FAFCFF"/>
<circle cx="124.5" cy="704.5" r="4.5" fill="#FAFCFF"/>
<circle cx="139.5" cy="704.5" r="4.5" fill="#FAFCFF"/>
<circle cx="154.5" cy="704.5" r="4.5" fill="#FAFCFF"/>
<circle cx="169.5" cy="704.5" r="4.5" fill="#FAFCFF"/>
<circle cx="4.5" cy="724.5" r="4.5" fill="#FAFCFF"/>
<circle cx="19.5" cy="724.5" r="4.5" fill="#FAFCFF"/>
<circle cx="34.5" cy="724.5" r="4.5" fill="#FAFCFF"/>
<circle cx="4.5" cy="744.5" r="4.5" fill="#FAFCFF"/>
<circle cx="19.5" cy="744.5" r="4.5" fill="#FAFCFF"/>
<circle cx="34.5" cy="744.5" r="4.5" fill="#FAFCFF"/>
<circle cx="49.5" cy="744.5" r="4.5" fill="#FAFCFF"/>
<circle cx="64.5" cy="744.5" r="4.5" fill="#FAFCFF"/>
<circle cx="79.5" cy="744.5" r="4.5" fill="#FAFCFF"/>
<circle cx="94.5" cy="744.5" r="4.5" fill="#FAFCFF"/>
<circle cx="4.5" cy="764.5" r="4.5" fill="#FAFCFF"/>
<circle cx="19.5" cy="764.5" r="4.5" fill="#FAFCFF"/>
<circle cx="34.5" cy="764.5" r="4.5" fill="#FAFCFF"/>
<circle cx="49.5" cy="764.5" r="4.5" fill="#FAFCFF"/>
<circle cx="64.5" cy="764.5" r="4.5" fill="#FAFCFF"/>
<circle cx="4.5" cy="784.5" r="4.5" fill="#FAFCFF"/>
<circle cx="19.5" cy="784.5" r="4.5" fill="#FAFCFF"/>
<circle cx="34.5" cy="784.5" r="4.5" fill="#FAFCFF"/>
<circle cx="49.5" cy="784.5" r="4.5" fill="#FAFCFF"/>
<circle cx="64.5" cy="784.5" r="4.5" fill="#FAFCFF"/>
<circle cx="79.5" cy="784.5" r="4.5" fill="#FAFCFF"/>
<circle cx="94.5" cy="784.5" r="4.5" fill="#FAFCFF"/>
<circle cx="4.5" cy="804.5" r="4.5" fill="#FAFCFF"/>
<circle cx="19.5" cy="804.5" r="4.5" fill="#FAFCFF"/>
<circle cx="34.5" cy="804.5" r="4.5" fill="#FAFCFF"/>
<circle cx="49.5" cy="804.5" r="4.5" fill="#FAFCFF"/>
<circle cx="64.5" cy="804.5" r="4.5" fill="#FAFCFF"/>
<circle cx="79.5" cy="804.5" r="4.5" fill="#FAFCFF"/>
<circle cx="94.5" cy="804.5" r="4.5" fill="#FAFCFF"/>
<circle cx="4.5" cy="824.5" r="4.5" fill="#FAFCFF"/>
<circle cx="19.5" cy="824.5" r="4.5" fill="#FAFCFF"/>
<circle cx="34.5" cy="824.5" r="4.5" fill="#FAFCFF"/>
<circle cx="49.5" cy="824.5" r="4.5" fill="#FAFCFF"/>
<circle cx="4.5" cy="844.5" r="4.5" fill="#FAFCFF"/>
<circle cx="19.5" cy="844.5" r="4.5" fill="#FAFCFF"/>
<circle cx="34.5" cy="844.5" r="4.5" fill="#FAFCFF"/>
<circle cx="4.5" cy="864.5" r="4.5" fill="#FAFCFF"/>
<circle cx="19.5" cy="864.5" r="4.5" fill="#FAFCFF"/>
<circle cx="34.5" cy="864.5" r="4.5" fill="#FAFCFF"/>
<circle cx="49.5" cy="864.5" r="4.5" fill="#FAFCFF"/>
<circle cx="64.5" cy="864.5" r="4.5" fill="#FAFCFF"/>
<circle cx="4.5" cy="884.5" r="4.5" fill="#FAFCFF"/>
<circle cx="19.5" cy="884.5" r="4.5" fill="#FAFCFF"/>
<circle cx="34.5" cy="884.5" r="4.5" fill="#FAFCFF"/>
<circle cx="49.5" cy="884.5" r="4.5" fill="#FAFCFF"/>
<circle cx="64.5" cy="884.5" r="4.5" fill="#FAFCFF"/>
<circle cx="79.5" cy="884.5" r="4.5" fill="#FAFCFF"/>
<circle cx="4.5" cy="904.5" r="4.5" fill="#FAFCFF"/>
<circle cx="19.5" cy="904.5" r="4.5" fill="#FAFCFF"/>
<circle cx="34.5" cy="904.5" r="4.5" fill="#FAFCFF"/>
<circle cx="4.5" cy="924.5" r="4.5" fill="#FAFCFF"/>
<circle cx="19.5" cy="924.5" r="4.5" fill="#FAFCFF"/>
<circle cx="4.5" cy="944.5" r="4.5" fill="#FAFCFF"/>
</svg>
