<svg width="219" height="949" viewBox="0 0 219 949" fill="none" xmlns="http://www.w3.org/2000/svg">
<circle cx="4.5" cy="4.5" r="4.5" transform="matrix(-1 0 0 1 219 0)" fill="#FAFCFF"/>
<circle cx="4.5" cy="4.5" r="4.5" transform="matrix(-1 0 0 1 204 0)" fill="#FAFCFF"/>
<circle cx="4.5" cy="4.5" r="4.5" transform="matrix(-1 0 0 1 189 0)" fill="#FAFCFF"/>
<circle cx="4.5" cy="4.5" r="4.5" transform="matrix(-1 0 0 1 174 0)" fill="#FAFCFF"/>
<circle cx="4.5" cy="4.5" r="4.5" transform="matrix(-1 0 0 1 159 0)" fill="#FAFCFF"/>
<circle cx="4.5" cy="4.5" r="4.5" transform="matrix(-1 0 0 1 144 0)" fill="#FAFCFF"/>
<circle cx="4.5" cy="4.5" r="4.5" transform="matrix(-1 0 0 1 129 0)" fill="#FAFCFF"/>
<circle cx="4.5" cy="4.5" r="4.5" transform="matrix(-1 0 0 1 114 0)" fill="#FAFCFF"/>
<circle cx="4.5" cy="4.5" r="4.5" transform="matrix(-1 0 0 1 99 0)" fill="#FAFCFF"/>
<circle cx="4.5" cy="4.5" r="4.5" transform="matrix(-1 0 0 1 84 0)" fill="#FAFCFF"/>
<circle cx="4.5" cy="4.5" r="4.5" transform="matrix(-1 0 0 1 69 0)" fill="#FAFCFF"/>
<circle cx="4.5" cy="4.5" r="4.5" transform="matrix(-1 0 0 1 54 0)" fill="#FAFCFF"/>
<circle cx="4.5" cy="4.5" r="4.5" transform="matrix(-1 0 0 1 39 0)" fill="#FAFCFF"/>
<circle cx="4.5" cy="4.5" r="4.5" transform="matrix(-1 0 0 1 24 0)" fill="#FAFCFF"/>
<circle cx="4.5" cy="4.5" r="4.5" transform="matrix(-1 0 0 1 9 0)" fill="#FAFCFF"/>
<circle cx="4.5" cy="4.5" r="4.5" transform="matrix(-1 0 0 1 219 20)" fill="#FAFCFF"/>
<circle cx="4.5" cy="4.5" r="4.5" transform="matrix(-1 0 0 1 204 20)" fill="#FAFCFF"/>
<circle cx="4.5" cy="4.5" r="4.5" transform="matrix(-1 0 0 1 189 20)" fill="#FAFCFF"/>
<circle cx="4.5" cy="4.5" r="4.5" transform="matrix(-1 0 0 1 174 20)" fill="#FAFCFF"/>
<circle cx="4.5" cy="4.5" r="4.5" transform="matrix(-1 0 0 1 159 20)" fill="#FAFCFF"/>
<circle cx="4.5" cy="4.5" r="4.5" transform="matrix(-1 0 0 1 144 20)" fill="#FAFCFF"/>
<circle cx="4.5" cy="4.5" r="4.5" transform="matrix(-1 0 0 1 129 20)" fill="#FAFCFF"/>
<circle cx="4.5" cy="4.5" r="4.5" transform="matrix(-1 0 0 1 114 20)" fill="#FAFCFF"/>
<circle cx="4.5" cy="4.5" r="4.5" transform="matrix(-1 0 0 1 99 20)" fill="#FAFCFF"/>
<circle cx="4.5" cy="4.5" r="4.5" transform="matrix(-1 0 0 1 84 20)" fill="#FAFCFF"/>
<circle cx="4.5" cy="4.5" r="4.5" transform="matrix(-1 0 0 1 219 40)" fill="#FAFCFF"/>
<circle cx="4.5" cy="4.5" r="4.5" transform="matrix(-1 0 0 1 204 40)" fill="#FAFCFF"/>
<circle cx="4.5" cy="4.5" r="4.5" transform="matrix(-1 0 0 1 189 40)" fill="#FAFCFF"/>
<circle cx="4.5" cy="4.5" r="4.5" transform="matrix(-1 0 0 1 174 40)" fill="#FAFCFF"/>
<circle cx="4.5" cy="4.5" r="4.5" transform="matrix(-1 0 0 1 159 40)" fill="#FAFCFF"/>
<circle cx="4.5" cy="4.5" r="4.5" transform="matrix(-1 0 0 1 144 40)" fill="#FAFCFF"/>
<circle cx="4.5" cy="4.5" r="4.5" transform="matrix(-1 0 0 1 129 40)" fill="#FAFCFF"/>
<circle cx="4.5" cy="4.5" r="4.5" transform="matrix(-1 0 0 1 114 40)" fill="#FAFCFF"/>
<circle cx="4.5" cy="4.5" r="4.5" transform="matrix(-1 0 0 1 99 40)" fill="#FAFCFF"/>
<circle cx="4.5" cy="4.5" r="4.5" transform="matrix(-1 0 0 1 84 40)" fill="#FAFCFF"/>
<circle cx="4.5" cy="4.5" r="4.5" transform="matrix(-1 0 0 1 69 40)" fill="#FAFCFF"/>
<circle cx="4.5" cy="4.5" r="4.5" transform="matrix(-1 0 0 1 219 60)" fill="#FAFCFF"/>
<circle cx="4.5" cy="4.5" r="4.5" transform="matrix(-1 0 0 1 204 60)" fill="#FAFCFF"/>
<circle cx="4.5" cy="4.5" r="4.5" transform="matrix(-1 0 0 1 189 60)" fill="#FAFCFF"/>
<circle cx="4.5" cy="4.5" r="4.5" transform="matrix(-1 0 0 1 174 60)" fill="#FAFCFF"/>
<circle cx="4.5" cy="4.5" r="4.5" transform="matrix(-1 0 0 1 219 80)" fill="#FAFCFF"/>
<circle cx="4.5" cy="4.5" r="4.5" transform="matrix(-1 0 0 1 204 80)" fill="#FAFCFF"/>
<circle cx="4.5" cy="4.5" r="4.5" transform="matrix(-1 0 0 1 189 80)" fill="#FAFCFF"/>
<circle cx="4.5" cy="4.5" r="4.5" transform="matrix(-1 0 0 1 174 80)" fill="#FAFCFF"/>
<circle cx="4.5" cy="4.5" r="4.5" transform="matrix(-1 0 0 1 159 80)" fill="#FAFCFF"/>
<circle cx="4.5" cy="4.5" r="4.5" transform="matrix(-1 0 0 1 144 80)" fill="#FAFCFF"/>
<circle cx="4.5" cy="4.5" r="4.5" transform="matrix(-1 0 0 1 129 80)" fill="#FAFCFF"/>
<circle cx="4.5" cy="4.5" r="4.5" transform="matrix(-1 0 0 1 219 100)" fill="#FAFCFF"/>
<circle cx="4.5" cy="4.5" r="4.5" transform="matrix(-1 0 0 1 204 100)" fill="#FAFCFF"/>
<circle cx="4.5" cy="4.5" r="4.5" transform="matrix(-1 0 0 1 189 100)" fill="#FAFCFF"/>
<circle cx="4.5" cy="4.5" r="4.5" transform="matrix(-1 0 0 1 174 100)" fill="#FAFCFF"/>
<circle cx="4.5" cy="4.5" r="4.5" transform="matrix(-1 0 0 1 159 100)" fill="#FAFCFF"/>
<circle cx="4.5" cy="4.5" r="4.5" transform="matrix(-1 0 0 1 144 100)" fill="#FAFCFF"/>
<circle cx="4.5" cy="4.5" r="4.5" transform="matrix(-1 0 0 1 129 100)" fill="#FAFCFF"/>
<circle cx="4.5" cy="4.5" r="4.5" transform="matrix(-1 0 0 1 114 100)" fill="#FAFCFF"/>
<circle cx="4.5" cy="4.5" r="4.5" transform="matrix(-1 0 0 1 99 100)" fill="#FAFCFF"/>
<circle cx="4.5" cy="4.5" r="4.5" transform="matrix(-1 0 0 1 84 100)" fill="#FAFCFF"/>
<circle cx="4.5" cy="4.5" r="4.5" transform="matrix(-1 0 0 1 69 100)" fill="#FAFCFF"/>
<circle cx="4.5" cy="4.5" r="4.5" transform="matrix(-1 0 0 1 54 100)" fill="#FAFCFF"/>
<circle cx="4.5" cy="4.5" r="4.5" transform="matrix(-1 0 0 1 219 120)" fill="#FAFCFF"/>
<circle cx="4.5" cy="4.5" r="4.5" transform="matrix(-1 0 0 1 204 120)" fill="#FAFCFF"/>
<circle cx="4.5" cy="4.5" r="4.5" transform="matrix(-1 0 0 1 189 120)" fill="#FAFCFF"/>
<circle cx="4.5" cy="4.5" r="4.5" transform="matrix(-1 0 0 1 174 120)" fill="#FAFCFF"/>
<circle cx="4.5" cy="4.5" r="4.5" transform="matrix(-1 0 0 1 159 120)" fill="#FAFCFF"/>
<circle cx="4.5" cy="4.5" r="4.5" transform="matrix(-1 0 0 1 144 120)" fill="#FAFCFF"/>
<circle cx="4.5" cy="4.5" r="4.5" transform="matrix(-1 0 0 1 129 120)" fill="#FAFCFF"/>
<circle cx="4.5" cy="4.5" r="4.5" transform="matrix(-1 0 0 1 114 120)" fill="#FAFCFF"/>
<circle cx="4.5" cy="4.5" r="4.5" transform="matrix(-1 0 0 1 99 120)" fill="#FAFCFF"/>
<circle cx="4.5" cy="4.5" r="4.5" transform="matrix(-1 0 0 1 84 120)" fill="#FAFCFF"/>
<circle cx="4.5" cy="4.5" r="4.5" transform="matrix(-1 0 0 1 69 120)" fill="#FAFCFF"/>
<circle cx="4.5" cy="4.5" r="4.5" transform="matrix(-1 0 0 1 54 120)" fill="#FAFCFF"/>
<circle cx="4.5" cy="4.5" r="4.5" transform="matrix(-1 0 0 1 39 120)" fill="#FAFCFF"/>
<circle cx="4.5" cy="4.5" r="4.5" transform="matrix(-1 0 0 1 24 120)" fill="#FAFCFF"/>
<circle cx="4.5" cy="4.5" r="4.5" transform="matrix(-1 0 0 1 219 140)" fill="#FAFCFF"/>
<circle cx="4.5" cy="4.5" r="4.5" transform="matrix(-1 0 0 1 204 140)" fill="#FAFCFF"/>
<circle cx="4.5" cy="4.5" r="4.5" transform="matrix(-1 0 0 1 189 140)" fill="#FAFCFF"/>
<circle cx="4.5" cy="4.5" r="4.5" transform="matrix(-1 0 0 1 174 140)" fill="#FAFCFF"/>
<circle cx="4.5" cy="4.5" r="4.5" transform="matrix(-1 0 0 1 159 140)" fill="#FAFCFF"/>
<circle cx="4.5" cy="4.5" r="4.5" transform="matrix(-1 0 0 1 144 140)" fill="#FAFCFF"/>
<circle cx="4.5" cy="4.5" r="4.5" transform="matrix(-1 0 0 1 129 140)" fill="#FAFCFF"/>
<circle cx="4.5" cy="4.5" r="4.5" transform="matrix(-1 0 0 1 114 140)" fill="#FAFCFF"/>
<circle cx="4.5" cy="4.5" r="4.5" transform="matrix(-1 0 0 1 99 140)" fill="#FAFCFF"/>
<circle cx="4.5" cy="4.5" r="4.5" transform="matrix(-1 0 0 1 84 140)" fill="#FAFCFF"/>
<circle cx="4.5" cy="4.5" r="4.5" transform="matrix(-1 0 0 1 69 140)" fill="#FAFCFF"/>
<circle cx="4.5" cy="4.5" r="4.5" transform="matrix(-1 0 0 1 54 140)" fill="#FAFCFF"/>
<circle cx="4.5" cy="4.5" r="4.5" transform="matrix(-1 0 0 1 219 160)" fill="#FAFCFF"/>
<circle cx="4.5" cy="4.5" r="4.5" transform="matrix(-1 0 0 1 204 160)" fill="#FAFCFF"/>
<circle cx="4.5" cy="4.5" r="4.5" transform="matrix(-1 0 0 1 189 160)" fill="#FAFCFF"/>
<circle cx="4.5" cy="4.5" r="4.5" transform="matrix(-1 0 0 1 174 160)" fill="#FAFCFF"/>
<circle cx="4.5" cy="4.5" r="4.5" transform="matrix(-1 0 0 1 159 160)" fill="#FAFCFF"/>
<circle cx="4.5" cy="4.5" r="4.5" transform="matrix(-1 0 0 1 144 160)" fill="#FAFCFF"/>
<circle cx="4.5" cy="4.5" r="4.5" transform="matrix(-1 0 0 1 129 160)" fill="#FAFCFF"/>
<circle cx="4.5" cy="4.5" r="4.5" transform="matrix(-1 0 0 1 114 160)" fill="#FAFCFF"/>
<circle cx="4.5" cy="4.5" r="4.5" transform="matrix(-1 0 0 1 99 160)" fill="#FAFCFF"/>
<circle cx="4.5" cy="4.5" r="4.5" transform="matrix(-1 0 0 1 219 180)" fill="#FAFCFF"/>
<circle cx="4.5" cy="4.5" r="4.5" transform="matrix(-1 0 0 1 204 180)" fill="#FAFCFF"/>
<circle cx="4.5" cy="4.5" r="4.5" transform="matrix(-1 0 0 1 189 180)" fill="#FAFCFF"/>
<circle cx="4.5" cy="4.5" r="4.5" transform="matrix(-1 0 0 1 219 200)" fill="#FAFCFF"/>
<circle cx="4.5" cy="4.5" r="4.5" transform="matrix(-1 0 0 1 204 200)" fill="#FAFCFF"/>
<circle cx="4.5" cy="4.5" r="4.5" transform="matrix(-1 0 0 1 189 200)" fill="#FAFCFF"/>
<circle cx="4.5" cy="4.5" r="4.5" transform="matrix(-1 0 0 1 174 200)" fill="#FAFCFF"/>
<circle cx="4.5" cy="4.5" r="4.5" transform="matrix(-1 0 0 1 159 200)" fill="#FAFCFF"/>
<circle cx="4.5" cy="4.5" r="4.5" transform="matrix(-1 0 0 1 144 200)" fill="#FAFCFF"/>
<circle cx="4.5" cy="4.5" r="4.5" transform="matrix(-1 0 0 1 129 200)" fill="#FAFCFF"/>
<circle cx="4.5" cy="4.5" r="4.5" transform="matrix(-1 0 0 1 114 200)" fill="#FAFCFF"/>
<circle cx="4.5" cy="4.5" r="4.5" transform="matrix(-1 0 0 1 99 200)" fill="#FAFCFF"/>
<circle cx="4.5" cy="4.5" r="4.5" transform="matrix(-1 0 0 1 84 200)" fill="#FAFCFF"/>
<circle cx="4.5" cy="4.5" r="4.5" transform="matrix(-1 0 0 1 69 200)" fill="#FAFCFF"/>
<circle cx="4.5" cy="4.5" r="4.5" transform="matrix(-1 0 0 1 54 200)" fill="#FAFCFF"/>
<circle cx="4.5" cy="4.5" r="4.5" transform="matrix(-1 0 0 1 39 200)" fill="#FAFCFF"/>
<circle cx="4.5" cy="4.5" r="4.5" transform="matrix(-1 0 0 1 24 200)" fill="#FAFCFF"/>
<circle cx="4.5" cy="4.5" r="4.5" transform="matrix(-1 0 0 1 9 200)" fill="#FAFCFF"/>
<circle cx="4.5" cy="4.5" r="4.5" transform="matrix(-1 0 0 1 219 220)" fill="#FAFCFF"/>
<circle cx="4.5" cy="4.5" r="4.5" transform="matrix(-1 0 0 1 204 220)" fill="#FAFCFF"/>
<circle cx="4.5" cy="4.5" r="4.5" transform="matrix(-1 0 0 1 189 220)" fill="#FAFCFF"/>
<circle cx="4.5" cy="4.5" r="4.5" transform="matrix(-1 0 0 1 174 220)" fill="#FAFCFF"/>
<circle cx="4.5" cy="4.5" r="4.5" transform="matrix(-1 0 0 1 159 220)" fill="#FAFCFF"/>
<circle cx="4.5" cy="4.5" r="4.5" transform="matrix(-1 0 0 1 144 220)" fill="#FAFCFF"/>
<circle cx="4.5" cy="4.5" r="4.5" transform="matrix(-1 0 0 1 129 220)" fill="#FAFCFF"/>
<circle cx="4.5" cy="4.5" r="4.5" transform="matrix(-1 0 0 1 114 220)" fill="#FAFCFF"/>
<circle cx="4.5" cy="4.5" r="4.5" transform="matrix(-1 0 0 1 99 220)" fill="#FAFCFF"/>
<circle cx="4.5" cy="4.5" r="4.5" transform="matrix(-1 0 0 1 84 220)" fill="#FAFCFF"/>
<circle cx="4.5" cy="4.5" r="4.5" transform="matrix(-1 0 0 1 219 240)" fill="#FAFCFF"/>
<circle cx="4.5" cy="4.5" r="4.5" transform="matrix(-1 0 0 1 204 240)" fill="#FAFCFF"/>
<circle cx="4.5" cy="4.5" r="4.5" transform="matrix(-1 0 0 1 189 240)" fill="#FAFCFF"/>
<circle cx="4.5" cy="4.5" r="4.5" transform="matrix(-1 0 0 1 174 240)" fill="#FAFCFF"/>
<circle cx="4.5" cy="4.5" r="4.5" transform="matrix(-1 0 0 1 159 240)" fill="#FAFCFF"/>
<circle cx="4.5" cy="4.5" r="4.5" transform="matrix(-1 0 0 1 144 240)" fill="#FAFCFF"/>
<circle cx="4.5" cy="4.5" r="4.5" transform="matrix(-1 0 0 1 129 240)" fill="#FAFCFF"/>
<circle cx="4.5" cy="4.5" r="4.5" transform="matrix(-1 0 0 1 114 240)" fill="#FAFCFF"/>
<circle cx="4.5" cy="4.5" r="4.5" transform="matrix(-1 0 0 1 99 240)" fill="#FAFCFF"/>
<circle cx="4.5" cy="4.5" r="4.5" transform="matrix(-1 0 0 1 84 240)" fill="#FAFCFF"/>
<circle cx="4.5" cy="4.5" r="4.5" transform="matrix(-1 0 0 1 69 240)" fill="#FAFCFF"/>
<circle cx="4.5" cy="4.5" r="4.5" transform="matrix(-1 0 0 1 219 260)" fill="#FAFCFF"/>
<circle cx="4.5" cy="4.5" r="4.5" transform="matrix(-1 0 0 1 204 260)" fill="#FAFCFF"/>
<circle cx="4.5" cy="4.5" r="4.5" transform="matrix(-1 0 0 1 189 260)" fill="#FAFCFF"/>
<circle cx="4.5" cy="4.5" r="4.5" transform="matrix(-1 0 0 1 174 260)" fill="#FAFCFF"/>
<circle cx="4.5" cy="4.5" r="4.5" transform="matrix(-1 0 0 1 159 260)" fill="#FAFCFF"/>
<circle cx="4.5" cy="4.5" r="4.5" transform="matrix(-1 0 0 1 144 260)" fill="#FAFCFF"/>
<circle cx="4.5" cy="4.5" r="4.5" transform="matrix(-1 0 0 1 129 260)" fill="#FAFCFF"/>
<circle cx="4.5" cy="4.5" r="4.5" transform="matrix(-1 0 0 1 114 260)" fill="#FAFCFF"/>
<circle cx="4.5" cy="4.5" r="4.5" transform="matrix(-1 0 0 1 99 260)" fill="#FAFCFF"/>
<circle cx="4.5" cy="4.5" r="4.5" transform="matrix(-1 0 0 1 84 260)" fill="#FAFCFF"/>
<circle cx="4.5" cy="4.5" r="4.5" transform="matrix(-1 0 0 1 219 280)" fill="#FAFCFF"/>
<circle cx="4.5" cy="4.5" r="4.5" transform="matrix(-1 0 0 1 204 280)" fill="#FAFCFF"/>
<circle cx="4.5" cy="4.5" r="4.5" transform="matrix(-1 0 0 1 189 280)" fill="#FAFCFF"/>
<circle cx="4.5" cy="4.5" r="4.5" transform="matrix(-1 0 0 1 174 280)" fill="#FAFCFF"/>
<circle cx="4.5" cy="4.5" r="4.5" transform="matrix(-1 0 0 1 159 280)" fill="#FAFCFF"/>
<circle cx="4.5" cy="4.5" r="4.5" transform="matrix(-1 0 0 1 144 280)" fill="#FAFCFF"/>
<circle cx="4.5" cy="4.5" r="4.5" transform="matrix(-1 0 0 1 129 280)" fill="#FAFCFF"/>
<circle cx="4.5" cy="4.5" r="4.5" transform="matrix(-1 0 0 1 114 280)" fill="#FAFCFF"/>
<circle cx="4.5" cy="4.5" r="4.5" transform="matrix(-1 0 0 1 99 280)" fill="#FAFCFF"/>
<circle cx="4.5" cy="4.5" r="4.5" transform="matrix(-1 0 0 1 84 280)" fill="#FAFCFF"/>
<circle cx="4.5" cy="4.5" r="4.5" transform="matrix(-1 0 0 1 69 280)" fill="#FAFCFF"/>
<circle cx="4.5" cy="4.5" r="4.5" transform="matrix(-1 0 0 1 54 280)" fill="#FAFCFF"/>
<circle cx="4.5" cy="4.5" r="4.5" transform="matrix(-1 0 0 1 39 280)" fill="#FAFCFF"/>
<circle cx="4.5" cy="4.5" r="4.5" transform="matrix(-1 0 0 1 24 280)" fill="#FAFCFF"/>
<circle cx="4.5" cy="4.5" r="4.5" transform="matrix(-1 0 0 1 9 280)" fill="#FAFCFF"/>
<circle cx="4.5" cy="4.5" r="4.5" transform="matrix(-1 0 0 1 219 300)" fill="#FAFCFF"/>
<circle cx="4.5" cy="4.5" r="4.5" transform="matrix(-1 0 0 1 204 300)" fill="#FAFCFF"/>
<circle cx="4.5" cy="4.5" r="4.5" transform="matrix(-1 0 0 1 189 300)" fill="#FAFCFF"/>
<circle cx="4.5" cy="4.5" r="4.5" transform="matrix(-1 0 0 1 174 300)" fill="#FAFCFF"/>
<circle cx="4.5" cy="4.5" r="4.5" transform="matrix(-1 0 0 1 159 300)" fill="#FAFCFF"/>
<circle cx="4.5" cy="4.5" r="4.5" transform="matrix(-1 0 0 1 144 300)" fill="#FAFCFF"/>
<circle cx="4.5" cy="4.5" r="4.5" transform="matrix(-1 0 0 1 129 300)" fill="#FAFCFF"/>
<circle cx="4.5" cy="4.5" r="4.5" transform="matrix(-1 0 0 1 114 300)" fill="#FAFCFF"/>
<circle cx="4.5" cy="4.5" r="4.5" transform="matrix(-1 0 0 1 99 300)" fill="#FAFCFF"/>
<circle cx="4.5" cy="4.5" r="4.5" transform="matrix(-1 0 0 1 84 300)" fill="#FAFCFF"/>
<circle cx="4.5" cy="4.5" r="4.5" transform="matrix(-1 0 0 1 69 300)" fill="#FAFCFF"/>
<circle cx="4.5" cy="4.5" r="4.5" transform="matrix(-1 0 0 1 54 300)" fill="#FAFCFF"/>
<circle cx="4.5" cy="4.5" r="4.5" transform="matrix(-1 0 0 1 39 300)" fill="#FAFCFF"/>
<circle cx="4.5" cy="4.5" r="4.5" transform="matrix(-1 0 0 1 24 300)" fill="#FAFCFF"/>
<circle cx="4.5" cy="4.5" r="4.5" transform="matrix(-1 0 0 1 219 320)" fill="#FAFCFF"/>
<circle cx="4.5" cy="4.5" r="4.5" transform="matrix(-1 0 0 1 204 320)" fill="#FAFCFF"/>
<circle cx="4.5" cy="4.5" r="4.5" transform="matrix(-1 0 0 1 189 320)" fill="#FAFCFF"/>
<circle cx="4.5" cy="4.5" r="4.5" transform="matrix(-1 0 0 1 174 320)" fill="#FAFCFF"/>
<circle cx="4.5" cy="4.5" r="4.5" transform="matrix(-1 0 0 1 159 320)" fill="#FAFCFF"/>
<circle cx="4.5" cy="4.5" r="4.5" transform="matrix(-1 0 0 1 144 320)" fill="#FAFCFF"/>
<circle cx="4.5" cy="4.5" r="4.5" transform="matrix(-1 0 0 1 129 320)" fill="#FAFCFF"/>
<circle cx="4.5" cy="4.5" r="4.5" transform="matrix(-1 0 0 1 114 320)" fill="#FAFCFF"/>
<circle cx="4.5" cy="4.5" r="4.5" transform="matrix(-1 0 0 1 99 320)" fill="#FAFCFF"/>
<circle cx="4.5" cy="4.5" r="4.5" transform="matrix(-1 0 0 1 84 320)" fill="#FAFCFF"/>
<circle cx="4.5" cy="4.5" r="4.5" transform="matrix(-1 0 0 1 69 320)" fill="#FAFCFF"/>
<circle cx="4.5" cy="4.5" r="4.5" transform="matrix(-1 0 0 1 54 320)" fill="#FAFCFF"/>
<circle cx="4.5" cy="4.5" r="4.5" transform="matrix(-1 0 0 1 39 320)" fill="#FAFCFF"/>
<circle cx="4.5" cy="4.5" r="4.5" transform="matrix(-1 0 0 1 24 320)" fill="#FAFCFF"/>
<circle cx="4.5" cy="4.5" r="4.5" transform="matrix(-1 0 0 1 9 320)" fill="#FAFCFF"/>
<circle cx="4.5" cy="4.5" r="4.5" transform="matrix(-1 0 0 1 219 340)" fill="#FAFCFF"/>
<circle cx="4.5" cy="4.5" r="4.5" transform="matrix(-1 0 0 1 204 340)" fill="#FAFCFF"/>
<circle cx="4.5" cy="4.5" r="4.5" transform="matrix(-1 0 0 1 189 340)" fill="#FAFCFF"/>
<circle cx="4.5" cy="4.5" r="4.5" transform="matrix(-1 0 0 1 174 340)" fill="#FAFCFF"/>
<circle cx="4.5" cy="4.5" r="4.5" transform="matrix(-1 0 0 1 159 340)" fill="#FAFCFF"/>
<circle cx="4.5" cy="4.5" r="4.5" transform="matrix(-1 0 0 1 219 360)" fill="#FAFCFF"/>
<circle cx="4.5" cy="4.5" r="4.5" transform="matrix(-1 0 0 1 204 360)" fill="#FAFCFF"/>
<circle cx="4.5" cy="4.5" r="4.5" transform="matrix(-1 0 0 1 189 360)" fill="#FAFCFF"/>
<circle cx="4.5" cy="4.5" r="4.5" transform="matrix(-1 0 0 1 174 360)" fill="#FAFCFF"/>
<circle cx="4.5" cy="4.5" r="4.5" transform="matrix(-1 0 0 1 159 360)" fill="#FAFCFF"/>
<circle cx="4.5" cy="4.5" r="4.5" transform="matrix(-1 0 0 1 144 360)" fill="#FAFCFF"/>
<circle cx="4.5" cy="4.5" r="4.5" transform="matrix(-1 0 0 1 129 360)" fill="#FAFCFF"/>
<circle cx="4.5" cy="4.5" r="4.5" transform="matrix(-1 0 0 1 114 360)" fill="#FAFCFF"/>
<circle cx="4.5" cy="4.5" r="4.5" transform="matrix(-1 0 0 1 99 360)" fill="#FAFCFF"/>
<circle cx="4.5" cy="4.5" r="4.5" transform="matrix(-1 0 0 1 84 360)" fill="#FAFCFF"/>
<circle cx="4.5" cy="4.5" r="4.5" transform="matrix(-1 0 0 1 219 380)" fill="#FAFCFF"/>
<circle cx="4.5" cy="4.5" r="4.5" transform="matrix(-1 0 0 1 204 380)" fill="#FAFCFF"/>
<circle cx="4.5" cy="4.5" r="4.5" transform="matrix(-1 0 0 1 189 380)" fill="#FAFCFF"/>
<circle cx="4.5" cy="4.5" r="4.5" transform="matrix(-1 0 0 1 174 380)" fill="#FAFCFF"/>
<circle cx="4.5" cy="4.5" r="4.5" transform="matrix(-1 0 0 1 159 380)" fill="#FAFCFF"/>
<circle cx="4.5" cy="4.5" r="4.5" transform="matrix(-1 0 0 1 144 380)" fill="#FAFCFF"/>
<circle cx="4.5" cy="4.5" r="4.5" transform="matrix(-1 0 0 1 129 380)" fill="#FAFCFF"/>
<circle cx="4.5" cy="4.5" r="4.5" transform="matrix(-1 0 0 1 114 380)" fill="#FAFCFF"/>
<circle cx="4.5" cy="4.5" r="4.5" transform="matrix(-1 0 0 1 99 380)" fill="#FAFCFF"/>
<circle cx="4.5" cy="4.5" r="4.5" transform="matrix(-1 0 0 1 84 380)" fill="#FAFCFF"/>
<circle cx="4.5" cy="4.5" r="4.5" transform="matrix(-1 0 0 1 69 380)" fill="#FAFCFF"/>
<circle cx="4.5" cy="4.5" r="4.5" transform="matrix(-1 0 0 1 54 380)" fill="#FAFCFF"/>
<circle cx="4.5" cy="4.5" r="4.5" transform="matrix(-1 0 0 1 219 400)" fill="#FAFCFF"/>
<circle cx="4.5" cy="4.5" r="4.5" transform="matrix(-1 0 0 1 204 400)" fill="#FAFCFF"/>
<circle cx="4.5" cy="4.5" r="4.5" transform="matrix(-1 0 0 1 189 400)" fill="#FAFCFF"/>
<circle cx="4.5" cy="4.5" r="4.5" transform="matrix(-1 0 0 1 174 400)" fill="#FAFCFF"/>
<circle cx="4.5" cy="4.5" r="4.5" transform="matrix(-1 0 0 1 159 400)" fill="#FAFCFF"/>
<circle cx="4.5" cy="4.5" r="4.5" transform="matrix(-1 0 0 1 144 400)" fill="#FAFCFF"/>
<circle cx="4.5" cy="4.5" r="4.5" transform="matrix(-1 0 0 1 129 400)" fill="#FAFCFF"/>
<circle cx="4.5" cy="4.5" r="4.5" transform="matrix(-1 0 0 1 114 400)" fill="#FAFCFF"/>
<circle cx="4.5" cy="4.5" r="4.5" transform="matrix(-1 0 0 1 99 400)" fill="#FAFCFF"/>
<circle cx="4.5" cy="4.5" r="4.5" transform="matrix(-1 0 0 1 219 420)" fill="#FAFCFF"/>
<circle cx="4.5" cy="4.5" r="4.5" transform="matrix(-1 0 0 1 204 420)" fill="#FAFCFF"/>
<circle cx="4.5" cy="4.5" r="4.5" transform="matrix(-1 0 0 1 189 420)" fill="#FAFCFF"/>
<circle cx="4.5" cy="4.5" r="4.5" transform="matrix(-1 0 0 1 174 420)" fill="#FAFCFF"/>
<circle cx="4.5" cy="4.5" r="4.5" transform="matrix(-1 0 0 1 159 420)" fill="#FAFCFF"/>
<circle cx="4.5" cy="4.5" r="4.5" transform="matrix(-1 0 0 1 144 420)" fill="#FAFCFF"/>
<circle cx="4.5" cy="4.5" r="4.5" transform="matrix(-1 0 0 1 129 420)" fill="#FAFCFF"/>
<circle cx="4.5" cy="4.5" r="4.5" transform="matrix(-1 0 0 1 219 440)" fill="#FAFCFF"/>
<circle cx="4.5" cy="4.5" r="4.5" transform="matrix(-1 0 0 1 204 440)" fill="#FAFCFF"/>
<circle cx="4.5" cy="4.5" r="4.5" transform="matrix(-1 0 0 1 189 440)" fill="#FAFCFF"/>
<circle cx="4.5" cy="4.5" r="4.5" transform="matrix(-1 0 0 1 174 440)" fill="#FAFCFF"/>
<circle cx="4.5" cy="4.5" r="4.5" transform="matrix(-1 0 0 1 159 440)" fill="#FAFCFF"/>
<circle cx="4.5" cy="4.5" r="4.5" transform="matrix(-1 0 0 1 144 440)" fill="#FAFCFF"/>
<circle cx="4.5" cy="4.5" r="4.5" transform="matrix(-1 0 0 1 129 440)" fill="#FAFCFF"/>
<circle cx="4.5" cy="4.5" r="4.5" transform="matrix(-1 0 0 1 114 440)" fill="#FAFCFF"/>
<circle cx="4.5" cy="4.5" r="4.5" transform="matrix(-1 0 0 1 99 440)" fill="#FAFCFF"/>
<circle cx="4.5" cy="4.5" r="4.5" transform="matrix(-1 0 0 1 84 440)" fill="#FAFCFF"/>
<circle cx="4.5" cy="4.5" r="4.5" transform="matrix(-1 0 0 1 219 460)" fill="#FAFCFF"/>
<circle cx="4.5" cy="4.5" r="4.5" transform="matrix(-1 0 0 1 204 460)" fill="#FAFCFF"/>
<circle cx="4.5" cy="4.5" r="4.5" transform="matrix(-1 0 0 1 189 460)" fill="#FAFCFF"/>
<circle cx="4.5" cy="4.5" r="4.5" transform="matrix(-1 0 0 1 174 460)" fill="#FAFCFF"/>
<circle cx="4.5" cy="4.5" r="4.5" transform="matrix(-1 0 0 1 159 460)" fill="#FAFCFF"/>
<circle cx="4.5" cy="4.5" r="4.5" transform="matrix(-1 0 0 1 144 460)" fill="#FAFCFF"/>
<circle cx="4.5" cy="4.5" r="4.5" transform="matrix(-1 0 0 1 129 460)" fill="#FAFCFF"/>
<circle cx="4.5" cy="4.5" r="4.5" transform="matrix(-1 0 0 1 114 460)" fill="#FAFCFF"/>
<circle cx="4.5" cy="4.5" r="4.5" transform="matrix(-1 0 0 1 99 460)" fill="#FAFCFF"/>
<circle cx="4.5" cy="4.5" r="4.5" transform="matrix(-1 0 0 1 84 460)" fill="#FAFCFF"/>
<circle cx="4.5" cy="4.5" r="4.5" transform="matrix(-1 0 0 1 69 460)" fill="#FAFCFF"/>
<circle cx="4.5" cy="4.5" r="4.5" transform="matrix(-1 0 0 1 54 460)" fill="#FAFCFF"/>
<circle cx="4.5" cy="4.5" r="4.5" transform="matrix(-1 0 0 1 39 460)" fill="#FAFCFF"/>
<circle cx="4.5" cy="4.5" r="4.5" transform="matrix(-1 0 0 1 219 480)" fill="#FAFCFF"/>
<circle cx="4.5" cy="4.5" r="4.5" transform="matrix(-1 0 0 1 204 480)" fill="#FAFCFF"/>
<circle cx="4.5" cy="4.5" r="4.5" transform="matrix(-1 0 0 1 189 480)" fill="#FAFCFF"/>
<circle cx="4.5" cy="4.5" r="4.5" transform="matrix(-1 0 0 1 174 480)" fill="#FAFCFF"/>
<circle cx="4.5" cy="4.5" r="4.5" transform="matrix(-1 0 0 1 159 480)" fill="#FAFCFF"/>
<circle cx="4.5" cy="4.5" r="4.5" transform="matrix(-1 0 0 1 144 480)" fill="#FAFCFF"/>
<circle cx="4.5" cy="4.5" r="4.5" transform="matrix(-1 0 0 1 129 480)" fill="#FAFCFF"/>
<circle cx="4.5" cy="4.5" r="4.5" transform="matrix(-1 0 0 1 114 480)" fill="#FAFCFF"/>
<circle cx="4.5" cy="4.5" r="4.5" transform="matrix(-1 0 0 1 99 480)" fill="#FAFCFF"/>
<circle cx="4.5" cy="4.5" r="4.5" transform="matrix(-1 0 0 1 84 480)" fill="#FAFCFF"/>
<circle cx="4.5" cy="4.5" r="4.5" transform="matrix(-1 0 0 1 69 480)" fill="#FAFCFF"/>
<circle cx="4.5" cy="4.5" r="4.5" transform="matrix(-1 0 0 1 54 480)" fill="#FAFCFF"/>
<circle cx="4.5" cy="4.5" r="4.5" transform="matrix(-1 0 0 1 39 480)" fill="#FAFCFF"/>
<circle cx="4.5" cy="4.5" r="4.5" transform="matrix(-1 0 0 1 219 500)" fill="#FAFCFF"/>
<circle cx="4.5" cy="4.5" r="4.5" transform="matrix(-1 0 0 1 204 500)" fill="#FAFCFF"/>
<circle cx="4.5" cy="4.5" r="4.5" transform="matrix(-1 0 0 1 189 500)" fill="#FAFCFF"/>
<circle cx="4.5" cy="4.5" r="4.5" transform="matrix(-1 0 0 1 174 500)" fill="#FAFCFF"/>
<circle cx="4.5" cy="4.5" r="4.5" transform="matrix(-1 0 0 1 159 500)" fill="#FAFCFF"/>
<circle cx="4.5" cy="4.5" r="4.5" transform="matrix(-1 0 0 1 219 520)" fill="#FAFCFF"/>
<circle cx="4.5" cy="4.5" r="4.5" transform="matrix(-1 0 0 1 204 520)" fill="#FAFCFF"/>
<circle cx="4.5" cy="4.5" r="4.5" transform="matrix(-1 0 0 1 189 520)" fill="#FAFCFF"/>
<circle cx="4.5" cy="4.5" r="4.5" transform="matrix(-1 0 0 1 174 520)" fill="#FAFCFF"/>
<circle cx="4.5" cy="4.5" r="4.5" transform="matrix(-1 0 0 1 159 520)" fill="#FAFCFF"/>
<circle cx="4.5" cy="4.5" r="4.5" transform="matrix(-1 0 0 1 144 520)" fill="#FAFCFF"/>
<circle cx="4.5" cy="4.5" r="4.5" transform="matrix(-1 0 0 1 129 520)" fill="#FAFCFF"/>
<circle cx="4.5" cy="4.5" r="4.5" transform="matrix(-1 0 0 1 114 520)" fill="#FAFCFF"/>
<circle cx="4.5" cy="4.5" r="4.5" transform="matrix(-1 0 0 1 99 520)" fill="#FAFCFF"/>
<circle cx="4.5" cy="4.5" r="4.5" transform="matrix(-1 0 0 1 84 520)" fill="#FAFCFF"/>
<circle cx="4.5" cy="4.5" r="4.5" transform="matrix(-1 0 0 1 69 520)" fill="#FAFCFF"/>
<circle cx="4.5" cy="4.5" r="4.5" transform="matrix(-1 0 0 1 54 520)" fill="#FAFCFF"/>
<circle cx="4.5" cy="4.5" r="4.5" transform="matrix(-1 0 0 1 219 540)" fill="#FAFCFF"/>
<circle cx="4.5" cy="4.5" r="4.5" transform="matrix(-1 0 0 1 204 540)" fill="#FAFCFF"/>
<circle cx="4.5" cy="4.5" r="4.5" transform="matrix(-1 0 0 1 189 540)" fill="#FAFCFF"/>
<circle cx="4.5" cy="4.5" r="4.5" transform="matrix(-1 0 0 1 174 540)" fill="#FAFCFF"/>
<circle cx="4.5" cy="4.5" r="4.5" transform="matrix(-1 0 0 1 159 540)" fill="#FAFCFF"/>
<circle cx="4.5" cy="4.5" r="4.5" transform="matrix(-1 0 0 1 144 540)" fill="#FAFCFF"/>
<circle cx="4.5" cy="4.5" r="4.5" transform="matrix(-1 0 0 1 129 540)" fill="#FAFCFF"/>
<circle cx="4.5" cy="4.5" r="4.5" transform="matrix(-1 0 0 1 114 540)" fill="#FAFCFF"/>
<circle cx="4.5" cy="4.5" r="4.5" transform="matrix(-1 0 0 1 219 560)" fill="#FAFCFF"/>
<circle cx="4.5" cy="4.5" r="4.5" transform="matrix(-1 0 0 1 204 560)" fill="#FAFCFF"/>
<circle cx="4.5" cy="4.5" r="4.5" transform="matrix(-1 0 0 1 189 560)" fill="#FAFCFF"/>
<circle cx="4.5" cy="4.5" r="4.5" transform="matrix(-1 0 0 1 174 560)" fill="#FAFCFF"/>
<circle cx="4.5" cy="4.5" r="4.5" transform="matrix(-1 0 0 1 159 560)" fill="#FAFCFF"/>
<circle cx="4.5" cy="4.5" r="4.5" transform="matrix(-1 0 0 1 144 560)" fill="#FAFCFF"/>
<circle cx="4.5" cy="4.5" r="4.5" transform="matrix(-1 0 0 1 129 560)" fill="#FAFCFF"/>
<circle cx="4.5" cy="4.5" r="4.5" transform="matrix(-1 0 0 1 114 560)" fill="#FAFCFF"/>
<circle cx="4.5" cy="4.5" r="4.5" transform="matrix(-1 0 0 1 99 560)" fill="#FAFCFF"/>
<circle cx="4.5" cy="4.5" r="4.5" transform="matrix(-1 0 0 1 84 560)" fill="#FAFCFF"/>
<circle cx="4.5" cy="4.5" r="4.5" transform="matrix(-1 0 0 1 219 580)" fill="#FAFCFF"/>
<circle cx="4.5" cy="4.5" r="4.5" transform="matrix(-1 0 0 1 204 580)" fill="#FAFCFF"/>
<circle cx="4.5" cy="4.5" r="4.5" transform="matrix(-1 0 0 1 189 580)" fill="#FAFCFF"/>
<circle cx="4.5" cy="4.5" r="4.5" transform="matrix(-1 0 0 1 174 580)" fill="#FAFCFF"/>
<circle cx="4.5" cy="4.5" r="4.5" transform="matrix(-1 0 0 1 159 580)" fill="#FAFCFF"/>
<circle cx="4.5" cy="4.5" r="4.5" transform="matrix(-1 0 0 1 144 580)" fill="#FAFCFF"/>
<circle cx="4.5" cy="4.5" r="4.5" transform="matrix(-1 0 0 1 129 580)" fill="#FAFCFF"/>
<circle cx="4.5" cy="4.5" r="4.5" transform="matrix(-1 0 0 1 114 580)" fill="#FAFCFF"/>
<circle cx="4.5" cy="4.5" r="4.5" transform="matrix(-1 0 0 1 99 580)" fill="#FAFCFF"/>
<circle cx="4.5" cy="4.5" r="4.5" transform="matrix(-1 0 0 1 84 580)" fill="#FAFCFF"/>
<circle cx="4.5" cy="4.5" r="4.5" transform="matrix(-1 0 0 1 69 580)" fill="#FAFCFF"/>
<circle cx="4.5" cy="4.5" r="4.5" transform="matrix(-1 0 0 1 219 600)" fill="#FAFCFF"/>
<circle cx="4.5" cy="4.5" r="4.5" transform="matrix(-1 0 0 1 204 600)" fill="#FAFCFF"/>
<circle cx="4.5" cy="4.5" r="4.5" transform="matrix(-1 0 0 1 189 600)" fill="#FAFCFF"/>
<circle cx="4.5" cy="4.5" r="4.5" transform="matrix(-1 0 0 1 174 600)" fill="#FAFCFF"/>
<circle cx="4.5" cy="4.5" r="4.5" transform="matrix(-1 0 0 1 159 600)" fill="#FAFCFF"/>
<circle cx="4.5" cy="4.5" r="4.5" transform="matrix(-1 0 0 1 144 600)" fill="#FAFCFF"/>
<circle cx="4.5" cy="4.5" r="4.5" transform="matrix(-1 0 0 1 129 600)" fill="#FAFCFF"/>
<circle cx="4.5" cy="4.5" r="4.5" transform="matrix(-1 0 0 1 114 600)" fill="#FAFCFF"/>
<circle cx="4.5" cy="4.5" r="4.5" transform="matrix(-1 0 0 1 99 600)" fill="#FAFCFF"/>
<circle cx="4.5" cy="4.5" r="4.5" transform="matrix(-1 0 0 1 84 600)" fill="#FAFCFF"/>
<circle cx="4.5" cy="4.5" r="4.5" transform="matrix(-1 0 0 1 69 600)" fill="#FAFCFF"/>
<circle cx="4.5" cy="4.5" r="4.5" transform="matrix(-1 0 0 1 54 600)" fill="#FAFCFF"/>
<circle cx="4.5" cy="4.5" r="4.5" transform="matrix(-1 0 0 1 39 600)" fill="#FAFCFF"/>
<circle cx="4.5" cy="4.5" r="4.5" transform="matrix(-1 0 0 1 219 620)" fill="#FAFCFF"/>
<circle cx="4.5" cy="4.5" r="4.5" transform="matrix(-1 0 0 1 204 620)" fill="#FAFCFF"/>
<circle cx="4.5" cy="4.5" r="4.5" transform="matrix(-1 0 0 1 189 620)" fill="#FAFCFF"/>
<circle cx="4.5" cy="4.5" r="4.5" transform="matrix(-1 0 0 1 174 620)" fill="#FAFCFF"/>
<circle cx="4.5" cy="4.5" r="4.5" transform="matrix(-1 0 0 1 159 620)" fill="#FAFCFF"/>
<circle cx="4.5" cy="4.5" r="4.5" transform="matrix(-1 0 0 1 144 620)" fill="#FAFCFF"/>
<circle cx="4.5" cy="4.5" r="4.5" transform="matrix(-1 0 0 1 129 620)" fill="#FAFCFF"/>
<circle cx="4.5" cy="4.5" r="4.5" transform="matrix(-1 0 0 1 114 620)" fill="#FAFCFF"/>
<circle cx="4.5" cy="4.5" r="4.5" transform="matrix(-1 0 0 1 99 620)" fill="#FAFCFF"/>
<circle cx="4.5" cy="4.5" r="4.5" transform="matrix(-1 0 0 1 84 620)" fill="#FAFCFF"/>
<circle cx="4.5" cy="4.5" r="4.5" transform="matrix(-1 0 0 1 69 620)" fill="#FAFCFF"/>
<circle cx="4.5" cy="4.5" r="4.5" transform="matrix(-1 0 0 1 54 620)" fill="#FAFCFF"/>
<circle cx="4.5" cy="4.5" r="4.5" transform="matrix(-1 0 0 1 39 620)" fill="#FAFCFF"/>
<circle cx="4.5" cy="4.5" r="4.5" transform="matrix(-1 0 0 1 24 620)" fill="#FAFCFF"/>
<circle cx="4.5" cy="4.5" r="4.5" transform="matrix(-1 0 0 1 219 640)" fill="#FAFCFF"/>
<circle cx="4.5" cy="4.5" r="4.5" transform="matrix(-1 0 0 1 204 640)" fill="#FAFCFF"/>
<circle cx="4.5" cy="4.5" r="4.5" transform="matrix(-1 0 0 1 189 640)" fill="#FAFCFF"/>
<circle cx="4.5" cy="4.5" r="4.5" transform="matrix(-1 0 0 1 174 640)" fill="#FAFCFF"/>
<circle cx="4.5" cy="4.5" r="4.5" transform="matrix(-1 0 0 1 159 640)" fill="#FAFCFF"/>
<circle cx="4.5" cy="4.5" r="4.5" transform="matrix(-1 0 0 1 144 640)" fill="#FAFCFF"/>
<circle cx="4.5" cy="4.5" r="4.5" transform="matrix(-1 0 0 1 129 640)" fill="#FAFCFF"/>
<circle cx="4.5" cy="4.5" r="4.5" transform="matrix(-1 0 0 1 114 640)" fill="#FAFCFF"/>
<circle cx="4.5" cy="4.5" r="4.5" transform="matrix(-1 0 0 1 99 640)" fill="#FAFCFF"/>
<circle cx="4.5" cy="4.5" r="4.5" transform="matrix(-1 0 0 1 84 640)" fill="#FAFCFF"/>
<circle cx="4.5" cy="4.5" r="4.5" transform="matrix(-1 0 0 1 69 640)" fill="#FAFCFF"/>
<circle cx="4.5" cy="4.5" r="4.5" transform="matrix(-1 0 0 1 54 640)" fill="#FAFCFF"/>
<circle cx="4.5" cy="4.5" r="4.5" transform="matrix(-1 0 0 1 39 640)" fill="#FAFCFF"/>
<circle cx="4.5" cy="4.5" r="4.5" transform="matrix(-1 0 0 1 24 640)" fill="#FAFCFF"/>
<circle cx="4.5" cy="4.5" r="4.5" transform="matrix(-1 0 0 1 9 640)" fill="#FAFCFF"/>
<circle cx="4.5" cy="4.5" r="4.5" transform="matrix(-1 0 0 1 219 660)" fill="#FAFCFF"/>
<circle cx="4.5" cy="4.5" r="4.5" transform="matrix(-1 0 0 1 204 660)" fill="#FAFCFF"/>
<circle cx="4.5" cy="4.5" r="4.5" transform="matrix(-1 0 0 1 189 660)" fill="#FAFCFF"/>
<circle cx="4.5" cy="4.5" r="4.5" transform="matrix(-1 0 0 1 174 660)" fill="#FAFCFF"/>
<circle cx="4.5" cy="4.5" r="4.5" transform="matrix(-1 0 0 1 159 660)" fill="#FAFCFF"/>
<circle cx="4.5" cy="4.5" r="4.5" transform="matrix(-1 0 0 1 219 680)" fill="#FAFCFF"/>
<circle cx="4.5" cy="4.5" r="4.5" transform="matrix(-1 0 0 1 204 680)" fill="#FAFCFF"/>
<circle cx="4.5" cy="4.5" r="4.5" transform="matrix(-1 0 0 1 189 680)" fill="#FAFCFF"/>
<circle cx="4.5" cy="4.5" r="4.5" transform="matrix(-1 0 0 1 174 680)" fill="#FAFCFF"/>
<circle cx="4.5" cy="4.5" r="4.5" transform="matrix(-1 0 0 1 159 680)" fill="#FAFCFF"/>
<circle cx="4.5" cy="4.5" r="4.5" transform="matrix(-1 0 0 1 144 680)" fill="#FAFCFF"/>
<circle cx="4.5" cy="4.5" r="4.5" transform="matrix(-1 0 0 1 129 680)" fill="#FAFCFF"/>
<circle cx="4.5" cy="4.5" r="4.5" transform="matrix(-1 0 0 1 219 700)" fill="#FAFCFF"/>
<circle cx="4.5" cy="4.5" r="4.5" transform="matrix(-1 0 0 1 204 700)" fill="#FAFCFF"/>
<circle cx="4.5" cy="4.5" r="4.5" transform="matrix(-1 0 0 1 189 700)" fill="#FAFCFF"/>
<circle cx="4.5" cy="4.5" r="4.5" transform="matrix(-1 0 0 1 174 700)" fill="#FAFCFF"/>
<circle cx="4.5" cy="4.5" r="4.5" transform="matrix(-1 0 0 1 159 700)" fill="#FAFCFF"/>
<circle cx="4.5" cy="4.5" r="4.5" transform="matrix(-1 0 0 1 144 700)" fill="#FAFCFF"/>
<circle cx="4.5" cy="4.5" r="4.5" transform="matrix(-1 0 0 1 129 700)" fill="#FAFCFF"/>
<circle cx="4.5" cy="4.5" r="4.5" transform="matrix(-1 0 0 1 114 700)" fill="#FAFCFF"/>
<circle cx="4.5" cy="4.5" r="4.5" transform="matrix(-1 0 0 1 99 700)" fill="#FAFCFF"/>
<circle cx="4.5" cy="4.5" r="4.5" transform="matrix(-1 0 0 1 84 700)" fill="#FAFCFF"/>
<circle cx="4.5" cy="4.5" r="4.5" transform="matrix(-1 0 0 1 69 700)" fill="#FAFCFF"/>
<circle cx="4.5" cy="4.5" r="4.5" transform="matrix(-1 0 0 1 54 700)" fill="#FAFCFF"/>
<circle cx="4.5" cy="4.5" r="4.5" transform="matrix(-1 0 0 1 219 720)" fill="#FAFCFF"/>
<circle cx="4.5" cy="4.5" r="4.5" transform="matrix(-1 0 0 1 204 720)" fill="#FAFCFF"/>
<circle cx="4.5" cy="4.5" r="4.5" transform="matrix(-1 0 0 1 189 720)" fill="#FAFCFF"/>
<circle cx="4.5" cy="4.5" r="4.5" transform="matrix(-1 0 0 1 219 740)" fill="#FAFCFF"/>
<circle cx="4.5" cy="4.5" r="4.5" transform="matrix(-1 0 0 1 204 740)" fill="#FAFCFF"/>
<circle cx="4.5" cy="4.5" r="4.5" transform="matrix(-1 0 0 1 189 740)" fill="#FAFCFF"/>
<circle cx="4.5" cy="4.5" r="4.5" transform="matrix(-1 0 0 1 174 740)" fill="#FAFCFF"/>
<circle cx="4.5" cy="4.5" r="4.5" transform="matrix(-1 0 0 1 159 740)" fill="#FAFCFF"/>
<circle cx="4.5" cy="4.5" r="4.5" transform="matrix(-1 0 0 1 144 740)" fill="#FAFCFF"/>
<circle cx="4.5" cy="4.5" r="4.5" transform="matrix(-1 0 0 1 129 740)" fill="#FAFCFF"/>
<circle cx="4.5" cy="4.5" r="4.5" transform="matrix(-1 0 0 1 219 760)" fill="#FAFCFF"/>
<circle cx="4.5" cy="4.5" r="4.5" transform="matrix(-1 0 0 1 204 760)" fill="#FAFCFF"/>
<circle cx="4.5" cy="4.5" r="4.5" transform="matrix(-1 0 0 1 189 760)" fill="#FAFCFF"/>
<circle cx="4.5" cy="4.5" r="4.5" transform="matrix(-1 0 0 1 174 760)" fill="#FAFCFF"/>
<circle cx="4.5" cy="4.5" r="4.5" transform="matrix(-1 0 0 1 159 760)" fill="#FAFCFF"/>
<circle cx="4.5" cy="4.5" r="4.5" transform="matrix(-1 0 0 1 219 780)" fill="#FAFCFF"/>
<circle cx="4.5" cy="4.5" r="4.5" transform="matrix(-1 0 0 1 204 780)" fill="#FAFCFF"/>
<circle cx="4.5" cy="4.5" r="4.5" transform="matrix(-1 0 0 1 189 780)" fill="#FAFCFF"/>
<circle cx="4.5" cy="4.5" r="4.5" transform="matrix(-1 0 0 1 174 780)" fill="#FAFCFF"/>
<circle cx="4.5" cy="4.5" r="4.5" transform="matrix(-1 0 0 1 159 780)" fill="#FAFCFF"/>
<circle cx="4.5" cy="4.5" r="4.5" transform="matrix(-1 0 0 1 144 780)" fill="#FAFCFF"/>
<circle cx="4.5" cy="4.5" r="4.5" transform="matrix(-1 0 0 1 129 780)" fill="#FAFCFF"/>
<circle cx="4.5" cy="4.5" r="4.5" transform="matrix(-1 0 0 1 219 800)" fill="#FAFCFF"/>
<circle cx="4.5" cy="4.5" r="4.5" transform="matrix(-1 0 0 1 204 800)" fill="#FAFCFF"/>
<circle cx="4.5" cy="4.5" r="4.5" transform="matrix(-1 0 0 1 189 800)" fill="#FAFCFF"/>
<circle cx="4.5" cy="4.5" r="4.5" transform="matrix(-1 0 0 1 174 800)" fill="#FAFCFF"/>
<circle cx="4.5" cy="4.5" r="4.5" transform="matrix(-1 0 0 1 159 800)" fill="#FAFCFF"/>
<circle cx="4.5" cy="4.5" r="4.5" transform="matrix(-1 0 0 1 144 800)" fill="#FAFCFF"/>
<circle cx="4.5" cy="4.5" r="4.5" transform="matrix(-1 0 0 1 129 800)" fill="#FAFCFF"/>
<circle cx="4.5" cy="4.5" r="4.5" transform="matrix(-1 0 0 1 219 820)" fill="#FAFCFF"/>
<circle cx="4.5" cy="4.5" r="4.5" transform="matrix(-1 0 0 1 204 820)" fill="#FAFCFF"/>
<circle cx="4.5" cy="4.5" r="4.5" transform="matrix(-1 0 0 1 189 820)" fill="#FAFCFF"/>
<circle cx="4.5" cy="4.5" r="4.5" transform="matrix(-1 0 0 1 174 820)" fill="#FAFCFF"/>
<circle cx="4.5" cy="4.5" r="4.5" transform="matrix(-1 0 0 1 219 840)" fill="#FAFCFF"/>
<circle cx="4.5" cy="4.5" r="4.5" transform="matrix(-1 0 0 1 204 840)" fill="#FAFCFF"/>
<circle cx="4.5" cy="4.5" r="4.5" transform="matrix(-1 0 0 1 189 840)" fill="#FAFCFF"/>
<circle cx="4.5" cy="4.5" r="4.5" transform="matrix(-1 0 0 1 219 860)" fill="#FAFCFF"/>
<circle cx="4.5" cy="4.5" r="4.5" transform="matrix(-1 0 0 1 204 860)" fill="#FAFCFF"/>
<circle cx="4.5" cy="4.5" r="4.5" transform="matrix(-1 0 0 1 189 860)" fill="#FAFCFF"/>
<circle cx="4.5" cy="4.5" r="4.5" transform="matrix(-1 0 0 1 174 860)" fill="#FAFCFF"/>
<circle cx="4.5" cy="4.5" r="4.5" transform="matrix(-1 0 0 1 159 860)" fill="#FAFCFF"/>
<circle cx="4.5" cy="4.5" r="4.5" transform="matrix(-1 0 0 1 219 880)" fill="#FAFCFF"/>
<circle cx="4.5" cy="4.5" r="4.5" transform="matrix(-1 0 0 1 204 880)" fill="#FAFCFF"/>
<circle cx="4.5" cy="4.5" r="4.5" transform="matrix(-1 0 0 1 189 880)" fill="#FAFCFF"/>
<circle cx="4.5" cy="4.5" r="4.5" transform="matrix(-1 0 0 1 174 880)" fill="#FAFCFF"/>
<circle cx="4.5" cy="4.5" r="4.5" transform="matrix(-1 0 0 1 159 880)" fill="#FAFCFF"/>
<circle cx="4.5" cy="4.5" r="4.5" transform="matrix(-1 0 0 1 144 880)" fill="#FAFCFF"/>
<circle cx="4.5" cy="4.5" r="4.5" transform="matrix(-1 0 0 1 219 900)" fill="#FAFCFF"/>
<circle cx="4.5" cy="4.5" r="4.5" transform="matrix(-1 0 0 1 204 900)" fill="#FAFCFF"/>
<circle cx="4.5" cy="4.5" r="4.5" transform="matrix(-1 0 0 1 189 900)" fill="#FAFCFF"/>
<circle cx="4.5" cy="4.5" r="4.5" transform="matrix(-1 0 0 1 219 920)" fill="#FAFCFF"/>
<circle cx="4.5" cy="4.5" r="4.5" transform="matrix(-1 0 0 1 204 920)" fill="#FAFCFF"/>
<circle cx="4.5" cy="4.5" r="4.5" transform="matrix(-1 0 0 1 219 940)" fill="#FAFCFF"/>
</svg>
