<svg width="1921" height="583" viewBox="0 0 1921 583" fill="none" xmlns="http://www.w3.org/2000/svg">
<g clip-path="url(#clip0_3728_1103)">
<mask id="mask0_3728_1103" style="mask-type:luminance" maskUnits="userSpaceOnUse" x="0" y="-3417" width="1921" height="4000">
<path d="M1921 -3417H0V583H1921V-3417Z" fill="white"/>
</mask>
<g mask="url(#mask0_3728_1103)">
<path fill-rule="evenodd" clip-rule="evenodd" d="M1421.66 397.589L-839.42 1728.07L-462.36 -120.311L1421.66 397.589Z" fill="#004C93"/>
<path d="M1591.56 1387.64C1909.24 1387.64 2166.77 1130.11 2166.77 812.429C2166.77 494.749 1909.24 237.219 1591.56 237.219C1273.88 237.219 1016.35 494.749 1016.35 812.429C1016.35 1130.11 1273.88 1387.64 1591.56 1387.64Z" fill="#FDD400"/>
<path d="M527.77 347.84V339.99L524.53 345.95H523.51L520.25 339.99V347.84H518.51V336.82H520.37L524.01 343.56L527.65 336.82H529.51V347.84H527.75H527.77Z" fill="white"/>
<path d="M535.11 347.84V336.82H536.85V347.84H535.11Z" fill="white"/>
<path d="M544.17 340.05V347.84H542.43V336.82H543.85L550.09 344.78V336.83H551.84V347.83H550.32L544.16 340.04L544.17 340.05Z" fill="white"/>
<path d="M557.44 347.84V336.82H559.18V347.84H557.44Z" fill="white"/>
<path d="M571.28 339.411C571.04 339.151 570.64 338.891 570.07 338.651C569.5 338.411 568.91 338.291 568.3 338.291C567.58 338.291 567.05 338.421 566.69 338.691C566.33 338.961 566.16 339.331 566.16 339.821C566.16 339.971 566.18 340.111 566.22 340.231C566.26 340.351 566.31 340.461 566.38 340.551C566.44 340.641 566.54 340.731 566.66 340.821C566.79 340.911 566.91 340.981 567.03 341.041C567.15 341.101 567.32 341.161 567.54 341.231C567.75 341.301 567.96 341.361 568.14 341.401C568.33 341.451 568.57 341.511 568.88 341.591C569.36 341.711 569.78 341.821 570.12 341.931C570.46 342.041 570.79 342.191 571.11 342.361C571.43 342.531 571.68 342.731 571.88 342.941C572.07 343.151 572.22 343.421 572.34 343.721C572.45 344.031 572.51 344.381 572.51 344.771C572.51 345.211 572.44 345.611 572.3 345.961C572.16 346.311 571.97 346.611 571.73 346.851C571.49 347.091 571.19 347.301 570.85 347.461C570.51 347.621 570.14 347.741 569.74 347.821C569.35 347.891 568.92 347.931 568.47 347.931C567.63 347.931 566.82 347.801 566.04 347.551C565.26 347.301 564.55 346.931 563.93 346.451L564.73 344.961C565.05 345.291 565.57 345.611 566.29 345.911C567.01 346.221 567.75 346.371 568.51 346.371C569.2 346.371 569.73 346.251 570.1 346.011C570.47 345.771 570.66 345.421 570.66 344.961C570.66 344.781 570.63 344.611 570.58 344.471C570.52 344.321 570.43 344.191 570.29 344.071C570.15 343.951 570.01 343.851 569.87 343.761C569.73 343.671 569.52 343.591 569.26 343.491C568.99 343.401 568.75 343.321 568.53 343.261C568.31 343.201 568.01 343.121 567.64 343.031C567.06 342.881 566.58 342.721 566.2 342.571C565.82 342.421 565.49 342.221 565.2 341.991C564.91 341.761 564.7 341.491 564.57 341.181C564.44 340.871 564.37 340.501 564.37 340.081C564.37 339.551 564.47 339.071 564.68 338.641C564.88 338.211 565.17 337.861 565.52 337.581C565.88 337.301 566.3 337.091 566.79 336.941C567.28 336.791 567.8 336.721 568.37 336.721C569.72 336.721 570.96 337.131 572.09 337.961L571.3 339.381L571.28 339.411Z" fill="white"/>
<path d="M585.43 338.36H581.77V347.84H580.01V338.36H576.33V336.82H585.42V338.36H585.43Z" fill="white"/>
<path d="M597.56 346.3V347.84H590.01V336.82H597.43V338.36H591.75V341.49H596.67V342.94H591.75V346.3H597.57H597.56ZM594.47 335.69L593.35 335.35L594.24 333.65H595.87L594.48 335.7L594.47 335.69Z" fill="white"/>
<path d="M602.46 347.84V336.82H607.26C607.74 336.82 608.2 336.92 608.63 337.13C609.06 337.34 609.42 337.61 609.72 337.95C610.01 338.29 610.25 338.67 610.42 339.1C610.59 339.53 610.68 339.96 610.68 340.4C610.68 341.15 610.48 341.82 610.09 342.43C609.7 343.03 609.18 343.44 608.53 343.65L611.12 347.84H609.16L606.77 344.01H604.21V347.84H602.47H602.46ZM604.19 342.47H607.24C607.72 342.47 608.12 342.27 608.43 341.87C608.74 341.47 608.9 340.98 608.9 340.41C608.9 339.84 608.72 339.37 608.37 338.97C608.02 338.57 607.61 338.37 607.14 338.37H604.19V342.48V342.47Z" fill="white"/>
<path d="M615.81 347.84V336.82H617.55V347.84H615.81Z" fill="white"/>
<path d="M622.44 342.33C622.44 341.6 622.58 340.9 622.85 340.22C623.12 339.54 623.49 338.95 623.95 338.44C624.41 337.93 624.98 337.52 625.64 337.21C626.3 336.9 627 336.75 627.75 336.75C628.5 336.75 629.23 336.91 629.89 337.23C630.56 337.55 631.11 337.98 631.56 338.51C632.01 339.04 632.36 339.64 632.62 340.31C632.88 340.98 633.01 341.66 633.01 342.35C633.01 343.08 632.87 343.78 632.6 344.46C632.33 345.14 631.96 345.73 631.51 346.24C631.06 346.75 630.49 347.16 629.83 347.46C629.17 347.77 628.47 347.92 627.72 347.92C627.1 347.92 626.52 347.82 625.96 347.61C625.4 347.4 624.92 347.12 624.49 346.77C624.07 346.41 623.7 346 623.39 345.53C623.08 345.06 622.84 344.55 622.68 344C622.52 343.45 622.44 342.9 622.44 342.34V342.33ZM627.73 346.35C628.27 346.35 628.76 346.23 629.21 346C629.66 345.77 630.03 345.46 630.32 345.08C630.61 344.7 630.83 344.27 630.99 343.8C631.15 343.33 631.23 342.84 631.23 342.34C631.23 341.84 631.15 341.32 630.98 340.84C630.81 340.36 630.58 339.93 630.28 339.56C629.98 339.19 629.62 338.89 629.17 338.67C628.73 338.45 628.25 338.34 627.73 338.34C627.21 338.34 626.7 338.45 626.25 338.68C625.8 338.91 625.43 339.21 625.13 339.59C624.84 339.97 624.61 340.4 624.45 340.87C624.29 341.34 624.21 341.83 624.21 342.33C624.21 343.03 624.35 343.68 624.63 344.29C624.91 344.9 625.32 345.39 625.87 345.78C626.42 346.16 627.04 346.36 627.73 346.36V346.35Z" fill="white"/>
<path d="M644.84 347.84V336.82H648.75C649.61 336.82 650.39 336.96 651.08 337.25C651.77 337.54 652.33 337.93 652.77 338.43C653.21 338.93 653.54 339.51 653.77 340.17C654 340.83 654.11 341.54 654.11 342.31C654.11 343.98 653.62 345.31 652.64 346.32C651.66 347.33 650.36 347.83 648.73 347.83H644.82L644.84 347.84ZM648.75 338.36H646.58V346.3H648.75C649.51 346.3 650.16 346.12 650.71 345.77C651.26 345.42 651.67 344.95 651.94 344.35C652.21 343.75 652.35 343.07 652.35 342.31C652.35 341.13 652.03 340.18 651.39 339.45C650.75 338.72 649.87 338.36 648.75 338.36Z" fill="white"/>
<path d="M657.95 342.33C657.95 341.6 658.09 340.9 658.36 340.22C658.63 339.54 659 338.95 659.46 338.44C659.92 337.93 660.49 337.52 661.15 337.21C661.81 336.9 662.51 336.75 663.26 336.75C664.01 336.75 664.74 336.91 665.4 337.23C666.07 337.55 666.62 337.98 667.07 338.51C667.52 339.04 667.87 339.64 668.13 340.31C668.39 340.98 668.52 341.66 668.52 342.35C668.52 343.08 668.38 343.78 668.11 344.46C667.84 345.14 667.47 345.73 667.02 346.24C666.57 346.75 666 347.16 665.34 347.46C664.68 347.77 663.98 347.92 663.23 347.92C662.61 347.92 662.03 347.82 661.47 347.61C660.91 347.4 660.43 347.12 660 346.77C659.58 346.41 659.21 346 658.9 345.53C658.59 345.06 658.35 344.55 658.19 344C658.03 343.45 657.95 342.9 657.95 342.34V342.33ZM663.24 346.35C663.78 346.35 664.27 346.23 664.72 346C665.17 345.77 665.54 345.46 665.83 345.08C666.12 344.7 666.34 344.27 666.5 343.8C666.66 343.33 666.74 342.84 666.74 342.34C666.74 341.84 666.66 341.32 666.49 340.84C666.32 340.36 666.09 339.93 665.79 339.56C665.49 339.19 665.13 338.89 664.68 338.67C664.24 338.45 663.76 338.34 663.24 338.34C662.72 338.34 662.21 338.45 661.76 338.68C661.31 338.91 660.94 339.21 660.64 339.59C660.35 339.97 660.12 340.4 659.96 340.87C659.8 341.34 659.72 341.83 659.72 342.33C659.72 343.03 659.86 343.68 660.14 344.29C660.42 344.9 660.83 345.39 661.38 345.78C661.93 346.16 662.55 346.36 663.24 346.36V346.35Z" fill="white"/>
<path d="M474.55 369.619V358.689H478.75C479.63 358.689 480.43 358.829 481.14 359.109C481.85 359.389 482.43 359.779 482.88 360.279C483.33 360.779 483.67 361.359 483.91 362.009C484.15 362.659 484.27 363.369 484.27 364.129C484.27 365.779 483.77 367.109 482.76 368.109C481.75 369.109 480.42 369.609 478.76 369.609H474.56L474.55 369.619ZM478.75 361.309H477.55V367.009H478.75C479.52 367.009 480.12 366.739 480.56 366.209C481 365.679 481.22 364.989 481.22 364.139C481.22 363.289 481 362.599 480.56 362.079C480.12 361.559 479.52 361.309 478.76 361.309H478.75Z" fill="white"/>
<path d="M496.44 367.009V369.629H488.65V358.699H496.31V361.319H491.66V362.859H495.64V365.289H491.66V367.019H496.45L496.44 367.009Z" fill="white"/>
<path d="M507.55 362.26C507.55 362.26 507.44 362.2 507.37 362.15C507.3 362.1 507.14 362.02 506.91 361.91C506.68 361.79 506.45 361.69 506.23 361.61C506.01 361.52 505.75 361.44 505.46 361.37C505.17 361.3 504.9 361.26 504.65 361.26C504.06 361.26 503.77 361.44 503.77 361.8C503.77 361.88 503.78 361.95 503.81 362.02C503.84 362.09 503.89 362.15 503.96 362.2C504.03 362.26 504.1 362.3 504.17 362.34C504.24 362.38 504.34 362.43 504.48 362.48C504.62 362.53 504.74 362.57 504.84 362.6C504.94 362.63 505.09 362.68 505.3 362.74C505.51 362.8 505.67 362.85 505.8 362.89C506.24 363.03 506.62 363.16 506.92 363.29C507.23 363.42 507.53 363.58 507.82 363.77C508.11 363.96 508.34 364.16 508.52 364.39C508.7 364.62 508.83 364.89 508.94 365.21C509.04 365.53 509.09 365.89 509.09 366.29C509.09 366.8 509.01 367.25 508.85 367.66C508.69 368.07 508.48 368.4 508.21 368.66C507.94 368.92 507.63 369.13 507.27 369.3C506.9 369.47 506.53 369.59 506.15 369.66C505.77 369.73 505.36 369.77 504.94 369.77C504.15 369.77 503.33 369.65 502.47 369.42C501.61 369.19 500.85 368.88 500.19 368.49L501.48 365.86C501.53 365.9 501.6 365.94 501.69 365.99C501.78 366.04 501.96 366.14 502.23 366.28C502.5 366.42 502.77 366.54 503.04 366.64C503.31 366.75 503.62 366.84 503.98 366.93C504.34 367.02 504.68 367.06 504.99 367.06C505.57 367.06 505.86 366.9 505.86 366.58C505.86 366.46 505.82 366.35 505.75 366.26C505.67 366.17 505.55 366.08 505.37 366C505.19 365.92 505.03 365.86 504.86 365.8C504.7 365.75 504.47 365.68 504.17 365.59C503.87 365.5 503.62 365.43 503.43 365.36C502.45 365.03 501.74 364.63 501.31 364.17C500.88 363.71 500.66 363.08 500.66 362.29C500.66 361.7 500.77 361.17 500.99 360.7C501.21 360.22 501.51 359.84 501.89 359.53C502.27 359.23 502.7 359 503.19 358.84C503.68 358.68 504.19 358.6 504.74 358.6C505.91 358.6 507.27 358.99 508.84 359.78L507.55 362.26Z" fill="white"/>
<path d="M521.29 367.009V369.629H513.5V358.699H521.16V361.319H516.51V362.859H520.49V365.289H516.51V367.019H521.3L521.29 367.009Z" fill="white"/>
<path d="M528.77 364.249V369.629H525.77V358.699H528.11L532.5 364.259V358.699H535.5V369.629H533.12L528.77 364.249Z" fill="white"/>
<path d="M542.57 358.689L544.71 366.159L546.82 358.689H549.98L546.2 369.619H543.21L539.39 358.689H542.56H542.57Z" fill="white"/>
<path d="M553.29 364.139C553.29 363.419 553.43 362.729 553.71 362.059C553.99 361.389 554.37 360.799 554.86 360.299C555.35 359.789 555.94 359.389 556.64 359.089C557.34 358.789 558.09 358.629 558.88 358.629C559.67 358.629 560.43 358.789 561.14 359.109C561.84 359.429 562.43 359.849 562.9 360.369C563.37 360.889 563.74 361.489 564.01 362.159C564.28 362.829 564.41 363.509 564.41 364.209C564.41 364.909 564.27 365.609 563.99 366.279C563.71 366.949 563.33 367.529 562.85 368.039C562.37 368.549 561.77 368.959 561.07 369.259C560.37 369.569 559.62 369.719 558.83 369.719C558.04 369.719 557.28 369.559 556.58 369.249C555.88 368.929 555.3 368.519 554.82 367.989C554.35 367.469 553.98 366.869 553.71 366.199C553.44 365.529 553.3 364.849 553.3 364.139H553.29ZM558.84 367.049C559.26 367.049 559.63 366.969 559.96 366.799C560.29 366.629 560.55 366.409 560.75 366.129C560.95 365.849 561.09 365.539 561.19 365.209C561.29 364.869 561.34 364.519 561.34 364.149C561.34 363.639 561.25 363.169 561.07 362.749C560.89 362.329 560.61 361.979 560.22 361.709C559.83 361.439 559.37 361.299 558.83 361.299C558.41 361.299 558.04 361.379 557.72 361.549C557.4 361.719 557.13 361.939 556.94 362.209C556.74 362.489 556.6 362.789 556.5 363.129C556.4 363.469 556.35 363.819 556.35 364.179C556.35 364.539 556.4 364.909 556.5 365.249C556.6 365.589 556.75 365.889 556.95 366.169C557.15 366.439 557.41 366.659 557.74 366.819C558.07 366.979 558.43 367.059 558.85 367.059L558.84 367.049Z" fill="white"/>
<path d="M568.74 369.619V358.689H571.74V367.009H576.7V369.629H568.74V369.619Z" fill="white"/>
<path d="M582.95 358.689L585.09 366.159L587.2 358.689H590.36L586.58 369.619H583.59L579.77 358.689H582.94H582.95Z" fill="white"/>
<path d="M594.26 369.619V358.689H597.26V369.619H594.26Z" fill="white"/>
<path d="M610.49 369.619V363.859L608.66 367.909H607.06L605.23 363.859V369.619H602.23V358.689H605.51L607.86 363.829L610.24 358.689H613.5V369.619H610.5H610.49Z" fill="white"/>
<path d="M626.24 367.009V369.629H618.45V358.699H626.11V361.319H621.46V362.859H625.44V365.289H621.46V367.019H626.25L626.24 367.009Z" fill="white"/>
<path d="M633.72 364.249V369.629H630.72V358.699H633.06L637.45 364.259V358.699H640.45V369.629H638.07L633.72 364.249Z" fill="white"/>
<path d="M653.92 361.309H650.78V369.629H647.77V361.309H644.61V358.689H653.91V361.309H653.92Z" fill="white"/>
<path d="M657.49 364.139C657.49 363.419 657.63 362.729 657.91 362.059C658.19 361.389 658.57 360.799 659.06 360.299C659.55 359.789 660.14 359.389 660.84 359.089C661.54 358.789 662.29 358.629 663.08 358.629C663.87 358.629 664.63 358.789 665.34 359.109C666.04 359.429 666.63 359.849 667.1 360.369C667.57 360.889 667.94 361.489 668.21 362.159C668.48 362.829 668.61 363.509 668.61 364.209C668.61 364.909 668.47 365.609 668.19 366.279C667.91 366.949 667.53 367.529 667.05 368.039C666.57 368.549 665.97 368.959 665.27 369.259C664.57 369.569 663.82 369.719 663.03 369.719C662.24 369.719 661.48 369.559 660.78 369.249C660.08 368.929 659.5 368.519 659.02 367.989C658.55 367.469 658.18 366.869 657.91 366.199C657.64 365.529 657.5 364.849 657.5 364.139H657.49ZM663.05 367.049C663.47 367.049 663.84 366.969 664.17 366.799C664.5 366.629 664.76 366.409 664.96 366.129C665.16 365.849 665.3 365.539 665.4 365.209C665.5 364.869 665.55 364.519 665.55 364.149C665.55 363.639 665.46 363.169 665.28 362.749C665.1 362.329 664.82 361.979 664.43 361.709C664.04 361.439 663.58 361.299 663.04 361.299C662.62 361.299 662.25 361.379 661.93 361.549C661.61 361.719 661.34 361.939 661.15 362.209C660.95 362.489 660.81 362.789 660.71 363.129C660.61 363.469 660.56 363.819 660.56 364.179C660.56 364.539 660.61 364.909 660.71 365.249C660.81 365.589 660.96 365.889 661.16 366.169C661.36 366.439 661.62 366.659 661.95 366.819C662.28 366.979 662.64 367.059 663.06 367.059L663.05 367.049Z" fill="white"/>
<path d="M438.6 388.989V391.629H430.75V380.609H438.46V383.249H433.77V384.799H437.78V387.249H433.77V388.989H438.6Z" fill="white"/>
<path d="M452.25 380.609H455.63L459.14 391.629H456.07L455.4 389.469H452.46L451.81 391.629H448.73L452.25 380.609ZM454.92 387.459L453.94 383.579L452.92 387.459H454.92Z" fill="white"/>
<path d="M469.84 384.21C469.84 384.21 469.73 384.15 469.66 384.1C469.58 384.05 469.43 383.97 469.2 383.86C468.97 383.75 468.74 383.64 468.52 383.55C468.3 383.46 468.04 383.38 467.74 383.31C467.44 383.24 467.17 383.2 466.93 383.2C466.34 383.2 466.04 383.38 466.04 383.75C466.04 383.83 466.05 383.9 466.08 383.97C466.11 384.04 466.16 384.1 466.23 384.15C466.3 384.21 466.37 384.25 466.44 384.29C466.51 384.33 466.61 384.38 466.75 384.43C466.89 384.48 467.01 384.52 467.11 384.55C467.21 384.58 467.36 384.63 467.57 384.69C467.78 384.75 467.95 384.8 468.08 384.85C468.52 384.99 468.9 385.12 469.21 385.25C469.52 385.38 469.82 385.54 470.12 385.73C470.41 385.92 470.65 386.13 470.82 386.36C471 386.59 471.14 386.86 471.24 387.18C471.34 387.5 471.4 387.86 471.4 388.27C471.4 388.78 471.32 389.24 471.16 389.65C471 390.06 470.78 390.39 470.52 390.65C470.25 390.91 469.94 391.13 469.57 391.3C469.2 391.47 468.82 391.59 468.44 391.66C468.05 391.73 467.65 391.77 467.22 391.77C466.43 391.77 465.6 391.65 464.73 391.42C463.86 391.19 463.1 390.87 462.43 390.48L463.73 387.83C463.78 387.87 463.85 387.91 463.94 387.96C464.03 388.01 464.21 388.11 464.49 388.25C464.77 388.39 465.04 388.51 465.3 388.62C465.56 388.73 465.88 388.82 466.25 388.91C466.62 389 466.96 389.04 467.27 389.04C467.86 389.04 468.15 388.88 468.15 388.55C468.15 388.43 468.11 388.32 468.04 388.23C467.96 388.14 467.84 388.05 467.66 387.97C467.48 387.89 467.31 387.83 467.15 387.77C466.99 387.72 466.75 387.65 466.45 387.56C466.15 387.47 465.9 387.39 465.7 387.33C464.71 387 464 386.6 463.56 386.13C463.12 385.66 462.9 385.03 462.9 384.24C462.9 383.65 463.01 383.11 463.24 382.63C463.46 382.15 463.77 381.76 464.15 381.46C464.53 381.16 464.97 380.92 465.46 380.76C465.95 380.6 466.47 380.52 467.02 380.52C468.2 380.52 469.57 380.92 471.15 381.71L469.85 384.21H469.84Z" fill="white"/>
<path d="M482.51 384.21C482.51 384.21 482.4 384.15 482.33 384.1C482.25 384.05 482.1 383.97 481.87 383.86C481.64 383.75 481.41 383.64 481.19 383.55C480.97 383.46 480.71 383.38 480.41 383.31C480.11 383.24 479.84 383.2 479.6 383.2C479.01 383.2 478.71 383.38 478.71 383.75C478.71 383.83 478.72 383.9 478.75 383.97C478.78 384.04 478.83 384.1 478.9 384.15C478.97 384.21 479.04 384.25 479.11 384.29C479.18 384.33 479.28 384.38 479.42 384.43C479.56 384.48 479.68 384.52 479.78 384.55C479.88 384.58 480.03 384.63 480.24 384.69C480.45 384.75 480.62 384.8 480.75 384.85C481.19 384.99 481.57 385.12 481.88 385.25C482.19 385.38 482.49 385.54 482.79 385.73C483.08 385.92 483.32 386.13 483.49 386.36C483.67 386.59 483.81 386.86 483.91 387.18C484.01 387.5 484.07 387.86 484.07 388.27C484.07 388.78 483.99 389.24 483.83 389.65C483.67 390.06 483.45 390.39 483.19 390.65C482.92 390.91 482.61 391.13 482.24 391.3C481.87 391.47 481.49 391.59 481.11 391.66C480.72 391.73 480.32 391.77 479.89 391.77C479.1 391.77 478.27 391.65 477.4 391.42C476.53 391.19 475.77 390.87 475.1 390.48L476.4 387.83C476.45 387.87 476.52 387.91 476.61 387.96C476.7 388.01 476.88 388.11 477.16 388.25C477.44 388.39 477.71 388.51 477.97 388.62C478.23 388.73 478.55 388.82 478.92 388.91C479.29 389 479.63 389.04 479.94 389.04C480.53 389.04 480.82 388.88 480.82 388.55C480.82 388.43 480.78 388.32 480.71 388.23C480.63 388.14 480.51 388.05 480.33 387.97C480.15 387.89 479.98 387.83 479.82 387.77C479.66 387.72 479.42 387.65 479.12 387.56C478.82 387.47 478.57 387.39 478.37 387.33C477.38 387 476.67 386.6 476.23 386.13C475.79 385.66 475.57 385.03 475.57 384.24C475.57 383.65 475.68 383.11 475.91 382.63C476.13 382.15 476.44 381.76 476.82 381.46C477.2 381.16 477.64 380.92 478.13 380.76C478.62 380.6 479.14 380.52 479.69 380.52C480.87 380.52 482.24 380.92 483.82 381.71L482.52 384.21H482.51Z" fill="white"/>
<path d="M488.51 391.629V380.609H491.53V391.629H488.51Z" fill="white"/>
<path d="M503.21 384.21C503.21 384.21 503.1 384.15 503.03 384.1C502.95 384.05 502.8 383.97 502.57 383.86C502.34 383.75 502.11 383.64 501.89 383.55C501.67 383.46 501.41 383.38 501.11 383.31C500.81 383.24 500.54 383.2 500.3 383.2C499.71 383.2 499.41 383.38 499.41 383.75C499.41 383.83 499.42 383.9 499.45 383.97C499.48 384.04 499.53 384.1 499.6 384.15C499.67 384.21 499.74 384.25 499.81 384.29C499.88 384.33 499.98 384.38 500.12 384.43C500.26 384.48 500.38 384.52 500.48 384.55C500.58 384.58 500.73 384.63 500.94 384.69C501.15 384.75 501.32 384.8 501.45 384.85C501.89 384.99 502.27 385.12 502.58 385.25C502.89 385.38 503.19 385.54 503.49 385.73C503.78 385.92 504.02 386.13 504.19 386.36C504.37 386.59 504.51 386.86 504.61 387.18C504.71 387.5 504.77 387.86 504.77 388.27C504.77 388.78 504.69 389.24 504.53 389.65C504.37 390.06 504.15 390.39 503.89 390.65C503.62 390.91 503.31 391.13 502.94 391.3C502.57 391.47 502.19 391.59 501.81 391.66C501.42 391.73 501.02 391.77 500.59 391.77C499.8 391.77 498.97 391.65 498.1 391.42C497.23 391.19 496.47 390.87 495.8 390.48L497.1 387.83C497.15 387.87 497.22 387.91 497.31 387.96C497.4 388.01 497.58 388.11 497.86 388.25C498.14 388.39 498.41 388.51 498.67 388.62C498.93 388.73 499.25 388.82 499.62 388.91C499.99 389 500.33 389.04 500.64 389.04C501.23 389.04 501.52 388.88 501.52 388.55C501.52 388.43 501.48 388.32 501.41 388.23C501.33 388.14 501.21 388.05 501.03 387.97C500.85 387.89 500.68 387.83 500.52 387.77C500.36 387.72 500.12 387.65 499.82 387.56C499.52 387.47 499.27 387.39 499.07 387.33C498.08 387 497.37 386.6 496.93 386.13C496.49 385.66 496.27 385.03 496.27 384.24C496.27 383.65 496.38 383.11 496.61 382.63C496.83 382.15 497.14 381.76 497.52 381.46C497.9 381.16 498.34 380.92 498.83 380.76C499.32 380.6 499.84 380.52 500.39 380.52C501.57 380.52 502.94 380.92 504.52 381.71L503.22 384.21H503.21Z" fill="white"/>
<path d="M517.78 383.249H514.62V391.629H511.59V383.249H508.41V380.609H517.78V383.249Z" fill="white"/>
<path d="M529.84 388.989V391.629H521.99V380.609H529.7V383.249H525.01V384.799H529.02V387.249H525.01V388.989H529.84ZM523.13 379.229L524.89 377.439H527L528.76 379.229L527.27 379.879L525.95 378.899L524.63 379.879L523.14 379.229H523.13Z" fill="white"/>
<path d="M537.37 386.209V391.629H534.35V380.609H536.71L541.14 386.209V380.609H544.16V391.629H541.76L537.38 386.209H537.37Z" fill="white"/>
<path d="M554.18 380.549C555.22 380.549 556.13 380.769 556.92 381.199C557.71 381.629 558.3 382.219 558.69 382.949L556.38 384.589C556.28 384.329 556.14 384.109 555.97 383.929C555.8 383.749 555.61 383.599 555.39 383.509C555.17 383.419 554.97 383.339 554.76 383.299C554.55 383.259 554.33 383.239 554.11 383.239C553.7 383.239 553.32 383.319 553 383.489C552.67 383.659 552.41 383.879 552.22 384.159C552.03 384.439 551.88 384.749 551.78 385.079C551.68 385.409 551.63 385.759 551.63 386.119C551.63 386.919 551.86 387.609 552.32 388.179C552.78 388.749 553.39 389.039 554.15 389.039C554.45 389.039 554.73 388.999 555.01 388.919C555.29 388.839 555.54 388.689 555.79 388.479C556.04 388.269 556.22 388.009 556.34 387.699L558.81 389.169C558.6 389.689 558.24 390.149 557.72 390.549C557.2 390.949 556.63 391.249 556 391.439C555.37 391.629 554.73 391.729 554.09 391.729C553.3 391.729 552.56 391.569 551.86 391.239C551.16 390.909 550.57 390.479 550.09 389.949C549.61 389.419 549.24 388.809 548.96 388.119C548.68 387.439 548.55 386.739 548.55 386.039C548.55 385.339 548.68 384.699 548.94 384.049C549.2 383.399 549.56 382.819 550.03 382.299C550.5 381.779 551.09 381.359 551.81 381.039C552.53 380.719 553.32 380.559 554.17 380.559L554.18 380.549Z" fill="white"/>
<path d="M562.98 391.629V380.609H566V391.629H562.98Z" fill="white"/>
<path d="M573.55 380.609H576.93L580.44 391.629H577.37L576.7 389.469H573.76L573.11 391.629H570.03L573.55 380.609ZM576.22 387.459L575.24 383.579L574.22 387.459H576.22Z" fill="white"/>
<path d="M597.72 384.21C597.72 384.21 597.61 384.15 597.54 384.1C597.46 384.05 597.31 383.97 597.08 383.86C596.85 383.75 596.62 383.64 596.4 383.55C596.18 383.46 595.92 383.38 595.62 383.31C595.32 383.24 595.05 383.2 594.81 383.2C594.22 383.2 593.92 383.38 593.92 383.75C593.92 383.83 593.93 383.9 593.96 383.97C593.99 384.04 594.04 384.1 594.11 384.15C594.18 384.21 594.25 384.25 594.32 384.29C594.39 384.33 594.49 384.38 594.63 384.43C594.77 384.48 594.89 384.52 594.99 384.55C595.09 384.58 595.24 384.63 595.45 384.69C595.66 384.75 595.83 384.8 595.96 384.85C596.4 384.99 596.78 385.12 597.09 385.25C597.4 385.38 597.7 385.54 598 385.73C598.29 385.92 598.53 386.13 598.7 386.36C598.88 386.59 599.02 386.86 599.12 387.18C599.22 387.5 599.28 387.86 599.28 388.27C599.28 388.78 599.2 389.24 599.04 389.65C598.88 390.06 598.66 390.39 598.4 390.65C598.13 390.91 597.82 391.13 597.45 391.3C597.08 391.47 596.7 391.59 596.32 391.66C595.93 391.73 595.53 391.77 595.1 391.77C594.31 391.77 593.48 391.65 592.61 391.42C591.74 391.19 590.98 390.87 590.31 390.48L591.61 387.83C591.66 387.87 591.73 387.91 591.82 387.96C591.91 388.01 592.09 388.11 592.37 388.25C592.65 388.39 592.92 388.51 593.18 388.62C593.44 388.73 593.76 388.82 594.13 388.91C594.5 389 594.84 389.04 595.15 389.04C595.74 389.04 596.03 388.88 596.03 388.55C596.03 388.43 595.99 388.32 595.92 388.23C595.84 388.14 595.72 388.05 595.54 387.97C595.36 387.89 595.19 387.83 595.03 387.77C594.87 387.72 594.63 387.65 594.33 387.56C594.03 387.47 593.78 387.39 593.58 387.33C592.59 387 591.88 386.6 591.44 386.13C591 385.66 590.78 385.03 590.78 384.24C590.78 383.65 590.89 383.11 591.12 382.63C591.34 382.15 591.65 381.76 592.03 381.46C592.41 381.16 592.85 380.92 593.34 380.76C593.83 380.6 594.35 380.52 594.9 380.52C596.08 380.52 597.45 380.92 599.03 381.71L597.73 384.21H597.72Z" fill="white"/>
<path d="M603.11 386.109C603.11 385.389 603.25 384.689 603.53 384.009C603.81 383.339 604.2 382.739 604.69 382.229C605.18 381.719 605.78 381.309 606.48 381.009C607.18 380.699 607.94 380.549 608.73 380.549C609.52 380.549 610.3 380.709 611 381.029C611.71 381.349 612.3 381.779 612.77 382.299C613.24 382.829 613.61 383.429 613.88 384.099C614.15 384.769 614.29 385.459 614.29 386.159C614.29 386.859 614.15 387.569 613.87 388.239C613.59 388.909 613.21 389.499 612.72 390.019C612.23 390.529 611.64 390.939 610.93 391.249C610.22 391.559 609.47 391.709 608.67 391.709C607.87 391.709 607.11 391.549 606.4 391.229C605.69 390.909 605.11 390.489 604.63 389.959C604.16 389.429 603.78 388.829 603.51 388.159C603.24 387.489 603.1 386.789 603.1 386.089L603.11 386.109ZM608.71 389.039C609.13 389.039 609.5 388.959 609.84 388.789C610.17 388.619 610.43 388.389 610.63 388.109C610.83 387.829 610.98 387.519 611.08 387.179C611.18 386.839 611.23 386.489 611.23 386.109C611.23 385.589 611.14 385.119 610.96 384.699C610.78 384.279 610.5 383.929 610.1 383.649C609.71 383.369 609.24 383.239 608.69 383.239C608.27 383.239 607.9 383.319 607.57 383.489C607.24 383.659 606.98 383.879 606.78 384.159C606.58 384.439 606.43 384.749 606.33 385.079C606.23 385.419 606.18 385.769 606.18 386.139C606.18 386.509 606.23 386.879 606.34 387.219C606.44 387.559 606.6 387.869 606.8 388.139C607 388.419 607.27 388.629 607.6 388.799C607.93 388.969 608.3 389.039 608.71 389.039Z" fill="white"/>
<path d="M623.72 380.549C624.76 380.549 625.67 380.769 626.46 381.199C627.25 381.629 627.84 382.219 628.23 382.949L625.92 384.589C625.82 384.329 625.68 384.109 625.51 383.929C625.34 383.749 625.15 383.599 624.93 383.509C624.71 383.419 624.51 383.339 624.3 383.299C624.09 383.259 623.87 383.239 623.65 383.239C623.24 383.239 622.86 383.319 622.54 383.489C622.21 383.659 621.95 383.879 621.76 384.159C621.57 384.439 621.42 384.749 621.32 385.079C621.22 385.409 621.17 385.759 621.17 386.119C621.17 386.919 621.4 387.609 621.86 388.179C622.32 388.749 622.93 389.039 623.69 389.039C623.99 389.039 624.27 388.999 624.55 388.919C624.83 388.839 625.08 388.689 625.33 388.479C625.58 388.269 625.76 388.009 625.88 387.699L628.35 389.169C628.14 389.689 627.78 390.149 627.26 390.549C626.74 390.949 626.17 391.249 625.54 391.439C624.91 391.629 624.27 391.729 623.63 391.729C622.84 391.729 622.1 391.569 621.4 391.239C620.7 390.909 620.11 390.479 619.63 389.949C619.15 389.419 618.78 388.809 618.5 388.119C618.22 387.439 618.09 386.739 618.09 386.039C618.09 385.339 618.22 384.699 618.48 384.049C618.74 383.399 619.1 382.819 619.57 382.299C620.04 381.779 620.63 381.359 621.35 381.039C622.07 380.719 622.86 380.559 623.71 380.559L623.72 380.549Z" fill="white"/>
<path d="M632.52 391.629V380.609H635.54V391.629H632.52Z" fill="white"/>
<path d="M643.09 380.609H646.47L649.98 391.629H646.91L646.24 389.469H643.3L642.65 391.629H639.57L643.09 380.609ZM645.75 387.459L644.77 383.579L643.75 387.459H645.75Z" fill="white"/>
<path d="M653.99 391.629V380.609H657.01V388.989H662.01V391.629H653.99Z" fill="white"/>
<path d="M666.33 394.07L666.89 391.63H666V388.77H668.44V391.63L667.6 394.07H666.33Z" fill="white"/>
<path d="M384.63 413.561V402.541H392.19V405.181H387.66V407.011H391.36V409.461H387.66V413.561H384.64H384.63Z" fill="white"/>
<path d="M399.01 402.541H402.39L405.9 413.561H402.83L402.16 411.401H399.22L398.57 413.561H395.49L399.01 402.541ZM401.68 409.381L400.7 405.501L399.68 409.381H401.68Z" fill="white"/>
<path d="M418.26 413.561V407.761L416.41 411.841H414.8L412.95 407.761V413.561H409.93V402.541H413.23L415.6 407.721L417.99 402.541H421.28V413.561H418.26Z" fill="white"/>
<path d="M426.27 413.561V402.541H429.29V413.561H426.27ZM428.7 402.071L426.84 401.581L427.61 399.371H430.23L428.69 402.071H428.7Z" fill="white"/>
<path d="M434.29 413.561V402.541H437.31V410.921H442.31V413.561H434.29Z" fill="white"/>
<path d="M446.48 413.561V402.541H449.5V413.561H446.48Z" fill="white"/>
<path d="M457.04 402.541H460.42L463.93 413.561H460.86L460.19 411.401H457.25L456.6 413.561H453.52L457.04 402.541ZM459.71 409.381L458.73 405.501L457.71 409.381H459.71Z" fill="white"/>
<path d="M482.39 410.921V413.561H474.54V402.541H482.25V405.181H477.56V406.731H481.57V409.181H477.56V410.921H482.39Z" fill="white"/>
<path d="M498.52 402.48C499.56 402.48 500.47 402.7 501.26 403.13C502.05 403.56 502.64 404.15 503.03 404.88L500.72 406.52C500.62 406.26 500.48 406.04 500.31 405.86C500.14 405.68 499.95 405.53 499.73 405.44C499.51 405.35 499.31 405.27 499.1 405.23C498.89 405.19 498.67 405.17 498.45 405.17C498.04 405.17 497.66 405.25 497.34 405.42C497.01 405.59 496.75 405.81 496.56 406.09C496.37 406.37 496.22 406.68 496.12 407.01C496.02 407.34 495.97 407.69 495.97 408.05C495.97 408.85 496.2 409.54 496.66 410.11C497.12 410.68 497.73 410.97 498.49 410.97C498.79 410.97 499.07 410.93 499.35 410.85C499.63 410.77 499.88 410.62 500.13 410.41C500.38 410.2 500.56 409.94 500.68 409.63L503.15 411.1C502.94 411.62 502.58 412.08 502.06 412.48C501.54 412.88 500.97 413.18 500.34 413.37C499.71 413.56 499.07 413.66 498.43 413.66C497.64 413.66 496.9 413.5 496.2 413.17C495.5 412.84 494.91 412.41 494.43 411.88C493.95 411.35 493.58 410.74 493.3 410.05C493.02 409.37 492.89 408.67 492.89 407.97C492.89 407.27 493.02 406.63 493.28 405.98C493.54 405.33 493.9 404.75 494.37 404.23C494.84 403.71 495.43 403.29 496.15 402.97C496.87 402.65 497.66 402.49 498.51 402.49L498.52 402.48Z" fill="white"/>
<path d="M506.71 408.031C506.71 407.311 506.85 406.611 507.13 405.931C507.41 405.261 507.8 404.661 508.29 404.151C508.78 403.641 509.38 403.231 510.08 402.931C510.78 402.621 511.54 402.471 512.33 402.471C513.12 402.471 513.9 402.631 514.6 402.951C515.31 403.271 515.9 403.701 516.37 404.221C516.84 404.751 517.21 405.351 517.48 406.021C517.75 406.691 517.89 407.381 517.89 408.081C517.89 408.781 517.75 409.491 517.47 410.161C517.19 410.831 516.81 411.421 516.32 411.941C515.83 412.451 515.24 412.861 514.53 413.171C513.82 413.481 513.07 413.631 512.27 413.631C511.47 413.631 510.71 413.471 510 413.151C509.29 412.831 508.71 412.411 508.23 411.881C507.76 411.351 507.38 410.751 507.11 410.081C506.84 409.411 506.7 408.711 506.7 408.011L506.71 408.031ZM512.31 410.961C512.73 410.961 513.1 410.881 513.44 410.711C513.77 410.541 514.03 410.311 514.23 410.031C514.43 409.751 514.58 409.441 514.68 409.101C514.78 408.761 514.83 408.411 514.83 408.031C514.83 407.511 514.74 407.041 514.56 406.621C514.38 406.201 514.1 405.851 513.7 405.571C513.31 405.291 512.84 405.161 512.29 405.161C511.87 405.161 511.5 405.241 511.17 405.411C510.84 405.581 510.58 405.801 510.38 406.081C510.18 406.361 510.03 406.671 509.93 407.001C509.83 407.341 509.78 407.691 509.78 408.061C509.78 408.431 509.83 408.801 509.94 409.141C510.04 409.481 510.2 409.791 510.4 410.061C510.6 410.341 510.87 410.551 511.2 410.721C511.53 410.891 511.9 410.961 512.31 410.961Z" fill="white"/>
<path d="M530.63 413.561V407.761L528.78 411.841H527.17L525.32 407.761V413.561H522.3V402.541H525.6L527.97 407.721L530.36 402.541H533.65V413.561H530.63Z" fill="white"/>
<path d="M544.06 413.561H538.64V402.541H545.04C545.54 402.541 545.98 402.681 546.37 402.961C546.76 403.241 547.06 403.591 547.25 404.021C547.44 404.451 547.55 404.891 547.55 405.371C547.55 405.911 547.41 406.411 547.14 406.881C546.87 407.351 546.48 407.691 545.97 407.911C546.62 408.101 547.13 408.431 547.48 408.901C547.84 409.371 548.01 409.981 548.01 410.731C548.01 411.211 547.91 411.631 547.7 412.001C547.5 412.371 547.21 412.661 546.84 412.891C546.47 413.111 546.06 413.281 545.59 413.391C545.12 413.501 544.61 413.561 544.05 413.561H544.06ZM541.66 405.111V406.801H543.73C543.97 406.801 544.16 406.741 544.32 406.611C544.48 406.481 544.55 406.261 544.55 405.951C544.55 405.671 544.48 405.461 544.35 405.321C544.21 405.181 544.04 405.121 543.83 405.121H541.67L541.66 405.111ZM544.17 409.161H541.67V411.011H544.06C544.32 411.011 544.53 410.931 544.69 410.771C544.85 410.611 544.94 410.391 544.94 410.111C544.94 409.831 544.87 409.611 544.72 409.431C544.57 409.251 544.39 409.161 544.17 409.161Z" fill="white"/>
<path d="M555 402.541H558.38L561.89 413.561H558.82L558.15 411.401H555.21L554.56 413.561H551.48L555 402.541ZM557.67 409.381L556.69 405.501L555.67 409.381H557.67Z" fill="white"/>
<path d="M574.49 405.171H571.33V413.551H568.3V405.171H565.12V402.531H574.49V405.171Z" fill="white"/>
<path d="M586.54 410.921V413.561H578.69V402.541H586.4V405.181H581.71V406.731H585.72V409.181H581.71V410.921H586.54Z" fill="white"/>
<path d="M600.19 402.541H603.57L607.08 413.561H604.01L603.34 411.401H600.4L599.75 413.561H596.67L600.19 402.541ZM599.55 399.371H602.17L602.94 401.581L601.08 402.071L599.54 399.371H599.55ZM602.85 409.381L601.87 405.501L600.85 409.381H602.85Z" fill="white"/>
<path d="M617.69 413.561V402.541H625.25V405.181H620.72V407.011H624.42V409.461H620.72V413.561H617.7H617.69Z" fill="white"/>
<path d="M628.92 408.031C628.92 407.311 629.06 406.611 629.34 405.931C629.62 405.261 630.01 404.661 630.5 404.151C630.99 403.641 631.59 403.231 632.29 402.931C632.99 402.621 633.75 402.471 634.54 402.471C635.33 402.471 636.11 402.631 636.81 402.951C637.52 403.271 638.11 403.701 638.58 404.221C639.05 404.751 639.42 405.351 639.69 406.021C639.96 406.691 640.1 407.381 640.1 408.081C640.1 408.781 639.96 409.491 639.68 410.161C639.4 410.831 639.02 411.421 638.53 411.941C638.04 412.451 637.45 412.861 636.74 413.171C636.03 413.481 635.28 413.631 634.48 413.631C633.68 413.631 632.92 413.471 632.21 413.151C631.5 412.831 630.92 412.411 630.44 411.881C629.97 411.351 629.59 410.751 629.32 410.081C629.05 409.411 628.91 408.711 628.91 408.011L628.92 408.031ZM634.52 410.961C634.94 410.961 635.31 410.881 635.65 410.711C635.98 410.541 636.24 410.311 636.44 410.031C636.64 409.751 636.79 409.441 636.89 409.101C636.99 408.761 637.04 408.411 637.04 408.031C637.04 407.511 636.95 407.041 636.77 406.621C636.59 406.201 636.31 405.851 635.91 405.571C635.52 405.291 635.05 405.161 634.5 405.161C634.08 405.161 633.71 405.241 633.38 405.411C633.05 405.581 632.79 405.801 632.59 406.081C632.39 406.361 632.24 406.671 632.14 407.001C632.04 407.341 631.99 407.691 631.99 408.061C631.99 408.431 632.04 408.801 632.15 409.141C632.25 409.481 632.41 409.791 632.61 410.061C632.81 410.341 633.08 410.551 633.41 410.721C633.74 410.891 634.11 410.961 634.52 410.961Z" fill="white"/>
<path d="M652.83 413.561V407.761L650.98 411.841H649.37L647.52 407.761V413.561H644.5V402.541H647.8L650.17 407.721L652.56 402.541H655.85V413.561H652.83Z" fill="white"/>
<path d="M668.7 410.921V413.561H660.85V402.541H668.56V405.181H663.87V406.731H667.88V409.181H663.87V410.921H668.7Z" fill="white"/>
<path d="M730.72 419.59C730.72 419.9 730.7 420.19 730.65 420.46C730.61 420.73 730.53 420.99 730.42 421.25C730.31 421.5 730.17 421.72 730.01 421.91C729.84 422.09 729.63 422.24 729.37 422.35C729.11 422.46 728.81 422.52 728.48 422.52C728.15 422.52 727.85 422.47 727.59 422.36C727.33 422.25 727.12 422.11 726.95 421.93C726.78 421.75 726.65 421.53 726.54 421.28C726.43 421.03 726.35 420.76 726.31 420.49C726.26 420.21 726.24 419.92 726.24 419.61V415.47H724.94V419.61C724.94 420.05 724.98 420.46 725.06 420.85C725.14 421.24 725.26 421.61 725.44 421.96C725.62 422.31 725.84 422.62 726.11 422.87C726.38 423.12 726.71 423.32 727.12 423.47C727.52 423.62 727.98 423.69 728.49 423.69C729.1 423.69 729.64 423.58 730.11 423.37C730.57 423.16 730.94 422.86 731.22 422.48C731.5 422.1 731.7 421.67 731.84 421.19C731.98 420.71 732.04 420.18 732.04 419.61V415.47H730.73V419.61L730.72 419.59ZM741.77 421.35L737.12 415.45H736.06V423.61H737.35V417.84L741.93 423.61H743.06V415.46H741.76V421.35H741.77ZM747.23 423.61H748.52V415.45H747.23V423.61ZM755.05 415.45L751.84 423.61H753.22L754.08 421.39H757.24L758.1 423.61H759.46L756.27 415.45H755.05ZM754.3 420.44L755.66 416.86L756.98 420.44H754.3ZM754.35 414.36C754.35 414.36 754.38 414.25 754.42 414.18C754.46 414.11 754.51 414.05 754.59 413.99C754.67 413.94 754.77 413.91 754.89 413.91C755.03 413.91 755.17 413.95 755.32 414.03C755.47 414.11 755.64 414.19 755.82 414.28C756 414.36 756.19 414.4 756.39 414.4C756.59 414.4 756.76 414.36 756.92 414.28C757.08 414.2 757.21 414.1 757.3 413.99C757.39 413.88 757.47 413.76 757.54 413.62C757.61 413.49 757.65 413.38 757.68 413.28C757.7 413.19 757.72 413.12 757.72 413.07H756.99C756.99 413.07 756.99 413.12 756.99 413.15C756.99 413.18 756.97 413.23 756.94 413.29C756.91 413.35 756.88 413.4 756.84 413.45C756.8 413.5 756.73 413.54 756.65 413.58C756.57 413.62 756.48 413.64 756.37 413.64C756.22 413.64 756.06 413.6 755.9 413.51C755.74 413.43 755.58 413.34 755.4 413.26C755.23 413.18 755.04 413.13 754.85 413.13C754.67 413.13 754.5 413.17 754.36 413.24C754.21 413.32 754.09 413.41 754 413.52C753.91 413.63 753.84 413.75 753.77 413.88C753.71 414.01 753.67 414.12 753.64 414.22C753.62 414.32 753.61 414.39 753.61 414.45H754.33C754.33 414.45 754.33 414.39 754.35 414.34M768.74 416.7C768.41 416.31 767.99 415.99 767.5 415.75C767 415.51 766.47 415.39 765.9 415.39C765.33 415.39 764.82 415.5 764.33 415.73C763.84 415.96 763.42 416.26 763.07 416.64C762.72 417.02 762.45 417.46 762.25 417.96C762.05 418.46 761.95 418.98 761.95 419.52C761.95 419.94 762.01 420.35 762.13 420.75C762.25 421.16 762.43 421.53 762.66 421.88C762.89 422.23 763.16 422.54 763.48 422.8C763.79 423.07 764.16 423.27 764.57 423.43C764.98 423.58 765.42 423.66 765.88 423.66C766.43 423.66 766.96 423.55 767.45 423.32C767.94 423.09 768.36 422.79 768.7 422.41C769.04 422.03 769.31 421.59 769.51 421.09C769.71 420.59 769.81 420.07 769.81 419.53C769.81 418.99 769.71 418.51 769.52 418.02C769.33 417.52 769.07 417.08 768.73 416.69M768.31 420.61C768.19 420.96 768.03 421.28 767.81 421.56C767.6 421.84 767.32 422.07 766.99 422.24C766.66 422.41 766.29 422.5 765.89 422.5C765.37 422.5 764.91 422.36 764.5 422.07C764.09 421.79 763.79 421.42 763.58 420.97C763.37 420.52 763.27 420.04 763.27 419.52C763.27 419.15 763.33 418.79 763.45 418.44C763.57 418.09 763.74 417.77 763.96 417.49C764.18 417.21 764.46 416.98 764.79 416.81C765.13 416.64 765.49 416.55 765.89 416.55C766.29 416.55 766.63 416.63 766.96 416.79C767.29 416.95 767.56 417.17 767.78 417.45C768 417.73 768.17 418.04 768.3 418.4C768.43 418.76 768.49 419.13 768.49 419.51C768.49 419.89 768.43 420.24 768.31 420.59M779.9 419.98H783.56V418.91H779.9V416.59H784.13V415.45H778.61V423.61H784.23V422.47H779.9V419.98ZM798.69 419.61C798.98 419.16 799.13 418.66 799.13 418.11C799.13 417.78 799.07 417.46 798.94 417.14C798.81 416.82 798.64 416.54 798.42 416.29C798.2 416.04 797.93 415.84 797.61 415.68C797.29 415.53 796.95 415.45 796.59 415.45H793.02V423.61H794.31V420.77H796.22L798 423.61H799.46L797.53 420.5C798.01 420.35 798.4 420.05 798.69 419.6M796.58 419.63H794.31V416.59H796.5C796.85 416.59 797.15 416.74 797.41 417.04C797.67 417.34 797.8 417.69 797.8 418.11C797.8 418.53 797.68 418.89 797.45 419.19C797.22 419.49 796.92 419.64 796.56 419.64M804.25 419.98H807.91V418.91H804.25V416.59H808.48V415.45H802.96V423.61H808.58V422.47H804.25V419.98ZM817.11 421.94C816.86 422.15 816.6 422.3 816.33 422.38C816.06 422.47 815.79 422.51 815.5 422.51C815 422.51 814.55 422.37 814.14 422.09C813.73 421.81 813.41 421.44 813.19 420.99C812.97 420.53 812.85 420.04 812.85 419.51C812.85 419.22 812.88 418.94 812.95 418.66C813.02 418.38 813.13 418.11 813.27 417.86C813.42 417.61 813.59 417.38 813.79 417.19C813.99 417 814.24 416.85 814.52 416.73C814.81 416.62 815.11 416.56 815.44 416.56C815.65 416.56 815.85 416.58 816.05 416.63C816.25 416.68 816.44 416.74 816.64 416.84C816.84 416.94 817.02 417.07 817.18 417.24C817.35 417.41 817.48 417.62 817.59 417.85L818.6 417.17C818.33 416.63 817.92 416.2 817.37 415.88C816.83 415.56 816.2 415.39 815.48 415.39C814.99 415.39 814.54 415.47 814.11 415.62C813.68 415.78 813.31 415.99 813 416.25C812.69 416.52 812.42 416.82 812.19 417.17C811.96 417.52 811.79 417.88 811.68 418.28C811.57 418.67 811.51 419.07 811.51 419.46C811.51 419.98 811.61 420.49 811.8 420.99C812 421.49 812.26 421.94 812.6 422.34C812.94 422.74 813.35 423.06 813.85 423.3C814.34 423.54 814.87 423.67 815.43 423.67C815.87 423.67 816.31 423.6 816.74 423.46C817.18 423.32 817.58 423.1 817.94 422.8C818.3 422.5 818.57 422.16 818.73 421.77L817.65 421.16C817.51 421.46 817.32 421.72 817.07 421.93M828.44 416.7C828.11 416.31 827.69 415.99 827.2 415.75C826.7 415.51 826.17 415.39 825.6 415.39C825.03 415.39 824.52 415.5 824.03 415.73C823.54 415.96 823.12 416.26 822.77 416.64C822.42 417.02 822.15 417.46 821.95 417.96C821.75 418.46 821.65 418.98 821.65 419.52C821.65 419.94 821.71 420.35 821.83 420.75C821.95 421.16 822.13 421.53 822.36 421.88C822.59 422.23 822.86 422.54 823.18 422.8C823.49 423.07 823.86 423.27 824.27 423.43C824.68 423.58 825.12 423.66 825.58 423.66C826.13 423.66 826.66 423.55 827.15 423.32C827.64 423.09 828.06 422.79 828.4 422.41C828.74 422.03 829.01 421.59 829.21 421.09C829.41 420.59 829.51 420.07 829.51 419.53C829.51 418.99 829.41 418.51 829.22 418.02C829.03 417.52 828.77 417.08 828.43 416.69M828.01 420.61C827.89 420.96 827.73 421.28 827.51 421.56C827.3 421.84 827.02 422.07 826.69 422.24C826.36 422.41 825.99 422.5 825.59 422.5C825.07 422.5 824.61 422.36 824.2 422.07C823.79 421.79 823.49 421.42 823.28 420.97C823.07 420.52 822.97 420.04 822.97 419.52C822.97 419.15 823.03 418.79 823.15 418.44C823.27 418.09 823.44 417.77 823.66 417.49C823.88 417.21 824.16 416.98 824.49 416.81C824.83 416.64 825.19 416.55 825.59 416.55C825.99 416.55 826.33 416.63 826.66 416.79C826.99 416.95 827.26 417.17 827.48 417.45C827.7 417.73 827.87 418.04 828 418.4C828.13 418.76 828.19 419.13 828.19 419.51C828.19 419.89 828.13 420.24 828.01 420.59M838.87 421.35L834.22 415.45H833.16V423.61H834.45V417.84L839.03 423.61H840.16V415.46H838.86V421.35H838.87ZM849.62 419.99C849.48 419.83 849.29 419.69 849.05 419.56C848.81 419.43 848.57 419.32 848.31 419.24C848.05 419.16 847.75 419.07 847.39 418.98C847.16 418.92 846.98 418.88 846.84 418.84C846.7 418.8 846.55 418.76 846.39 418.71C846.23 418.66 846.1 418.61 846.01 418.57C845.92 418.52 845.82 418.47 845.73 418.41C845.64 418.35 845.57 418.28 845.52 418.21C845.47 418.14 845.43 418.06 845.4 417.97C845.37 417.88 845.35 417.78 845.35 417.67C845.35 417.31 845.48 417.03 845.75 416.84C846.01 416.64 846.41 416.55 846.95 416.55C847.4 416.55 847.84 416.64 848.26 416.82C848.68 417 848.99 417.19 849.16 417.38L849.75 416.32C848.91 415.71 847.99 415.4 846.98 415.4C846.55 415.4 846.16 415.45 845.8 415.56C845.44 415.67 845.12 415.83 844.86 416.03C844.59 416.24 844.38 416.5 844.23 416.81C844.08 417.13 844 417.48 844 417.87C844 418.18 844.05 418.46 844.15 418.69C844.25 418.92 844.4 419.12 844.62 419.29C844.84 419.46 845.09 419.6 845.37 419.72C845.65 419.84 846.01 419.95 846.44 420.06C846.72 420.13 846.94 420.19 847.1 420.23C847.26 420.28 847.44 420.33 847.64 420.4C847.84 420.47 847.99 420.53 848.1 420.6C848.21 420.66 848.31 420.74 848.41 420.83C848.51 420.92 848.58 421.02 848.62 421.12C848.66 421.23 848.68 421.35 848.68 421.48C848.68 421.82 848.54 422.08 848.27 422.25C847.99 422.43 847.6 422.52 847.09 422.52C846.52 422.52 845.97 422.41 845.43 422.18C844.89 421.95 844.51 421.72 844.27 421.48L843.68 422.59C844.15 422.95 844.67 423.22 845.25 423.41C845.83 423.6 846.44 423.69 847.06 423.69C847.4 423.69 847.71 423.66 848.01 423.61C848.3 423.56 848.58 423.47 848.83 423.35C849.09 423.23 849.3 423.08 849.48 422.9C849.66 422.72 849.8 422.5 849.91 422.24C850.01 421.98 850.07 421.68 850.07 421.36C850.07 421.07 850.03 420.81 849.94 420.58C849.86 420.35 849.74 420.16 849.6 420M852.94 416.59H855.68V423.61H856.99V416.59H859.71V415.45H852.94V416.59ZM868.78 419.61C869.07 419.16 869.22 418.66 869.22 418.11C869.22 417.78 869.16 417.46 869.03 417.14C868.9 416.82 868.73 416.54 868.51 416.29C868.29 416.04 868.02 415.84 867.7 415.68C867.38 415.53 867.04 415.45 866.68 415.45H863.11V423.61H864.4V420.77H866.31L868.09 423.61H869.54L867.61 420.5C868.09 420.35 868.48 420.05 868.77 419.6M866.67 419.63H864.4V416.59H866.59C866.94 416.59 867.24 416.74 867.5 417.04C867.76 417.34 867.89 417.69 867.89 418.11C867.89 418.53 867.77 418.89 867.54 419.19C867.31 419.49 867.01 419.64 866.65 419.64M878.7 419.59C878.7 419.9 878.68 420.19 878.63 420.46C878.59 420.73 878.51 420.99 878.4 421.25C878.29 421.5 878.15 421.72 877.99 421.91C877.82 422.09 877.61 422.24 877.35 422.35C877.09 422.46 876.79 422.52 876.46 422.52C876.13 422.52 875.83 422.47 875.57 422.36C875.31 422.25 875.1 422.11 874.93 421.93C874.76 421.75 874.63 421.53 874.52 421.28C874.41 421.03 874.33 420.76 874.29 420.49C874.24 420.21 874.22 419.92 874.22 419.61V415.47H872.92V419.61C872.92 420.05 872.96 420.46 873.04 420.85C873.12 421.24 873.24 421.61 873.42 421.96C873.6 422.31 873.82 422.62 874.09 422.87C874.36 423.12 874.69 423.32 875.1 423.47C875.5 423.62 875.96 423.69 876.47 423.69C877.08 423.69 877.62 423.58 878.09 423.37C878.55 423.16 878.92 422.86 879.2 422.48C879.48 422.1 879.68 421.67 879.82 421.19C879.96 420.71 880.02 420.18 880.02 419.61V415.47H878.71V419.61L878.7 419.59ZM889.08 421.94C888.83 422.15 888.57 422.3 888.3 422.38C888.03 422.47 887.76 422.51 887.47 422.51C886.97 422.51 886.52 422.37 886.11 422.09C885.7 421.81 885.38 421.44 885.16 420.99C884.94 420.53 884.82 420.04 884.82 419.51C884.82 419.22 884.85 418.94 884.92 418.66C884.99 418.38 885.1 418.11 885.24 417.86C885.39 417.61 885.56 417.38 885.76 417.19C885.96 417 886.21 416.85 886.49 416.73C886.78 416.62 887.08 416.56 887.41 416.56C887.62 416.56 887.82 416.58 888.02 416.63C888.22 416.68 888.41 416.74 888.61 416.84C888.81 416.94 888.99 417.07 889.15 417.24C889.32 417.41 889.45 417.62 889.56 417.85L890.58 417.17C890.31 416.63 889.9 416.2 889.35 415.88C888.81 415.56 888.18 415.39 887.46 415.39C886.97 415.39 886.52 415.47 886.09 415.62C885.66 415.78 885.29 415.99 884.98 416.25C884.67 416.52 884.4 416.82 884.17 417.17C883.94 417.52 883.77 417.88 883.66 418.28C883.55 418.67 883.49 419.07 883.49 419.46C883.49 419.95 883.58 420.44 883.76 420.93C883.94 421.41 884.18 421.85 884.5 422.24C884.81 422.63 885.2 422.95 885.65 423.21C886.11 423.47 886.6 423.62 887.12 423.66C887.53 423.93 887.74 424.21 887.74 424.51C887.74 424.69 887.68 424.82 887.56 424.91C887.44 425 887.27 425.05 887.05 425.05C886.8 425.05 886.53 424.97 886.23 424.81L885.91 425.49C886.34 425.71 886.8 425.82 887.27 425.82C887.67 425.82 887.98 425.72 888.2 425.53C888.42 425.34 888.53 425.07 888.53 424.74C888.53 424.33 888.33 423.96 887.94 423.63C888.55 423.54 889.11 423.34 889.63 423.01C890.14 422.68 890.51 422.27 890.72 421.77L889.64 421.16C889.5 421.46 889.31 421.72 889.06 421.93M896.49 415.45L893.28 423.61H894.66L895.52 421.39H898.68L899.54 423.61H900.9L897.71 415.45H896.49ZM895.74 420.44L897.1 416.86L898.42 420.44H895.74ZM895.8 414.36C895.8 414.36 895.83 414.25 895.87 414.18C895.9 414.11 895.96 414.05 896.05 413.99C896.13 413.94 896.23 413.91 896.35 413.91C896.49 413.91 896.63 413.95 896.78 414.03C896.93 414.11 897.1 414.19 897.28 414.28C897.46 414.36 897.65 414.4 897.85 414.4C898.05 414.4 898.22 414.36 898.38 414.28C898.54 414.2 898.67 414.1 898.76 413.99C898.85 413.88 898.93 413.76 899 413.62C899.07 413.49 899.11 413.38 899.14 413.28C899.16 413.19 899.18 413.12 899.18 413.07H898.45C898.45 413.07 898.45 413.12 898.45 413.15C898.45 413.18 898.43 413.23 898.4 413.29C898.37 413.35 898.34 413.4 898.3 413.45C898.26 413.5 898.19 413.54 898.11 413.58C898.03 413.62 897.94 413.64 897.83 413.64C897.68 413.64 897.52 413.6 897.36 413.51C897.2 413.43 897.04 413.34 896.86 413.26C896.69 413.18 896.5 413.13 896.31 413.13C896.13 413.13 895.96 413.17 895.82 413.24C895.67 413.32 895.55 413.41 895.46 413.52C895.37 413.63 895.3 413.75 895.23 413.88C895.17 414.01 895.13 414.12 895.1 414.22C895.08 414.32 895.07 414.39 895.07 414.45H895.79C895.79 414.45 895.79 414.39 895.81 414.34M910.97 418.03C910.78 417.53 910.52 417.09 910.18 416.7C909.85 416.31 909.43 415.99 908.94 415.75C908.44 415.51 907.91 415.39 907.34 415.39C906.77 415.39 906.26 415.5 905.77 415.73C905.28 415.96 904.86 416.26 904.51 416.64C904.16 417.02 903.89 417.46 903.69 417.96C903.49 418.46 903.39 418.98 903.39 419.52C903.39 419.94 903.45 420.35 903.57 420.75C903.69 421.16 903.87 421.53 904.1 421.88C904.33 422.23 904.6 422.54 904.92 422.8C905.23 423.07 905.6 423.27 906.01 423.43C906.42 423.58 906.86 423.66 907.32 423.66C907.87 423.66 908.39 423.55 908.89 423.32C909.38 423.09 909.8 422.79 910.14 422.41C910.48 422.03 910.75 421.59 910.96 421.09C911.16 420.59 911.26 420.07 911.26 419.53C911.26 418.99 911.16 418.51 910.97 418.02M909.76 420.61C909.64 420.96 909.48 421.28 909.26 421.56C909.05 421.84 908.77 422.07 908.44 422.24C908.11 422.41 907.74 422.5 907.34 422.5C906.82 422.5 906.36 422.36 905.95 422.07C905.54 421.79 905.24 421.42 905.03 420.97C904.82 420.52 904.72 420.04 904.72 419.52C904.72 419.15 904.78 418.79 904.9 418.44C905.02 418.09 905.19 417.77 905.41 417.49C905.63 417.21 905.91 416.98 906.24 416.81C906.58 416.64 906.94 416.55 907.34 416.55C907.74 416.55 908.08 416.63 908.41 416.79C908.74 416.95 909.01 417.17 909.23 417.45C909.45 417.73 909.62 418.04 909.75 418.4C909.88 418.76 909.94 419.13 909.94 419.51C909.94 419.89 909.88 420.24 909.76 420.59" fill="white"/>
<path d="M729.51 333.09H732.32C732.07 333.76 731.37 334.31 730.26 334.31C728.68 334.31 727.59 333.18 727.59 331.62C727.59 330.06 728.68 328.85 730.22 328.85C731.2 328.85 732.05 329.32 732.51 330.15L734.91 328.73C733.94 327.12 732.18 326.15 730.26 326.15C727.22 326.15 724.79 328.57 724.79 331.61C724.79 334.65 727.2 337.04 730.27 337.04C733.16 337.04 735.34 334.93 735.34 331.69V330.88H729.52V333.1L729.51 333.09ZM744.68 326.15C741.62 326.15 739.2 328.57 739.2 331.59C739.2 334.61 741.63 337.03 744.68 337.03C747.73 337.03 750.13 334.61 750.13 331.59C750.13 328.57 747.7 326.15 744.68 326.15ZM744.68 334.16C743.28 334.16 742.21 333.06 742.21 331.59C742.21 330.12 743.28 329.02 744.68 329.02C746.08 329.02 747.11 330.12 747.11 331.59C747.11 333.06 746.05 334.16 744.68 334.16ZM758.24 332.8L755.81 326.39H752.79L756.83 336.79H759.64L763.72 326.39H760.69L758.23 332.8H758.24ZM767.39 336.79H774.87V334.25H770.22V332.71H773.29V330.48H770.22V328.94H774.87V326.4H767.39V336.8V336.79ZM787.87 329.77C787.87 327.84 786.3 326.39 784.26 326.39H779.21V336.79H781.99V333.2H783.17L785.24 336.79H788.36L786.04 332.78C787.15 332.2 787.87 331.1 787.87 329.77ZM783.96 330.83H781.99V328.89H783.96C784.64 328.89 785.03 329.35 785.03 329.87C785.03 330.39 784.62 330.83 783.96 330.83ZM798.82 331.88L794.6 326.39H792.24V336.79H795.02V331.32L799.23 336.79H801.61V326.39H798.83V331.88H798.82ZM811.13 326.15C808.07 326.15 805.65 328.57 805.65 331.59C805.65 334.61 808.08 337.03 811.13 337.03C814.18 337.03 816.58 334.61 816.58 331.59C816.58 328.57 814.15 326.15 811.13 326.15ZM811.13 334.16C809.73 334.16 808.66 333.06 808.66 331.59C808.66 330.12 809.73 329.02 811.13 329.02C812.53 329.02 813.56 330.12 813.56 331.59C813.56 333.06 812.5 334.16 811.13 334.16ZM827.55 336.79H830.38V333H833.45V330.65H830.38V328.89H835.03V326.4H827.55V336.8V336.79ZM839.25 336.79H846.73V334.25H842.08V332.71H845.15V330.48H842.08V328.94H846.73V326.4H839.25V336.8V336.79ZM855.32 326.39H851.07V336.79H855.32C858.5 336.79 860.89 334.57 860.89 331.59C860.89 328.61 858.49 326.39 855.32 326.39ZM855.19 334.08H853.92V329.1H855.19C856.85 329.1 857.98 330.08 857.98 331.59C857.98 333.1 856.84 334.08 855.19 334.08ZM864.95 336.79H872.43V334.25H867.78V332.71H870.85V330.48H867.78V328.94H872.43V326.4H864.95V336.8V336.79ZM885.43 329.77C885.43 327.84 883.86 326.39 881.82 326.39H876.77V336.79H879.55V333.2H880.73L882.8 336.79H885.92L883.6 332.78C884.71 332.2 885.43 331.1 885.43 329.77ZM881.52 330.83H879.55V328.89H881.52C882.2 328.89 882.6 329.35 882.6 329.87C882.6 330.39 882.19 330.83 881.52 330.83ZM893.37 326.39L889.01 336.79H891.94L892.66 335H896.79L897.53 336.79H900.45L896.04 326.39H893.37ZM893.68 332.52L894.72 329.97L895.76 332.52H893.67H893.68ZM907.08 334.11V326.39H904.12V336.79H911.48V334.11H907.09H907.08Z" fill="white"/>
<path d="M828.97 386.741L838.28 402.321H845.97V372.871H828.97V386.741ZM852.74 368.451H846.95V402.321H852.74C862.12 402.321 869.75 394.721 869.75 385.381C869.75 376.041 862.12 368.441 852.74 368.441M840.7 371.901H845.97V348.541H840.7C834.23 348.541 828.97 353.781 828.97 360.221C828.97 366.661 834.23 371.901 840.7 371.901ZM747.74 349.701V380.641H767.93L747.74 349.701ZM892.95 383.931H910.99V348.541H892.95V383.931ZM866.54 348.541H846.94V367.481H866.54V348.541ZM911.96 402.321H930V384.901H911.96V402.321ZM892.95 402.321H910.99V384.901H892.95V402.321ZM870.72 402.321H888.76V348.541H870.72V402.321ZM828.97 402.321H837.14L828.97 388.641V402.321ZM739.49 359.041C739.49 353.251 734.76 348.541 728.95 348.541H725.03V369.541H728.95C734.76 369.541 739.49 364.831 739.49 359.041ZM706.01 369.541H724.05V348.541H706.01V369.541ZM706.01 402.321H724.05V370.511H706.01V402.321ZM730.79 370.511H725.03V402.321H730.79C739.6 402.321 746.77 395.181 746.77 386.411C746.77 377.641 739.6 370.501 730.79 370.501M777.58 395.401L773.45 402.321H782.1L777.58 395.401ZM778.14 394.471L783.27 402.321H784.76C784.89 396.981 787.07 391.981 790.91 388.221C794.78 384.431 799.89 382.351 805.3 382.351C810.71 382.351 815.82 384.441 819.69 388.221C823.53 391.981 825.71 396.981 825.84 402.321H828V387.011L805.3 349.011L778.14 394.471ZM784.95 364.591C784.95 355.741 777.72 348.541 768.83 348.541H748.15L769.09 380.641C777.84 380.501 784.95 373.311 784.95 364.591ZM805.29 383.321C800.14 383.321 795.27 385.301 791.58 388.911C787.92 392.491 785.84 397.251 785.72 402.321H824.86C824.73 397.241 822.66 392.481 819 388.911C815.31 385.311 810.45 383.321 805.29 383.321ZM768.57 381.611H747.74V402.321H772.31L776.99 394.491L768.57 381.611Z" fill="white"/>
<path d="M1756.72 303.15C1699.08 307.97 1644.71 333.21 1607.42 377.73C1585.7 403.67 1572.26 433.27 1566.56 463.99C1560.86 433.28 1547.43 403.67 1525.71 377.73C1488.43 333.21 1434.05 307.98 1376.41 303.15C1367.4 356.39 1380.44 411.67 1417.73 456.18C1454.81 500.45 1508.8 525.62 1566.09 530.64C1566.09 530.68 1566.09 530.72 1566.11 530.76C1566.27 530.75 1566.42 530.71 1566.57 530.7C1566.73 530.71 1566.88 530.75 1567.03 530.76C1567.03 530.72 1567.04 530.68 1567.05 530.64C1624.33 525.62 1678.33 500.46 1715.41 456.18C1752.69 411.66 1765.73 356.39 1756.73 303.15H1756.72Z" fill="#0F9B39"/>
<path d="M1566.57 351.16C1642.55 351.16 1704.15 289.563 1704.15 213.58C1704.15 137.597 1642.55 76 1566.57 76C1490.59 76 1428.99 137.597 1428.99 213.58C1428.99 289.563 1490.59 351.16 1566.57 351.16Z" fill="#E62D49"/>
<path d="M1566.57 276.64C1601.4 276.64 1629.63 248.407 1629.63 213.58C1629.63 178.752 1601.4 150.52 1566.57 150.52C1531.74 150.52 1503.51 178.752 1503.51 213.58C1503.51 248.407 1531.74 276.64 1566.57 276.64Z" fill="#FDD400"/>
</g>
</g>
<defs>
<clipPath id="clip0_3728_1103">
<rect width="1921" height="583" fill="white"/>
</clipPath>
</defs>
</svg>
