<svg width="1920" height="596" viewBox="0 0 1920 596" fill="none" xmlns="http://www.w3.org/2000/svg">
<g clip-path="url(#clip0_3728_1189)">
<mask id="mask0_3728_1189" style="mask-type:luminance" maskUnits="userSpaceOnUse" x="0" y="-1" width="1921" height="4001">
<path d="M1921 -0.5H0V3999.5H1921V-0.5Z" fill="white"/>
</mask>
<g mask="url(#mask0_3728_1189)">
<path fill-rule="evenodd" clip-rule="evenodd" d="M-100.05 -162.65L2385.35 -1405.84L1853.71 520.4L-100.05 -162.65Z" fill="#0F9B39"/>
<path d="M236.51 275.511C505.208 275.511 723.03 57.6883 723.03 -211.009C723.03 -479.707 505.208 -697.529 236.51 -697.529C-32.1876 -697.529 -250.01 -479.707 -250.01 -211.009C-250.01 57.6883 -32.1876 275.511 236.51 275.511Z" fill="#004C93"/>
<path d="M1443.54 246.42C1462.68 248.02 1480.74 256.4 1493.12 271.18C1500.33 279.79 1504.79 289.62 1506.69 299.82C1508.58 289.62 1513.04 279.79 1520.26 271.18C1532.64 256.4 1550.7 248.02 1569.84 246.42C1572.83 264.1 1568.5 282.45 1556.12 297.24C1543.81 311.94 1525.88 320.3 1506.86 321.96C1506.86 321.97 1506.86 321.99 1506.86 322C1506.81 322 1506.76 321.98 1506.71 321.98C1506.66 321.98 1506.61 322 1506.56 322C1506.56 321.99 1506.56 321.97 1506.56 321.96C1487.54 320.29 1469.61 311.94 1457.3 297.24C1444.92 282.46 1440.59 264.1 1443.58 246.42H1443.54Z" fill="#E62D49"/>
<path d="M1443.54 322.25C1462.68 323.85 1480.74 332.23 1493.12 347.01C1500.33 355.62 1504.79 365.45 1506.69 375.65C1508.58 365.45 1513.04 355.62 1520.26 347.01C1532.64 332.23 1550.7 323.85 1569.84 322.25C1572.83 339.93 1568.5 358.28 1556.12 373.07C1543.81 387.77 1525.88 396.13 1506.86 397.79C1506.86 397.8 1506.86 397.82 1506.86 397.83C1506.81 397.83 1506.76 397.81 1506.71 397.81C1506.66 397.81 1506.61 397.83 1506.56 397.83C1506.56 397.82 1506.56 397.8 1506.56 397.79C1487.54 396.12 1469.61 387.77 1457.3 373.07C1444.92 358.29 1440.59 339.93 1443.58 322.25H1443.54Z" fill="#E62D49"/>
<path d="M1443.54 398.09C1462.68 399.69 1480.74 408.07 1493.12 422.85C1500.33 431.46 1504.79 441.29 1506.69 451.49C1508.58 441.29 1513.04 431.46 1520.26 422.85C1532.64 408.07 1550.7 399.69 1569.84 398.09C1572.83 415.77 1568.5 434.12 1556.12 448.91C1543.81 463.61 1525.88 471.97 1506.86 473.63C1506.86 473.64 1506.86 473.66 1506.86 473.67C1506.81 473.67 1506.76 473.65 1506.71 473.65C1506.66 473.65 1506.61 473.67 1506.56 473.67C1506.56 473.66 1506.56 473.64 1506.56 473.63C1487.54 471.96 1469.61 463.61 1457.3 448.91C1444.92 434.13 1440.59 415.77 1443.58 398.09H1443.54Z" fill="#E62D49"/>
<path d="M1443.54 473.92C1462.68 475.52 1480.74 483.9 1493.12 498.68C1500.33 507.29 1504.79 517.12 1506.69 527.32C1508.58 517.12 1513.04 507.29 1520.26 498.68C1532.64 483.9 1550.7 475.52 1569.84 473.92C1572.83 491.6 1568.5 509.95 1556.12 524.74C1543.81 539.44 1525.88 547.8 1506.86 549.46C1506.86 549.47 1506.86 549.49 1506.86 549.5C1506.81 549.5 1506.76 549.48 1506.71 549.48C1506.66 549.48 1506.61 549.5 1506.56 549.5C1506.56 549.49 1506.56 549.47 1506.56 549.46C1487.54 547.79 1469.61 539.44 1457.3 524.74C1444.92 509.96 1440.59 491.6 1443.58 473.92H1443.54Z" fill="#E62D49"/>
<path d="M1293.18 246.42C1312.32 248.02 1330.38 256.4 1342.76 271.18C1349.97 279.79 1354.43 289.62 1356.33 299.82C1358.22 289.62 1362.68 279.79 1369.9 271.18C1382.28 256.4 1400.34 248.02 1419.48 246.42C1422.47 264.1 1418.14 282.45 1405.76 297.24C1393.45 311.94 1375.52 320.3 1356.5 321.96C1356.5 321.97 1356.5 321.99 1356.5 322C1356.45 322 1356.4 321.98 1356.35 321.98C1356.3 321.98 1356.25 322 1356.2 322C1356.2 321.99 1356.2 321.97 1356.2 321.96C1337.18 320.29 1319.25 311.94 1306.94 297.24C1294.56 282.46 1290.23 264.1 1293.22 246.42H1293.18Z" fill="#E62D49"/>
<path d="M1293.18 322.25C1312.32 323.85 1330.38 332.23 1342.76 347.01C1349.97 355.62 1354.43 365.45 1356.33 375.65C1358.22 365.45 1362.68 355.62 1369.9 347.01C1382.28 332.23 1400.34 323.85 1419.48 322.25C1422.47 339.93 1418.14 358.28 1405.76 373.07C1393.45 387.77 1375.52 396.13 1356.5 397.79C1356.5 397.8 1356.5 397.82 1356.5 397.83C1356.45 397.83 1356.4 397.81 1356.35 397.81C1356.3 397.81 1356.25 397.83 1356.2 397.83C1356.2 397.82 1356.2 397.8 1356.2 397.79C1337.18 396.12 1319.25 387.77 1306.94 373.07C1294.56 358.29 1290.23 339.93 1293.22 322.25H1293.18Z" fill="#E62D49"/>
<path d="M1293.18 398.09C1312.32 399.69 1330.38 408.07 1342.76 422.85C1349.97 431.46 1354.43 441.29 1356.33 451.49C1358.22 441.29 1362.68 431.46 1369.9 422.85C1382.28 408.07 1400.34 399.69 1419.48 398.09C1422.47 415.77 1418.14 434.12 1405.76 448.91C1393.45 463.61 1375.52 471.97 1356.5 473.63C1356.5 473.64 1356.5 473.66 1356.5 473.67C1356.45 473.67 1356.4 473.65 1356.35 473.65C1356.3 473.65 1356.25 473.67 1356.2 473.67C1356.2 473.66 1356.2 473.64 1356.2 473.63C1337.18 471.96 1319.25 463.61 1306.94 448.91C1294.56 434.13 1290.23 415.77 1293.22 398.09H1293.18Z" fill="#E62D49"/>
<path d="M1293.18 473.92C1312.32 475.52 1330.38 483.9 1342.76 498.68C1349.97 507.29 1354.43 517.12 1356.33 527.32C1358.22 517.12 1362.68 507.29 1369.9 498.68C1382.28 483.9 1400.34 475.52 1419.48 473.92C1422.47 491.6 1418.14 509.95 1405.76 524.74C1393.45 539.44 1375.52 547.8 1356.5 549.46C1356.5 549.47 1356.5 549.49 1356.5 549.5C1356.45 549.5 1356.4 549.48 1356.35 549.48C1356.3 549.48 1356.25 549.5 1356.2 549.5C1356.2 549.49 1356.2 549.47 1356.2 549.46C1337.18 547.79 1319.25 539.44 1306.94 524.74C1294.56 509.96 1290.23 491.6 1293.22 473.92H1293.18Z" fill="#E62D49"/>
<path fill-rule="evenodd" clip-rule="evenodd" d="M534.96 337.391C536.63 335.071 537.61 332.211 537.61 329.181C537.61 318.731 528.67 311.571 517.3 311.571H492.11C490.5 311.571 489.58 312.501 489.58 314.101V373.781C489.58 375.381 490.51 376.311 492.11 376.311H525.06C537.24 376.311 545.93 367.311 545.93 355.661C545.93 347.421 541.69 340.781 534.96 337.391ZM517.12 326.571C519.83 326.571 521.47 328.521 521.47 331.061C521.47 332.461 520.87 333.961 519.68 334.961H506.1V326.571H517.11H517.12ZM522.78 361.321H506.11V348.601H522.88C527.24 348.601 529.42 351.151 529.42 354.951C529.42 358.751 527.24 361.321 522.79 361.321H522.78ZM606.65 373.191L591.08 352.271C597.67 348.541 601.95 341.861 601.95 333.981C601.95 320.911 591.74 311.521 578.67 311.521H556.23C554.63 311.521 553.7 312.451 553.7 314.051V373.731C553.7 375.351 554.63 376.261 556.23 376.261H567.7C569.3 376.261 570.23 375.351 570.23 373.731V355.421H574.88L589.05 374.701C589.84 375.841 590.81 376.261 592.13 376.261H605.1C607.17 376.261 607.9 374.871 606.66 373.181L606.65 373.191ZM570.23 326.871H578.67C582.57 326.871 585.42 329.701 585.42 333.991C585.42 338.281 582.57 341.071 578.67 341.021H570.23V326.871ZM668.35 373.471L648.88 313.691C648.46 312.271 647.39 311.581 645.97 311.581H630.65C629.23 311.581 628.17 312.271 627.75 313.691L608.26 373.471C607.68 375.231 608.54 376.321 610.39 376.321H623.02C624.43 376.321 625.45 375.671 625.87 374.161L627.89 367.011H648.71L650.75 374.161C651.16 375.681 652.17 376.321 653.6 376.321H666.22C668.06 376.321 668.93 375.231 668.33 373.471H668.35ZM631.98 352.701L638.33 330.341L644.68 352.701H631.98ZM694.71 377.711C707.75 377.711 718.11 371.011 718.11 357.851C718.11 344.691 706.61 340.011 697.67 337.071C691.91 335.171 687.44 333.711 687.44 330.091C687.44 327.761 689.35 325.911 693.28 325.911C696.74 325.911 698.71 327.151 699.46 329.581C700 331.061 700.67 331.831 702.13 331.831H713.74C715.34 331.831 716.36 330.921 716.26 329.231C715.06 315.941 704.75 310.191 693.28 310.191C681.81 310.191 670.91 316.881 670.91 330.051C670.91 343.221 682.43 348.171 691.42 351.101C697.01 352.861 701.6 354.281 701.6 357.591C701.6 360.061 699.65 361.991 694.82 361.991C690.35 361.991 687.79 360.701 686.96 357.981C686.51 356.411 685.82 355.631 684.31 355.631H672.75C671.15 355.631 670.13 356.541 670.22 358.251C671.43 371.911 682.06 377.711 694.73 377.711H694.71ZM725.44 314.101V373.781C725.44 375.381 726.37 376.311 727.97 376.311H739.44C741.05 376.311 741.97 375.381 741.97 373.781V314.101C741.97 312.501 741.04 311.571 739.44 311.571H727.97C726.37 311.571 725.44 312.501 725.44 314.101ZM788.27 360.351H769.47V314.111C769.47 312.511 768.54 311.581 766.94 311.581H755.47C753.87 311.581 752.95 312.511 752.95 314.111V373.791C752.95 375.391 753.88 376.321 755.47 376.321H788.27C789.87 376.321 790.8 375.391 790.8 373.791V362.881C790.8 361.281 789.87 360.351 788.27 360.351Z" fill="#009E2F"/>
<path fill-rule="evenodd" clip-rule="evenodd" d="M579.66 492.071C581.26 492.071 582.18 491.141 582.18 489.541V478.631C582.18 477.031 581.26 476.101 579.66 476.101H545.9C544.3 476.101 543.37 477.031 543.37 478.631V538.311C543.37 539.911 544.3 540.841 545.9 540.841H557.37C558.97 540.841 559.9 539.911 559.9 538.311V519.551H579.2C580.8 519.551 581.72 518.621 581.72 517.031V506.111C581.72 504.491 580.8 503.581 579.2 503.581H559.9V492.071H579.66ZM621.8 542.231C640.64 542.231 655.76 527.581 655.76 508.481C655.76 489.381 640.64 474.721 621.8 474.721C602.96 474.721 587.82 489.381 587.82 508.481C587.82 527.581 602.95 542.231 621.8 542.231ZM621.8 526.081C611.9 526.081 604.35 518.841 604.35 508.481C604.35 498.121 611.9 490.871 621.8 490.871C631.7 490.871 639.23 498.121 639.23 508.481C639.23 518.841 631.7 526.081 621.8 526.081ZM729.02 476.111H714.04C712.62 476.111 711.6 476.711 711.09 478.081L697.88 511.841L684.67 478.081C684.16 476.711 683.15 476.111 681.72 476.111H666.74C665.14 476.111 664.21 477.041 664.21 478.641V538.321C664.21 539.921 665.14 540.851 666.74 540.851H678.21C679.81 540.851 680.73 539.921 680.73 538.321V502.741L691.18 529.651C691.68 531.021 692.66 531.631 694.08 531.631H701.66C703.08 531.631 704.05 531.021 704.56 529.651L715.01 502.741V538.321C715.01 539.921 715.94 540.851 717.53 540.851H729C730.6 540.851 731.53 539.921 731.53 538.321V478.641C731.53 477.041 730.6 476.111 729 476.111H729.02ZM779.76 525.311H759.1V515.521H776.99C778.59 515.521 779.51 514.591 779.51 513.001V503.321C779.51 501.701 778.58 500.791 776.99 500.791H759.1V491.651H779.29C780.89 491.651 781.82 490.721 781.82 489.121V478.641C781.82 477.041 780.89 476.111 779.29 476.111H745.1C743.5 476.111 742.58 477.041 742.58 478.641V538.321C742.58 539.921 743.51 540.851 745.1 540.851H779.75C781.35 540.851 782.28 539.921 782.28 538.321V527.841C782.28 526.241 781.35 525.311 779.75 525.311H779.76Z" fill="#E30016"/>
<path fill-rule="evenodd" clip-rule="evenodd" d="M639.96 459.971C653 459.971 663.36 453.281 663.36 440.111C663.36 426.941 651.86 422.281 642.92 419.341C637.16 417.441 632.68 415.981 632.68 412.361C632.68 410.031 634.6 408.191 638.52 408.191C641.99 408.191 643.96 409.421 644.7 411.851C645.24 413.331 645.91 414.101 647.37 414.101H658.98C660.58 414.101 661.61 413.191 661.51 411.501C660.31 398.211 649.99 392.471 638.52 392.471C627.05 392.471 616.16 399.161 616.16 412.321C616.16 425.481 627.68 430.451 636.67 433.381C642.26 435.141 646.84 436.551 646.84 439.871C646.84 442.341 644.9 444.261 640.06 444.261C635.59 444.261 633.03 442.981 632.2 440.251C631.75 438.681 631.06 437.901 629.54 437.901H617.98C616.38 437.901 615.36 438.811 615.45 440.531C616.66 454.191 627.29 459.981 639.96 459.981V459.971ZM707.88 443.041H687.22V433.261H705.11C706.71 433.261 707.64 432.331 707.64 430.731V421.051C707.64 419.441 706.71 418.531 705.11 418.531H687.22V409.381H707.42C709.02 409.381 709.94 408.451 709.94 406.861V396.371C709.94 394.761 709.01 393.841 707.42 393.841H673.23C671.63 393.841 670.7 394.771 670.7 396.371V456.061C670.7 457.661 671.63 458.581 673.23 458.581H707.88C709.48 458.581 710.4 457.651 710.4 456.061V445.571C710.4 443.971 709.47 443.041 707.88 443.041ZM783.62 393.831H768.64C767.22 393.831 766.21 394.441 765.7 395.811L752.49 429.561L739.28 395.811C738.77 394.441 737.75 393.831 736.34 393.831H721.35C719.75 393.831 718.83 394.761 718.83 396.361V456.051C718.83 457.651 719.75 458.571 721.35 458.571H732.82C734.42 458.571 735.35 457.641 735.35 456.051V420.471L745.8 447.381C746.31 448.751 747.28 449.351 748.71 449.351H756.29C757.71 449.351 758.68 448.751 759.19 447.381L769.64 420.471V456.051C769.64 457.651 770.57 458.571 772.17 458.571H783.64C785.25 458.571 786.17 457.641 786.17 456.051V396.361C786.17 394.751 785.24 393.831 783.64 393.831H783.62Z" fill="#E30016"/>
<path fill-rule="evenodd" clip-rule="evenodd" d="M957.5 329.65H893.92L957.5 393.24V329.65ZM893.93 522.9H957.51V459.32L893.93 522.9Z" fill="#009E2F"/>
<path fill-rule="evenodd" clip-rule="evenodd" d="M871.07 310.941L986.41 426.281L871.07 541.621V527.841C901.54 504.461 921.18 467.671 921.18 426.291C921.18 384.911 901.54 348.121 871.07 324.731V310.951V310.941Z" fill="#FFD400"/>
<path fill-rule="evenodd" clip-rule="evenodd" d="M808.94 302.92C870.61 310.16 918.46 362.59 918.46 426.21C918.46 489.83 870.61 542.26 808.94 549.5V518.59C829.24 515.6 847.4 506.08 861.25 492.24C878.15 475.35 888.6 451.99 888.6 426.2C888.6 400.41 878.15 377.07 861.25 360.17C847.4 346.32 829.24 336.81 808.94 333.82V302.91V302.92ZM808.94 516.07V336.36C828.54 339.33 846.09 348.55 859.48 361.95C875.93 378.4 886.1 401.12 886.1 426.21C886.1 451.3 875.93 474.03 859.48 490.48C846.09 503.87 828.54 513.1 808.94 516.07Z" fill="#004A99"/>
<path fill-rule="evenodd" clip-rule="evenodd" d="M846.8 358.021C845.52 359.181 845.78 363.341 845.71 365.431L845.05 381.891C844.95 383.771 845.25 388.551 844.11 389.571C842.98 388.821 843.24 383.841 843.15 382.081C843.02 379.271 842.88 376.601 842.81 373.801L842.13 359.421C841.74 357.391 840.29 357.111 840.15 361.131L839.64 373.581C839.53 376.391 839.47 379.121 839.31 381.891C839.21 383.701 839.47 388.721 838.34 389.581C837.25 388.621 837.41 383.671 837.37 381.891L836.73 365.331C836.63 362.651 836.98 358.401 835.19 358.001C833.22 360.721 834.53 385.411 832.8 389.591C831.75 389.131 831.89 387.701 831.84 386.321L830.98 365.531C830.92 363.801 831.15 358.861 829.88 358.031C828.4 358.721 828.43 364.681 828.26 366.611L825.81 394.781C825.09 402.441 829.66 400.471 834.49 406.151C836.7 408.741 835.89 410.551 835.58 414.421L832.08 462.101C831.64 468.451 831.08 474.691 830.69 481.061C830.49 484.321 830.07 487.131 831.51 489.951C834.57 495.901 841.37 495.581 844.31 491.241C846.11 488.581 846.4 486.631 846.15 482.941L841.66 410.971C841.52 408.811 841.36 408.251 842.5 406.671C846.78 400.751 851.58 402.581 850.9 394.971L848.05 362.041C847.93 360.641 848.02 358.531 846.8 358.051V358.021Z" fill="white"/>
<path fill-rule="evenodd" clip-rule="evenodd" d="M867.98 425.16C868.39 426.72 867.49 436.67 867.35 439.04L864.96 479.45C864.64 484.68 863.95 487.75 866.83 491.61C868.82 494.28 873.32 495.68 876.77 493.03C879.86 490.65 880.67 487.38 880.36 482.15C879.33 464.14 878.52 445.41 877.69 427.35C877.49 422.82 877.77 418.19 877.92 413.63C878.53 395.08 879.19 376.55 879.73 357.99C874.91 358.08 871.72 364.41 870.11 368.77C865.79 380.38 865.38 392.24 865.37 404.58C865.37 407.1 865.08 423.75 865.54 424.56C865.81 424.9 866.42 424.84 866.85 424.86C867.62 424.92 867.43 424.88 867.97 425.15L867.98 425.16Z" fill="white"/>
<path fill-rule="evenodd" clip-rule="evenodd" d="M501.89 282.251C501.24 281.711 500.41 281.361 498.24 281.361H494.5C494.42 281.361 494.36 281.431 494.36 281.511V293.331C494.36 293.421 494.42 293.481 494.5 293.481H497.3C497.38 293.481 497.44 293.421 497.44 293.331V289.861C497.44 289.781 497.5 289.711 497.59 289.711H498.57C500.45 289.711 501.24 289.341 502.03 288.671C502.78 288.011 503.28 286.731 503.28 285.481C503.28 284.231 502.77 283.011 501.88 282.261L501.89 282.251ZM499.65 286.751C499.26 286.931 498.79 286.931 498.5 286.931H497.6C497.51 286.931 497.45 286.871 497.45 286.781V284.311C497.45 284.231 497.51 284.171 497.6 284.171H498.4C498.72 284.171 499.21 284.171 499.62 284.351C500.11 284.561 500.34 284.951 500.34 285.541C500.34 285.961 500.22 286.511 499.65 286.771V286.751ZM538.84 290.701H535.08C535 290.701 534.94 290.641 534.94 290.561V281.521C534.94 281.441 534.87 281.371 534.79 281.371H532C531.92 281.371 531.85 281.441 531.85 281.521V293.361C531.85 293.441 531.92 293.501 532 293.501H538.58C538.65 293.501 538.71 293.441 538.73 293.371L538.99 290.861C538.99 290.781 538.93 290.701 538.85 290.701H538.84ZM578.82 293.331L574.36 281.491C574.34 281.431 574.27 281.391 574.21 281.391H571.58C571.5 281.391 571.43 281.441 571.4 281.511L566.95 293.331C566.92 293.431 566.99 293.541 567.09 293.541H570.11C570.18 293.541 570.23 293.501 570.26 293.441L570.9 291.501C570.92 291.431 570.98 291.401 571.05 291.401H574.75C574.81 291.401 574.88 291.441 574.89 291.501L575.53 293.411C575.55 293.481 575.63 293.541 575.7 293.541H578.7C578.8 293.541 578.88 293.441 578.83 293.331H578.82ZM573.82 288.911H571.95C571.85 288.911 571.77 288.811 571.8 288.721L572.73 285.891C572.78 285.751 572.98 285.751 573.03 285.891L573.96 288.721C573.99 288.821 573.92 288.921 573.82 288.921V288.911ZM616.82 281.361H614.16C614.08 281.361 614.01 281.431 614.01 281.511L614.07 287.541C614.07 287.691 613.89 287.751 613.81 287.631L609.68 281.431C609.68 281.431 609.6 281.361 609.55 281.361H607.12C607.04 281.361 606.97 281.431 606.97 281.511V293.331C606.97 293.421 607.04 293.481 607.12 293.481H609.78C609.86 293.481 609.93 293.421 609.93 293.331L609.87 287.741C609.87 287.601 610.05 287.541 610.13 287.661L614.24 293.421C614.24 293.421 614.31 293.481 614.36 293.481H616.81C616.9 293.481 616.96 293.421 616.96 293.331V281.511C616.96 281.431 616.9 281.361 616.81 281.361H616.82ZM651.71 281.051C648.28 281.051 645.48 283.911 645.48 287.421C645.48 290.931 648.28 293.801 651.71 293.801C655.14 293.801 657.94 290.941 657.94 287.421C657.94 283.901 655.15 281.051 651.71 281.051ZM651.71 290.901C649.83 290.901 648.3 289.341 648.3 287.411C648.3 285.481 649.82 283.931 651.71 283.931C653.6 283.931 655.11 285.501 655.11 287.411C655.11 289.321 653.59 290.901 651.71 290.901Z" fill="#868789"/>
<path d="M1501.88 87.16C1504.97 87.16 1507.48 84.5498 1507.48 81.33C1507.48 78.1102 1504.97 75.5 1501.88 75.5C1498.79 75.5 1496.28 78.1102 1496.28 81.33C1496.28 84.5498 1498.79 87.16 1501.88 87.16Z" fill="white"/>
<path d="M1540.38 87.16C1543.47 87.16 1545.98 84.5498 1545.98 81.33C1545.98 78.1102 1543.47 75.5 1540.38 75.5C1537.29 75.5 1534.78 78.1102 1534.78 81.33C1534.78 84.5498 1537.29 87.16 1540.38 87.16Z" fill="white"/>
<path d="M1578.89 87.16C1581.98 87.16 1584.49 84.5498 1584.49 81.33C1584.49 78.1102 1581.98 75.5 1578.89 75.5C1575.8 75.5 1573.29 78.1102 1573.29 81.33C1573.29 84.5498 1575.8 87.16 1578.89 87.16Z" fill="white"/>
<path d="M1617.39 87.16C1620.48 87.16 1622.99 84.5498 1622.99 81.33C1622.99 78.1102 1620.48 75.5 1617.39 75.5C1614.3 75.5 1611.79 78.1102 1611.79 81.33C1611.79 84.5498 1614.3 87.16 1617.39 87.16Z" fill="white"/>
<path d="M1655.89 87.16C1658.98 87.16 1661.49 84.5498 1661.49 81.33C1661.49 78.1102 1658.98 75.5 1655.89 75.5C1652.8 75.5 1650.29 78.1102 1650.29 81.33C1650.29 84.5498 1652.8 87.16 1655.89 87.16Z" fill="white"/>
<path d="M1694.4 87.16C1697.49 87.16 1700 84.5498 1700 81.33C1700 78.1102 1697.49 75.5 1694.4 75.5C1691.31 75.5 1688.8 78.1102 1688.8 81.33C1688.8 84.5498 1691.31 87.16 1694.4 87.16Z" fill="white"/>
<path d="M1501.88 124.609C1504.97 124.609 1507.48 121.999 1507.48 118.779C1507.48 115.559 1504.97 112.949 1501.88 112.949C1498.79 112.949 1496.28 115.559 1496.28 118.779C1496.28 121.999 1498.79 124.609 1501.88 124.609Z" fill="white"/>
<path d="M1540.38 124.609C1543.47 124.609 1545.98 121.999 1545.98 118.779C1545.98 115.559 1543.47 112.949 1540.38 112.949C1537.29 112.949 1534.78 115.559 1534.78 118.779C1534.78 121.999 1537.29 124.609 1540.38 124.609Z" fill="white"/>
<path d="M1578.89 124.609C1581.98 124.609 1584.49 121.999 1584.49 118.779C1584.49 115.559 1581.98 112.949 1578.89 112.949C1575.8 112.949 1573.29 115.559 1573.29 118.779C1573.29 121.999 1575.8 124.609 1578.89 124.609Z" fill="white"/>
<path d="M1617.39 124.619C1620.48 124.619 1622.99 122.009 1622.99 118.789C1622.99 115.569 1620.48 112.959 1617.39 112.959C1614.3 112.959 1611.79 115.569 1611.79 118.789C1611.79 122.009 1614.3 124.619 1617.39 124.619Z" fill="white"/>
<path d="M1655.89 124.619C1658.98 124.619 1661.49 122.009 1661.49 118.789C1661.49 115.569 1658.98 112.959 1655.89 112.959C1652.8 112.959 1650.29 115.569 1650.29 118.789C1650.29 122.009 1652.8 124.619 1655.89 124.619Z" fill="white"/>
<path d="M1694.4 124.619C1697.49 124.619 1700 122.009 1700 118.789C1700 115.569 1697.49 112.959 1694.4 112.959C1691.31 112.959 1688.8 115.569 1688.8 118.789C1688.8 122.009 1691.31 124.619 1694.4 124.619Z" fill="white"/>
<path d="M1501.88 162.07C1504.97 162.07 1507.48 159.46 1507.48 156.24C1507.48 153.02 1504.97 150.41 1501.88 150.41C1498.79 150.41 1496.28 153.02 1496.28 156.24C1496.28 159.46 1498.79 162.07 1501.88 162.07Z" fill="white"/>
<path d="M1540.38 162.07C1543.47 162.07 1545.98 159.46 1545.98 156.24C1545.98 153.02 1543.47 150.41 1540.38 150.41C1537.29 150.41 1534.78 153.02 1534.78 156.24C1534.78 159.46 1537.29 162.07 1540.38 162.07Z" fill="white"/>
<path d="M1578.89 162.07C1581.98 162.07 1584.49 159.46 1584.49 156.24C1584.49 153.02 1581.98 150.41 1578.89 150.41C1575.8 150.41 1573.29 153.02 1573.29 156.24C1573.29 159.46 1575.8 162.07 1578.89 162.07Z" fill="white"/>
<path d="M1617.39 162.07C1620.48 162.07 1622.99 159.46 1622.99 156.24C1622.99 153.02 1620.48 150.41 1617.39 150.41C1614.3 150.41 1611.79 153.02 1611.79 156.24C1611.79 159.46 1614.3 162.07 1617.39 162.07Z" fill="white"/>
<path d="M1655.89 162.07C1658.98 162.07 1661.49 159.46 1661.49 156.24C1661.49 153.02 1658.98 150.41 1655.89 150.41C1652.8 150.41 1650.29 153.02 1650.29 156.24C1650.29 159.46 1652.8 162.07 1655.89 162.07Z" fill="white"/>
<path d="M1694.4 162.07C1697.49 162.07 1700 159.46 1700 156.24C1700 153.02 1697.49 150.41 1694.4 150.41C1691.31 150.41 1688.8 153.02 1688.8 156.24C1688.8 159.46 1691.31 162.07 1694.4 162.07Z" fill="white"/>
<path d="M1501.88 199.519C1504.97 199.519 1507.48 196.909 1507.48 193.689C1507.48 190.47 1504.97 187.859 1501.88 187.859C1498.79 187.859 1496.28 190.47 1496.28 193.689C1496.28 196.909 1498.79 199.519 1501.88 199.519Z" fill="white"/>
<path d="M1540.38 199.519C1543.47 199.519 1545.98 196.909 1545.98 193.689C1545.98 190.47 1543.47 187.859 1540.38 187.859C1537.29 187.859 1534.78 190.47 1534.78 193.689C1534.78 196.909 1537.29 199.519 1540.38 199.519Z" fill="white"/>
<path d="M1578.89 199.519C1581.98 199.519 1584.49 196.909 1584.49 193.689C1584.49 190.47 1581.98 187.859 1578.89 187.859C1575.8 187.859 1573.29 190.47 1573.29 193.689C1573.29 196.909 1575.8 199.519 1578.89 199.519Z" fill="white"/>
<path d="M1617.39 199.519C1620.48 199.519 1622.99 196.909 1622.99 193.689C1622.99 190.47 1620.48 187.859 1617.39 187.859C1614.3 187.859 1611.79 190.47 1611.79 193.689C1611.79 196.909 1614.3 199.519 1617.39 199.519Z" fill="white"/>
<path d="M1655.89 199.519C1658.98 199.519 1661.49 196.909 1661.49 193.689C1661.49 190.47 1658.98 187.859 1655.89 187.859C1652.8 187.859 1650.29 190.47 1650.29 193.689C1650.29 196.909 1652.8 199.519 1655.89 199.519Z" fill="white"/>
<path d="M1694.4 199.519C1697.49 199.519 1700 196.909 1700 193.689C1700 190.47 1697.49 187.859 1694.4 187.859C1691.31 187.859 1688.8 190.47 1688.8 193.689C1688.8 196.909 1691.31 199.519 1694.4 199.519Z" fill="white"/>
<path d="M1272.6 87.16C1275.69 87.16 1278.2 84.5498 1278.2 81.33C1278.2 78.1102 1275.69 75.5 1272.6 75.5C1269.51 75.5 1267 78.1102 1267 81.33C1267 84.5498 1269.51 87.16 1272.6 87.16Z" fill="white"/>
<path d="M1311.11 87.16C1314.2 87.16 1316.71 84.5498 1316.71 81.33C1316.71 78.1102 1314.2 75.5 1311.11 75.5C1308.02 75.5 1305.51 78.1102 1305.51 81.33C1305.51 84.5498 1308.02 87.16 1311.11 87.16Z" fill="white"/>
<path d="M1349.61 87.16C1352.7 87.16 1355.21 84.5498 1355.21 81.33C1355.21 78.1102 1352.7 75.5 1349.61 75.5C1346.52 75.5 1344.01 78.1102 1344.01 81.33C1344.01 84.5498 1346.52 87.16 1349.61 87.16Z" fill="white"/>
<path d="M1388.11 87.16C1391.2 87.16 1393.71 84.5498 1393.71 81.33C1393.71 78.1102 1391.2 75.5 1388.11 75.5C1385.02 75.5 1382.51 78.1102 1382.51 81.33C1382.51 84.5498 1385.02 87.16 1388.11 87.16Z" fill="white"/>
<path d="M1426.62 87.16C1429.71 87.16 1432.22 84.5498 1432.22 81.33C1432.22 78.1102 1429.71 75.5 1426.62 75.5C1423.53 75.5 1421.02 78.1102 1421.02 81.33C1421.02 84.5498 1423.53 87.16 1426.62 87.16Z" fill="white"/>
<path d="M1465.12 87.16C1468.21 87.16 1470.72 84.5498 1470.72 81.33C1470.72 78.1102 1468.21 75.5 1465.12 75.5C1462.03 75.5 1459.52 78.1102 1459.52 81.33C1459.52 84.5498 1462.03 87.16 1465.12 87.16Z" fill="white"/>
<path d="M1272.6 124.609C1275.69 124.609 1278.2 121.999 1278.2 118.779C1278.2 115.559 1275.69 112.949 1272.6 112.949C1269.51 112.949 1267 115.559 1267 118.779C1267 121.999 1269.51 124.609 1272.6 124.609Z" fill="white"/>
<path d="M1311.11 124.609C1314.2 124.609 1316.71 121.999 1316.71 118.779C1316.71 115.559 1314.2 112.949 1311.11 112.949C1308.02 112.949 1305.51 115.559 1305.51 118.779C1305.51 121.999 1308.02 124.609 1311.11 124.609Z" fill="white"/>
<path d="M1349.61 124.609C1352.7 124.609 1355.21 121.999 1355.21 118.779C1355.21 115.559 1352.7 112.949 1349.61 112.949C1346.52 112.949 1344.01 115.559 1344.01 118.779C1344.01 121.999 1346.52 124.609 1349.61 124.609Z" fill="white"/>
<path d="M1388.11 124.619C1391.2 124.619 1393.71 122.009 1393.71 118.789C1393.71 115.569 1391.2 112.959 1388.11 112.959C1385.02 112.959 1382.51 115.569 1382.51 118.789C1382.51 122.009 1385.02 124.619 1388.11 124.619Z" fill="white"/>
<path d="M1426.62 124.619C1429.71 124.619 1432.22 122.009 1432.22 118.789C1432.22 115.569 1429.71 112.959 1426.62 112.959C1423.53 112.959 1421.02 115.569 1421.02 118.789C1421.02 122.009 1423.53 124.619 1426.62 124.619Z" fill="white"/>
<path d="M1465.12 124.619C1468.21 124.619 1470.72 122.009 1470.72 118.789C1470.72 115.569 1468.21 112.959 1465.12 112.959C1462.03 112.959 1459.52 115.569 1459.52 118.789C1459.52 122.009 1462.03 124.619 1465.12 124.619Z" fill="white"/>
<path d="M1272.6 162.07C1275.69 162.07 1278.2 159.46 1278.2 156.24C1278.2 153.02 1275.69 150.41 1272.6 150.41C1269.51 150.41 1267 153.02 1267 156.24C1267 159.46 1269.51 162.07 1272.6 162.07Z" fill="white"/>
<path d="M1311.11 162.07C1314.2 162.07 1316.71 159.46 1316.71 156.24C1316.71 153.02 1314.2 150.41 1311.11 150.41C1308.02 150.41 1305.51 153.02 1305.51 156.24C1305.51 159.46 1308.02 162.07 1311.11 162.07Z" fill="white"/>
<path d="M1349.61 162.07C1352.7 162.07 1355.21 159.46 1355.21 156.24C1355.21 153.02 1352.7 150.41 1349.61 150.41C1346.52 150.41 1344.01 153.02 1344.01 156.24C1344.01 159.46 1346.52 162.07 1349.61 162.07Z" fill="white"/>
<path d="M1388.11 162.07C1391.2 162.07 1393.71 159.46 1393.71 156.24C1393.71 153.02 1391.2 150.41 1388.11 150.41C1385.02 150.41 1382.51 153.02 1382.51 156.24C1382.51 159.46 1385.02 162.07 1388.11 162.07Z" fill="white"/>
<path d="M1426.62 162.07C1429.71 162.07 1432.22 159.46 1432.22 156.24C1432.22 153.02 1429.71 150.41 1426.62 150.41C1423.53 150.41 1421.02 153.02 1421.02 156.24C1421.02 159.46 1423.53 162.07 1426.62 162.07Z" fill="white"/>
<path d="M1465.12 162.07C1468.21 162.07 1470.72 159.46 1470.72 156.24C1470.72 153.02 1468.21 150.41 1465.12 150.41C1462.03 150.41 1459.52 153.02 1459.52 156.24C1459.52 159.46 1462.03 162.07 1465.12 162.07Z" fill="white"/>
<path d="M1272.6 199.519C1275.69 199.519 1278.2 196.909 1278.2 193.689C1278.2 190.47 1275.69 187.859 1272.6 187.859C1269.51 187.859 1267 190.47 1267 193.689C1267 196.909 1269.51 199.519 1272.6 199.519Z" fill="white"/>
<path d="M1311.11 199.519C1314.2 199.519 1316.71 196.909 1316.71 193.689C1316.71 190.47 1314.2 187.859 1311.11 187.859C1308.02 187.859 1305.51 190.47 1305.51 193.689C1305.51 196.909 1308.02 199.519 1311.11 199.519Z" fill="white"/>
<path d="M1349.61 199.519C1352.7 199.519 1355.21 196.909 1355.21 193.689C1355.21 190.47 1352.7 187.859 1349.61 187.859C1346.52 187.859 1344.01 190.47 1344.01 193.689C1344.01 196.909 1346.52 199.519 1349.61 199.519Z" fill="white"/>
<path d="M1388.11 199.519C1391.2 199.519 1393.71 196.909 1393.71 193.689C1393.71 190.47 1391.2 187.859 1388.11 187.859C1385.02 187.859 1382.51 190.47 1382.51 193.689C1382.51 196.909 1385.02 199.519 1388.11 199.519Z" fill="white"/>
<path d="M1426.62 199.519C1429.71 199.519 1432.22 196.909 1432.22 193.689C1432.22 190.47 1429.71 187.859 1426.62 187.859C1423.53 187.859 1421.02 190.47 1421.02 193.689C1421.02 196.909 1423.53 199.519 1426.62 199.519Z" fill="white"/>
<path d="M1465.12 199.519C1468.21 199.519 1470.72 196.909 1470.72 193.689C1470.72 190.47 1468.21 187.859 1465.12 187.859C1462.03 187.859 1459.52 190.47 1459.52 193.689C1459.52 196.909 1462.03 199.519 1465.12 199.519Z" fill="white"/>
</g>
</g>
<defs>
<clipPath id="clip0_3728_1189">
<rect width="1920" height="595.5" fill="white"/>
</clipPath>
</defs>
</svg>
