<?xml version="1.0" encoding="UTF-8"?>
<svg id="Camada_1" data-name="Camada 1" xmlns="http://www.w3.org/2000/svg" xmlns:xlink="http://www.w3.org/1999/xlink" viewBox="0 0 572.13 216.67">
  <defs>
    <style>
      .cls-1 {
        fill: #ffd000;
      }

      .cls-2 {
        fill: #d06f14;
      }

      .cls-3 {
        fill: #ffe783;
      }

      .cls-4 {
        fill: #03843c;
      }

      .cls-5 {
        fill: none;
      }

      .cls-6 {
        fill: #005529;
      }

      .cls-7 {
        clip-path: url(#clippath-1);
      }

      .cls-8 {
        fill: #f29e5a;
      }

      .cls-9 {
        clip-path: url(#clippath);
      }
    </style>
    <clipPath id="clippath">
      <circle class="cls-5" cx="90.75" cy="110.56" r="26.75"/>
    </clipPath>
    <clipPath id="clippath-1">
      <path class="cls-5" d="M56.64,111.1c-.03-.69,0-1.42,0-1.42l-29.39.62v.8c0,16.92,6.62,32.29,17.4,43.67l18.8-23.51c-4.19-5.27-6.54-12.19-6.81-20.16Z"/>
    </clipPath>
  </defs>
  <g>
    <polygon class="cls-6" points="529.89 66.66 529.89 69.1 529.89 76.36 538.54 76.36 539.6 76.36 539.6 66.66 529.89 66.66"/>
    <rect class="cls-6" x="544.82" y="72.85" width="6.94" height="6.94"/>
    <rect class="cls-6" x="547.91" y="62.59" width="4.46" height="4.46"/>
    <g>
      <path class="cls-4" d="M321.68,81.17h-3.5v6.13h3.46c1.02,0,1.8-.31,2.34-.92.54-.62.81-1.33.81-2.14,0-.76-.25-1.46-.75-2.1-.5-.64-1.28-.96-2.36-.96Z"/>
      <path class="cls-4" d="M239.43,91.47h-4.44v4.52h4.6c.86,0,1.5-.25,1.91-.75.41-.5.61-1.05.61-1.65s-.23-1.11-.69-1.51c-.46-.41-1.12-.61-1.99-.61Z"/>
      <path class="cls-4" d="M440.18,81.88c-.73-.63-1.6-.95-2.59-.95-2.41,0-3.62,1.26-3.62,3.79v7.51c0,1.29.31,2.28.92,2.96.62.68,1.54,1.03,2.77,1.03,1.13,0,2.01-.34,2.65-1.03.64-.69.96-1.62.96-2.81v-7.67c0-1.26-.37-2.21-1.1-2.85Z"/>
      <polygon class="cls-4" points="379.52 82.54 376.84 91.63 382.31 91.63 379.63 82.54 379.52 82.54"/>
      <path class="cls-4" d="M467.15,81.17h-3.5v6.13h3.46c1.02,0,1.8-.31,2.34-.92.54-.62.81-1.33.81-2.14,0-.76-.25-1.46-.75-2.1-.5-.64-1.28-.96-2.36-.96Z"/>
      <path class="cls-4" d="M211.48,81.88c-.73-.63-1.6-.95-2.59-.95-2.41,0-3.62,1.26-3.62,3.79v7.51c0,1.29.31,2.28.92,2.96.62.68,1.54,1.03,2.77,1.03,1.13,0,2.01-.34,2.65-1.03.64-.69.96-1.62.96-2.81v-7.67c0-1.26-.37-2.21-1.1-2.85Z"/>
      <path class="cls-4" d="M539.74,78.16h-11.86v-10.07c-2.03-.67-4.2-1.04-6.46-1.04h-77.15l-4.44,5.5h-3.85l2.62-5.5H174.09v20.67c0,11.41,9.25,20.67,20.67,20.67h347.32v-20.67c0-3.45-.85-6.7-2.35-9.56ZM221.47,92.18c0,2.02-.36,3.72-1.08,5.09-.72,1.38-1.67,2.5-2.85,3.36-1.18.86-2.52,1.49-4.03,1.87-1.51.38-3.03.57-4.58.57-1.63,0-3.19-.18-4.7-.53-1.51-.35-2.84-.95-3.99-1.79-1.15-.84-2.08-1.95-2.79-3.34-.71-1.39-1.06-3.12-1.06-5.19v-7.2c0-1.89.34-3.52,1.02-4.89.68-1.38,1.6-2.51,2.75-3.4,1.15-.89,2.48-1.55,3.97-1.99,1.49-.43,3.05-.65,4.68-.65s3.16.18,4.68.55c1.52.37,2.87.98,4.05,1.83,1.18.85,2.13,1.98,2.85,3.38.72,1.4,1.08,3.13,1.08,5.17v7.16ZM250.64,97.56c-.34.94-.85,1.79-1.53,2.54-.68.75-1.54,1.35-2.58,1.81-1.04.46-2.26.69-3.68.69h-16.63v-28.03h16.51c1.42,0,2.63.19,3.64.57,1.01.38,1.85.89,2.52,1.53.67.64,1.16,1.39,1.47,2.24.31.85.47,1.74.47,2.65,0,.68-.09,1.37-.28,2.06-.18.69-.46,1.34-.83,1.95-.37.6-.83,1.14-1.4,1.61-.56.47-1.23.83-1.99,1.06v.12c.79.21,1.47.52,2.06.94.59.42,1.09.91,1.49,1.47.41.56.71,1.17.92,1.83.21.66.31,1.34.31,2.04,0,1-.17,1.97-.51,2.91ZM277,97.88c-.72,1.23-1.65,2.23-2.79,2.99-1.14.76-2.41,1.32-3.81,1.67-1.4.35-2.79.53-4.15.53-1.18,0-2.31-.04-3.38-.12-1.08-.08-2.12-.23-3.13-.45-1.01-.22-2-.54-2.97-.94-.97-.41-1.94-.95-2.91-1.63l4.17-6.13c.45.34.96.68,1.53,1.02.58.34,1.19.65,1.85.92.65.28,1.33.5,2.02.67.69.17,1.38.26,2.06.26.34,0,.7-.02,1.08-.06.38-.04.73-.12,1.06-.24.33-.12.6-.28.81-.49.21-.21.31-.48.31-.83,0-.68-.24-1.14-.71-1.38s-1.05-.44-1.73-.63c-.02-.01-.03-.02-.04-.02.02.01-.07,0-.28-.06l-4.64-1.3c-1.94-.52-3.52-1.45-4.74-2.79-1.22-1.34-1.83-3.03-1.83-5.07,0-1.28.26-2.52.79-3.7.52-1.18,1.28-2.21,2.26-3.09.98-.88,2.18-1.58,3.6-2.1,1.42-.52,3-.79,4.76-.79,1.28,0,2.43.05,3.44.16,1.01.1,1.93.28,2.77.51.84.24,1.63.52,2.38.86.75.34,1.51.75,2.3,1.22l-4.64,5.78c-.37-.29-.8-.55-1.3-.79-.5-.24-1.01-.44-1.53-.61-.52-.17-1.05-.3-1.57-.39-.52-.09-1-.14-1.42-.14-.92,0-1.67.12-2.26.35-.59.24-.88.68-.88,1.34,0,.31.08.57.26.77.17.2.41.37.73.51s.69.27,1.12.37c.43.1.9.22,1.4.35l4.05,1.14c2.33.66,4.09,1.65,5.27,2.99,1.18,1.34,1.77,2.95,1.77,4.84,0,1.76-.36,3.25-1.08,4.48ZM304.15,81.4h-13.01v3.81h10.3v6.76h-10.3v3.77h13.01v6.84h-21.82v-28.03h21.82v6.84ZM324.55,102.6l-4.52-9.28h-1.85v9.28h-8.81v-28.03h13.45c1.86,0,3.46.24,4.8.73,1.34.49,2.43,1.14,3.28,1.97.85.83,1.47,1.78,1.87,2.85.39,1.08.59,2.2.59,3.38,0,1.73-.41,3.35-1.22,4.86-.81,1.51-2.08,2.68-3.81,3.52l5.9,10.73h-9.67ZM354.59,102.63h-9.28l-8.61-28.07h8.81l4.72,18.91h.16l4.95-18.91h8.18l-8.92,28.07ZM385.57,102.6l-1.34-4.48h-9.32l-1.34,4.48h-8.18l9.48-28.07h10.26l9.28,28.07h-8.85ZM421.51,81.4h-7.82v21.19h-8.89v-21.19h-7.82v-6.84h24.53v6.84ZM450.17,92.18c0,2.02-.36,3.72-1.08,5.09-.72,1.38-1.67,2.5-2.85,3.36-1.18.86-2.52,1.49-4.03,1.87-1.51.38-3.03.57-4.58.57-1.63,0-3.19-.18-4.7-.53-1.51-.35-2.84-.95-3.99-1.79-1.15-.84-2.08-1.95-2.79-3.34-.71-1.39-1.06-3.12-1.06-5.19v-7.2c0-1.89.34-3.52,1.02-4.89.68-1.38,1.6-2.51,2.75-3.4,1.15-.89,2.48-1.55,3.97-1.99,1.49-.43,3.05-.65,4.68-.65s3.16.18,4.68.55c1.52.37,2.87.98,4.05,1.83,1.18.85,2.13,1.98,2.85,3.38.72,1.4,1.08,3.13,1.08,5.17v7.16ZM470.02,102.6l-4.52-9.28h-1.85v9.28h-8.81v-28.03h13.45c1.86,0,3.46.24,4.8.73,1.34.49,2.43,1.14,3.28,1.97.85.83,1.47,1.78,1.87,2.85.39,1.08.59,2.2.59,3.38,0,1.73-.41,3.35-1.22,4.86-.81,1.51-2.08,2.68-3.81,3.52l5.9,10.73h-9.67ZM492.75,102.6h-8.81v-28.03h8.81v28.03ZM522.51,92.18c0,2.02-.36,3.72-1.08,5.09-.72,1.38-1.67,2.5-2.85,3.36-1.18.86-2.52,1.49-4.03,1.87-1.51.38-3.03.57-4.58.57-1.63,0-3.19-.18-4.7-.53-1.51-.35-2.84-.95-3.99-1.79-1.15-.84-2.08-1.95-2.79-3.34-.71-1.39-1.06-3.12-1.06-5.19v-7.2c0-1.89.34-3.52,1.02-4.89.68-1.38,1.6-2.51,2.75-3.4,1.15-.89,2.48-1.55,3.97-1.99,1.49-.43,3.05-.65,4.68-.65s3.16.18,4.68.55c1.52.37,2.87.98,4.05,1.83,1.18.85,2.13,1.98,2.85,3.38.72,1.4,1.08,3.13,1.08,5.17v7.16Z"/>
      <path class="cls-4" d="M241.48,84.61c.39-.51.59-1.07.59-1.67,0-.52-.2-.98-.61-1.38-.41-.39-1.03-.59-1.87-.59h-4.6v4.4h4.52c.92,0,1.57-.26,1.97-.77Z"/>
      <path class="cls-4" d="M512.52,81.88c-.73-.63-1.6-.95-2.59-.95-2.41,0-3.62,1.26-3.62,3.79v7.51c0,1.29.31,2.28.92,2.96.62.68,1.54,1.03,2.77,1.03,1.13,0,2.01-.34,2.65-1.03.64-.69.96-1.62.96-2.81v-7.67c0-1.26-.37-2.21-1.1-2.85Z"/>
      <path class="cls-4" d="M266.29,93.02s0,0,0,0c-.02,0-.01,0,0,0Z"/>
    </g>
  </g>
  <g>
    <path class="cls-2" d="M197.97,144.48v-1.96h-.12c-.57.75-1.25,1.33-2.03,1.72-.78.4-1.59.59-2.42.59-1.86,0-3.25-.51-4.18-1.53-.93-1.02-1.39-2.37-1.39-4.05v-5.75c0-.77.15-1.49.45-2.15s.71-1.23,1.25-1.71c.53-.47,1.17-.85,1.9-1.13.73-.28,1.53-.42,2.4-.42.67,0,1.38.12,2.12.37.74.25,1.36.66,1.85,1.23h.08l-.02-6.38h6.17v21.15h-6.05ZM197.85,134.3c0-.42-.07-.75-.21-1.01-.14-.26-.31-.46-.5-.62-.2-.16-.42-.27-.65-.33-.24-.06-.45-.09-.62-.09-.47,0-.9.19-1.29.56s-.58.98-.58,1.81v3.53c0,.71.19,1.26.58,1.63s.81.56,1.26.56c.49,0,.95-.18,1.38-.53.43-.36.64-.95.64-1.78v-3.74Z"/>
    <path class="cls-2" d="M223.36,138.25c0,1.23-.25,2.26-.74,3.1-.49.84-1.13,1.52-1.9,2.03s-1.63.88-2.58,1.11c-.95.23-1.88.34-2.79.34s-1.9-.1-2.85-.3c-.95-.2-1.8-.54-2.57-1.04-.76-.49-1.38-1.17-1.87-2.02-.49-.85-.73-1.92-.73-3.2v-3.26c0-1.23.23-2.27.68-3.14.45-.87,1.06-1.59,1.81-2.15.75-.56,1.6-.97,2.54-1.23.94-.26,1.9-.39,2.89-.39s1.91.11,2.88.34c.97.23,1.84.6,2.61,1.13.77.52,1.4,1.22,1.88,2.09.48.87.73,1.95.73,3.23v3.35ZM217.13,134.54c0-.57-.16-1.06-.49-1.45-.33-.4-.76-.59-1.29-.59-.63,0-1.09.21-1.36.62-.28.42-.42.92-.42,1.51v3.95c0,.57.14,1.03.43,1.38.29.35.75.52,1.38.52s1.08-.19,1.35-.56c.27-.38.4-.84.4-1.39v-3.98Z"/>
  </g>
  <g>
    <path class="cls-2" d="M263.83,147.62c-.84,1.37-1.94,2.48-3.29,3.34-1.35.86-2.86,1.48-4.51,1.87-1.66.38-3.3.58-4.93.58-1.84,0-3.64-.21-5.39-.64-1.75-.43-3.31-1.14-4.67-2.12-1.37-.98-2.46-2.26-3.29-3.82-.83-1.57-1.24-3.49-1.24-5.76v-9.53c0-2.09.41-3.89,1.22-5.41.81-1.52,1.9-2.77,3.25-3.75,1.35-.98,2.89-1.71,4.63-2.19,1.73-.48,3.52-.71,5.37-.71,1.63,0,3.28.19,4.95.58,1.67.38,3.19,1.01,4.56,1.89,1.37.88,2.48,2,3.34,3.39.86,1.38,1.29,3.06,1.29,5.02v2.03h-9.67v-1.06c0-.64-.12-1.2-.37-1.68-.25-.48-.56-.88-.94-1.2-.38-.32-.83-.56-1.34-.71s-1.02-.23-1.54-.23c-1.32,0-2.37.35-3.16,1.06-.78.71-1.17,1.75-1.17,3.13v9.35c0,1.38.36,2.46,1.08,3.22.72.77,1.8,1.15,3.25,1.15.52,0,1.04-.08,1.54-.23.51-.15.95-.39,1.34-.71.38-.32.7-.72.94-1.2.24-.48.37-1.04.37-1.68v-1.06h9.67v2.16c0,1.93-.42,3.59-1.27,4.95Z"/>
    <path class="cls-2" d="M278.27,142.62v.69c0,.62.15,1.13.46,1.54.31.41.7.74,1.17.99.48.25,1,.42,1.57.53.57.11,1.1.16,1.59.16.58,0,1.24-.05,1.98-.16.74-.11,1.47-.24,2.19-.39.72-.15,1.38-.31,1.98-.46.6-.15,1.04-.28,1.31-.37l1.52,6.08c-1.6.71-3.3,1.25-5.11,1.64s-3.65.58-5.53.58c-1.6,0-3.15-.18-4.67-.53-1.51-.35-2.87-.94-4.06-1.75-1.19-.81-2.15-1.87-2.89-3.18-.73-1.3-1.1-2.91-1.1-4.81v-4.38c0-2.03.38-3.76,1.13-5.2.75-1.44,1.73-2.62,2.95-3.52,1.21-.91,2.58-1.57,4.1-2s3.05-.64,4.58-.64,2.89.22,4.26.67,2.57,1.11,3.62,1.98c1.04.88,1.87,1.96,2.49,3.25.61,1.29.92,2.79.92,4.51v4.79h-14.46ZM283.93,136.72c0-.92-.26-1.63-.79-2.12-.53-.49-1.22-.74-2.09-.74s-1.51.26-2.02.78c-.51.52-.77,1.21-.77,2.07v.97h5.67v-.97Z"/>
    <path class="cls-2" d="M312.72,152.84v-14.6c0-.34-.03-.72-.09-1.15-.06-.43-.2-.83-.41-1.2-.22-.37-.52-.68-.92-.92-.4-.24-.94-.37-1.61-.37-.74,0-1.41.35-2.03,1.04s-.92,1.73-.92,3.11v14.1h-9.58v-24.87h9.4v3.22h.09c1.04-1.32,2.22-2.28,3.52-2.88,1.3-.6,2.8-.9,4.49-.9.83,0,1.7.12,2.6.37s1.73.64,2.49,1.2c.75.55,1.37,1.28,1.84,2.19.48.91.71,2,.71,3.29v18.38h-9.58Z"/>
    <path class="cls-2" d="M349.8,144.55c0,1.6-.37,2.96-1.11,4.08-.74,1.12-1.68,2.04-2.83,2.74s-2.43,1.22-3.85,1.54c-1.41.32-2.78.48-4.1.48-1.14,0-2.2-.03-3.2-.09s-1.98-.19-2.95-.39c-.97-.2-1.93-.48-2.9-.85s-1.96-.88-2.97-1.52l3.96-6.08c.95.68,2.09,1.29,3.43,1.84s2.65.83,3.94.83c.31,0,.63,0,.97-.02.34-.02.64-.06.92-.14.28-.08.51-.19.69-.35.18-.15.28-.37.28-.64,0-.49-.2-.83-.6-1.01-.4-.18-.78-.32-1.15-.41-.15-.03-.28-.05-.39-.07-.11-.02-.22-.04-.35-.07l-4.7-1.34c-1.93-.55-3.43-1.37-4.49-2.44s-1.59-2.53-1.59-4.38c0-1.17.24-2.28.74-3.34.49-1.06,1.21-2,2.16-2.81.95-.81,2.11-1.47,3.48-1.96,1.37-.49,2.93-.74,4.68-.74,1.26,0,2.36.05,3.32.14.95.09,1.84.25,2.67.46.83.22,1.62.48,2.37.81.75.32,1.57.71,2.46,1.17l-4.61,5.57c-.89-.61-1.88-1.07-2.97-1.38-1.09-.31-2.02-.46-2.79-.46-1.84,0-2.76.41-2.76,1.24,0,.28.06.48.18.62.12.14.31.25.55.35.4.15.81.25,1.22.3.41.05.82.12,1.22.21l3.96,1.01c2.3.61,4.06,1.53,5.27,2.74,1.21,1.21,1.82,2.66,1.82,4.35Z"/>
    <path class="cls-2" d="M378.08,143.17c0,1.9-.38,3.51-1.15,4.81-.77,1.31-1.75,2.36-2.95,3.16-1.2.8-2.53,1.37-4.01,1.73-1.47.35-2.92.53-4.33.53s-2.95-.15-4.42-.46c-1.47-.31-2.8-.84-3.98-1.61-1.18-.77-2.15-1.81-2.9-3.13-.75-1.32-1.13-2.98-1.13-4.98v-5.07c0-1.9.35-3.53,1.06-4.88.71-1.35,1.64-2.46,2.81-3.34,1.17-.87,2.48-1.51,3.94-1.91,1.46-.4,2.96-.6,4.49-.6s2.96.18,4.47.53c1.5.35,2.86.94,4.05,1.75,1.2.81,2.17,1.9,2.92,3.25s1.13,3.02,1.13,5.02v5.2ZM368.41,137.41c0-.89-.25-1.64-.76-2.26-.51-.61-1.17-.92-2-.92-.98,0-1.69.32-2.12.97-.43.64-.64,1.43-.64,2.35v6.13c0,.89.22,1.61.67,2.14.44.54,1.16.81,2.14.81s1.68-.29,2.1-.87c.41-.58.62-1.31.62-2.16v-6.17Z"/>
    <path class="cls-2" d="M421.01,142.07c0,2.06-.42,3.81-1.27,5.25-.84,1.44-1.93,2.61-3.27,3.5-1.34.89-2.83,1.54-4.47,1.96-1.64.41-3.26.62-4.86.62-1.38,0-2.7-.05-3.96-.14-1.26-.09-2.48-.27-3.66-.53-1.18-.26-2.34-.63-3.48-1.11-1.14-.48-2.27-1.11-3.41-1.91l4.88-7.19c.52.4,1.12.8,1.8,1.2.68.4,1.4.76,2.16,1.08.77.32,1.56.58,2.37.78.81.2,1.62.3,2.42.3.4,0,.82-.02,1.27-.07.45-.05.86-.14,1.24-.28.38-.14.7-.33.94-.58s.37-.57.37-.97c0-.8-.28-1.34-.83-1.61s-1.23-.52-2.03-.74c-.06-.03-.08-.04-.05-.02.03.02-.08,0-.32-.07l-5.44-1.52c-2.27-.61-4.12-1.7-5.55-3.27-1.43-1.57-2.14-3.55-2.14-5.94,0-1.5.31-2.95.92-4.33.61-1.38,1.5-2.59,2.65-3.62s2.56-1.85,4.21-2.46c1.66-.61,3.52-.92,5.57-.92,1.5,0,2.85.06,4.03.18,1.18.12,2.26.32,3.25.6s1.91.61,2.79,1.01c.88.4,1.77.88,2.69,1.43l-5.43,6.77c-.43-.34-.94-.64-1.52-.92-.58-.28-1.18-.51-1.8-.71-.62-.2-1.23-.35-1.84-.46-.61-.11-1.17-.16-1.66-.16-1.07,0-1.96.14-2.65.41-.69.28-1.04.8-1.04,1.57,0,.37.1.67.3.9.2.23.48.43.85.6.37.17.81.32,1.31.44.51.12,1.05.26,1.64.41l4.74,1.34c2.73.77,4.79,1.93,6.17,3.5,1.38,1.57,2.07,3.46,2.07,5.67Z"/>
    <path class="cls-2" d="M452.89,146.3c-.8,1.6-1.88,2.92-3.25,3.98s-2.94,1.85-4.72,2.37c-1.78.52-3.64.78-5.57.78-4.48,0-7.98-1.01-10.48-3.04-2.5-2.03-3.75-5.19-3.75-9.49v-20.91h10.32v20.54c0,1.66.42,2.89,1.27,3.68.84.8,1.91,1.2,3.2,1.2s2.23-.42,3.02-1.27c.78-.84,1.17-2.05,1.17-3.62v-20.54h10v20.68c0,2.15-.4,4.02-1.2,5.62Z"/>
    <path class="cls-2" d="M481.12,152.84l-1.57-5.25h-10.92l-1.57,5.25h-9.58l11.1-32.89h12.02l10.87,32.89h-10.36ZM474.17,129.35h-.14l-3.13,10.64h6.4l-3.13-10.64Z"/>
    <path class="cls-2" d="M521.33,142.07c0,2.06-.42,3.81-1.27,5.25-.84,1.44-1.93,2.61-3.27,3.5-1.34.89-2.83,1.54-4.47,1.96-1.64.41-3.26.62-4.86.62-1.38,0-2.7-.05-3.96-.14-1.26-.09-2.48-.27-3.66-.53-1.18-.26-2.34-.63-3.48-1.11-1.14-.48-2.27-1.11-3.41-1.91l4.88-7.19c.52.4,1.12.8,1.8,1.2.68.4,1.4.76,2.16,1.08.77.32,1.56.58,2.37.78.81.2,1.62.3,2.42.3.4,0,.82-.02,1.27-.07.45-.05.86-.14,1.24-.28.38-.14.7-.33.94-.58s.37-.57.37-.97c0-.8-.28-1.34-.83-1.61s-1.23-.52-2.03-.74c-.06-.03-.08-.04-.05-.02.03.02-.08,0-.32-.07l-5.44-1.52c-2.27-.61-4.12-1.7-5.55-3.27-1.43-1.57-2.14-3.55-2.14-5.94,0-1.5.31-2.95.92-4.33.61-1.38,1.5-2.59,2.65-3.62s2.56-1.85,4.21-2.46c1.66-.61,3.52-.92,5.57-.92,1.5,0,2.85.06,4.03.18,1.18.12,2.26.32,3.25.6s1.91.61,2.79,1.01c.88.4,1.77.88,2.69,1.43l-5.43,6.77c-.43-.34-.94-.64-1.52-.92-.58-.28-1.18-.51-1.8-.71-.62-.2-1.23-.35-1.84-.46-.61-.11-1.17-.16-1.66-.16-1.07,0-1.96.14-2.65.41-.69.28-1.04.8-1.04,1.57,0,.37.1.67.3.9.2.23.48.43.85.6.37.17.81.32,1.31.44.51.12,1.05.26,1.64.41l4.74,1.34c2.73.77,4.79,1.93,6.17,3.5,1.38,1.57,2.07,3.46,2.07,5.67Z"/>
  </g>
  <g>
    <g class="cls-9">
      <g>
        <path class="cls-1" d="M97.54,96.97c-.2,3.38,2.38,6.29,5.77,6.49,3.39.2,6.29-2.38,6.49-5.77.2-3.38-2.38-6.29-5.77-6.49-3.38-.2-6.29,2.38-6.49,5.77"/>
        <path class="cls-1" d="M105.81,146.68c3.52-1.65-4.99-28.09.4-32.88,11.68-10.38,22.11-16.43,21.69-17.99-.62-2.29-14.87,11.92-25.84,9.27-7.31-1.76-15.45-23.3-16.3-23.35-2.52-.15,6.34,18.2,4.84,29.09-1.5,10.89-17.44,23.53-14.75,26.25,2.69,2.72,14.29-12.73,18.11-12.23,9.76,1.27,8.32,23.49,11.84,21.84"/>
        <path class="cls-2" d="M71.7,95.45c-.2,3.38-3.11,5.97-6.49,5.77-3.39-.2-5.97-3.11-5.77-6.49s3.1-5.97,6.49-5.77c3.38.2,5.97,3.11,5.77,6.49"/>
        <path class="cls-2" d="M57.65,143.84c-3.3-2.05,8.26-27.31,3.46-32.7-10.38-11.68-20.03-18.91-19.43-20.41.88-2.2,13.37,13.58,24.57,12.24,7.47-.89,18.08-21.32,18.93-21.27,2.52.15-8.43,17.33-8.23,28.32.21,10.99,14.56,25.41,11.57,27.8-2.99,2.39-12.7-14.32-16.55-14.28-9.84.12-11.02,22.35-14.33,20.3"/>
      </g>
    </g>
    <path class="cls-4" d="M90.79,81.69c-16.16,0-29.31,13.15-29.31,29.31,0,.03,0,.06,0,.09.02,7.33,2.71,14.22,7.63,19.6l-20.83,27.4-.09.12-6.55,8.61c-.68.9-.97,2.01-.82,3.12.15,1.12.73,2.11,1.63,2.79.74.56,1.62.86,2.55.86,1.33,0,2.55-.61,3.36-1.66l6.45-8.49.09-.12,20.72-27.26c4.58,2.79,9.78,4.25,15.18,4.25,16.13,0,29.26-13.1,29.31-29.22,0-.03,0-.06,0-.09,0-16.16-13.15-29.31-29.31-29.31ZM90.79,131.89c-11.48,0-20.83-9.32-20.88-20.79,0-.03,0-.06,0-.09,0-11.51,9.37-20.88,20.88-20.88s20.88,9.37,20.88,20.88c0,.03,0,.06,0,.09-.05,11.47-9.4,20.79-20.88,20.79Z"/>
    <path class="cls-2" d="M86.16,47.74c-4.97.36-9.77,1.29-14.35,2.73v5.44h-8.38v-2.14c-8.96,4.29-16.75,10.6-22.78,18.37h1.85v5.78h-5.78v-.09c-1.58,2.58-3,5.27-4.21,8.07h7.1v13.11h-11.12c-.38,2-.68,4.04-.87,6.1h29.36c2.54-14.65,14.35-26.11,29.18-28.11l2.11-.22v-29.14l-2.11.1ZM61.83,79.72h-13.11v-13.11h13.11v13.11Z"/>
    <path class="cls-6" d="M154.24,111c0-.53,0-1.07-.02-1.6,0-.18-.01-.36-.02-.54-.01-.35-.02-.7-.04-1.05-.01-.22-.03-.43-.04-.65-.02-.31-.04-.62-.06-.93-.02-.23-.04-.46-.06-.7-.02-.29-.05-.58-.08-.87-.02-.24-.05-.48-.08-.72-.03-.28-.06-.56-.1-.84-.03-.25-.07-.49-.1-.74-.04-.27-.07-.54-.11-.8-.04-.25-.08-.5-.12-.76-.04-.26-.08-.52-.13-.78-.04-.26-.09-.51-.14-.77-.05-.25-.09-.5-.14-.75-.05-.26-.11-.52-.16-.79-.05-.24-.1-.48-.16-.72-.06-.27-.12-.53-.19-.8-.05-.23-.11-.46-.17-.69-.07-.27-.14-.54-.21-.81-.06-.22-.12-.43-.18-.65-.08-.28-.16-.56-.24-.84-.06-.2-.12-.41-.18-.61-.09-.29-.18-.57-.27-.86-.06-.19-.12-.38-.18-.57-.1-.3-.2-.59-.3-.89-.06-.17-.12-.34-.18-.51-.11-.31-.22-.62-.34-.93-.06-.15-.11-.3-.17-.45-.12-.33-.25-.65-.38-.97-.05-.12-.1-.24-.15-.37-.14-.35-.29-.7-.43-1.04-.04-.08-.07-.17-.11-.25-.17-.38-.33-.76-.51-1.14-.01-.03-.03-.06-.04-.09-9.42-20.49-29.45-35.09-53.05-36.8l-2.11-.1v29.2c.69.01,1.39.07,2.05.15l.23.03h0c1.84.24,3.32.64,3.32.64h0c15.03,3.65,26.2,17.18,26.2,33.33,0,.03,0,.06,0,.09-.05,18.91-15.39,34.22-34.31,34.22-4.97,0-9.7-1.06-13.96-2.96l-17.69,23.64c1.05.6,2.11,1.18,3.19,1.72.1.05.19.1.29.14.5.25,1,.49,1.51.72.09.04.17.08.26.12,1.16.53,2.35,1.03,3.55,1.5.12.05.25.09.37.14.49.19.99.37,1.48.54.12.04.24.08.36.13,1.2.41,2.42.79,3.66,1.13.15.04.31.08.46.12.48.13.96.25,1.45.37.15.04.31.08.46.11.62.15,1.25.29,1.88.42,0,0,.01,0,.02,0,.61.12,1.23.24,1.84.34.18.03.36.06.54.09.47.08.94.15,1.42.22.18.03.36.05.55.08.63.08,1.27.16,1.91.23.02,0,.05,0,.07,0,.61.06,1.23.11,1.85.16.2.01.4.03.6.04.47.03.94.05,1.41.07.2,0,.4.02.6.02.63.02,1.27.03,1.9.03.02,0,.03,0,.05,0,18.47,0,35.1-7.89,46.69-20.49.07-.08.14-.15.21-.23-.07.07-.14.15-.21.22.07-.08.15-.15.22-.23.23-.25.45-.51.68-.76.1-.12.21-.24.32-.36.21-.24.41-.49.62-.73.12-.14.23-.27.35-.41.2-.24.39-.48.59-.72.12-.15.24-.29.35-.44.19-.24.37-.48.56-.72.12-.16.24-.31.36-.47.18-.24.36-.48.53-.73.12-.16.24-.32.35-.48.17-.24.34-.49.51-.73.12-.17.23-.33.35-.5.17-.24.33-.49.49-.74.11-.17.23-.34.34-.51.16-.25.32-.5.47-.75.11-.17.22-.35.33-.52.15-.25.31-.5.46-.76.11-.18.21-.35.32-.53.15-.25.29-.51.44-.77.1-.18.2-.36.3-.54.14-.26.28-.52.42-.78.1-.18.19-.37.29-.55.14-.26.27-.53.4-.79.09-.19.19-.37.28-.56.13-.27.26-.53.38-.8.09-.19.18-.37.26-.56.12-.27.25-.54.37-.81.08-.19.17-.38.25-.57.12-.27.23-.55.35-.82.08-.19.16-.38.23-.57.11-.28.22-.56.33-.84.07-.19.15-.38.22-.58.11-.28.21-.57.31-.85.07-.19.14-.38.2-.58.1-.29.2-.58.3-.87.06-.19.13-.39.19-.58.09-.29.19-.59.28-.88.06-.19.11-.38.17-.58.09-.3.18-.6.26-.9.05-.19.1-.38.15-.57.08-.31.16-.61.24-.92.05-.19.09-.38.14-.57.08-.31.15-.62.22-.94.04-.18.08-.37.12-.55.07-.32.14-.64.2-.96.04-.18.07-.36.1-.54.06-.33.13-.66.19-.99.03-.17.06-.34.08-.51.06-.34.12-.69.17-1.03.02-.15.04-.3.06-.46.05-.37.1-.73.15-1.1.01-.12.03-.24.04-.35.05-.4.1-.81.14-1.21,0-.05,0-.11.01-.16.2-2.02.3-4.06.3-6.13,0-.03,0-.06,0-.09h0s0,0,0,0Z"/>
    <g class="cls-7">
      <g>
        <g>
          <path class="cls-3" d="M38.57,104.42c2.37-1.23,4.75-2.46,7.11-3.7.46-.24.8-.24,1.11.22,2.74,3.98,4.35,8.27,3.74,13.19-.07.53-.31.85-.79,1.1-3.56,1.83-7.11,3.67-10.64,5.54-.55.29-.83.21-1.15-.32-1.6-2.66-3.23-5.3-4.85-7.95-.65-1.07-1.29-2.15-1.96-3.22-.41-.65-.39-.79.31-1.15,2.37-1.24,4.74-2.47,7.12-3.7Z"/>
          <path class="cls-1" d="M57.27,130.25c-1.97,1.02-3.94,2.03-5.89,3.07-.56.3-.88.25-1.18-.36-.68-1.37-1.45-2.69-1.77-4.22-.49-2.34.1-4.54.86-6.7.57-1.61,1.22-3.19,1.82-4.8.16-.43.41-.73.82-.95,2.94-1.52,5.88-3.04,8.81-4.58.53-.28.76-.21.86.41.45,2.79.93,5.58,1.39,8.37.29,1.73.52,3.48.86,5.2.16.81-.12,1.21-.81,1.56-1.94.97-3.86,1.99-5.78,2.99Z"/>
          <path class="cls-1" d="M37.69,142.24c1.4-.73,2.82-1.42,4.19-2.2.63-.36.97-.24,1.41.31,2.45,3.13,4.93,6.23,7.41,9.33.31.39.65.77.97,1.15.32.37.25.63-.19.85-.94.47-1.87.97-2.8,1.45-1.91.99-3.82,1.97-5.71,2.98-.51.27-.83.25-1.22-.22-2.8-3.4-5.64-6.77-8.46-10.16-.7-.84-.69-.85.26-1.35,1.38-.72,2.76-1.43,4.14-2.15Z"/>
          <path class="cls-1" d="M36.91,140.74c-1.44.75-2.88,1.5-4.32,2.24-.72.37-.82.33-.95-.49-.43-2.57-.85-5.13-1.27-7.7-.33-2-.63-4.01-.98-6.01-.08-.48,0-.76.45-.99,2.46-1.26,4.91-2.53,7.36-3.82.5-.26.73-.18.88.37.52,1.94,1.06,3.87,1.6,5.81.68,2.42,1.34,4.84,2.05,7.24.17.58.02.87-.5,1.13-1.45.72-2.88,1.49-4.32,2.23Z"/>
          <path class="cls-1" d="M24.65,111.66c1.26-.65,2.52-1.29,3.76-1.97.5-.27.82-.22,1.12.29,1.04,1.74,2.1,3.47,3.16,5.2,1.17,1.91,2.33,3.81,3.52,5.7.61.96.61,1.04-.4,1.57-2.27,1.18-4.55,2.34-6.8,3.55-.56.3-.82.17-1.15-.34-1.55-2.39-3.13-4.77-4.7-7.14-.88-1.33-1.78-2.65-2.69-3.96-.33-.47-.12-.69.29-.9,1.3-.67,2.59-1.35,3.89-2.02Z"/>
          <path class="cls-3" d="M44.28,120.29c1.46-.76,2.92-1.52,4.38-2.27.17-.09.37-.29.56-.13.22.19.03.42-.06.63-.79,1.88-1.49,3.78-1.99,5.75-.68,2.69-.27,5.25.92,7.72.29.6.59,1.19.91,1.76.24.43.18.71-.27.94-1.53.78-3.04,1.58-4.56,2.37-.39.2-.67.21-.81-.32-.97-3.47-1.96-6.94-2.93-10.41-.3-1.08-.53-2.17-.94-3.22-.16-.41.18-.41.36-.51,1.47-.78,2.96-1.55,4.44-2.31Z"/>
          <path class="cls-1" d="M56.33,111.8c-1.17.61-2.35,1.22-3.52,1.83-.67.35-.83.27-.75-.46.23-2.31-.16-4.54-.87-6.73-.7-2.14-1.62-4.16-3.04-5.93-.52-.65-.48-.8.24-1.18,1.01-.53,2.02-1.06,3.04-1.58.9-.47.92-.46,1.47.36,1.11,1.67,2.23,3.34,3.34,5.01,1.29,1.94,2.55,3.89,3.86,5.81.39.58.25.84-.34,1.11-1.15.55-2.27,1.17-3.41,1.76Z"/>
        </g>
        <path class="cls-3" d="M57.06,148.79c.77-.4,1.54-.8,2.31-1.2.89-.46,1.07-.56.71-1.05h0s-.01-.01-.01-.01c-.1-.14-.24-.3-.42-.52-.13-.16-.26-.28-.39-.37l-6.5-7.07s-.03-.05-.06-.08c-.72-.76-1.43-1.54-2.14-2.31-.26-.29-.53-.38-.9-.18-1.59.84-3.2,1.67-4.8,2.5-.45.23-.46.47-.15.85,2.83,3.52,5.65,7.05,8.46,10.58.34.42.65.56,1.16.28.89-.5,1.82-.96,2.73-1.43Z"/>
        <path class="cls-1" d="M62.43,146c1.73-.92,3.48-1.82,5.23-2.73.15-.08.35-.11.41-.37h0l-4.34-13.94s-.06-.21-.14-.18c-1.01.52-2.01,1.05-3.02,1.57-2.8,1.45-5.59,2.9-8.39,4.36-.66.35-.69.44-.19.99.56.63,1.16,1.23,1.72,1.86.01.02.03.02.04.04l7.32,7.92c.08.09.17.18.24.28.06.07.11.12.17.17l.05.06h0c.26.2.54.17.9-.02Z"/>
      </g>
    </g>
    <g>
      <rect class="cls-8" x="33.03" y="57.19" width="8.62" height="8.62"/>
      <rect class="cls-8" x="33.98" y="47.18" width="4.55" height="4.55"/>
      <rect class="cls-8" x="64.73" y="48.84" width="5.78" height="5.78"/>
      <rect class="cls-8" x="19.76" y="70.95" width="11.46" height="11.46"/>
      <rect class="cls-8" x="44.43" y="42.21" width="11.72" height="11.72"/>
      <rect class="cls-8" x="28.38" y="87.78" width="9.36" height="9.36"/>
      <rect class="cls-8" x="37.78" y="73.2" width="3.68" height="3.68"/>
      <rect class="cls-8" x="50.44" y="68.33" width="9.68" height="9.68"/>
    </g>
  </g>
</svg>